<?xml version="1.0" encoding="utf-8"?>
<svg xmlns="http://www.w3.org/2000/svg" xmlns:xlink="http://www.w3.org/1999/xlink" width="560" height="420" viewBox="0 0 2240 1680">
<defs>
  <clipPath id="clip810">
    <rect x="0" y="0" width="2240" height="1680"/>
  </clipPath>
</defs>
<path clip-path="url(#clip810)" d="M0 1680 L2240 1680 L2240 0 L0 0  Z" fill="#ffffff" fill-rule="evenodd" fill-opacity="1"/>
<defs>
  <clipPath id="clip811">
    <rect x="223" y="189" width="1582" height="1161"/>
  </clipPath>
</defs>
<path clip-path="url(#clip810)" d="M223.72 1349.83 L1804.94 1349.83 L1804.94 189.533 L223.72 189.533  Z" fill="#ffffff" fill-rule="evenodd" fill-opacity="1"/>
<polyline clip-path="url(#clip811)" style="stroke:#000000; stroke-linecap:round; stroke-linejoin:round; stroke-width:2; stroke-opacity:0.1; fill:none" points="467.02,1349.83 467.02,189.533 "/>
<polyline clip-path="url(#clip811)" style="stroke:#000000; stroke-linecap:round; stroke-linejoin:round; stroke-width:2; stroke-opacity:0.1; fill:none" points="740.675,1349.83 740.675,189.533 "/>
<polyline clip-path="url(#clip811)" style="stroke:#000000; stroke-linecap:round; stroke-linejoin:round; stroke-width:2; stroke-opacity:0.1; fill:none" points="1014.33,1349.83 1014.33,189.533 "/>
<polyline clip-path="url(#clip811)" style="stroke:#000000; stroke-linecap:round; stroke-linejoin:round; stroke-width:2; stroke-opacity:0.1; fill:none" points="1287.99,1349.83 1287.99,189.533 "/>
<polyline clip-path="url(#clip811)" style="stroke:#000000; stroke-linecap:round; stroke-linejoin:round; stroke-width:2; stroke-opacity:0.1; fill:none" points="1561.64,1349.83 1561.64,189.533 "/>
<polyline clip-path="url(#clip811)" style="stroke:#000000; stroke-linecap:round; stroke-linejoin:round; stroke-width:2; stroke-opacity:0.1; fill:none" points="467.02,1349.83 467.02,189.533 "/>
<polyline clip-path="url(#clip811)" style="stroke:#000000; stroke-linecap:round; stroke-linejoin:round; stroke-width:2; stroke-opacity:0.1; fill:none" points="740.675,1349.83 740.675,189.533 "/>
<polyline clip-path="url(#clip811)" style="stroke:#000000; stroke-linecap:round; stroke-linejoin:round; stroke-width:2; stroke-opacity:0.1; fill:none" points="1014.33,1349.83 1014.33,189.533 "/>
<polyline clip-path="url(#clip811)" style="stroke:#000000; stroke-linecap:round; stroke-linejoin:round; stroke-width:2; stroke-opacity:0.1; fill:none" points="1287.99,1349.83 1287.99,189.533 "/>
<polyline clip-path="url(#clip811)" style="stroke:#000000; stroke-linecap:round; stroke-linejoin:round; stroke-width:2; stroke-opacity:0.1; fill:none" points="1561.64,1349.83 1561.64,189.533 "/>
<polyline clip-path="url(#clip811)" style="stroke:#000000; stroke-linecap:round; stroke-linejoin:round; stroke-width:2; stroke-opacity:0.1; fill:none" points="223.72,1316.99 1804.94,1316.99 "/>
<polyline clip-path="url(#clip811)" style="stroke:#000000; stroke-linecap:round; stroke-linejoin:round; stroke-width:2; stroke-opacity:0.1; fill:none" points="223.72,1043.34 1804.94,1043.34 "/>
<polyline clip-path="url(#clip811)" style="stroke:#000000; stroke-linecap:round; stroke-linejoin:round; stroke-width:2; stroke-opacity:0.1; fill:none" points="223.72,769.682 1804.94,769.682 "/>
<polyline clip-path="url(#clip811)" style="stroke:#000000; stroke-linecap:round; stroke-linejoin:round; stroke-width:2; stroke-opacity:0.1; fill:none" points="223.72,496.027 1804.94,496.027 "/>
<polyline clip-path="url(#clip811)" style="stroke:#000000; stroke-linecap:round; stroke-linejoin:round; stroke-width:2; stroke-opacity:0.1; fill:none" points="223.72,222.372 1804.94,222.372 "/>
<polyline clip-path="url(#clip811)" style="stroke:#000000; stroke-linecap:round; stroke-linejoin:round; stroke-width:2; stroke-opacity:0.1; fill:none" points="223.72,1316.99 1804.94,1316.99 "/>
<polyline clip-path="url(#clip811)" style="stroke:#000000; stroke-linecap:round; stroke-linejoin:round; stroke-width:2; stroke-opacity:0.1; fill:none" points="223.72,1043.34 1804.94,1043.34 "/>
<polyline clip-path="url(#clip811)" style="stroke:#000000; stroke-linecap:round; stroke-linejoin:round; stroke-width:2; stroke-opacity:0.1; fill:none" points="223.72,769.682 1804.94,769.682 "/>
<polyline clip-path="url(#clip811)" style="stroke:#000000; stroke-linecap:round; stroke-linejoin:round; stroke-width:2; stroke-opacity:0.1; fill:none" points="223.72,496.027 1804.94,496.027 "/>
<polyline clip-path="url(#clip811)" style="stroke:#000000; stroke-linecap:round; stroke-linejoin:round; stroke-width:2; stroke-opacity:0.1; fill:none" points="223.72,222.372 1804.94,222.372 "/>
<polyline clip-path="url(#clip810)" style="stroke:#000000; stroke-linecap:round; stroke-linejoin:round; stroke-width:4; stroke-opacity:1; fill:none" points="223.72,1349.83 1804.94,1349.83 "/>
<polyline clip-path="url(#clip810)" style="stroke:#000000; stroke-linecap:round; stroke-linejoin:round; stroke-width:4; stroke-opacity:1; fill:none" points="223.72,189.533 1804.94,189.533 "/>
<polyline clip-path="url(#clip810)" style="stroke:#000000; stroke-linecap:round; stroke-linejoin:round; stroke-width:4; stroke-opacity:1; fill:none" points="467.02,1349.83 467.02,1334.66 "/>
<polyline clip-path="url(#clip810)" style="stroke:#000000; stroke-linecap:round; stroke-linejoin:round; stroke-width:4; stroke-opacity:1; fill:none" points="740.675,1349.83 740.675,1334.66 "/>
<polyline clip-path="url(#clip810)" style="stroke:#000000; stroke-linecap:round; stroke-linejoin:round; stroke-width:4; stroke-opacity:1; fill:none" points="1014.33,1349.83 1014.33,1334.66 "/>
<polyline clip-path="url(#clip810)" style="stroke:#000000; stroke-linecap:round; stroke-linejoin:round; stroke-width:4; stroke-opacity:1; fill:none" points="1287.99,1349.83 1287.99,1334.66 "/>
<polyline clip-path="url(#clip810)" style="stroke:#000000; stroke-linecap:round; stroke-linejoin:round; stroke-width:4; stroke-opacity:1; fill:none" points="1561.64,1349.83 1561.64,1334.66 "/>
<polyline clip-path="url(#clip810)" style="stroke:#000000; stroke-linecap:round; stroke-linejoin:round; stroke-width:4; stroke-opacity:1; fill:none" points="467.02,189.533 467.02,204.709 "/>
<polyline clip-path="url(#clip810)" style="stroke:#000000; stroke-linecap:round; stroke-linejoin:round; stroke-width:4; stroke-opacity:1; fill:none" points="740.675,189.533 740.675,204.709 "/>
<polyline clip-path="url(#clip810)" style="stroke:#000000; stroke-linecap:round; stroke-linejoin:round; stroke-width:4; stroke-opacity:1; fill:none" points="1014.33,189.533 1014.33,204.709 "/>
<polyline clip-path="url(#clip810)" style="stroke:#000000; stroke-linecap:round; stroke-linejoin:round; stroke-width:4; stroke-opacity:1; fill:none" points="1287.99,189.533 1287.99,204.709 "/>
<polyline clip-path="url(#clip810)" style="stroke:#000000; stroke-linecap:round; stroke-linejoin:round; stroke-width:4; stroke-opacity:1; fill:none" points="1561.64,189.533 1561.64,204.709 "/>
<path clip-path="url(#clip810)" d="M444.405 1379.47 Q440.794 1379.47 438.965 1383.03 Q437.159 1386.58 437.159 1393.71 Q437.159 1400.81 438.965 1404.38 Q440.794 1407.92 444.405 1407.92 Q448.039 1407.92 449.844 1404.38 Q451.673 1400.81 451.673 1393.71 Q451.673 1386.58 449.844 1383.03 Q448.039 1379.47 444.405 1379.47 M444.405 1375.77 Q450.215 1375.77 453.27 1380.37 Q456.349 1384.96 456.349 1393.71 Q456.349 1402.43 453.27 1407.04 Q450.215 1411.62 444.405 1411.62 Q438.595 1411.62 435.516 1407.04 Q432.46 1402.43 432.46 1393.71 Q432.46 1384.96 435.516 1380.37 Q438.595 1375.77 444.405 1375.77 Z" fill="#000000" fill-rule="nonzero" fill-opacity="1" /><path clip-path="url(#clip810)" d="M464.567 1405.07 L469.451 1405.07 L469.451 1410.95 L464.567 1410.95 L464.567 1405.07 Z" fill="#000000" fill-rule="nonzero" fill-opacity="1" /><path clip-path="url(#clip810)" d="M489.636 1379.47 Q486.025 1379.47 484.196 1383.03 Q482.391 1386.58 482.391 1393.71 Q482.391 1400.81 484.196 1404.38 Q486.025 1407.92 489.636 1407.92 Q493.27 1407.92 495.076 1404.38 Q496.904 1400.81 496.904 1393.71 Q496.904 1386.58 495.076 1383.03 Q493.27 1379.47 489.636 1379.47 M489.636 1375.77 Q495.446 1375.77 498.502 1380.37 Q501.58 1384.96 501.58 1393.71 Q501.58 1402.43 498.502 1407.04 Q495.446 1411.62 489.636 1411.62 Q483.826 1411.62 480.747 1407.04 Q477.692 1402.43 477.692 1393.71 Q477.692 1384.96 480.747 1380.37 Q483.826 1375.77 489.636 1375.77 Z" fill="#000000" fill-rule="nonzero" fill-opacity="1" /><path clip-path="url(#clip810)" d="M718.557 1379.47 Q714.946 1379.47 713.118 1383.03 Q711.312 1386.58 711.312 1393.71 Q711.312 1400.81 713.118 1404.38 Q714.946 1407.92 718.557 1407.92 Q722.192 1407.92 723.997 1404.38 Q725.826 1400.81 725.826 1393.71 Q725.826 1386.58 723.997 1383.03 Q722.192 1379.47 718.557 1379.47 M718.557 1375.77 Q724.368 1375.77 727.423 1380.37 Q730.502 1384.96 730.502 1393.71 Q730.502 1402.43 727.423 1407.04 Q724.368 1411.62 718.557 1411.62 Q712.747 1411.62 709.669 1407.04 Q706.613 1402.43 706.613 1393.71 Q706.613 1384.96 709.669 1380.37 Q712.747 1375.77 718.557 1375.77 Z" fill="#000000" fill-rule="nonzero" fill-opacity="1" /><path clip-path="url(#clip810)" d="M738.719 1405.07 L743.604 1405.07 L743.604 1410.95 L738.719 1410.95 L738.719 1405.07 Z" fill="#000000" fill-rule="nonzero" fill-opacity="1" /><path clip-path="url(#clip810)" d="M753.835 1376.39 L772.191 1376.39 L772.191 1380.33 L758.117 1380.33 L758.117 1388.8 Q759.136 1388.45 760.154 1388.29 Q761.173 1388.1 762.191 1388.1 Q767.978 1388.1 771.358 1391.27 Q774.738 1394.45 774.738 1399.86 Q774.738 1405.44 771.265 1408.54 Q767.793 1411.62 761.474 1411.62 Q759.298 1411.62 757.029 1411.25 Q754.784 1410.88 752.377 1410.14 L752.377 1405.44 Q754.46 1406.58 756.682 1407.13 Q758.904 1407.69 761.381 1407.69 Q765.386 1407.69 767.724 1405.58 Q770.062 1403.47 770.062 1399.86 Q770.062 1396.25 767.724 1394.15 Q765.386 1392.04 761.381 1392.04 Q759.506 1392.04 757.631 1392.46 Q755.779 1392.87 753.835 1393.75 L753.835 1376.39 Z" fill="#000000" fill-rule="nonzero" fill-opacity="1" /><path clip-path="url(#clip810)" d="M981.483 1407.02 L989.122 1407.02 L989.122 1380.65 L980.812 1382.32 L980.812 1378.06 L989.076 1376.39 L993.752 1376.39 L993.752 1407.02 L1001.39 1407.02 L1001.39 1410.95 L981.483 1410.95 L981.483 1407.02 Z" fill="#000000" fill-rule="nonzero" fill-opacity="1" /><path clip-path="url(#clip810)" d="M1010.84 1405.07 L1015.72 1405.07 L1015.72 1410.95 L1010.84 1410.95 L1010.84 1405.07 Z" fill="#000000" fill-rule="nonzero" fill-opacity="1" /><path clip-path="url(#clip810)" d="M1035.9 1379.47 Q1032.29 1379.47 1030.46 1383.03 Q1028.66 1386.58 1028.66 1393.71 Q1028.66 1400.81 1030.46 1404.38 Q1032.29 1407.92 1035.9 1407.92 Q1039.54 1407.92 1041.34 1404.38 Q1043.17 1400.81 1043.17 1393.71 Q1043.17 1386.58 1041.34 1383.03 Q1039.54 1379.47 1035.9 1379.47 M1035.9 1375.77 Q1041.71 1375.77 1044.77 1380.37 Q1047.85 1384.96 1047.85 1393.71 Q1047.85 1402.43 1044.77 1407.04 Q1041.71 1411.62 1035.9 1411.62 Q1030.09 1411.62 1027.02 1407.04 Q1023.96 1402.43 1023.96 1393.71 Q1023.96 1384.96 1027.02 1380.37 Q1030.09 1375.77 1035.9 1375.77 Z" fill="#000000" fill-rule="nonzero" fill-opacity="1" /><path clip-path="url(#clip810)" d="M1255.64 1407.02 L1263.27 1407.02 L1263.27 1380.65 L1254.96 1382.32 L1254.96 1378.06 L1263.23 1376.39 L1267.9 1376.39 L1267.9 1407.02 L1275.54 1407.02 L1275.54 1410.95 L1255.64 1410.95 L1255.64 1407.02 Z" fill="#000000" fill-rule="nonzero" fill-opacity="1" /><path clip-path="url(#clip810)" d="M1284.99 1405.07 L1289.87 1405.07 L1289.87 1410.95 L1284.99 1410.95 L1284.99 1405.07 Z" fill="#000000" fill-rule="nonzero" fill-opacity="1" /><path clip-path="url(#clip810)" d="M1300.1 1376.39 L1318.46 1376.39 L1318.46 1380.33 L1304.39 1380.33 L1304.39 1388.8 Q1305.4 1388.45 1306.42 1388.29 Q1307.44 1388.1 1308.46 1388.1 Q1314.25 1388.1 1317.63 1391.27 Q1321.01 1394.45 1321.01 1399.86 Q1321.01 1405.44 1317.53 1408.54 Q1314.06 1411.62 1307.74 1411.62 Q1305.57 1411.62 1303.3 1411.25 Q1301.05 1410.88 1298.65 1410.14 L1298.65 1405.44 Q1300.73 1406.58 1302.95 1407.13 Q1305.17 1407.69 1307.65 1407.69 Q1311.65 1407.69 1313.99 1405.58 Q1316.33 1403.47 1316.33 1399.86 Q1316.33 1396.25 1313.99 1394.15 Q1311.65 1392.04 1307.65 1392.04 Q1305.77 1392.04 1303.9 1392.46 Q1302.05 1392.87 1300.1 1393.75 L1300.1 1376.39 Z" fill="#000000" fill-rule="nonzero" fill-opacity="1" /><path clip-path="url(#clip810)" d="M1532.88 1407.02 L1549.2 1407.02 L1549.2 1410.95 L1527.25 1410.95 L1527.25 1407.02 Q1529.92 1404.26 1534.5 1399.63 Q1539.11 1394.98 1540.29 1393.64 Q1542.53 1391.11 1543.41 1389.38 Q1544.31 1387.62 1544.31 1385.93 Q1544.31 1383.17 1542.37 1381.44 Q1540.45 1379.7 1537.35 1379.7 Q1535.15 1379.7 1532.69 1380.46 Q1530.26 1381.23 1527.49 1382.78 L1527.49 1378.06 Q1530.31 1376.92 1532.76 1376.34 Q1535.22 1375.77 1537.25 1375.77 Q1542.62 1375.77 1545.82 1378.45 Q1549.01 1381.14 1549.01 1385.63 Q1549.01 1387.76 1548.2 1389.68 Q1547.42 1391.58 1545.31 1394.17 Q1544.73 1394.84 1541.63 1398.06 Q1538.53 1401.25 1532.88 1407.02 Z" fill="#000000" fill-rule="nonzero" fill-opacity="1" /><path clip-path="url(#clip810)" d="M1559.01 1405.07 L1563.9 1405.07 L1563.9 1410.95 L1559.01 1410.95 L1559.01 1405.07 Z" fill="#000000" fill-rule="nonzero" fill-opacity="1" /><path clip-path="url(#clip810)" d="M1584.08 1379.47 Q1580.47 1379.47 1578.64 1383.03 Q1576.84 1386.58 1576.84 1393.71 Q1576.84 1400.81 1578.64 1404.38 Q1580.47 1407.92 1584.08 1407.92 Q1587.72 1407.92 1589.52 1404.38 Q1591.35 1400.81 1591.35 1393.71 Q1591.35 1386.58 1589.52 1383.03 Q1587.72 1379.47 1584.08 1379.47 M1584.08 1375.77 Q1589.89 1375.77 1592.95 1380.37 Q1596.03 1384.96 1596.03 1393.71 Q1596.03 1402.43 1592.95 1407.04 Q1589.89 1411.62 1584.08 1411.62 Q1578.27 1411.62 1575.19 1407.04 Q1572.14 1402.43 1572.14 1393.71 Q1572.14 1384.96 1575.19 1380.37 Q1578.27 1375.77 1584.08 1375.77 Z" fill="#000000" fill-rule="nonzero" fill-opacity="1" /><path clip-path="url(#clip810)" d="M1030.94 1456.65 L1018.05 1473.99 L1031.61 1492.29 L1024.71 1492.29 L1014.33 1478.29 L1003.95 1492.29 L997.048 1492.29 L1010.89 1473.64 L998.225 1456.65 L1005.13 1456.65 L1014.59 1469.35 L1024.04 1456.65 L1030.94 1456.65 Z" fill="#000000" fill-rule="nonzero" fill-opacity="1" /><polyline clip-path="url(#clip810)" style="stroke:#000000; stroke-linecap:round; stroke-linejoin:round; stroke-width:4; stroke-opacity:1; fill:none" points="223.72,1349.83 223.72,189.533 "/>
<polyline clip-path="url(#clip810)" style="stroke:#000000; stroke-linecap:round; stroke-linejoin:round; stroke-width:4; stroke-opacity:1; fill:none" points="1804.94,1349.83 1804.94,189.533 "/>
<polyline clip-path="url(#clip810)" style="stroke:#000000; stroke-linecap:round; stroke-linejoin:round; stroke-width:4; stroke-opacity:1; fill:none" points="223.72,1316.99 238.896,1316.99 "/>
<polyline clip-path="url(#clip810)" style="stroke:#000000; stroke-linecap:round; stroke-linejoin:round; stroke-width:4; stroke-opacity:1; fill:none" points="223.72,1043.34 238.896,1043.34 "/>
<polyline clip-path="url(#clip810)" style="stroke:#000000; stroke-linecap:round; stroke-linejoin:round; stroke-width:4; stroke-opacity:1; fill:none" points="223.72,769.682 238.896,769.682 "/>
<polyline clip-path="url(#clip810)" style="stroke:#000000; stroke-linecap:round; stroke-linejoin:round; stroke-width:4; stroke-opacity:1; fill:none" points="223.72,496.027 238.896,496.027 "/>
<polyline clip-path="url(#clip810)" style="stroke:#000000; stroke-linecap:round; stroke-linejoin:round; stroke-width:4; stroke-opacity:1; fill:none" points="223.72,222.372 238.896,222.372 "/>
<polyline clip-path="url(#clip810)" style="stroke:#000000; stroke-linecap:round; stroke-linejoin:round; stroke-width:4; stroke-opacity:1; fill:none" points="1804.94,1316.99 1789.77,1316.99 "/>
<polyline clip-path="url(#clip810)" style="stroke:#000000; stroke-linecap:round; stroke-linejoin:round; stroke-width:4; stroke-opacity:1; fill:none" points="1804.94,1043.34 1789.77,1043.34 "/>
<polyline clip-path="url(#clip810)" style="stroke:#000000; stroke-linecap:round; stroke-linejoin:round; stroke-width:4; stroke-opacity:1; fill:none" points="1804.94,769.682 1789.77,769.682 "/>
<polyline clip-path="url(#clip810)" style="stroke:#000000; stroke-linecap:round; stroke-linejoin:round; stroke-width:4; stroke-opacity:1; fill:none" points="1804.94,496.027 1789.77,496.027 "/>
<polyline clip-path="url(#clip810)" style="stroke:#000000; stroke-linecap:round; stroke-linejoin:round; stroke-width:4; stroke-opacity:1; fill:none" points="1804.94,222.372 1789.77,222.372 "/>
<path clip-path="url(#clip810)" d="M132.945 1302.79 Q129.333 1302.79 127.505 1306.36 Q125.699 1309.9 125.699 1317.03 Q125.699 1324.13 127.505 1327.7 Q129.333 1331.24 132.945 1331.24 Q136.579 1331.24 138.384 1327.7 Q140.213 1324.13 140.213 1317.03 Q140.213 1309.9 138.384 1306.36 Q136.579 1302.79 132.945 1302.79 M132.945 1299.09 Q138.755 1299.09 141.81 1303.69 Q144.889 1308.28 144.889 1317.03 Q144.889 1325.75 141.81 1330.36 Q138.755 1334.94 132.945 1334.94 Q127.134 1334.94 124.056 1330.36 Q121 1325.75 121 1317.03 Q121 1308.28 124.056 1303.69 Q127.134 1299.09 132.945 1299.09 Z" fill="#000000" fill-rule="nonzero" fill-opacity="1" /><path clip-path="url(#clip810)" d="M153.106 1328.39 L157.991 1328.39 L157.991 1334.27 L153.106 1334.27 L153.106 1328.39 Z" fill="#000000" fill-rule="nonzero" fill-opacity="1" /><path clip-path="url(#clip810)" d="M178.176 1302.79 Q174.565 1302.79 172.736 1306.36 Q170.93 1309.9 170.93 1317.03 Q170.93 1324.13 172.736 1327.7 Q174.565 1331.24 178.176 1331.24 Q181.81 1331.24 183.616 1327.7 Q185.444 1324.13 185.444 1317.03 Q185.444 1309.9 183.616 1306.36 Q181.81 1302.79 178.176 1302.79 M178.176 1299.09 Q183.986 1299.09 187.041 1303.69 Q190.12 1308.28 190.12 1317.03 Q190.12 1325.75 187.041 1330.36 Q183.986 1334.94 178.176 1334.94 Q172.366 1334.94 169.287 1330.36 Q166.231 1325.75 166.231 1317.03 Q166.231 1308.28 169.287 1303.69 Q172.366 1299.09 178.176 1299.09 Z" fill="#000000" fill-rule="nonzero" fill-opacity="1" /><path clip-path="url(#clip810)" d="M133.94 1029.14 Q130.329 1029.14 128.5 1032.7 Q126.695 1036.24 126.695 1043.37 Q126.695 1050.48 128.5 1054.04 Q130.329 1057.58 133.94 1057.58 Q137.574 1057.58 139.38 1054.04 Q141.208 1050.48 141.208 1043.37 Q141.208 1036.24 139.38 1032.7 Q137.574 1029.14 133.94 1029.14 M133.94 1025.43 Q139.75 1025.43 142.806 1030.04 Q145.884 1034.62 145.884 1043.37 Q145.884 1052.1 142.806 1056.71 Q139.75 1061.29 133.94 1061.29 Q128.13 1061.29 125.051 1056.71 Q121.996 1052.1 121.996 1043.37 Q121.996 1034.62 125.051 1030.04 Q128.13 1025.43 133.94 1025.43 Z" fill="#000000" fill-rule="nonzero" fill-opacity="1" /><path clip-path="url(#clip810)" d="M154.102 1054.74 L158.986 1054.74 L158.986 1060.62 L154.102 1060.62 L154.102 1054.74 Z" fill="#000000" fill-rule="nonzero" fill-opacity="1" /><path clip-path="url(#clip810)" d="M169.217 1026.06 L187.574 1026.06 L187.574 1029.99 L173.5 1029.99 L173.5 1038.46 Q174.518 1038.12 175.537 1037.96 Q176.555 1037.77 177.574 1037.77 Q183.361 1037.77 186.741 1040.94 Q190.12 1044.11 190.12 1049.53 Q190.12 1055.11 186.648 1058.21 Q183.176 1061.29 176.856 1061.29 Q174.68 1061.29 172.412 1060.92 Q170.167 1060.55 167.759 1059.81 L167.759 1055.11 Q169.842 1056.24 172.065 1056.8 Q174.287 1057.35 176.764 1057.35 Q180.768 1057.35 183.106 1055.25 Q185.444 1053.14 185.444 1049.53 Q185.444 1045.92 183.106 1043.81 Q180.768 1041.71 176.764 1041.71 Q174.889 1041.71 173.014 1042.12 Q171.162 1042.54 169.217 1043.42 L169.217 1026.06 Z" fill="#000000" fill-rule="nonzero" fill-opacity="1" /><path clip-path="url(#clip810)" d="M123.755 783.027 L131.394 783.027 L131.394 756.661 L123.083 758.328 L123.083 754.069 L131.347 752.402 L136.023 752.402 L136.023 783.027 L143.662 783.027 L143.662 786.962 L123.755 786.962 L123.755 783.027 Z" fill="#000000" fill-rule="nonzero" fill-opacity="1" /><path clip-path="url(#clip810)" d="M153.106 781.082 L157.991 781.082 L157.991 786.962 L153.106 786.962 L153.106 781.082 Z" fill="#000000" fill-rule="nonzero" fill-opacity="1" /><path clip-path="url(#clip810)" d="M178.176 755.481 Q174.565 755.481 172.736 759.045 Q170.93 762.587 170.93 769.717 Q170.93 776.823 172.736 780.388 Q174.565 783.93 178.176 783.93 Q181.81 783.93 183.616 780.388 Q185.444 776.823 185.444 769.717 Q185.444 762.587 183.616 759.045 Q181.81 755.481 178.176 755.481 M178.176 751.777 Q183.986 751.777 187.041 756.383 Q190.12 760.967 190.12 769.717 Q190.12 778.443 187.041 783.05 Q183.986 787.633 178.176 787.633 Q172.366 787.633 169.287 783.05 Q166.231 778.443 166.231 769.717 Q166.231 760.967 169.287 756.383 Q172.366 751.777 178.176 751.777 Z" fill="#000000" fill-rule="nonzero" fill-opacity="1" /><path clip-path="url(#clip810)" d="M124.75 509.372 L132.389 509.372 L132.389 483.006 L124.079 484.673 L124.079 480.414 L132.343 478.747 L137.019 478.747 L137.019 509.372 L144.657 509.372 L144.657 513.307 L124.75 513.307 L124.75 509.372 Z" fill="#000000" fill-rule="nonzero" fill-opacity="1" /><path clip-path="url(#clip810)" d="M154.102 507.427 L158.986 507.427 L158.986 513.307 L154.102 513.307 L154.102 507.427 Z" fill="#000000" fill-rule="nonzero" fill-opacity="1" /><path clip-path="url(#clip810)" d="M169.217 478.747 L187.574 478.747 L187.574 482.682 L173.5 482.682 L173.5 491.154 Q174.518 490.807 175.537 490.645 Q176.555 490.46 177.574 490.46 Q183.361 490.46 186.741 493.631 Q190.12 496.802 190.12 502.219 Q190.12 507.798 186.648 510.9 Q183.176 513.978 176.856 513.978 Q174.68 513.978 172.412 513.608 Q170.167 513.237 167.759 512.497 L167.759 507.798 Q169.842 508.932 172.065 509.487 Q174.287 510.043 176.764 510.043 Q180.768 510.043 183.106 507.937 Q185.444 505.83 185.444 502.219 Q185.444 498.608 183.106 496.501 Q180.768 494.395 176.764 494.395 Q174.889 494.395 173.014 494.812 Q171.162 495.228 169.217 496.108 L169.217 478.747 Z" fill="#000000" fill-rule="nonzero" fill-opacity="1" /><path clip-path="url(#clip810)" d="M126.972 235.717 L143.292 235.717 L143.292 239.652 L121.347 239.652 L121.347 235.717 Q124.009 232.962 128.593 228.332 Q133.199 223.68 134.38 222.337 Q136.625 219.814 137.505 218.078 Q138.407 216.319 138.407 214.629 Q138.407 211.874 136.463 210.138 Q134.542 208.402 131.44 208.402 Q129.241 208.402 126.787 209.166 Q124.357 209.93 121.579 211.481 L121.579 206.758 Q124.403 205.624 126.857 205.046 Q129.31 204.467 131.347 204.467 Q136.718 204.467 139.912 207.152 Q143.107 209.837 143.107 214.328 Q143.107 216.458 142.296 218.379 Q141.509 220.277 139.403 222.87 Q138.824 223.541 135.722 226.758 Q132.62 229.953 126.972 235.717 Z" fill="#000000" fill-rule="nonzero" fill-opacity="1" /><path clip-path="url(#clip810)" d="M153.106 233.772 L157.991 233.772 L157.991 239.652 L153.106 239.652 L153.106 233.772 Z" fill="#000000" fill-rule="nonzero" fill-opacity="1" /><path clip-path="url(#clip810)" d="M178.176 208.171 Q174.565 208.171 172.736 211.735 Q170.93 215.277 170.93 222.407 Q170.93 229.513 172.736 233.078 Q174.565 236.619 178.176 236.619 Q181.81 236.619 183.616 233.078 Q185.444 229.513 185.444 222.407 Q185.444 215.277 183.616 211.735 Q181.81 208.171 178.176 208.171 M178.176 204.467 Q183.986 204.467 187.041 209.073 Q190.12 213.657 190.12 222.407 Q190.12 231.133 187.041 235.74 Q183.986 240.323 178.176 240.323 Q172.366 240.323 169.287 235.74 Q166.231 231.133 166.231 222.407 Q166.231 213.657 169.287 209.073 Q172.366 204.467 178.176 204.467 Z" fill="#000000" fill-rule="nonzero" fill-opacity="1" /><path clip-path="url(#clip810)" d="M76.4543 767.995 Q82.82 770.478 84.7616 772.833 Q86.7031 775.188 86.7031 779.135 L86.7031 783.814 L81.8015 783.814 L81.8015 780.376 Q81.8015 777.957 80.6557 776.621 Q79.5099 775.284 75.2448 773.661 L72.5712 772.61 L37.4962 787.029 L37.4962 780.822 L65.378 769.682 L37.4962 758.542 L37.4962 752.335 L76.4543 767.995 Z" fill="#000000" fill-rule="nonzero" fill-opacity="1" /><polyline clip-path="url(#clip811)" style="stroke:#808080; stroke-linecap:round; stroke-linejoin:round; stroke-width:2.4; stroke-opacity:1; fill:none" stroke-dasharray="10, 6" points="1014.33,1316.99 1021.26,1316.99 1028.19,1316.99 1035.11,1316.99 1042.04,1316.99 1048.97,1316.99 1055.9,1316.99 1062.83,1316.99 1069.75,1316.99 1076.68,1316.99 1083.61,1316.99 1090.54,1316.99 1097.47,1316.99 1104.39,1316.99 1111.32,1316.99 1118.25,1316.99 1125.18,1316.99 1132.11,1316.99 1139.03,1316.99 1145.96,1316.99 1152.89,1316.99 1159.82,1316.99 1166.75,1316.99 1173.67,1316.99 1180.6,1316.99 1187.53,1316.99 1194.46,1316.99 1201.39,1316.99 1208.31,1316.99 1215.24,1316.99 1222.17,1316.99 1229.1,1316.99 1236.03,1316.99 1242.95,1316.99 1249.88,1316.99 1256.81,1316.99 1263.74,1316.99 1270.67,1316.99 1277.59,1316.99 1284.52,1316.99 1291.45,1316.99 1298.38,1316.99 1305.31,1316.99 1312.23,1316.99 1319.16,1316.99 1326.09,1316.99 1333.02,1316.99 1339.95,1316.99 1346.87,1316.99 1353.8,1316.99 1360.73,1316.99 1367.66,1316.99 1374.59,1316.99 1381.51,1316.99 1388.44,1316.99 1395.37,1316.99 1402.3,1316.99 1409.23,1316.99 1416.15,1316.99 1423.08,1316.99 1430.01,1316.99 1436.94,1316.99 1443.86,1316.99 1450.79,1316.99 1457.72,1316.99 1464.65,1316.99 1471.58,1316.99 1478.5,1316.99 1485.43,1316.99 1492.36,1316.99 1499.29,1316.99 1506.22,1316.99 1513.14,1316.99 1520.07,1316.99 1527,1316.99 1533.93,1316.99 1540.86,1316.99 1547.78,1316.99 1554.71,1316.99 1561.64,1316.99 "/>
<polyline clip-path="url(#clip811)" style="stroke:#808080; stroke-linecap:round; stroke-linejoin:round; stroke-width:2.4; stroke-opacity:1; fill:none" stroke-dasharray="10, 6" points="1013.06,1279.66 1019.97,1279.18 1026.88,1278.71 1033.79,1278.24 1040.7,1277.77 1047.61,1277.29 1054.53,1276.82 1061.44,1276.35 1068.35,1275.88 1075.26,1275.4 1082.17,1274.93 1089.09,1274.46 1096,1273.99 1102.91,1273.51 1109.82,1273.04 1116.73,1272.57 1123.64,1272.09 1130.56,1271.62 1137.47,1271.15 1144.38,1270.68 1151.29,1270.2 1158.2,1269.73 1165.12,1269.26 1172.03,1268.79 1178.94,1268.31 1185.85,1267.84 1192.76,1267.37 1199.68,1266.9 1206.59,1266.42 1213.5,1265.95 1220.41,1265.48 1227.32,1265.01 1234.23,1264.53 1241.15,1264.06 1248.06,1263.59 1254.97,1263.12 1261.88,1262.64 1268.79,1262.17 1275.71,1261.7 1282.62,1261.23 1289.53,1260.75 1296.44,1260.28 1303.35,1259.81 1310.26,1259.33 1317.18,1258.86 1324.09,1258.39 1331,1257.92 1337.91,1257.44 1344.82,1256.97 1351.74,1256.5 1358.65,1256.03 1365.56,1255.55 1372.47,1255.08 1379.38,1254.61 1386.29,1254.14 1393.21,1253.66 1400.12,1253.19 1407.03,1252.72 1413.94,1252.25 1420.85,1251.77 1427.77,1251.3 1434.68,1250.83 1441.59,1250.36 1448.5,1249.88 1455.41,1249.41 1462.32,1248.94 1469.24,1248.46 1476.15,1247.99 1483.06,1247.52 1489.97,1247.05 1496.88,1246.57 1503.8,1246.1 1510.71,1245.63 1517.62,1245.16 1524.53,1244.68 1531.44,1244.21 1538.36,1243.74 1545.27,1243.27 1552.18,1242.79 1559.09,1242.32 "/>
<polyline clip-path="url(#clip811)" style="stroke:#808080; stroke-linecap:round; stroke-linejoin:round; stroke-width:2.4; stroke-opacity:1; fill:none" stroke-dasharray="10, 6" points="1009.1,1241.52 1015.96,1240.57 1022.83,1239.61 1029.69,1238.66 1036.55,1237.7 1043.41,1236.75 1050.27,1235.79 1057.13,1234.84 1064,1233.88 1070.86,1232.93 1077.72,1231.97 1084.58,1231.02 1091.44,1230.06 1098.31,1229.1 1105.17,1228.15 1112.03,1227.19 1118.89,1226.24 1125.75,1225.28 1132.61,1224.33 1139.48,1223.37 1146.34,1222.42 1153.2,1221.46 1160.06,1220.51 1166.92,1219.55 1173.79,1218.6 1180.65,1217.64 1187.51,1216.69 1194.37,1215.73 1201.23,1214.78 1208.09,1213.82 1214.96,1212.86 1221.82,1211.91 1228.68,1210.95 1235.54,1210 1242.4,1209.04 1249.27,1208.09 1256.13,1207.13 1262.99,1206.18 1269.85,1205.22 1276.71,1204.27 1283.57,1203.31 1290.44,1202.36 1297.3,1201.4 1304.16,1200.45 1311.02,1199.49 1317.88,1198.53 1324.74,1197.58 1331.61,1196.62 1338.47,1195.67 1345.33,1194.71 1352.19,1193.76 1359.05,1192.8 1365.92,1191.85 1372.78,1190.89 1379.64,1189.94 1386.5,1188.98 1393.36,1188.03 1400.22,1187.07 1407.09,1186.12 1413.95,1185.16 1420.81,1184.21 1427.67,1183.25 1434.53,1182.29 1441.4,1181.34 1448.26,1180.38 1455.12,1179.43 1461.98,1178.47 1468.84,1177.52 1475.7,1176.56 1482.57,1175.61 1489.43,1174.65 1496.29,1173.7 1503.15,1172.74 1510.01,1171.79 1516.88,1170.83 1523.74,1169.88 1530.6,1168.92 1537.46,1167.97 1544.32,1167.01 1551.18,1166.05 "/>
<polyline clip-path="url(#clip811)" style="stroke:#808080; stroke-linecap:round; stroke-linejoin:round; stroke-width:2.4; stroke-opacity:1; fill:none" stroke-dasharray="10, 6" points="1002.3,1202.86 1009.07,1201.41 1015.85,1199.97 1022.62,1198.52 1029.4,1197.08 1036.18,1195.64 1042.95,1194.19 1049.73,1192.75 1056.5,1191.3 1063.28,1189.86 1070.05,1188.41 1076.83,1186.97 1083.61,1185.52 1090.38,1184.08 1097.16,1182.63 1103.93,1181.19 1110.71,1179.74 1117.48,1178.3 1124.26,1176.85 1131.04,1175.41 1137.81,1173.96 1144.59,1172.52 1151.36,1171.07 1158.14,1169.63 1164.91,1168.19 1171.69,1166.74 1178.47,1165.3 1185.24,1163.85 1192.02,1162.41 1198.79,1160.96 1205.57,1159.52 1212.34,1158.07 1219.12,1156.63 1225.89,1155.18 1232.67,1153.74 1239.45,1152.29 1246.22,1150.85 1253,1149.4 1259.77,1147.96 1266.55,1146.51 1273.32,1145.07 1280.1,1143.62 1286.88,1142.18 1293.65,1140.74 1300.43,1139.29 1307.2,1137.85 1313.98,1136.4 1320.75,1134.96 1327.53,1133.51 1334.31,1132.07 1341.08,1130.62 1347.86,1129.18 1354.63,1127.73 1361.41,1126.29 1368.18,1124.84 1374.96,1123.4 1381.73,1121.95 1388.51,1120.51 1395.29,1119.06 1402.06,1117.62 1408.84,1116.18 1415.61,1114.73 1422.39,1113.29 1429.16,1111.84 1435.94,1110.4 1442.72,1108.95 1449.49,1107.51 1456.27,1106.06 1463.04,1104.62 1469.82,1103.17 1476.59,1101.73 1483.37,1100.28 1490.15,1098.84 1496.92,1097.39 1503.7,1095.95 1510.47,1094.5 1517.25,1093.06 1524.02,1091.61 1530.8,1090.17 1537.58,1088.73 "/>
<polyline clip-path="url(#clip811)" style="stroke:#808080; stroke-linecap:round; stroke-linejoin:round; stroke-width:2.4; stroke-opacity:1; fill:none" stroke-dasharray="10, 6" points="992.502,1163.96 999.153,1162.03 1005.81,1160.09 1012.46,1158.15 1019.11,1156.22 1025.76,1154.28 1032.41,1152.34 1039.06,1150.4 1045.71,1148.47 1052.37,1146.53 1059.02,1144.59 1065.67,1142.66 1072.32,1140.72 1078.97,1138.78 1085.62,1136.84 1092.28,1134.91 1098.93,1132.97 1105.58,1131.03 1112.23,1129.1 1118.88,1127.16 1125.53,1125.22 1132.19,1123.29 1138.84,1121.35 1145.49,1119.41 1152.14,1117.47 1158.79,1115.54 1165.44,1113.6 1172.1,1111.66 1178.75,1109.73 1185.4,1107.79 1192.05,1105.85 1198.7,1103.91 1205.35,1101.98 1212.01,1100.04 1218.66,1098.1 1225.31,1096.17 1231.96,1094.23 1238.61,1092.29 1245.26,1090.36 1251.92,1088.42 1258.57,1086.48 1265.22,1084.54 1271.87,1082.61 1278.52,1080.67 1285.17,1078.73 1291.83,1076.8 1298.48,1074.86 1305.13,1072.92 1311.78,1070.98 1318.43,1069.05 1325.08,1067.11 1331.74,1065.17 1338.39,1063.24 1345.04,1061.3 1351.69,1059.36 1358.34,1057.42 1364.99,1055.49 1371.65,1053.55 1378.3,1051.61 1384.95,1049.68 1391.6,1047.74 1398.25,1045.8 1404.9,1043.87 1411.56,1041.93 1418.21,1039.99 1424.86,1038.05 1431.51,1036.12 1438.16,1034.18 1444.81,1032.24 1451.47,1030.31 1458.12,1028.37 1464.77,1026.43 1471.42,1024.49 1478.07,1022.56 1484.72,1020.62 1491.38,1018.68 1498.03,1016.75 1504.68,1014.81 1511.33,1012.87 1517.98,1010.94 "/>
<polyline clip-path="url(#clip811)" style="stroke:#808080; stroke-linecap:round; stroke-linejoin:round; stroke-width:2.4; stroke-opacity:1; fill:none" stroke-dasharray="10, 6" points="979.615,1125.17 986.103,1122.74 992.592,1120.31 999.08,1117.89 1005.57,1115.46 1012.06,1113.03 1018.55,1110.6 1025.03,1108.17 1031.52,1105.75 1038.01,1103.32 1044.5,1100.89 1050.99,1098.46 1057.48,1096.03 1063.97,1093.61 1070.45,1091.18 1076.94,1088.75 1083.43,1086.32 1089.92,1083.89 1096.41,1081.46 1102.9,1079.04 1109.39,1076.61 1115.87,1074.18 1122.36,1071.75 1128.85,1069.32 1135.34,1066.9 1141.83,1064.47 1148.32,1062.04 1154.81,1059.61 1161.29,1057.18 1167.78,1054.76 1174.27,1052.33 1180.76,1049.9 1187.25,1047.47 1193.74,1045.04 1200.22,1042.62 1206.71,1040.19 1213.2,1037.76 1219.69,1035.33 1226.18,1032.9 1232.67,1030.47 1239.16,1028.05 1245.64,1025.62 1252.13,1023.19 1258.62,1020.76 1265.11,1018.33 1271.6,1015.91 1278.09,1013.48 1284.58,1011.05 1291.06,1008.62 1297.55,1006.19 1304.04,1003.77 1310.53,1001.34 1317.02,998.909 1323.51,996.481 1330,994.053 1336.48,991.625 1342.97,989.196 1349.46,986.768 1355.95,984.34 1362.44,981.912 1368.93,979.484 1375.42,977.056 1381.9,974.628 1388.39,972.2 1394.88,969.772 1401.37,967.343 1407.86,964.915 1414.35,962.487 1420.84,960.059 1427.32,957.631 1433.81,955.203 1440.3,952.775 1446.79,950.347 1453.28,947.919 1459.77,945.49 1466.25,943.062 1472.74,940.634 1479.23,938.206 1485.72,935.778 1492.21,933.35 "/>
<polyline clip-path="url(#clip811)" style="stroke:#808080; stroke-linecap:round; stroke-linejoin:round; stroke-width:2.4; stroke-opacity:1; fill:none" stroke-dasharray="10, 6" points="963.586,1086.84 969.871,1083.92 976.157,1081.01 982.443,1078.1 988.728,1075.18 995.014,1072.27 1001.3,1069.36 1007.59,1066.44 1013.87,1063.53 1020.16,1060.62 1026.44,1057.7 1032.73,1054.79 1039.01,1051.88 1045.3,1048.96 1051.58,1046.05 1057.87,1043.14 1064.16,1040.22 1070.44,1037.31 1076.73,1034.4 1083.01,1031.48 1089.3,1028.57 1095.58,1025.66 1101.87,1022.74 1108.16,1019.83 1114.44,1016.92 1120.73,1014 1127.01,1011.09 1133.3,1008.18 1139.58,1005.26 1145.87,1002.35 1152.15,999.437 1158.44,996.523 1164.73,993.61 1171.01,990.697 1177.3,987.783 1183.58,984.87 1189.87,981.956 1196.15,979.043 1202.44,976.13 1208.73,973.216 1215.01,970.303 1221.3,967.39 1227.58,964.476 1233.87,961.563 1240.15,958.65 1246.44,955.736 1252.72,952.823 1259.01,949.91 1265.3,946.996 1271.58,944.083 1277.87,941.17 1284.15,938.256 1290.44,935.343 1296.72,932.429 1303.01,929.516 1309.3,926.603 1315.58,923.689 1321.87,920.776 1328.15,917.863 1334.44,914.949 1340.72,912.036 1347.01,909.123 1353.3,906.209 1359.58,903.296 1365.87,900.383 1372.15,897.469 1378.44,894.556 1384.72,891.643 1391.01,888.729 1397.29,885.816 1403.58,882.902 1409.87,879.989 1416.15,877.076 1422.44,874.162 1428.72,871.249 1435.01,868.336 1441.29,865.422 1447.58,862.509 1453.87,859.596 1460.15,856.682 "/>
<polyline clip-path="url(#clip811)" style="stroke:#808080; stroke-linecap:round; stroke-linejoin:round; stroke-width:2.4; stroke-opacity:1; fill:none" stroke-dasharray="10, 6" points="944.417,1049.33 950.46,1045.95 956.503,1042.56 962.546,1039.17 968.589,1035.78 974.632,1032.39 980.675,1029.01 986.718,1025.62 992.761,1022.23 998.804,1018.84 1004.85,1015.45 1010.89,1012.07 1016.93,1008.68 1022.98,1005.29 1029.02,1001.9 1035.06,998.514 1041.11,995.126 1047.15,991.737 1053.19,988.349 1059.23,984.961 1065.28,981.573 1071.32,978.185 1077.36,974.797 1083.41,971.409 1089.45,968.021 1095.49,964.633 1101.54,961.245 1107.58,957.857 1113.62,954.469 1119.66,951.081 1125.71,947.693 1131.75,944.304 1137.79,940.916 1143.84,937.528 1149.88,934.14 1155.92,930.752 1161.97,927.364 1168.01,923.976 1174.05,920.588 1180.09,917.2 1186.14,913.812 1192.18,910.424 1198.22,907.036 1204.27,903.648 1210.31,900.26 1216.35,896.872 1222.4,893.483 1228.44,890.095 1234.48,886.707 1240.52,883.319 1246.57,879.931 1252.61,876.543 1258.65,873.155 1264.7,869.767 1270.74,866.379 1276.78,862.991 1282.83,859.603 1288.87,856.215 1294.91,852.827 1300.95,849.439 1307,846.05 1313.04,842.662 1319.08,839.274 1325.13,835.886 1331.17,832.498 1337.21,829.11 1343.26,825.722 1349.3,822.334 1355.34,818.946 1361.38,815.558 1367.43,812.17 1373.47,808.782 1379.51,805.394 1385.56,802.006 1391.6,798.618 1397.64,795.229 1403.69,791.841 1409.73,788.453 1415.77,785.065 1421.81,781.677 "/>
<polyline clip-path="url(#clip811)" style="stroke:#808080; stroke-linecap:round; stroke-linejoin:round; stroke-width:2.4; stroke-opacity:1; fill:none" stroke-dasharray="10, 6" points="922.171,1013.04 927.932,1009.19 933.694,1005.35 939.455,1001.5 945.216,997.651 950.978,993.803 956.739,989.956 962.501,986.108 968.262,982.261 974.023,978.414 979.785,974.566 985.546,970.719 991.308,966.871 997.069,963.024 1002.83,959.176 1008.59,955.329 1014.35,951.481 1020.11,947.634 1025.88,943.786 1031.64,939.939 1037.4,936.091 1043.16,932.244 1048.92,928.396 1054.68,924.549 1060.44,920.701 1066.21,916.854 1071.97,913.006 1077.73,909.159 1083.49,905.311 1089.25,901.464 1095.01,897.616 1100.77,893.769 1106.54,889.921 1112.3,886.074 1118.06,882.226 1123.82,878.379 1129.58,874.531 1135.34,870.684 1141.1,866.836 1146.87,862.989 1152.63,859.141 1158.39,855.294 1164.15,851.447 1169.91,847.599 1175.67,843.752 1181.43,839.904 1187.2,836.057 1192.96,832.209 1198.72,828.362 1204.48,824.514 1210.24,820.667 1216,816.819 1221.76,812.972 1227.53,809.124 1233.29,805.277 1239.05,801.429 1244.81,797.582 1250.57,793.734 1256.33,789.887 1262.09,786.039 1267.85,782.192 1273.62,778.344 1279.38,774.497 1285.14,770.649 1290.9,766.802 1296.66,762.954 1302.42,759.107 1308.18,755.259 1313.95,751.412 1319.71,747.564 1325.47,743.717 1331.23,739.869 1336.99,736.022 1342.75,732.175 1348.51,728.327 1354.28,724.48 1360.04,720.632 1365.8,716.785 1371.56,712.937 1377.32,709.09 "/>
<polyline clip-path="url(#clip811)" style="stroke:#808080; stroke-linecap:round; stroke-linejoin:round; stroke-width:2.4; stroke-opacity:1; fill:none" stroke-dasharray="10, 6" points="896.967,978.327 902.41,974.04 907.852,969.754 913.295,965.467 918.737,961.18 924.179,956.893 929.622,952.606 935.064,948.319 940.506,944.032 945.949,939.745 951.391,935.458 956.833,931.171 962.276,926.885 967.718,922.598 973.161,918.311 978.603,914.024 984.045,909.737 989.488,905.45 994.93,901.163 1000.37,896.876 1005.81,892.589 1011.26,888.302 1016.7,884.016 1022.14,879.729 1027.58,875.442 1033.03,871.155 1038.47,866.868 1043.91,862.581 1049.35,858.294 1054.8,854.007 1060.24,849.72 1065.68,845.434 1071.12,841.147 1076.57,836.86 1082.01,832.573 1087.45,828.286 1092.89,823.999 1098.34,819.712 1103.78,815.425 1109.22,811.138 1114.66,806.851 1120.1,802.565 1125.55,798.278 1130.99,793.991 1136.43,789.704 1141.87,785.417 1147.32,781.13 1152.76,776.843 1158.2,772.556 1163.64,768.269 1169.09,763.982 1174.53,759.696 1179.97,755.409 1185.41,751.122 1190.86,746.835 1196.3,742.548 1201.74,738.261 1207.18,733.974 1212.62,729.687 1218.07,725.4 1223.51,721.114 1228.95,716.827 1234.39,712.54 1239.84,708.253 1245.28,703.966 1250.72,699.679 1256.16,695.392 1261.61,691.105 1267.05,686.818 1272.49,682.531 1277.93,678.245 1283.38,673.958 1288.82,669.671 1294.26,665.384 1299.7,661.097 1305.15,656.81 1310.59,652.523 1316.03,648.236 1321.47,643.949 1326.91,639.663 "/>
<polyline clip-path="url(#clip811)" style="stroke:#808080; stroke-linecap:round; stroke-linejoin:round; stroke-width:2.4; stroke-opacity:1; fill:none" stroke-dasharray="10, 6" points="868.987,945.547 874.075,940.846 879.163,936.144 884.252,931.442 889.34,926.74 894.428,922.038 899.516,917.336 904.604,912.635 909.693,907.933 914.781,903.231 919.869,898.529 924.957,893.827 930.045,889.125 935.133,884.424 940.222,879.722 945.31,875.02 950.398,870.318 955.486,865.616 960.574,860.915 965.663,856.213 970.751,851.511 975.839,846.809 980.927,842.107 986.015,837.405 991.104,832.704 996.192,828.002 1001.28,823.3 1006.37,818.598 1011.46,813.896 1016.54,809.194 1021.63,804.493 1026.72,799.791 1031.81,795.089 1036.9,790.387 1041.99,785.685 1047.07,780.983 1052.16,776.282 1057.25,771.58 1062.34,766.878 1067.43,762.176 1072.51,757.474 1077.6,752.772 1082.69,748.071 1087.78,743.369 1092.87,738.667 1097.96,733.965 1103.04,729.263 1108.13,724.561 1113.22,719.86 1118.31,715.158 1123.4,710.456 1128.48,705.754 1133.57,701.052 1138.66,696.35 1143.75,691.649 1148.84,686.947 1153.93,682.245 1159.01,677.543 1164.1,672.841 1169.19,668.139 1174.28,663.438 1179.37,658.736 1184.45,654.034 1189.54,649.332 1194.63,644.63 1199.72,639.928 1204.81,635.227 1209.9,630.525 1214.98,625.823 1220.07,621.121 1225.16,616.419 1230.25,611.717 1235.34,607.016 1240.42,602.314 1245.51,597.612 1250.6,592.91 1255.69,588.208 1260.78,583.506 1265.87,578.805 1270.95,574.103 "/>
<polyline clip-path="url(#clip811)" style="stroke:#808080; stroke-linecap:round; stroke-linejoin:round; stroke-width:2.4; stroke-opacity:1; fill:none" stroke-dasharray="10, 6" points="838.465,915.025 843.167,909.937 847.869,904.849 852.57,899.761 857.272,894.673 861.974,889.584 866.676,884.496 871.378,879.408 876.08,874.32 880.781,869.232 885.483,864.143 890.185,859.055 894.887,853.967 899.589,848.879 904.291,843.791 908.992,838.703 913.694,833.614 918.396,828.526 923.098,823.438 927.8,818.35 932.502,813.262 937.203,808.173 941.905,803.085 946.607,797.997 951.309,792.909 956.011,787.821 960.713,782.733 965.414,777.644 970.116,772.556 974.818,767.468 979.52,762.38 984.222,757.292 988.924,752.203 993.625,747.115 998.327,742.027 1003.03,736.939 1007.73,731.851 1012.43,726.762 1017.13,721.674 1021.84,716.586 1026.54,711.498 1031.24,706.41 1035.94,701.322 1040.64,696.233 1045.35,691.145 1050.05,686.057 1054.75,680.969 1059.45,675.881 1064.15,670.792 1068.85,665.704 1073.56,660.616 1078.26,655.528 1082.96,650.44 1087.66,645.351 1092.36,640.263 1097.07,635.175 1101.77,630.087 1106.47,624.999 1111.17,619.911 1115.87,614.822 1120.57,609.734 1125.28,604.646 1129.98,599.558 1134.68,594.47 1139.38,589.381 1144.08,584.293 1148.79,579.205 1153.49,574.117 1158.19,569.029 1162.89,563.94 1167.59,558.852 1172.29,553.764 1177,548.676 1181.7,543.588 1186.4,538.5 1191.1,533.411 1195.8,528.323 1200.51,523.235 1205.21,518.147 1209.91,513.059 "/>
<polyline clip-path="url(#clip811)" style="stroke:#808080; stroke-linecap:round; stroke-linejoin:round; stroke-width:2.4; stroke-opacity:1; fill:none" stroke-dasharray="10, 6" points="805.685,887.045 809.972,881.603 814.259,876.16 818.546,870.718 822.833,865.275 827.12,859.833 831.406,854.391 835.693,848.948 839.98,843.506 844.267,838.064 848.554,832.621 852.841,827.179 857.128,821.737 861.415,816.294 865.702,810.852 869.989,805.409 874.275,799.967 878.562,794.525 882.849,789.082 887.136,783.64 891.423,778.198 895.71,772.755 899.997,767.313 904.284,761.87 908.571,756.428 912.857,750.986 917.144,745.543 921.431,740.101 925.718,734.659 930.005,729.216 934.292,723.774 938.579,718.332 942.866,712.889 947.153,707.447 951.44,702.004 955.726,696.562 960.013,691.12 964.3,685.677 968.587,680.235 972.874,674.793 977.161,669.35 981.448,663.908 985.735,658.465 990.022,653.023 994.309,647.581 998.595,642.138 1002.88,636.696 1007.17,631.254 1011.46,625.811 1015.74,620.369 1020.03,614.927 1024.32,609.484 1028.6,604.042 1032.89,598.599 1037.18,593.157 1041.46,587.715 1045.75,582.272 1050.04,576.83 1054.33,571.388 1058.61,565.945 1062.9,560.503 1067.19,555.06 1071.47,549.618 1075.76,544.176 1080.05,538.733 1084.33,533.291 1088.62,527.849 1092.91,522.406 1097.19,516.964 1101.48,511.522 1105.77,506.079 1110.05,500.637 1114.34,495.194 1118.63,489.752 1122.92,484.31 1127.2,478.867 1131.49,473.425 1135.78,467.983 1140.06,462.54 1144.35,457.098 "/>
<polyline clip-path="url(#clip811)" style="stroke:#808080; stroke-linecap:round; stroke-linejoin:round; stroke-width:2.4; stroke-opacity:1; fill:none" stroke-dasharray="10, 6" points="770.972,861.842 774.819,856.08 778.667,850.319 782.514,844.557 786.361,838.796 790.209,833.035 794.056,827.273 797.904,821.512 801.751,815.75 805.599,809.989 809.446,804.228 813.294,798.466 817.141,792.705 820.989,786.943 824.836,781.182 828.684,775.421 832.531,769.659 836.379,763.898 840.226,758.136 844.074,752.375 847.921,746.614 851.769,740.852 855.616,735.091 859.464,729.329 863.311,723.568 867.159,717.807 871.006,712.045 874.854,706.284 878.701,700.522 882.549,694.761 886.396,689 890.244,683.238 894.091,677.477 897.939,671.715 901.786,665.954 905.633,660.193 909.481,654.431 913.328,648.67 917.176,642.908 921.023,637.147 924.871,631.386 928.718,625.624 932.566,619.863 936.413,614.101 940.261,608.34 944.108,602.579 947.956,596.817 951.803,591.056 955.651,585.294 959.498,579.533 963.346,573.772 967.193,568.01 971.041,562.249 974.888,556.487 978.736,550.726 982.583,544.965 986.431,539.203 990.278,533.442 994.126,527.68 997.973,521.919 1001.82,516.158 1005.67,510.396 1009.52,504.635 1013.36,498.873 1017.21,493.112 1021.06,487.351 1024.91,481.589 1028.75,475.828 1032.6,470.066 1036.45,464.305 1040.3,458.544 1044.14,452.782 1047.99,447.021 1051.84,441.259 1055.69,435.498 1059.53,429.737 1063.38,423.975 1067.23,418.214 1071.08,412.452 1074.92,406.691 "/>
<polyline clip-path="url(#clip811)" style="stroke:#808080; stroke-linecap:round; stroke-linejoin:round; stroke-width:2.4; stroke-opacity:1; fill:none" stroke-dasharray="10, 6" points="734.678,839.595 738.066,833.552 741.454,827.509 744.842,821.466 748.23,815.423 751.618,809.38 755.006,803.337 758.394,797.294 761.782,791.251 765.17,785.208 768.558,779.165 771.947,773.122 775.335,767.079 778.723,761.036 782.111,754.993 785.499,748.95 788.887,742.907 792.275,736.864 795.663,730.821 799.051,724.778 802.439,718.735 805.827,712.692 809.215,706.649 812.603,700.606 815.991,694.563 819.379,688.52 822.768,682.477 826.156,676.434 829.544,670.391 832.932,664.348 836.32,658.305 839.708,652.262 843.096,646.219 846.484,640.176 849.872,634.133 853.26,628.09 856.648,622.047 860.036,616.004 863.424,609.961 866.812,603.918 870.201,597.875 873.589,591.832 876.977,585.789 880.365,579.746 883.753,573.703 887.141,567.66 890.529,561.617 893.917,555.574 897.305,549.531 900.693,543.488 904.081,537.445 907.469,531.402 910.857,525.359 914.245,519.316 917.633,513.273 921.022,507.23 924.41,501.187 927.798,495.144 931.186,489.101 934.574,483.058 937.962,477.015 941.35,470.972 944.738,464.929 948.126,458.886 951.514,452.843 954.902,446.8 958.29,440.757 961.678,434.714 965.066,428.671 968.455,422.628 971.843,416.585 975.231,410.542 978.619,404.499 982.007,398.456 985.395,392.413 988.783,386.37 992.171,380.327 995.559,374.284 998.947,368.241 1002.34,362.198 "/>
<polyline clip-path="url(#clip811)" style="stroke:#808080; stroke-linecap:round; stroke-linejoin:round; stroke-width:2.4; stroke-opacity:1; fill:none" stroke-dasharray="10, 6" points="697.175,820.427 700.089,814.141 703.002,807.856 705.915,801.57 708.829,795.284 711.742,788.999 714.655,782.713 717.569,776.427 720.482,770.142 723.395,763.856 726.309,757.57 729.222,751.285 732.135,744.999 735.049,738.714 737.962,732.428 740.876,726.142 743.789,719.857 746.702,713.571 749.616,707.285 752.529,701 755.442,694.714 758.356,688.428 761.269,682.143 764.182,675.857 767.096,669.572 770.009,663.286 772.922,657 775.836,650.715 778.749,644.429 781.662,638.143 784.576,631.858 787.489,625.572 790.403,619.286 793.316,613.001 796.229,606.715 799.143,600.43 802.056,594.144 804.969,587.858 807.883,581.573 810.796,575.287 813.709,569.001 816.623,562.716 819.536,556.43 822.449,550.144 825.363,543.859 828.276,537.573 831.189,531.288 834.103,525.002 837.016,518.716 839.93,512.431 842.843,506.145 845.756,499.859 848.67,493.574 851.583,487.288 854.496,481.002 857.41,474.717 860.323,468.431 863.236,462.146 866.15,455.86 869.063,449.574 871.976,443.289 874.89,437.003 877.803,430.717 880.716,424.432 883.63,418.146 886.543,411.86 889.457,405.575 892.37,399.289 895.283,393.004 898.197,386.718 901.11,380.432 904.023,374.147 906.937,367.861 909.85,361.575 912.763,355.29 915.677,349.004 918.59,342.718 921.503,336.433 924.417,330.147 927.33,323.862 "/>
<polyline clip-path="url(#clip811)" style="stroke:#808080; stroke-linecap:round; stroke-linejoin:round; stroke-width:2.4; stroke-opacity:1; fill:none" stroke-dasharray="10, 6" points="658.841,804.398 661.27,797.909 663.698,791.421 666.126,784.932 668.554,778.444 670.982,771.955 673.41,765.466 675.838,758.978 678.266,752.489 680.694,746.001 683.123,739.512 685.551,733.024 687.979,726.535 690.407,720.047 692.835,713.558 695.263,707.07 697.691,700.581 700.119,694.093 702.548,687.604 704.976,681.115 707.404,674.627 709.832,668.138 712.26,661.65 714.688,655.161 717.116,648.673 719.544,642.184 721.972,635.696 724.401,629.207 726.829,622.719 729.257,616.23 731.685,609.742 734.113,603.253 736.541,596.765 738.969,590.276 741.397,583.787 743.825,577.299 746.254,570.81 748.682,564.322 751.11,557.833 753.538,551.345 755.966,544.856 758.394,538.368 760.822,531.879 763.25,525.391 765.679,518.902 768.107,512.414 770.535,505.925 772.963,499.436 775.391,492.948 777.819,486.459 780.247,479.971 782.675,473.482 785.103,466.994 787.532,460.505 789.96,454.017 792.388,447.528 794.816,441.04 797.244,434.551 799.672,428.063 802.1,421.574 804.528,415.085 806.956,408.597 809.385,402.108 811.813,395.62 814.241,389.131 816.669,382.643 819.097,376.154 821.525,369.666 823.953,363.177 826.381,356.689 828.81,350.2 831.238,343.712 833.666,337.223 836.094,330.735 838.522,324.246 840.95,317.757 843.378,311.269 845.806,304.78 848.234,298.292 850.663,291.803 "/>
<polyline clip-path="url(#clip811)" style="stroke:#808080; stroke-linecap:round; stroke-linejoin:round; stroke-width:2.4; stroke-opacity:1; fill:none" stroke-dasharray="10, 6" points="620.049,791.511 621.986,784.859 623.923,778.207 625.86,771.556 627.797,764.904 629.734,758.252 631.671,751.601 633.608,744.949 635.545,738.297 637.482,731.646 639.419,724.994 641.356,718.342 643.294,711.691 645.231,705.039 647.168,698.387 649.105,691.736 651.042,685.084 652.979,678.432 654.916,671.781 656.853,665.129 658.79,658.477 660.727,651.826 662.664,645.174 664.601,638.522 666.538,631.871 668.475,625.219 670.412,618.567 672.35,611.916 674.287,605.264 676.224,598.612 678.161,591.961 680.098,585.309 682.035,578.657 683.972,572.006 685.909,565.354 687.846,558.703 689.783,552.051 691.72,545.399 693.657,538.748 695.594,532.096 697.531,525.444 699.469,518.793 701.406,512.141 703.343,505.489 705.28,498.838 707.217,492.186 709.154,485.534 711.091,478.883 713.028,472.231 714.965,465.579 716.902,458.928 718.839,452.276 720.776,445.624 722.713,438.973 724.65,432.321 726.587,425.669 728.525,419.018 730.462,412.366 732.399,405.714 734.336,399.063 736.273,392.411 738.21,385.759 740.147,379.108 742.084,372.456 744.021,365.804 745.958,359.153 747.895,352.501 749.832,345.849 751.769,339.198 753.706,332.546 755.643,325.894 757.581,319.243 759.518,312.591 761.455,305.939 763.392,299.288 765.329,292.636 767.266,285.984 769.203,279.333 771.14,272.681 773.077,266.029 "/>
<polyline clip-path="url(#clip811)" style="stroke:#808080; stroke-linecap:round; stroke-linejoin:round; stroke-width:2.4; stroke-opacity:1; fill:none" stroke-dasharray="10, 6" points="581.154,781.715 582.598,774.939 584.043,768.163 585.488,761.388 586.933,754.612 588.377,747.836 589.822,741.061 591.267,734.285 592.712,727.509 594.156,720.734 595.601,713.958 597.046,707.182 598.49,700.407 599.935,693.631 601.38,686.855 602.825,680.08 604.269,673.304 605.714,666.528 607.159,659.753 608.604,652.977 610.048,646.201 611.493,639.426 612.938,632.65 614.382,625.874 615.827,619.099 617.272,612.323 618.717,605.547 620.161,598.772 621.606,591.996 623.051,585.22 624.496,578.445 625.94,571.669 627.385,564.893 628.83,558.118 630.274,551.342 631.719,544.566 633.164,537.791 634.609,531.015 636.053,524.239 637.498,517.464 638.943,510.688 640.388,503.912 641.832,497.137 643.277,490.361 644.722,483.585 646.166,476.81 647.611,470.034 649.056,463.258 650.501,456.483 651.945,449.707 653.39,442.931 654.835,436.156 656.28,429.38 657.724,422.604 659.169,415.829 660.614,409.053 662.058,402.277 663.503,395.502 664.948,388.726 666.393,381.95 667.837,375.175 669.282,368.399 670.727,361.623 672.172,354.848 673.616,348.072 675.061,341.297 676.506,334.521 677.95,327.745 679.395,320.97 680.84,314.194 682.285,307.418 683.729,300.643 685.174,293.867 686.619,287.091 688.063,280.316 689.508,273.54 690.953,266.764 692.398,259.989 693.842,253.213 695.287,246.437 "/>
<polyline clip-path="url(#clip811)" style="stroke:#808080; stroke-linecap:round; stroke-linejoin:round; stroke-width:2.4; stroke-opacity:1; fill:none" stroke-dasharray="10, 6" points="542.489,774.91 543.444,768.048 544.4,761.187 545.355,754.325 546.31,747.463 547.265,740.601 548.221,733.739 549.176,726.878 550.131,720.016 551.087,713.154 552.042,706.292 552.997,699.43 553.953,692.569 554.908,685.707 555.863,678.845 556.818,671.983 557.774,665.121 558.729,658.26 559.684,651.398 560.64,644.536 561.595,637.674 562.55,630.812 563.506,623.951 564.461,617.089 565.416,610.227 566.371,603.365 567.327,596.503 568.282,589.642 569.237,582.78 570.193,575.918 571.148,569.056 572.103,562.194 573.059,555.333 574.014,548.471 574.969,541.609 575.924,534.747 576.88,527.885 577.835,521.024 578.79,514.162 579.746,507.3 580.701,500.438 581.656,493.576 582.612,486.715 583.567,479.853 584.522,472.991 585.477,466.129 586.433,459.267 587.388,452.406 588.343,445.544 589.299,438.682 590.254,431.82 591.209,424.958 592.165,418.097 593.12,411.235 594.075,404.373 595.03,397.511 595.986,390.649 596.941,383.788 597.896,376.926 598.852,370.064 599.807,363.202 600.762,356.341 601.718,349.479 602.673,342.617 603.628,335.755 604.583,328.893 605.539,322.032 606.494,315.17 607.449,308.308 608.405,301.446 609.36,294.584 610.315,287.723 611.27,280.861 612.226,273.999 613.181,267.137 614.136,260.275 615.092,253.414 616.047,246.552 617.002,239.69 617.958,232.828 "/>
<polyline clip-path="url(#clip811)" style="stroke:#808080; stroke-linecap:round; stroke-linejoin:round; stroke-width:2.4; stroke-opacity:1; fill:none" stroke-dasharray="10, 6" points="504.356,770.957 504.828,764.045 505.301,757.133 505.774,750.221 506.246,743.31 506.719,736.398 507.191,729.486 507.664,722.574 508.137,715.662 508.609,708.75 509.082,701.839 509.555,694.927 510.027,688.015 510.5,681.103 510.972,674.191 511.445,667.279 511.918,660.367 512.39,653.456 512.863,646.544 513.335,639.632 513.808,632.72 514.281,625.808 514.753,618.896 515.226,611.985 515.698,605.073 516.171,598.161 516.644,591.249 517.116,584.337 517.589,577.425 518.061,570.514 518.534,563.602 519.007,556.69 519.479,549.778 519.952,542.866 520.424,535.954 520.897,529.043 521.37,522.131 521.842,515.219 522.315,508.307 522.787,501.395 523.26,494.483 523.733,487.572 524.205,480.66 524.678,473.748 525.15,466.836 525.623,459.924 526.096,453.012 526.568,446.101 527.041,439.189 527.513,432.277 527.986,425.365 528.459,418.453 528.931,411.541 529.404,404.629 529.876,397.718 530.349,390.806 530.822,383.894 531.294,376.982 531.767,370.07 532.239,363.158 532.712,356.247 533.185,349.335 533.657,342.423 534.13,335.511 534.602,328.599 535.075,321.687 535.548,314.776 536.02,307.864 536.493,300.952 536.965,294.04 537.438,287.128 537.911,280.216 538.383,273.305 538.856,266.393 539.328,259.481 539.801,252.569 540.274,245.657 540.746,238.745 541.219,231.834 541.691,224.922 "/>
<polyline clip-path="url(#clip811)" style="stroke:#808080; stroke-linecap:round; stroke-linejoin:round; stroke-width:2.4; stroke-opacity:1; fill:none" stroke-dasharray="10, 6" points="467.02,769.682 467.02,762.754 467.02,755.826 467.02,748.898 467.02,741.97 467.02,735.042 467.02,728.114 467.02,721.186 467.02,714.258 467.02,707.33 467.02,700.402 467.02,693.474 467.02,686.546 467.02,679.618 467.02,672.69 467.02,665.762 467.02,658.834 467.02,651.906 467.02,644.978 467.02,638.05 467.02,631.122 467.02,624.194 467.02,617.266 467.02,610.339 467.02,603.411 467.02,596.483 467.02,589.555 467.02,582.627 467.02,575.699 467.02,568.771 467.02,561.843 467.02,554.915 467.02,547.987 467.02,541.059 467.02,534.131 467.02,527.203 467.02,520.275 467.02,513.347 467.02,506.419 467.02,499.491 467.02,492.563 467.02,485.635 467.02,478.707 467.02,471.779 467.02,464.851 467.02,457.923 467.02,450.995 467.02,444.067 467.02,437.139 467.02,430.211 467.02,423.283 467.02,416.355 467.02,409.427 467.02,402.499 467.02,395.571 467.02,388.643 467.02,381.715 467.02,374.787 467.02,367.859 467.02,360.931 467.02,354.003 467.02,347.075 467.02,340.147 467.02,333.219 467.02,326.291 467.02,319.364 467.02,312.436 467.02,305.508 467.02,298.58 467.02,291.652 467.02,284.724 467.02,277.796 467.02,270.868 467.02,263.94 467.02,257.012 467.02,250.084 467.02,243.156 467.02,236.228 467.02,229.3 467.02,222.372 "/>
<polyline clip-path="url(#clip811)" style="stroke:#808080; stroke-linecap:round; stroke-linejoin:round; stroke-width:2.4; stroke-opacity:1; fill:none" stroke-dasharray="10, 6" points="1014.33,1316.99 1014.24,1307.16 1013.97,1297.26 1013.52,1287.29 1012.89,1277.26 1012.06,1267.18 1011.04,1257.05 1009.82,1246.87 1008.4,1236.65 1006.78,1226.4 1004.95,1216.11 1002.92,1205.81 1000.67,1195.48 998.212,1185.14 995.537,1174.8 992.645,1164.46 989.534,1154.12 986.204,1143.8 982.652,1133.49 978.879,1123.22 974.883,1112.97 970.665,1102.77 966.223,1092.62 961.56,1082.52 956.674,1072.48 951.568,1062.51 946.241,1052.61 940.697,1042.8 934.935,1033.08 928.959,1023.46 922.771,1013.94 916.373,1004.53 909.769,995.244 902.962,986.079 895.954,977.045 888.751,968.149 881.356,959.397 873.773,950.795 866.007,942.349 858.064,934.065 849.948,925.948 841.664,918.005 833.218,910.239 824.616,902.657 815.864,895.261 806.967,888.058 797.933,881.051 788.768,874.243 779.478,867.639 770.071,861.241 760.552,855.053 750.929,849.077 741.208,843.316 731.398,837.771 721.505,832.445 711.535,827.338 701.497,822.453 691.397,817.789 681.242,813.348 671.039,809.129 660.797,805.134 650.52,801.36 640.216,797.809 629.893,794.478 619.556,791.368 609.213,788.476 598.869,785.801 588.531,783.341 578.205,781.094 567.897,779.059 557.614,777.232 547.36,775.611 537.141,774.192 526.963,772.974 516.83,771.953 506.748,771.126 496.722,770.488 486.756,770.038 476.854,769.77 467.02,769.682 "/>
<polyline clip-path="url(#clip811)" style="stroke:#808080; stroke-linecap:round; stroke-linejoin:round; stroke-width:2.4; stroke-opacity:1; fill:none" stroke-dasharray="10, 6" points="1075.14,1316.99 1075.04,1306.07 1074.75,1295.06 1074.25,1283.99 1073.54,1272.85 1072.62,1261.65 1071.48,1250.39 1070.13,1239.08 1068.56,1227.73 1066.75,1216.33 1064.72,1204.91 1062.46,1193.45 1059.97,1181.98 1057.23,1170.49 1054.26,1159 1051.05,1147.51 1047.59,1136.02 1043.89,1124.55 1039.94,1113.1 1035.75,1101.69 1031.31,1090.3 1026.63,1078.97 1021.69,1067.69 1016.51,1056.46 1011.08,1045.31 1005.41,1034.23 999.488,1023.24 993.327,1012.34 986.926,1001.54 980.286,990.846 973.41,980.269 966.302,969.816 958.964,959.494 951.4,949.311 943.614,939.273 935.61,929.388 927.393,919.664 918.968,910.106 910.339,900.722 901.513,891.517 892.495,882.499 883.291,873.673 873.906,865.045 864.349,856.619 854.624,848.402 844.739,840.399 834.702,832.613 824.518,825.049 814.196,817.711 803.743,810.602 793.166,803.727 782.474,797.087 771.674,790.685 760.773,784.524 749.781,778.606 738.703,772.932 727.55,767.504 716.327,762.322 705.044,757.387 693.708,752.7 682.327,748.26 670.909,744.068 659.46,740.122 647.99,736.421 636.505,732.965 625.012,729.752 613.519,726.779 602.032,724.046 590.559,721.55 579.106,719.288 567.68,717.258 556.286,715.457 544.932,713.881 533.623,712.528 522.365,711.393 511.163,710.474 500.022,709.766 488.948,709.265 477.946,708.968 467.02,708.87 "/>
<polyline clip-path="url(#clip811)" style="stroke:#808080; stroke-linecap:round; stroke-linejoin:round; stroke-width:2.4; stroke-opacity:1; fill:none" stroke-dasharray="10, 6" points="1135.95,1316.99 1135.85,1304.97 1135.52,1292.87 1134.97,1280.69 1134.19,1268.44 1133.18,1256.11 1131.93,1243.73 1130.44,1231.29 1128.71,1218.8 1126.73,1206.27 1124.49,1193.7 1122.01,1181.1 1119.26,1168.48 1116.25,1155.84 1112.98,1143.2 1109.45,1130.56 1105.65,1117.93 1101.58,1105.31 1097.24,1092.71 1092.63,1080.15 1087.74,1067.64 1082.59,1055.17 1077.16,1042.75 1071.46,1030.41 1065.49,1018.14 1059.24,1005.96 1052.73,993.864 1045.96,981.873 1038.92,969.993 1031.61,958.231 1024.05,946.597 1016.23,935.099 1008.16,923.745 999.838,912.543 991.273,901.501 982.469,890.628 973.43,879.931 964.163,869.417 954.671,859.095 944.963,848.97 935.042,839.05 924.918,829.341 914.595,819.85 904.081,810.582 893.384,801.544 882.511,792.739 871.47,784.175 860.268,775.855 848.914,767.783 837.415,759.963 825.781,752.4 814.019,745.096 802.139,738.054 790.149,731.278 778.057,724.768 765.872,718.526 753.603,712.555 741.258,706.855 728.847,701.427 716.377,696.271 703.858,691.387 691.298,686.775 678.705,682.435 666.087,678.364 653.453,674.562 640.811,671.027 628.168,667.758 615.533,664.752 602.913,662.006 590.315,659.518 577.746,657.285 565.213,655.304 552.723,653.57 540.283,652.082 527.899,650.833 515.577,649.822 503.322,649.043 491.141,648.493 479.039,648.165 467.02,648.057 "/>
<polyline clip-path="url(#clip811)" style="stroke:#808080; stroke-linecap:round; stroke-linejoin:round; stroke-width:2.4; stroke-opacity:1; fill:none" stroke-dasharray="10, 6" points="1196.77,1316.99 1196.65,1303.88 1196.29,1290.68 1195.69,1277.39 1194.84,1264.02 1193.74,1250.58 1192.38,1237.07 1190.75,1223.5 1188.86,1209.87 1186.7,1196.2 1184.26,1182.49 1181.55,1168.75 1178.56,1154.98 1175.28,1141.19 1171.71,1127.4 1167.85,1113.61 1163.71,1099.83 1159.26,1086.06 1154.53,1072.33 1149.5,1058.62 1144.17,1044.97 1138.55,1031.36 1132.62,1017.82 1126.41,1004.36 1119.89,990.972 1113.08,977.68 1105.98,964.488 1098.59,951.408 1090.91,938.448 1082.94,925.617 1074.69,912.925 1066.16,900.381 1057.35,887.995 1048.28,875.775 1038.93,863.729 1029.33,851.868 1019.47,840.198 1009.36,828.729 999.003,817.468 988.412,806.422 977.59,795.601 966.545,785.009 955.284,774.655 943.814,764.545 932.145,754.685 920.283,745.08 908.238,735.737 896.018,726.66 883.631,717.855 871.087,709.324 858.396,701.073 845.565,693.106 832.605,685.424 819.524,678.031 806.333,670.929 793.04,664.12 779.655,657.606 766.189,651.388 752.649,645.466 739.046,639.842 725.389,634.514 711.686,629.483 697.949,624.747 684.184,620.307 670.402,616.159 656.61,612.303 642.818,608.737 629.034,605.457 615.267,602.462 601.523,599.748 587.812,597.312 574.14,595.15 560.515,593.259 546.944,591.635 533.433,590.274 519.991,589.17 506.622,588.321 493.334,587.72 480.131,587.363 467.02,587.245 "/>
<polyline clip-path="url(#clip811)" style="stroke:#808080; stroke-linecap:round; stroke-linejoin:round; stroke-width:2.4; stroke-opacity:1; fill:none" stroke-dasharray="10, 6" points="1257.58,1316.99 1257.45,1302.79 1257.07,1288.49 1256.41,1274.09 1255.49,1259.61 1254.3,1245.04 1252.82,1230.41 1251.06,1215.71 1249.02,1200.95 1246.67,1186.13 1244.04,1171.28 1241.09,1156.39 1237.85,1141.48 1234.3,1126.54 1230.43,1111.6 1226.26,1096.66 1221.76,1081.73 1216.95,1066.82 1211.82,1051.94 1206.37,1037.09 1200.6,1022.3 1194.51,1007.56 1188.09,992.893 1181.35,978.304 1174.3,963.804 1166.92,949.404 1159.23,935.113 1151.22,920.943 1142.9,906.902 1134.27,893.002 1125.33,879.253 1116.09,865.664 1106.55,852.245 1096.71,839.006 1086.59,825.957 1076.19,813.107 1065.5,800.465 1054.55,788.04 1043.34,775.841 1031.86,763.875 1020.14,752.151 1008.17,740.677 995.972,729.46 983.547,718.508 970.905,707.826 958.055,697.421 945.006,687.299 931.767,677.466 918.349,667.926 904.76,658.685 891.01,649.747 877.11,641.115 863.07,632.793 848.899,624.784 834.609,617.09 820.208,609.714 805.708,602.657 791.119,595.921 776.451,589.506 761.715,583.413 746.919,577.641 732.075,572.19 717.193,567.06 702.281,562.25 687.35,557.757 672.409,553.579 657.468,549.716 642.536,546.163 627.621,542.918 612.732,539.977 597.877,537.338 583.066,534.997 568.306,532.948 553.604,531.189 538.968,529.714 524.405,528.518 509.923,527.598 495.527,526.947 481.224,526.561 467.02,526.433 "/>
<polyline clip-path="url(#clip811)" style="stroke:#808080; stroke-linecap:round; stroke-linejoin:round; stroke-width:2.4; stroke-opacity:1; fill:none" stroke-dasharray="10, 6" points="1318.39,1316.99 1318.25,1301.7 1317.84,1286.29 1317.14,1270.79 1316.15,1255.19 1314.86,1239.51 1313.27,1223.75 1311.38,1207.92 1309.17,1192.02 1306.65,1176.07 1303.81,1160.07 1300.64,1144.04 1297.14,1127.98 1293.32,1111.89 1289.16,1095.8 1284.66,1079.71 1279.82,1063.63 1274.64,1047.58 1269.11,1031.55 1263.24,1015.56 1257.03,999.629 1250.47,983.759 1243.56,967.962 1236.3,952.251 1228.7,936.636 1220.76,921.128 1212.48,905.738 1203.85,890.477 1194.89,875.357 1185.59,860.388 1175.97,845.58 1166.01,830.946 1155.74,816.495 1145.15,802.238 1134.25,788.186 1123.05,774.347 1111.54,760.732 1099.75,747.352 1087.67,734.214 1075.31,721.328 1062.68,708.702 1049.8,696.345 1036.66,684.266 1023.28,672.47 1009.67,660.967 995.827,649.761 981.774,638.861 967.517,628.272 953.066,617.998 938.432,608.046 923.625,598.42 908.656,589.124 893.535,580.162 878.275,571.537 862.885,563.252 847.377,555.308 831.761,547.709 816.05,540.454 800.254,533.546 784.383,526.983 768.45,520.768 752.464,514.898 736.437,509.373 720.378,504.193 704.298,499.354 688.209,494.855 672.118,490.694 656.037,486.868 639.974,483.373 623.94,480.207 607.943,477.365 591.993,474.843 576.097,472.637 560.264,470.742 544.502,469.154 528.819,467.867 513.223,466.875 497.72,466.174 482.317,465.758 467.02,465.621 "/>
<polyline clip-path="url(#clip811)" style="stroke:#808080; stroke-linecap:round; stroke-linejoin:round; stroke-width:2.4; stroke-opacity:1; fill:none" stroke-dasharray="10, 6" points="1379.2,1316.99 1379.06,1300.6 1378.61,1284.1 1377.86,1267.49 1376.8,1250.78 1375.42,1233.98 1373.72,1217.09 1371.69,1200.12 1369.32,1183.09 1366.62,1166 1363.58,1148.86 1360.18,1131.68 1356.44,1114.47 1352.34,1097.24 1347.88,1080 1343.06,1062.77 1337.88,1045.54 1332.33,1028.33 1326.41,1011.16 1320.12,994.032 1313.46,976.96 1306.43,959.956 1299.03,943.032 1291.25,926.198 1283.11,909.468 1274.6,892.852 1265.72,876.363 1256.48,860.012 1246.88,843.811 1236.92,827.773 1226.61,811.908 1215.94,796.229 1204.94,780.745 1193.59,765.47 1181.91,750.414 1169.9,735.587 1157.58,721 1144.94,706.663 1132,692.587 1118.76,678.78 1105.23,665.253 1091.43,652.013 1077.35,639.071 1063.01,626.433 1048.43,614.108 1033.6,602.102 1018.54,590.423 1003.27,579.077 987.784,568.07 972.104,557.407 956.239,547.094 940.201,537.134 924.001,527.532 907.65,518.29 891.161,509.413 874.545,500.902 857.814,492.76 840.981,484.987 824.056,477.585 807.052,470.554 789.981,463.895 772.853,457.606 755.681,451.686 738.475,446.135 721.247,440.951 704.008,436.131 686.768,431.673 669.538,427.574 652.328,423.829 635.149,420.437 618.009,417.392 600.919,414.69 583.888,412.326 566.924,410.296 550.037,408.594 533.234,407.215 516.523,406.153 499.912,405.402 483.409,404.956 467.02,404.809 "/>
<polyline clip-path="url(#clip811)" style="stroke:#808080; stroke-linecap:round; stroke-linejoin:round; stroke-width:2.4; stroke-opacity:1; fill:none" stroke-dasharray="10, 6" points="1440.02,1316.99 1439.86,1299.51 1439.38,1281.91 1438.58,1264.19 1437.45,1246.36 1435.98,1228.44 1434.16,1210.43 1432,1192.33 1429.48,1174.17 1426.59,1155.94 1423.35,1137.66 1419.73,1119.33 1415.73,1100.97 1411.36,1082.59 1406.61,1064.21 1401.46,1045.82 1395.93,1027.44 1390.01,1009.09 1383.7,990.771 1376.99,972.501 1369.89,954.291 1362.39,936.154 1354.49,918.101 1346.2,900.145 1337.52,882.299 1328.44,864.576 1318.97,846.987 1309.11,829.546 1298.87,812.266 1288.25,795.158 1277.24,778.236 1265.87,761.511 1254.13,744.996 1242.03,728.702 1229.57,712.642 1216.76,696.826 1203.62,681.267 1190.14,665.974 1176.33,650.96 1162.21,636.233 1147.78,621.803 1133.05,607.682 1118.04,593.876 1102.75,580.396 1087.19,567.249 1071.37,554.443 1055.31,541.985 1039.02,529.883 1022.5,518.142 1005.78,506.768 988.854,495.767 971.746,485.143 954.466,474.901 937.025,465.044 919.437,455.575 901.713,446.496 883.867,437.811 865.911,429.52 847.859,421.625 829.721,414.125 811.511,407.021 793.242,400.313 774.925,393.999 756.572,388.078 738.195,382.548 719.807,377.407 701.418,372.652 683.039,368.279 664.682,364.285 646.357,360.666 628.075,357.418 609.846,354.536 591.679,352.015 573.585,349.849 555.571,348.034 537.648,346.563 519.823,345.43 502.105,344.629 484.502,344.153 467.02,343.996 "/>
<polyline clip-path="url(#clip811)" style="stroke:#808080; stroke-linecap:round; stroke-linejoin:round; stroke-width:2.4; stroke-opacity:1; fill:none" stroke-dasharray="10, 6" points="1500.83,1316.99 1500.66,1298.42 1500.16,1279.71 1499.3,1260.89 1498.1,1241.95 1496.54,1222.91 1494.61,1203.77 1492.31,1184.54 1489.63,1165.24 1486.57,1145.87 1483.12,1126.45 1479.27,1106.98 1475.03,1087.47 1470.38,1067.94 1465.33,1048.41 1459.87,1028.87 1453.99,1009.34 1447.7,989.844 1440.99,970.382 1433.86,950.97 1426.32,931.623 1418.35,912.351 1409.96,893.17 1401.15,874.092 1391.92,855.131 1382.28,836.3 1372.22,817.612 1361.74,799.081 1350.86,780.721 1339.57,762.544 1327.88,744.564 1315.8,726.793 1303.32,709.246 1290.47,691.934 1277.23,674.87 1263.62,658.066 1249.65,641.534 1235.33,625.286 1220.66,609.333 1205.66,593.685 1190.33,578.354 1174.68,563.35 1158.73,548.681 1142.48,534.358 1125.95,520.39 1109.14,506.783 1092.08,493.547 1074.77,480.689 1057.22,468.214 1039.45,456.129 1021.47,444.441 1003.29,433.153 984.931,422.27 966.4,411.797 947.713,401.736 928.881,392.09 909.92,382.862 890.842,374.053 871.661,365.664 852.39,357.696 833.042,350.148 813.631,343.021 794.169,336.312 774.669,330.021 755.144,324.146 735.606,318.683 716.068,313.63 696.54,308.984 677.036,304.741 657.566,300.896 638.141,297.445 618.773,294.383 599.47,291.704 580.245,289.403 561.106,287.474 542.062,285.911 523.123,284.708 504.298,283.856 485.594,283.351 467.02,283.184 "/>
<polyline clip-path="url(#clip811)" style="stroke:#808080; stroke-linecap:round; stroke-linejoin:round; stroke-width:2.4; stroke-opacity:1; fill:none" stroke-dasharray="10, 6" points="1561.64,1316.99 1561.46,1297.33 1560.93,1277.52 1560.03,1257.59 1558.75,1237.54 1557.1,1217.37 1555.06,1197.11 1552.62,1176.75 1549.78,1156.31 1546.54,1135.81 1542.89,1115.24 1538.82,1094.62 1534.32,1073.97 1529.4,1053.3 1524.05,1032.61 1518.27,1011.92 1512.05,991.247 1505.39,970.6 1498.28,949.993 1490.74,929.44 1482.75,908.954 1474.31,888.549 1465.43,868.24 1456.1,848.039 1446.33,827.963 1436.12,808.024 1425.46,788.237 1414.37,768.616 1402.85,749.175 1390.9,729.929 1378.52,710.891 1365.73,692.076 1352.52,673.496 1338.9,655.166 1324.89,637.098 1310.48,619.306 1295.69,601.801 1280.53,584.597 1264.99,567.705 1249.11,551.138 1232.87,534.905 1216.31,519.018 1199.42,503.487 1182.21,488.321 1164.71,473.531 1146.91,459.124 1128.85,445.109 1110.52,431.494 1091.94,418.286 1073.12,405.49 1054.08,393.114 1034.84,381.162 1015.4,369.64 995.776,358.55 975.989,347.897 956.05,337.684 935.973,327.913 915.773,318.586 895.463,309.704 875.059,301.267 854.573,293.275 834.019,285.728 813.413,278.625 792.766,271.964 772.092,265.743 751.405,259.959 730.717,254.609 710.041,249.69 689.39,245.197 668.775,241.126 648.207,237.471 627.699,234.229 607.262,231.393 586.905,228.957 566.64,226.914 546.476,225.259 526.424,223.985 506.491,223.084 486.687,222.549 467.02,222.372 "/>
<polyline clip-path="url(#clip811)" style="stroke:#dc143c; stroke-linecap:round; stroke-linejoin:round; stroke-width:10; stroke-opacity:1; fill:none" points="1014.33,1316.99 1014.29,1310.47 1014.17,1303.92 1013.98,1297.34 1013.7,1290.73 1013.34,1284.1 1012.9,1277.43 1012.37,1270.75 1011.76,1264.04 1011.07,1257.31 1010.28,1250.55 1009.41,1243.78 1008.45,1237 1007.4,1230.19 1006.26,1223.38 1005.03,1216.55 1003.71,1209.71 1002.3,1202.86 1000.79,1196 999.188,1189.14 997.492,1182.28 995.7,1175.41 993.813,1168.54 991.83,1161.68 989.75,1154.81 987.574,1147.96 985.3,1141.11 982.929,1134.27 980.459,1127.44 977.892,1120.63 975.227,1113.83 972.464,1107.05 969.603,1100.29 966.643,1093.55 963.586,1086.84 960.43,1080.15 957.177,1073.49 953.826,1066.86 950.378,1060.26 946.834,1053.69 943.193,1047.16 939.456,1040.67 935.624,1034.22 931.698,1027.81 927.677,1021.45 923.563,1015.14 919.356,1008.87 915.058,1002.65 910.669,996.486 906.19,990.376 901.623,984.322 896.967,978.327 892.225,972.392 887.398,966.52 882.486,960.711 877.492,954.968 872.416,949.293 867.259,943.687 862.024,938.151 856.712,932.689 851.323,927.301 845.861,921.988 840.326,916.753 834.72,911.597 829.044,906.52 823.301,901.526 817.493,896.614 811.62,891.787 805.685,887.045 799.69,882.39 793.636,877.822 787.526,873.343 781.362,868.954 775.145,864.656 768.877,860.45 762.56,856.336 756.198,852.315 749.79,848.388 743.34,844.556 736.85,840.819 730.321,837.179 723.756,833.634 717.157,830.186 710.526,826.836 703.864,823.582 697.175,820.427 690.46,817.369 683.721,814.41 676.961,811.548 670.18,808.785 663.382,806.12 656.569,803.553 649.741,801.084 642.903,798.713 636.054,796.439 629.198,794.262 622.337,792.182 615.471,790.199 608.604,788.312 601.737,786.521 594.872,784.824 588.01,783.223 581.154,781.715 574.305,780.3 567.465,778.978 560.636,777.748 553.819,776.608 547.016,775.56 540.228,774.6 533.458,773.729 526.707,772.946 519.975,772.25 513.266,771.639 506.579,771.113 499.917,770.672 493.281,770.312 486.672,770.035 480.091,769.838 473.54,769.721 467.02,769.682 "/>
<polyline clip-path="url(#clip811)" style="stroke:#4682b4; stroke-linecap:round; stroke-linejoin:round; stroke-width:10; stroke-opacity:1; fill:none" points="1561.64,1316.99 1561.56,1303.95 1561.33,1290.85 1560.93,1277.69 1560.38,1264.47 1559.66,1251.2 1558.78,1237.87 1557.73,1224.5 1556.5,1211.08 1555.11,1197.62 1553.55,1184.12 1551.8,1170.58 1549.89,1157 1547.79,1143.4 1545.51,1129.76 1543.05,1116.1 1540.4,1102.42 1537.58,1088.73 1534.56,1075.01 1531.36,1061.29 1527.96,1047.56 1524.38,1033.82 1520.61,1020.09 1516.64,1006.36 1512.48,992.636 1508.13,978.924 1503.58,965.227 1498.84,951.55 1493.9,937.895 1488.76,924.268 1483.43,910.672 1477.91,897.112 1472.19,883.59 1466.27,870.113 1460.15,856.682 1453.84,843.304 1447.33,829.981 1440.63,816.719 1433.74,803.52 1426.65,790.39 1419.37,777.333 1411.89,764.352 1404.23,751.453 1396.37,738.638 1388.33,725.912 1380.11,713.279 1371.69,700.744 1363.1,688.309 1354.32,675.98 1345.36,663.76 1336.23,651.653 1326.91,639.663 1317.43,627.793 1307.78,616.047 1297.95,604.43 1287.96,592.944 1277.81,581.593 1267.5,570.381 1257.03,559.311 1246.4,548.386 1235.63,537.609 1224.7,526.984 1213.63,516.514 1202.42,506.201 1191.07,496.049 1179.58,486.06 1167.97,476.237 1156.22,466.582 1144.35,457.098 1132.36,447.787 1120.25,438.652 1108.03,429.694 1095.7,420.917 1083.27,412.32 1070.73,403.907 1058.1,395.679 1045.37,387.638 1032.56,379.784 1019.66,372.12 1006.68,364.647 993.622,357.365 980.492,350.276 967.294,343.38 954.031,336.679 940.709,330.173 927.33,323.862 913.9,317.746 900.422,311.827 886.901,306.104 873.34,300.578 859.744,295.248 846.117,290.114 832.463,285.176 818.785,280.433 805.089,275.885 791.377,271.532 777.653,267.373 763.923,263.407 750.188,259.632 736.454,256.05 722.723,252.657 709,249.453 695.287,246.437 681.589,243.608 667.909,240.964 654.251,238.503 640.617,236.225 627.011,234.127 613.436,232.208 599.896,230.467 586.393,228.9 572.931,227.508 559.511,226.286 546.138,225.235 532.814,224.351 519.542,223.633 506.324,223.078 493.163,222.684 480.061,222.45 467.02,222.372 "/>
<polyline clip-path="url(#clip811)" style="stroke:#000000; stroke-linecap:round; stroke-linejoin:round; stroke-width:5.6; stroke-opacity:1; fill:none" points="1014.33,1316.99 1018.93,1316.99 1023.53,1316.99 1028.13,1316.99 1032.73,1316.99 1037.33,1316.99 1041.93,1316.99 1046.53,1316.99 1051.12,1316.99 1055.72,1316.99 1060.32,1316.99 1064.92,1316.99 1069.52,1316.99 1074.12,1316.99 1078.72,1316.99 1083.32,1316.99 1087.92,1316.99 1092.52,1316.99 1097.12,1316.99 1101.72,1316.99 1106.32,1316.99 1110.91,1316.99 1115.51,1316.99 1120.11,1316.99 1124.71,1316.99 1129.31,1316.99 1133.91,1316.99 1138.51,1316.99 1143.11,1316.99 1147.71,1316.99 1152.31,1316.99 1156.91,1316.99 1161.51,1316.99 1166.11,1316.99 1170.7,1316.99 1175.3,1316.99 1179.9,1316.99 1184.5,1316.99 1189.1,1316.99 1193.7,1316.99 1198.3,1316.99 1202.9,1316.99 1207.5,1316.99 1212.1,1316.99 1216.7,1316.99 1221.3,1316.99 1225.9,1316.99 1230.49,1316.99 1235.09,1316.99 1239.69,1316.99 1244.29,1316.99 1248.89,1316.99 1253.49,1316.99 1258.09,1316.99 1262.69,1316.99 1267.29,1316.99 1271.89,1316.99 1276.49,1316.99 1281.09,1316.99 1285.69,1316.99 1290.29,1316.99 1294.88,1316.99 1299.48,1316.99 1304.08,1316.99 1308.68,1316.99 1313.28,1316.99 1317.88,1316.99 1322.48,1316.99 1327.08,1316.99 1331.68,1316.99 1336.28,1316.99 1340.88,1316.99 1345.48,1316.99 1350.08,1316.99 1354.67,1316.99 1359.27,1316.99 1363.87,1316.99 1368.47,1316.99 1373.07,1316.99 1377.67,1316.99 1382.27,1316.99 1386.87,1316.99 1391.47,1316.99 1396.07,1316.99 1400.67,1316.99 1405.27,1316.99 1409.87,1316.99 1414.46,1316.99 1419.06,1316.99 1423.66,1316.99 1428.26,1316.99 1432.86,1316.99 1437.46,1316.99 1442.06,1316.99 1446.66,1316.99 1451.26,1316.99 1455.86,1316.99 1460.46,1316.99 1465.06,1316.99 1469.66,1316.99 1474.25,1316.99 1478.85,1316.99 1483.45,1316.99 1488.05,1316.99 1492.65,1316.99 1497.25,1316.99 1501.85,1316.99 1506.45,1316.99 1511.05,1316.99 1515.65,1316.99 1520.25,1316.99 1524.85,1316.99 1529.45,1316.99 1534.05,1316.99 1538.64,1316.99 1543.24,1316.99 1547.84,1316.99 1552.44,1316.99 1557.04,1316.99 1561.64,1316.99 "/>
<polyline clip-path="url(#clip811)" style="stroke:#000000; stroke-linecap:round; stroke-linejoin:round; stroke-width:5.6; stroke-opacity:1; fill:none" points="467.02,769.682 467.02,765.083 467.02,760.483 467.02,755.884 467.02,751.285 467.02,746.686 467.02,742.086 467.02,737.487 467.02,732.888 467.02,728.289 467.02,723.69 467.02,719.09 467.02,714.491 467.02,709.892 467.02,705.293 467.02,700.693 467.02,696.094 467.02,691.495 467.02,686.896 467.02,682.296 467.02,677.697 467.02,673.098 467.02,668.499 467.02,663.899 467.02,659.3 467.02,654.701 467.02,650.102 467.02,645.502 467.02,640.903 467.02,636.304 467.02,631.705 467.02,627.105 467.02,622.506 467.02,617.907 467.02,613.308 467.02,608.708 467.02,604.109 467.02,599.51 467.02,594.911 467.02,590.311 467.02,585.712 467.02,581.113 467.02,576.514 467.02,571.914 467.02,567.315 467.02,562.716 467.02,558.117 467.02,553.517 467.02,548.918 467.02,544.319 467.02,539.72 467.02,535.12 467.02,530.521 467.02,525.922 467.02,521.323 467.02,516.724 467.02,512.124 467.02,507.525 467.02,502.926 467.02,498.327 467.02,493.727 467.02,489.128 467.02,484.529 467.02,479.93 467.02,475.33 467.02,470.731 467.02,466.132 467.02,461.533 467.02,456.933 467.02,452.334 467.02,447.735 467.02,443.136 467.02,438.536 467.02,433.937 467.02,429.338 467.02,424.739 467.02,420.139 467.02,415.54 467.02,410.941 467.02,406.342 467.02,401.742 467.02,397.143 467.02,392.544 467.02,387.945 467.02,383.345 467.02,378.746 467.02,374.147 467.02,369.548 467.02,364.948 467.02,360.349 467.02,355.75 467.02,351.151 467.02,346.551 467.02,341.952 467.02,337.353 467.02,332.754 467.02,328.154 467.02,323.555 467.02,318.956 467.02,314.357 467.02,309.757 467.02,305.158 467.02,300.559 467.02,295.96 467.02,291.361 467.02,286.761 467.02,282.162 467.02,277.563 467.02,272.964 467.02,268.364 467.02,263.765 467.02,259.166 467.02,254.567 467.02,249.967 467.02,245.368 467.02,240.769 467.02,236.17 467.02,231.57 467.02,226.971 467.02,222.372 "/>
<path clip-path="url(#clip810)" d="M1870.58 445.056 L2192.76 445.056 L2192.76 237.696 L1870.58 237.696  Z" fill="#ffffff" fill-rule="evenodd" fill-opacity="1"/>
<polyline clip-path="url(#clip810)" style="stroke:#000000; stroke-linecap:round; stroke-linejoin:round; stroke-width:4; stroke-opacity:1; fill:none" points="1870.58,445.056 2192.76,445.056 2192.76,237.696 1870.58,237.696 1870.58,445.056 "/>
<polyline clip-path="url(#clip810)" style="stroke:#dc143c; stroke-linecap:round; stroke-linejoin:round; stroke-width:10; stroke-opacity:1; fill:none" points="1892.45,289.536 2023.72,289.536 "/>
<path clip-path="url(#clip810)" d="M2045.6 280.89 L2049.86 280.89 L2049.86 306.816 L2045.6 306.816 L2045.6 280.89 M2045.6 270.797 L2049.86 270.797 L2049.86 276.191 L2045.6 276.191 L2045.6 270.797 Z" fill="#000000" fill-rule="nonzero" fill-opacity="1" /><path clip-path="url(#clip810)" d="M2080.32 291.168 L2080.32 306.816 L2076.06 306.816 L2076.06 291.307 Q2076.06 287.626 2074.63 285.797 Q2073.19 283.969 2070.32 283.969 Q2066.87 283.969 2064.88 286.168 Q2062.89 288.367 2062.89 292.163 L2062.89 306.816 L2058.61 306.816 L2058.61 280.89 L2062.89 280.89 L2062.89 284.918 Q2064.42 282.58 2066.48 281.422 Q2068.56 280.265 2071.27 280.265 Q2075.74 280.265 2078.03 283.043 Q2080.32 285.797 2080.32 291.168 Z" fill="#000000" fill-rule="nonzero" fill-opacity="1" /><path clip-path="url(#clip810)" d="M2110.37 291.168 L2110.37 306.816 L2106.11 306.816 L2106.11 291.307 Q2106.11 287.626 2104.67 285.797 Q2103.24 283.969 2100.37 283.969 Q2096.92 283.969 2094.93 286.168 Q2092.94 288.367 2092.94 292.163 L2092.94 306.816 L2088.66 306.816 L2088.66 280.89 L2092.94 280.89 L2092.94 284.918 Q2094.47 282.58 2096.53 281.422 Q2098.61 280.265 2101.32 280.265 Q2105.79 280.265 2108.08 283.043 Q2110.37 285.797 2110.37 291.168 Z" fill="#000000" fill-rule="nonzero" fill-opacity="1" /><path clip-path="url(#clip810)" d="M2141.04 292.788 L2141.04 294.871 L2121.46 294.871 Q2121.73 299.269 2124.1 301.584 Q2126.48 303.876 2130.72 303.876 Q2133.17 303.876 2135.46 303.274 Q2137.78 302.672 2140.04 301.469 L2140.04 305.496 Q2137.75 306.469 2135.35 306.978 Q2132.94 307.487 2130.46 307.487 Q2124.26 307.487 2120.62 303.876 Q2117.01 300.265 2117.01 294.107 Q2117.01 287.742 2120.44 284.015 Q2123.89 280.265 2129.72 280.265 Q2134.95 280.265 2137.98 283.645 Q2141.04 287.001 2141.04 292.788 M2136.78 291.538 Q2136.73 288.043 2134.81 285.959 Q2132.91 283.876 2129.77 283.876 Q2126.2 283.876 2124.05 285.89 Q2121.92 287.904 2121.6 291.561 L2136.78 291.538 Z" fill="#000000" fill-rule="nonzero" fill-opacity="1" /><path clip-path="url(#clip810)" d="M2163.05 284.871 Q2162.34 284.455 2161.48 284.27 Q2160.65 284.061 2159.63 284.061 Q2156.02 284.061 2154.07 286.422 Q2152.15 288.76 2152.15 293.158 L2152.15 306.816 L2147.87 306.816 L2147.87 280.89 L2152.15 280.89 L2152.15 284.918 Q2153.49 282.557 2155.65 281.422 Q2157.8 280.265 2160.88 280.265 Q2161.32 280.265 2161.85 280.334 Q2162.38 280.381 2163.03 280.496 L2163.05 284.871 Z" fill="#000000" fill-rule="nonzero" fill-opacity="1" /><polyline clip-path="url(#clip810)" style="stroke:#4682b4; stroke-linecap:round; stroke-linejoin:round; stroke-width:10; stroke-opacity:1; fill:none" points="1892.45,341.376 2023.72,341.376 "/>
<path clip-path="url(#clip810)" d="M2057.5 335.716 Q2054.07 335.716 2052.08 338.401 Q2050.09 341.063 2050.09 345.716 Q2050.09 350.369 2052.06 353.054 Q2054.05 355.716 2057.5 355.716 Q2060.9 355.716 2062.89 353.031 Q2064.88 350.346 2064.88 345.716 Q2064.88 341.11 2062.89 338.424 Q2060.9 335.716 2057.5 335.716 M2057.5 332.105 Q2063.05 332.105 2066.23 335.716 Q2069.4 339.327 2069.4 345.716 Q2069.4 352.082 2066.23 355.716 Q2063.05 359.327 2057.5 359.327 Q2051.92 359.327 2048.75 355.716 Q2045.6 352.082 2045.6 345.716 Q2045.6 339.327 2048.75 335.716 Q2051.92 332.105 2057.5 332.105 Z" fill="#000000" fill-rule="nonzero" fill-opacity="1" /><path clip-path="url(#clip810)" d="M2076.02 348.424 L2076.02 332.73 L2080.28 332.73 L2080.28 348.262 Q2080.28 351.943 2081.71 353.795 Q2083.15 355.623 2086.02 355.623 Q2089.47 355.623 2091.46 353.424 Q2093.47 351.225 2093.47 347.429 L2093.47 332.73 L2097.73 332.73 L2097.73 358.656 L2093.47 358.656 L2093.47 354.674 Q2091.92 357.035 2089.86 358.193 Q2087.82 359.327 2085.11 359.327 Q2080.65 359.327 2078.33 356.549 Q2076.02 353.772 2076.02 348.424 M2086.73 332.105 L2086.73 332.105 Z" fill="#000000" fill-rule="nonzero" fill-opacity="1" /><path clip-path="url(#clip810)" d="M2110.72 325.369 L2110.72 332.73 L2119.49 332.73 L2119.49 336.04 L2110.72 336.04 L2110.72 350.114 Q2110.72 353.285 2111.57 354.188 Q2112.45 355.091 2115.11 355.091 L2119.49 355.091 L2119.49 358.656 L2115.11 358.656 Q2110.18 358.656 2108.31 356.827 Q2106.43 354.975 2106.43 350.114 L2106.43 336.04 L2103.31 336.04 L2103.31 332.73 L2106.43 332.73 L2106.43 325.369 L2110.72 325.369 Z" fill="#000000" fill-rule="nonzero" fill-opacity="1" /><path clip-path="url(#clip810)" d="M2147.27 344.628 L2147.27 346.711 L2127.68 346.711 Q2127.96 351.109 2130.32 353.424 Q2132.71 355.716 2136.94 355.716 Q2139.4 355.716 2141.69 355.114 Q2144 354.512 2146.27 353.309 L2146.27 357.336 Q2143.98 358.309 2141.57 358.818 Q2139.16 359.327 2136.69 359.327 Q2130.48 359.327 2126.85 355.716 Q2123.24 352.105 2123.24 345.947 Q2123.24 339.582 2126.67 335.855 Q2130.11 332.105 2135.95 332.105 Q2141.18 332.105 2144.21 335.485 Q2147.27 338.841 2147.27 344.628 M2143.01 343.378 Q2142.96 339.883 2141.04 337.799 Q2139.14 335.716 2135.99 335.716 Q2132.43 335.716 2130.28 337.73 Q2128.15 339.744 2127.82 343.401 L2143.01 343.378 Z" fill="#000000" fill-rule="nonzero" fill-opacity="1" /><path clip-path="url(#clip810)" d="M2169.28 336.711 Q2168.56 336.295 2167.71 336.11 Q2166.87 335.901 2165.85 335.901 Q2162.24 335.901 2160.3 338.262 Q2158.38 340.6 2158.38 344.998 L2158.38 358.656 L2154.1 358.656 L2154.1 332.73 L2158.38 332.73 L2158.38 336.758 Q2159.72 334.397 2161.87 333.262 Q2164.03 332.105 2167.1 332.105 Q2167.54 332.105 2168.08 332.174 Q2168.61 332.221 2169.26 332.336 L2169.28 336.711 Z" fill="#000000" fill-rule="nonzero" fill-opacity="1" /><polyline clip-path="url(#clip810)" style="stroke:#000000; stroke-linecap:round; stroke-linejoin:round; stroke-width:5.6; stroke-opacity:1; fill:none" points="1892.45,393.216 2023.72,393.216 "/>
<path clip-path="url(#clip810)" d="M2060.79 388.551 Q2060.07 388.135 2059.21 387.95 Q2058.38 387.741 2057.36 387.741 Q2053.75 387.741 2051.8 390.102 Q2049.88 392.44 2049.88 396.838 L2049.88 410.496 L2045.6 410.496 L2045.6 384.57 L2049.88 384.57 L2049.88 388.598 Q2051.23 386.237 2053.38 385.102 Q2055.53 383.945 2058.61 383.945 Q2059.05 383.945 2059.58 384.014 Q2060.11 384.061 2060.76 384.176 L2060.79 388.551 Z" fill="#000000" fill-rule="nonzero" fill-opacity="1" /><path clip-path="url(#clip810)" d="M2077.04 397.463 Q2071.87 397.463 2069.88 398.644 Q2067.89 399.825 2067.89 402.672 Q2067.89 404.94 2069.37 406.283 Q2070.88 407.602 2073.45 407.602 Q2076.99 407.602 2079.12 405.102 Q2081.27 402.579 2081.27 398.412 L2081.27 397.463 L2077.04 397.463 M2085.53 395.704 L2085.53 410.496 L2081.27 410.496 L2081.27 406.561 Q2079.81 408.922 2077.64 410.056 Q2075.46 411.167 2072.31 411.167 Q2068.33 411.167 2065.97 408.945 Q2063.63 406.699 2063.63 402.949 Q2063.63 398.575 2066.55 396.352 Q2069.49 394.13 2075.3 394.13 L2081.27 394.13 L2081.27 393.713 Q2081.27 390.774 2079.33 389.176 Q2077.41 387.556 2073.91 387.556 Q2071.69 387.556 2069.58 388.088 Q2067.48 388.621 2065.53 389.686 L2065.53 385.751 Q2067.87 384.848 2070.07 384.408 Q2072.27 383.945 2074.35 383.945 Q2079.98 383.945 2082.75 386.862 Q2085.53 389.778 2085.53 395.704 Z" fill="#000000" fill-rule="nonzero" fill-opacity="1" /><path clip-path="url(#clip810)" d="M2111.36 388.505 L2111.36 374.477 L2115.62 374.477 L2115.62 410.496 L2111.36 410.496 L2111.36 406.607 Q2110.02 408.922 2107.96 410.056 Q2105.92 411.167 2103.05 411.167 Q2098.35 411.167 2095.39 407.417 Q2092.45 403.667 2092.45 397.556 Q2092.45 391.445 2095.39 387.695 Q2098.35 383.945 2103.05 383.945 Q2105.92 383.945 2107.96 385.079 Q2110.02 386.19 2111.36 388.505 M2096.85 397.556 Q2096.85 402.255 2098.77 404.94 Q2100.72 407.602 2104.1 407.602 Q2107.48 407.602 2109.42 404.94 Q2111.36 402.255 2111.36 397.556 Q2111.36 392.857 2109.42 390.195 Q2107.48 387.51 2104.1 387.51 Q2100.72 387.51 2098.77 390.195 Q2096.85 392.857 2096.85 397.556 Z" fill="#000000" fill-rule="nonzero" fill-opacity="1" /><path clip-path="url(#clip810)" d="M2124.4 384.57 L2128.66 384.57 L2128.66 410.496 L2124.4 410.496 L2124.4 384.57 M2124.4 374.477 L2128.66 374.477 L2128.66 379.871 L2124.4 379.871 L2124.4 374.477 Z" fill="#000000" fill-rule="nonzero" fill-opacity="1" /><path clip-path="url(#clip810)" d="M2149.35 397.463 Q2144.19 397.463 2142.2 398.644 Q2140.21 399.825 2140.21 402.672 Q2140.21 404.94 2141.69 406.283 Q2143.19 407.602 2145.76 407.602 Q2149.3 407.602 2151.43 405.102 Q2153.59 402.579 2153.59 398.412 L2153.59 397.463 L2149.35 397.463 M2157.85 395.704 L2157.85 410.496 L2153.59 410.496 L2153.59 406.561 Q2152.13 408.922 2149.95 410.056 Q2147.78 411.167 2144.63 411.167 Q2140.65 411.167 2138.29 408.945 Q2135.95 406.699 2135.95 402.949 Q2135.95 398.575 2138.86 396.352 Q2141.8 394.13 2147.61 394.13 L2153.59 394.13 L2153.59 393.713 Q2153.59 390.774 2151.64 389.176 Q2149.72 387.556 2146.23 387.556 Q2144 387.556 2141.9 388.088 Q2139.79 388.621 2137.85 389.686 L2137.85 385.751 Q2140.18 384.848 2142.38 384.408 Q2144.58 383.945 2146.66 383.945 Q2152.29 383.945 2155.07 386.862 Q2157.85 389.778 2157.85 395.704 Z" fill="#000000" fill-rule="nonzero" fill-opacity="1" /><path clip-path="url(#clip810)" d="M2166.62 374.477 L2170.88 374.477 L2170.88 410.496 L2166.62 410.496 L2166.62 374.477 Z" fill="#000000" fill-rule="nonzero" fill-opacity="1" /></svg>
