<?xml version="1.0" encoding="UTF-8"?>
<svg id="_レイヤー_2" data-name="レイヤー 2" xmlns="http://www.w3.org/2000/svg" viewBox="0 0 160 71.36">
  <defs>
    <style>
      .cls-1 {
        fill: #7658b2;
      }

      .cls-2 {
        fill: #4059d8;
      }

      .cls-3 {
        fill: #b25894;
      }

      .cls-4 {
        fill: #cb4a33;
      }

      .cls-5 {
        fill: #4076d8;
      }

      .cls-6 {
        fill: #389826;
      }

      .cls-7 {
        fill: #269872;
      }

      .cls-8 {
        fill: #9558b2;
      }

      .cls-9 {
        fill: #4063d8;
      }

      .cls-10 {
        fill: #cb5e33;
      }

      .cls-11 {
        fill: #639826;
      }

      .cls-12 {
        fill: #cb3c33;
      }

      .cls-13 {
        fill: #4054d8;
      }
    </style>
  </defs>
  <g id="_レイヤー_1-2" data-name="レイヤー 1">
    <polygon class="cls-12" points="30.84 0 27.46 9.89 0 23.28 0 0 30.84 0"/>
    <path class="cls-2" d="M48.51,42.92c-1.04.45-2.34.71-3.9.71-2.02,0-4.04-.55-5.03-1.11l.82-3.32c1.06.57,2.74,1.12,4.46,1.12,1.85,0,2.83-.77,2.83-1.94,0-1.1-.85-1.74-2.98-2.49-2.97-1.05-4.91-2.67-4.91-5.27,0-2.82,2.19-5,5.83-5.3l-17.89-14.62L0,24.23v20.96l29.84,19,18.79-19.75-.12-1.52ZM24.02,28.93h-4.87v14.42h-4.03v-14.42h-4.8v-3.38h13.7v3.38ZM37.51,43.35h-11.35v-17.8h10.97v3.3h-6.95v3.71h6.55v3.26h-6.55v4.24h7.33v3.29Z"/>
    <path class="cls-13" d="M47.75,33.01c-.18-.08-.37-.16-.57-.23-2.31-.88-3.3-1.38-3.3-2.51,0-.91.84-1.72,2.59-1.72.33,0,.65.02.94.05l.34,4.41Z"/>
    <path class="cls-9" d="M65.65,7.67l-17.52,17.7c-.37-.05-.77-.08-1.2-.09l-18.63-15.22L31.73,0h28.99l4.93,7.67Z"/>
    <path class="cls-5" d="M85.19,43.35h-2.29v-17.55c.52-.09,1.15-.17,1.86-.23l-.22-9.12-18.26-8.22-17.14,17.31c.77.15,1.41.38,1.94.63l-.89,3.23c-.43-.21-1.08-.48-1.91-.66l.35,4.68c2.15,1.12,3.16,2.6,3.16,4.69,0,1.76-.8,3.37-2.46,4.38l.14,1.87,18.82,12.99,16.93-12.55-.03-1.45ZM58.88,43.63c-2.02,0-4.04-.55-5.03-1.11l.81-3.32c1.07.57,2.74,1.12,4.46,1.12,1.85,0,2.83-.77,2.83-1.94,0-1.1-.85-1.74-2.98-2.49-2.97-1.05-4.91-2.67-4.91-5.27,0-3.04,2.55-5.35,6.73-5.35,2.03,0,3.5.41,4.55.9l-.89,3.23c-.71-.34-1.99-.85-3.72-.85s-2.59.81-2.59,1.72c0,1.13.99,1.63,3.3,2.51,3.15,1.18,4.61,2.81,4.61,5.33,0,2.97-2.27,5.52-7.17,5.52ZM80.14,43.35h-11.35v-17.8h10.97v3.3h-6.94v3.71h6.55v3.26h-6.55v4.24h7.32v3.29Z"/>
    <polygon class="cls-1" points="30.12 71.36 0 71.36 0 46.19 29.5 64.98 30.12 71.36"/>
    <polygon class="cls-4" points="67.86 58.08 66.49 71.36 30.98 71.36 30.35 64.88 49.13 45.16 67.86 58.08"/>
    <polygon class="cls-10" points="102.93 65.6 102.77 71.36 67.34 71.36 68.71 58.11 85.58 45.58 102.93 65.6"/>
    <polygon class="cls-3" points="148.21 71.36 103.62 71.36 103.78 65.66 120.97 51.22 148.21 71.36"/>
    <path class="cls-8" d="M126.22,32.56h.25v3.26h-1.9l-.91,4.24h3.58v3.29h-4.28l-1.53,7.15,28.21,20.86h10.36V7.38l-33.78,25.18ZM131.93,43.64c-1.4,0-2.37-1.02-2.37-2.43s.99-2.45,2.37-2.45,2.35.99,2.37,2.45c0,1.41-.95,2.43-2.37,2.43ZM141.26,42.65c0,2.81-.61,4.52-1.81,5.65-1.2,1.09-3.07,1.57-5,1.57l-.38-3.13c1.04-.09,1.87-.33,2.37-.85.58-.6.8-1.64.8-4.21v-10.25h4.02v11.22ZM139.21,29.84c-1.28,0-2.1-.89-2.1-2s.84-2.02,2.14-2.02,2.1.87,2.12,2.02c0,1.11-.82,2-2.16,2ZM148.43,44.35h-4.02v-18.75h4.02v18.75Z"/>
    <polygon class="cls-11" points="160 0 160 6.32 124.79 32.56 124.62 32.56 120.2 28.85 126.86 28.85 126.86 25.55 116.27 25.55 96.95 9.33 96.95 9.32 100.75 0 160 0"/>
    <path class="cls-6" d="M115.89,43.35v-17.01l-19.49-16.37-11.01,6.44.22,9.09c.82-.06,1.71-.09,2.64-.09,2.64,0,4.49.41,5.76,1.41,1.06.85,1.65,2.1,1.65,3.73,0,2.26-1.61,3.83-3.14,4.38v.08c1.23.5,1.92,1.68,2.37,3.32.55,2.01,1.09,4.33,1.44,5.02h-4.12c-.27-.51-.72-1.94-1.23-4.15-.49-2.22-1.24-2.82-2.89-2.84h-1.2v6.99h-.86l.04,1.49h0s17.34,20.01,17.34,20.01l17.16-14.41,1.51-7.09h-6.19ZM109.18,43.35l-1.37-4.57h-5.12l-1.26,4.57h-4.16l5.43-17.8h5.27l5.54,17.8h-4.33Z"/>
    <path class="cls-6" d="M91.66,30.89c0,1.54-1.2,2.56-3.2,2.56h-1.57v-4.9c.28-.07.85-.14,1.81-.14,1.84.01,2.96.85,2.96,2.48Z"/>
    <path class="cls-6" d="M107.21,35.78h-3.94l1.07-3.78c.28-1.03.55-2.38.81-3.43h.06c.27,1.04.59,2.38.89,3.43l1.11,3.78Z"/>
    <polygon class="cls-6" points="123.29 32.56 119.92 32.56 119.92 29.73 123.29 32.56"/>
    <polygon class="cls-6" points="123.69 35.82 122.79 40.06 119.92 40.06 119.92 35.82 123.69 35.82"/>
    <polygon class="cls-7" points="99.83 0 96.1 9.16 84.93 15.69 66.48 7.38 61.73 0 99.83 0"/>
  </g>
</svg>