<?xml version="1.0" encoding="UTF-8"?>
<svg id="_レイヤー_2" data-name="レイヤー 2" xmlns="http://www.w3.org/2000/svg" xmlns:xlink="http://www.w3.org/1999/xlink" viewBox="0 0 208.07 194.84">
  <defs>
    <style>
      .cls-1 {
        fill: #e28f82;
      }

      .cls-2 {
        fill: #d3a509;
      }

      .cls-3 {
        fill: #f0acb6;
      }

      .cls-4 {
        fill: #da9b1d;
      }

      .cls-5 {
        fill: url(#_名称未設定グラデーション_752);
      }

      .cls-6 {
        fill: url(#_名称未設定グラデーション_750);
      }

      .cls-7 {
        fill: url(#_名称未設定グラデーション_751);
      }

      .cls-8 {
        fill: url(#_名称未設定グラデーション_748);
      }

      .cls-9 {
        fill: url(#_名称未設定グラデーション_747);
      }

      .cls-10 {
        fill: url(#_名称未設定グラデーション_749);
      }

      .cls-11 {
        fill: #ed98a7;
      }
    </style>
    <linearGradient id="_名称未設定グラデーション_752" data-name="名称未設定グラデーション 752" x1="70.25" y1="166.51" x2="53.26" y2="191.15" gradientUnits="userSpaceOnUse">
      <stop offset="0" stop-color="#e894a3"/>
      <stop offset="1" stop-color="#f0b1ba"/>
    </linearGradient>
    <linearGradient id="_名称未設定グラデーション_751" data-name="名称未設定グラデーション 751" x1="95.58" y1="152.73" x2="76.45" y2="181.39" gradientUnits="userSpaceOnUse">
      <stop offset="0" stop-color="#ed99a8"/>
      <stop offset="1" stop-color="#f1b3bc"/>
    </linearGradient>
    <linearGradient id="_名称未設定グラデーション_750" data-name="名称未設定グラデーション 750" x1="112.43" y1="153.61" x2="130.02" y2="174.77" gradientUnits="userSpaceOnUse">
      <stop offset="0" stop-color="#e6919e"/>
      <stop offset="1" stop-color="#efaeb7"/>
    </linearGradient>
    <linearGradient id="_名称未設定グラデーション_749" data-name="名称未設定グラデーション 749" x1="136.76" y1="129.38" x2="163.07" y2="138.29" gradientUnits="userSpaceOnUse">
      <stop offset="0" stop-color="#ea95a5"/>
      <stop offset="1" stop-color="#f0acb6"/>
    </linearGradient>
    <linearGradient id="_名称未設定グラデーション_748" data-name="名称未設定グラデーション 748" x1="13.66" y1="53.6" x2="40.84" y2="67.38" gradientUnits="userSpaceOnUse">
      <stop offset="0" stop-color="#f1b4bc"/>
      <stop offset="1" stop-color="#eb9aa8"/>
    </linearGradient>
    <linearGradient id="_名称未設定グラデーション_747" data-name="名称未設定グラデーション 747" x1="4.72" y1="80.7" x2="27.43" y2="98.93" gradientUnits="userSpaceOnUse">
      <stop offset="0" stop-color="#f1b3bb"/>
      <stop offset="1" stop-color="#ed9aa7"/>
    </linearGradient>
  </defs>
  <g id="_レイヤー_3" data-name="レイヤー 3">
    <g id="_生成オブジェクト" data-name="生成オブジェクト">
      <g>
        <path class="cls-11" d="M79.83,67.42c-.12,0-.23-.01-.32-.04-.93-.27-6.52-8.26-6.95-9.03-3.61-6.45-4.73-12.53-3.75-20.33.01-.08,1.3-8.45,3.31-8.89.12-.03.3-.04.52-.04s.49.02.65.03c1.07.13,18.8,7.79,19.76,8.54.54.42,1.22,1.33,1.53,1.8.84,1.29,6.6,14.14,6.93,15.45l.03.11c.15.59.31,1.21.25,1.86v.16s-.15.09-.15.09c-2.72,1.81-18.93,10.27-21.81,10.27Z"/>
        <path class="cls-11" d="M113.8,86.75c-.21,0-.41-.01-.62-.04-.45-.06-6.67-2.22-7.01-2.43-.59-.36-1.22-1.36-1.34-1.94-.36-1.64-.12-22.27.27-23.47.42-1.28,12.03-10.42,13.08-10.68.23-.06.5-.09.79-.09.6,0,1.35.13,2.05.36.89.29,13.6,7.72,14.17,8.29.81.81,1.13,1.34,1.02,2.52-.31,3.39-17.35,25.72-20.72,27.15-.51.22-1.09.33-1.68.33Z"/>
        <path class="cls-3" d="M92.29,35.1c-1.04-.07-17.84-7.26-18.73-8.02-2.3-1.97.6-6.78,2.16-9.36l.28-.46C78.38,13.28,89.23.59,93.59.01c.07,0,.14-.01.21-.01,2.84,0,8.61,7.22,9.03,9.42.29,1.5-.33,11.96-.8,13.65-.34,1.22-7.31,11.77-8.6,12.02h-.87c-.09.01-.18.01-.28,0Z"/>
        <path class="cls-3" d="M136.53,54.98c-.55,0-1.14-.25-1.96-.6l-.57-.24c-1.2-.5-13.78-7.58-14.34-8.77-.37-.8-2.65-14.2-2.68-15.22v-.4c-.06-1.19-.11-2.22,1.05-3.18.56-.47,13.09-5.05,13.96-5.11.12,0,.24-.01.36-.01,1.44,0,2.56.56,3.25,1.62,3.54,5.4,4.96,24.09,2.95,29.68-.48,1.34-1.01,2.24-2.03,2.24Z"/>
        <path class="cls-3" d="M104.94,55.3c-.97,0-1.53-.41-2.16-1.12-.66-.75-7.39-15.88-7.5-16.86-.23-2.12,6.53-11.49,8.06-11.88.23-.06.54-.09.97-.09,2.47,0,9.48,1.22,10.4,2.76.53.89,2.9,13.81,2.96,14.98.06,1.07.14,2.62-.29,3.6-.35.8-10.57,8.38-11.5,8.54-.37.06-.67.09-.93.09Z"/>
        <path class="cls-3" d="M115.32,25.04c-.59,0-9.88-1.75-10.42-2.37l-.07-.08v-.11c-.28-3.04-.84-9.36.27-12.58.52-1.51,8-9.55,9.7-9.62h0c2.83,0,11.89,8.44,13.64,10.58,3.63,4.43,4.85,7.05,3.83,8.24-.74.88-15.97,5.91-16.92,5.94h-.03Z"/>
        <path class="cls-11" d="M93.75,86.99c-.08,0-.14,0-.2-.02-1-.27-3.24-3.47-6.81-8.72-1.95-2.86-3.79-5.57-4.59-6.32l-.06-.05-.03-.07c-.57-1.52-.43-2.11.76-3.15.64-.56,17.51-9,18.73-9.08.11,0,.21-.01.3-.01.71,0,1,.25,1.44.8l.08.1-1.07,22.37c-.48,1.67-7.49,4.17-8.56,4.17Z"/>
      </g>
      <g>
        <g>
          <path class="cls-11" d="M121.42,108.68l.08-.29c.22-.84.26-2,.3-3.22.08-2.35.16-4.78,1.54-5.83,1.27-.97,26.85-10.53,28.5-10.66h.13c1.06,0,2.17.91,2.92,1.68,1.83,1.89,3.32,4.73,3.27,6.21-.05,1.31-7.87,20.76-8.81,21.91-.19.24-.43.45-.66.67-.19.17-.38.34-.54.53l-.16.19-26.57-11.2Z"/>
          <path class="cls-11" d="M159.6,122.39c-4.34,0-6.93-.37-7.7-1.09-.82-.77-.52-1.95-.3-2.81l.07-.3c.36-1.52,7.15-18.6,7.73-19.44.17-.25.43-.47.67-.69.2-.17.4-.35.53-.52l.14-.17.21.05c1.76.44,4.77.46,7.69.47,3.67.02,7.46.04,9.3.87.82.37,9.75,11.11,10.35,12.19l.19.34c.41.71.92,1.58.63,2.57-.78,2.62-15.4,7.33-17.87,7.78-1.69.31-6.94.74-11.65.74Z"/>
          <path class="cls-11" d="M191.98,111.27c-1.03,0-1.69-.72-2.38-1.48-.17-.18-.34-.37-.52-.55-.89-.9-9.34-11.46-9.61-12.31-.65-2.07,2.22-12.92,3.51-14.36.69-.77,12.43-5.47,13.33-5.54h.13c2.22,0,10.26,4.02,11.17,5.59,2.39,4.11-5.48,17.16-5.56,17.29-.88,1.44-7.43,10.45-9.02,11.12-.37.16-.71.23-1.05.23Z"/>
          <path class="cls-3" d="M142.13,89.39c-.16,0-.29-.01-.4-.04-1.17-.28-3.95-3.34-7.75-7.63-1.97-2.23-3.83-4.33-4.69-5l-.07-.06-.03-.08c-.3-.73-.39-1.42-.28-2.04.14-.81,6.96-10.36,7.75-11.28,1.72-2,8.64-8.19,11.21-8.46.19-.02.36-.03.52-.03,1.38,0,1.78.72,2.33,1.72.08.15.17.3.26.46,1.14,1.98,6.5,16.62,6.4,18.45-.09,1.62-3.15,9.56-4.77,10.71-1.33.95-8.44,3.27-10.47,3.27Z"/>
          <path class="cls-3" d="M182.5,80.11c-.1,0-.18,0-.26-.02-.8-.15-7.92-6.74-8.31-7.45-.49-.91-.74-1.43-.57-2.6.16-1.08,8.2-15.57,8.81-16.31.2-.25,1.35-1.46,1.91-1.57.12-.02.25-.04.39-.04,2.78,0,10.42,4.92,12.06,6.19l.43.33c2.4,1.83,6.02,4.59,5.39,7.81-.2,1-6.27,8.15-7.14,8.81-1.53,1.14-10.61,4.85-12.71,4.85Z"/>
          <path class="cls-3" d="M160.38,73.24c-.14,0-.26,0-.36-.03-.8-.14-1.71-1.44-1.96-1.89l-.04-.06v-.07c-.15-1.37-1.61-4.88-3.02-8.26-2.04-4.91-3.27-7.97-3.08-9.04.51-2.82,10.73-4.29,12.09-4.38.45-.03,1.12-.05,1.94-.05,3.55,0,11.02.33,13.03,1.13,1.12.44,1.54,1.14,1.4,2.34-.14,1.2-8.45,15.9-9.09,16.6-1.31,1.43-8.8,3.71-10.93,3.71Z"/>
          <path class="cls-3" d="M174.97,96.84c-3.07,0-12.15-.9-13.43-1.41-1.73-.69-5.99-6.73-6.17-8.35-.13-1.25,2.91-10.4,3.79-11.38.84-.94,8.12-2.56,9.37-2.63.34-.02.68-.04,1.02-.04.81,0,1.46.1,2.04.32.93.36,8.9,7.95,9.08,9.41.1.79-2.7,11.53-2.94,12.09-.12.28-.75,1.67-1.68,1.92-.12.03-.37.08-1.08.08Z"/>
          <path class="cls-11" d="M121.65,96.57c-.27-.61-.94-1.6-1.65-2.65-1.76-2.59-2.98-4.51-2.74-5.63.14-.66,8.68-10.61,9.69-10.72h0c1.49,0,9.53,8.53,11.65,11.2,1.03,1.29,1.07,1.57,1.02,1.79l-.04.18-17.81,6.12-.13-.29Z"/>
        </g>
        <g>
          <path class="cls-5" d="M54.66,194.84c-.82,0-1.44-.05-1.85-.14-2.91-.65-3-4.97-3.07-8.45-.03-1.67-.07-3.25-.43-3.72-.15-.19-.69-.24-1.17-.28-.94-.08-2.22-.2-2.59-1.42-.42-1.4,2.15-13.95,2.94-15.35.69-1.21,8.75-7.05,9.92-7.18h0c1.62,0,13.49,5.35,14.21,6.36.45.64.87,2.5,1.26,4.35l.11.53c.76,3.47,2.95,15.17,2.92,18.34,0,.01-.02,1.46-.3,2.01-1.45,2.75-16.49,4.94-21.95,4.94Z"/>
          <path class="cls-3" d="M152.02,168.75c-1.53-.57-7.83-8.37-8.03-9.94-.12-.9,1.4-10.75,1.93-11.38.38-.45,2.21-.94,5.17-1.69,1.4-.36,2.73-.69,3.31-.92,1.46-.58,4.47-2.36,7.38-4.08,3.62-2.14,6.74-3.99,7.78-4.14.11-.02.22-.02.32-.02,3.6,0,6.08,8.72,6.54,10.46.9,3.42,2.46,15.86.76,19.04-.49.92-1.37,1.15-2.16,1.36-.27.07-.55.14-.79.25l-.05.02-22.1,1.06-.07-.02Z"/>
          <path class="cls-7" d="M80.37,188.3c-1.5,0-1.84-1.29-2.24-2.79l-.05-.18c-.65-2.45-3.48-19.84-3.18-21.58.16-.97,7.51-13.93,8.26-14.96.63-.88,1.31-1.75,1.94-1.86.09-.02.19-.02.3-.02,1.63,0,5.63,1.81,9.5,3.56,2.62,1.18,5.09,2.3,6.22,2.56h.06s.05.04.05.04c3.36,2.16,1.28,9.12-1.06,14.58-2.39,5.59-12.12,18.35-18.6,20.44-.46.15-.85.22-1.2.22Z"/>
          <path class="cls-3" d="M46.75,163.76c-2.17,0-14.54-2.08-15.5-2.73-3.08-2.08-.21-14.27.8-17.2.63-1.84,5.36-11.34,7.54-11.74.14-.03.28-.04.41-.04.5,0,.95.16,1.36.32.93.36,13.65,12.6,14.33,13.78.99,1.73,2,8.64,1.06,10.39-.31.57-8.93,7.02-9.62,7.18-.09.02-.21.03-.38.03Z"/>
          <path class="cls-3" d="M149,194.38c-1.39,0-2.98-.26-3.94-.41l-.39-.06c-2.02-.31-16.81-4.31-17.61-6.99-.1-.34-.06-1.9-.01-2.26.18-1.24,8.69-20.42,9.59-21.6.68-.89,1.89-1.92,3.27-2.12.26-.04.58-.06.91-.06.4,0,1.42.03,2.18.35.67.28,8.56,9.37,8.8,10.14v.05s.01,21.81.01,21.81l-.02.05c-.25.74-1.16,1.1-2.8,1.1Z"/>
          <path class="cls-6" d="M124.36,184.68c-2.7,0-9.82-8.37-10.74-9.56-2.61-3.39-9.3-14.28-7.73-19.37.5-1.61,9.68-3.75,10.76-3.81h0c2.32,0,16.13,6.67,17.71,8.02.4.34.63.7.87,1.08l.23.35-.09.18c-.42.81-1.58,3.55-2.92,6.72-4.68,11.11-6.92,16.1-7.75,16.34-.11.03-.22.05-.34.05Z"/>
          <path class="cls-10" d="M147.33,145c-.3,0-.57-.02-.81-.05-1.03-.16-15.36-9.92-15.24-11.61.11-1.59,11.35-8.3,11.96-8.62.25-.13.57-.3.92-.5,1.37-.76,3.25-1.8,4.23-1.92.29-.04.6-.05.93-.05,4.05,0,10.29,2.56,13.06,4.34.08.05,8.03,5.33,6.33,8.26-.72,1.26-14.75,8.85-16.21,9.29-1.39.42-3.68.86-5.17.86Z"/>
          <path class="cls-3" d="M72.89,162.16c-1.83,0-13.33-5.51-13.85-6.98-.35-.98-.83-7.65-.54-8.68.48-1.71,7.77-11.23,9.95-11.5h.1s.09.03.09.03c1.17.54,3.22.68,5.38.83,3.59.24,7.3.5,8.16,2.66,2.21,5.58-.8,13.49-8.92,23.5l-.08.1-.12.02s-.1.01-.17.01Z"/>
          <path class="cls-3" d="M106.33,152.92c-.17,0-.29-.02-.38-.06l-.2-.09-.67-31.38.02-.06c.58-1.54,1.64-1.63,2.58-1.71.4-.03.81-.07,1.2-.21.25-.09.67-.29,1.12-.5,1.07-.5,1.8-.83,2.15-.84h.14c.17-.02.38-.03.57-.03s.34.01.45.04c.98.25,8.82,10,9.11,10.95.73,2.37-.88,7.18-2.44,11.84-1.15,3.43-2.23,6.67-2.31,8.66v.1s-.06.08-.06.08c-.59.89-9.75,3.23-11.29,3.23Z"/>
          <path class="cls-11" d="M102.22,151.58c-.99,0-4.09-1.31-8.71-3.3-3-1.3-6.1-2.64-7.08-2.81h-.07s-.06-.05-.06-.05c-2.22-1.48-3.45-8.06-2.37-10.35l.04-.07.06-.05c.95-.74,3.91-4.59,6.77-8.31,4.64-6.04,6.18-7.94,6.75-8.03.09-.01.19-.02.3-.02,1.4,0,5.12,1.33,5.52,3.06.57,2.49.67,23.75.27,26.85l-.02.16c-.16,1.33-.39,2.64-1.13,2.89-.07.03-.16.04-.26.04Z"/>
          <path class="cls-3" d="M56.54,144.17c-.1,0-.2,0-.29-.03-1.08-.21-13.15-12.17-13.6-13.01-.33-.63-.38-1.34-.15-2.12.95-3.11,6.3-6.53,8.1-7.48,2.54-1.34,11.25-4.32,14.16-4.54.38-.03.7-.05,1.03-.05.4,0,1.63,0,2.08.9.55,1.11.36,11.75.03,13.2-.47,2.03-1.88,3.34-3.25,4.61-.64.59-1.3,1.21-1.84,1.88-.32.39-.72.98-1.18,1.66-1.5,2.22-3.38,4.98-5.08,4.98Z"/>
          <path class="cls-11" d="M78.38,135.13c-2.61,0-7.04-.44-8.25-1.37-1.39-1.08-1.05-2.51-.76-3.78.12-.5.23-.97.23-1.39,0-.44-.01-1.13-.03-1.95-.1-4.57-.13-9.13.62-10.16.78-.61,1.57-1.04,2.11-1.3,1.16-.56,13.39-4.48,14.42-4.53.11,0,.21,0,.31,0,.51,0,.91.08,1.42.3.5.21,5.49,5.69,5.62,6.18.38,1.38-1.39,3.94-3.23,6.45-.21.28-.39.53-.52.72-.77,1.09-7.69,10.03-9.3,10.58-.63.21-1.79.26-2.66.26Z"/>
          <path class="cls-3" d="M138.02,159.49c-.86,0-1.73-.09-2.38-.26-1.36-.35-12.25-6.02-13.6-6.93l-.36-.23c-.68-.45-1.39-.91-1.96-1.54l-.12-.14,5.04-18.66,2.03.68.06.09c1.06,1.47,4.94,4.13,8.68,6.71,4.07,2.8,7.59,5.21,8.16,6.45.74,1.61-.93,12.04-2.08,12.98-.91.74-2.57.86-3.48.86Z"/>
          <path class="cls-3" d="M156.22,194.73c-.8,0-1.66-.61-2.63-1.87l-.09-.12.03-.15c.35-1.77.16-5.44-.04-9.33-.25-4.89-.51-9.94.33-11.66.83-1.69,8.91-2.08,12.34-2.18l.56-.02c.85-.03,2.17-.07,3.56-.07,4.64,0,5.55.48,5.83.9.69,1.04-.5,5.46-1.51,8.11-.92,2.41-1.77,3.73-2.52,3.92-.36.09-.77.14-1.25.14-1.17,0-2.58-.29-3.94-.58-1.36-.28-2.77-.58-3.93-.58-1.48,0-2.31.45-2.7,1.47-.21.54-.37,1.78-.57,3.22-.53,3.92-1.19,8.79-3.47,8.79Z"/>
          <path class="cls-3" d="M128.81,131.71c-2.47-.24-12.79-12.2-13.14-13.9-.36-1.77,3.56-6.34,4.61-6.62h.04s.12-.02.12-.02c1.8,0,18.59,6.82,20.45,7.72,2.21,1.07,3.18,1.89,3.22,2.76.05,1.04-1.2,1.8-2.93,2.85-.64.39-1.37.83-2.1,1.33-.58.4-9.03,5.88-10.23,5.88h-.06Z"/>
          <path class="cls-3" d="M36.84,181.76c-1.77,0-4.03-.29-4.78-1.65-.81-1.47-2.3-13.44-1.88-15.07.14-.53,1.16-1.6,1.72-1.71h.16c1.16-.01,10.74,1.31,11.65,1.6.73.23,1.78.55,2.19,1.36.7,1.4-1.09,13.13-3.18,14.34-1.1.64-3.63,1.12-5.88,1.12Z"/>
        </g>
        <g>
          <path class="cls-8" d="M29.75,78.91c-1.92,0-3.8-.95-5.62-1.87-.9-.46-1.76-.89-2.6-1.2-.84-.31-1.91-.61-3.05-.93-1.63-.46-3.32-.93-4.4-1.47-2.98-1.49-8.18-9.14-7.19-12.45,1.96-6.56,23.18-13.54,29.84-13.61h.98c1.3,0,4.36,0,5.03,2.23.47,1.56,1.61,17.69,1.33,18.96-.21.99-1.41,2.09-2.2,2.82l-.15.14c-.63.58-9.09,6.6-9.89,6.94-.65.28-1.36.42-2.08.42Z"/>
          <path class="cls-9" d="M17.17,108.97c-3.22,0-9.64-8.67-9.7-8.76-2.42-3.32-8.9-14.35-7.19-18.59.67-1.65,9.79-7.11,11.54-7.23.16-.01.33-.02.51-.02,5.32,0,15.82,5.23,19.48,8.99,1.03,1.06,6.16,6.89,5.65,9.05-.29,1.23-7.21,6.75-17.5,14.66-1.09.84-1.92,1.47-2.34,1.81l-.07.05h-.08c-.09.03-.19.04-.3.04Z"/>
          <path class="cls-11" d="M51.71,118.73c-.76-.26-.96-1.65-1.11-3.18l-.04-.41c-.39-3.16-.48-6.59-.57-9.9-.08-3.06-.17-6.22-.49-9.16v-.07s.01-.07.01-.07c.42-1.43,3.11-1.57,4.89-1.67.22-.01.41-.02.58-.03.32-.02.66-.03,1.03-.03,7.18,0,23.54,4.21,28.8,6.95,1.9.99,2.91,4.91,2.42,6.62-.22.78-2.68,1.82-9.07,3.81l-.81.26c-7.44,2.41-15.2,4.34-22.71,6.21l-2.82.7-.09-.03Z"/>
          <path class="cls-3" d="M61.86,76.92c-1.31,0-13.44-5.46-14.24-6.17-.39-.34-1.16-1.39-1.29-1.89-.47-1.8-1.38-15.07-1.33-17.3v-.18c.02-1.03.04-2.76,1.43-3.18.14-.04.32-.06.55-.06,1.98,0,8.01,1.45,9.44,1.92,3.54,1.16,8.69,4.04,11.5,6.42,1.46,1.24,9.23,9.78,8.44,12.4-.06.19-.2.68-7.03,4.38-.27.15-6.71,3.63-7.44,3.67h-.03Z"/>
          <path class="cls-11" d="M66.01,93.32c-.59-.31-1.75-1.16-1.95-1.96-.17-.66-.88-11.9-.5-12.67.52-1.08,12.5-7.35,13.64-7.47.19-.02.52-.04.82-.04.27,0,.48.02.62.05,1.32.29,12.47,16.71,12.57,17.63.1.9-.95,2.65-2.33,4.83-.38.6-.71,1.12-.89,1.46-.21.39-.31.87-.42,1.37-.22,1.02-.47,2.17-1.75,2.63l-.1.04-19.69-5.85Z"/>
          <path class="cls-3" d="M45.1,120.49c-.88,0-2-.07-3.37-.16-4.82-.32-14.39-2.97-18.68-5.61l-.43-.26c-1.3-.78-2.92-1.75-3.16-3.11-.11-.63.09-1.27.59-1.9.91-1.14,18.36-15.24,19.45-15.71.15-.07,1.52-.54,1.7-.56.07,0,.14,0,.21,0,1.59,0,5.21,1.24,5.82,2.73.53,1.3,1.31,15.81,1.35,17.86l.02,1.09c.06,2.65.09,4.1-.69,4.9-.59.61-1.55.73-2.82.73Z"/>
          <path class="cls-3" d="M55.2,93.25c-5.01,0-11.55-.51-13.31-1.27-1.32-.57-8.88-8.58-9.31-9.58-.3-.7-.4-1.29-.28-1.79.21-.94,11.28-8.44,12.04-8.6.08-.02.17-.02.27-.02,2.59,0,15.08,5.37,16.09,6.92.83,1.27,1.77,11.11,1.37,12.46-.07.22-1.26,1.36-1.39,1.41-.94.39-3.5.47-5.48.47Z"/>
          <g>
            <path class="cls-11" d="M104.45,117.31c-9.63,0-14.41-7.47-14.78-14.41-.37-6.92,3.44-14.81,12.67-15.8.73-.08,1.45-.12,2.15-.12,9.54,0,14.25,7.13,14.68,14.19.6,9.87-5.93,15.2-12.25,15.98-.84.1-1.67.16-2.47.16Z"/>
            <g>
              <path class="cls-4" d="M108.82,108.97c-.76,0-1.96-1.58-2.64-2.57-.07.59-.22,1.01-.4,1.23-.19.24-.39.29-.53.29-.13,0-.32-.04-.5-.25-.35-.41-.51-1.31-.46-2.52l-.92,1.37-.02-1.09c-.03-1.42-.19-2.15-.5-2.15-.19,0-.49.13-.81.26-.56.23-1.25.52-2.09.52h0c-.13,0-.27,0-.41-.02l-.25-.03-.04-.25c-.14-.74-.05-1.29.27-1.67.42-.5,1.13-.57,1.77-.57h.62c.42,0,.52-.04.54-.06.39-1.26-.56-2.11-1.33-2.79-.4-.36-.72-.64-.81-.96-.2-.7-.04-1.22.16-1.58-.05,0-.1,0-.15,0-.61,0-1.07-.18-1.36-.52-.32-.39-.41-.99-.26-1.77l.03-.13.11-.08c.44-.31.82-.46,1.15-.46.8,0,1.08.79,1.32,1.5.11.33.23.67.39.9.18.26.71.61.99.79.01,0,.02.02.04.02-.45-1.18-.82-2.51-.52-3.21.11-.27.31-.45.58-.52.17-.05.32-.07.46-.07.27,0,.48.09.65.26.35.37.32,1.03.28,1.72-.03.59-.07,1.27.18,1.53.03.04.13.14.43.14.34,0,.81-.13,1.4-.39l.25-.11.16.22c.49.69.6,1.27.51,1.77.02-.04.03-.07.05-.1.85-1.8,1.36-2.82,2.04-2.87h0c.19,0,.3.08.64.47.95,1.1.93,1.26.92,1.37-.05.33-.42.62-1.39,1.31-.34.24-.87.62-1.12.86.35.14.84.39.94.89.09.42-.12.87-.64,1.37-.43.41-.88.45-1.22.48-.21.02-.33.03-.41.1.65.18,1.14.41,1.54.59.5.23.86.4,1.31.4.4,0,.85-.13,1.43-.41l.29-.14.15.28c.55,1.01.69,1.64.45,2.05-.1.17-.32.38-.79.38h0c-.67,0-1.66-.41-2.62-.81-.4-.17-.84-.35-1.19-.46.39.3.91.59,1.33.82.83.46,1.29.72,1.18,1.14-.09.35-.48.43-1.21.44.74,1.99.63,2.56.45,2.82-.11.16-.27.24-.46.24h0ZM106.38,104.97c.14,0,.28.04.42.07.12.03.24.06.33.06h0s.03,0,.04-.02c-.19-.2-.76-.64-1.1-.9.05.29.08.56.11.82.06-.02.12-.03.2-.03ZM103.29,97.68c.07.45.21,1.21.37,1.42.02-.03.07-.09.16-.21l.04-.06-.06-.11s-.22-.43-.5-1.03ZM104.37,98.88s.07.06.13.11c-.03-.1-.04-.18-.03-.28l-.1.17Z"/>
              <path class="cls-4" d="M101.78,101.8c-2.48-.46-2.73-.51-2.61-1.28.04-.25.1-.62-.39-1.39-.27-.42-.85-.74-1.42-1.05-.75-.41-1.52-.83-1.66-1.57-.1-.49.1-1.01.59-1.62l.08-.1.13-.02c.15-.02.28-.03.41-.03.46,0,.83.14,1.1.41.48.49.46,1.27.45,1.73,0,.07,0,.13,0,.17.11.08.38.26.62.43,1.72,1.16,3.4,2.38,3.42,3.43,0,.23-.07.56-.44.83l-.12.09-.14-.03Z"/>
              <path class="cls-4" d="M114.06,104.76c-.71,0-1.78-.81-1.83-1.27-.09-.74.46-1.05.79-1.25.1-.06.25-.14.27-.19h0s-.09-.15-.14-.26c-.19-.39-.45-.92-.24-1.4.12-.28.37-.47.75-.58.13-.04.26-.06.4-.06.51,0,1.02.28,1.32.74.26.39.32.84.15,1.24-.19.44-.6.55-.88.59.25.42.6,1.09.42,1.67-.09.3-.31.54-.64.69-.11.05-.23.08-.37.08Z"/>
              <path class="cls-4" d="M110.11,102.35c-.45,0-.83-.21-1.05-.6-.36-.63-.28-1.69.19-2.51.42-.72,1.07-1.14,1.78-1.14.23,0,.48.04.72.13.42.2.37.58.35.73l.2.39-.46.06c-.1.02-.19.04-.26.06.08.06.15.13.21.21.29.44.42.64.86.78l-.02.07-.07.26-.1.32h-.01c-.07-.03-.13-.04-.21-.04-.5,0-1.03.54-1.35.86-.23.23-.35.36-.53.38-.09.01-.18.02-.26.02Z"/>
              <path class="cls-4" d="M97.37,101.53c.4,0,.71-.49.71-.91,0-.14-.03-.33-.18-.48s-.4-.22-.71-.22v-.68c.63,0,1,.23,1.19.42.25.24.39.58.39.96,0,.75-.57,1.59-1.39,1.59v-.68Z"/>
              <path class="cls-4" d="M97.2,109.82c-.71,0-1.27-.57-1.35-1.39-.07-.71.26-1.56,1.16-1.74.15-.03.29-.05.42-.05.63,0,1.07.37,1.18,1,.12.75-.27,1.88-.89,2.09-.18.06-.35.09-.52.09Z"/>
              <path class="cls-4" d="M101.58,107.29c-.47,0-.86-.4-.98-.99-.19-1,.4-2.33,2.17-3.04l.13-.05.13.06c.58.25.08,2.05.06,2.12-.46,1.65-1.15,1.9-1.52,1.9Z"/>
              <path class="cls-4" d="M106.54,110.81c-.85,0-1.48-1.05-1.49-1.99,0-.37.1-.68.28-.92.16-.2.45-.43.96-.43v.68c-.2,0-.34.06-.43.17-.09.11-.14.29-.14.5,0,.63.41,1.31.8,1.31v.68Z"/>
              <path class="cls-2" d="M103.09,109.24c-.48,0-.83-.22-.99-.62-.36-.87.29-2.36,1.09-3.16l.49-.49.52,4-.25.09c-.32.12-.61.18-.86.18Z"/>
              <path class="cls-4" d="M94.06,101.33c-.71,0-1.28-.53-1.4-1.29-.11-.72.25-1.36.88-1.54.16-.05.33-.07.48-.07.84,0,1.38.67,1.47,1.34.1.71-.29,1.31-.97,1.5-.16.05-.32.07-.47.07Z"/>
              <path class="cls-4" d="M110.73,95.72c-.66,0-1.19-.53-1.32-1.32-.11-.66.09-1.49.79-1.73.2-.07.39-.1.57-.1.71,0,1.21.56,1.26,1.38.04.79-.34,1.67-1.15,1.76-.05,0-.1,0-.15,0Z"/>
              <path class="cls-4" d="M97.5,104.49c.21,0,.38-.09.5-.26.13-.17.2-.41.2-.65,0-.17-.04-.72-.6-.72v-.68c.75,0,1.28.58,1.28,1.4,0,.38-.12.77-.34,1.06-.26.34-.63.53-1.05.53v-.68Z"/>
              <path class="cls-4" d="M98.4,106.72c.21,0,.53-.18.82-.48.38-.38.58-.8.58-1.01,0-.06,0-.14-.28-.14v-.68c.71,0,.96.42.96.82,0,.53-.4,1.12-.78,1.49-.25.25-.75.67-1.3.67v-.68Z"/>
              <path class="cls-4" d="M100.49,111.1c-.11,0-.21-.01-.32-.04-.63-.16-.97-.7-.89-1.41.1-.79.71-1.64,1.47-1.64.76.03,1.23.58,1.21,1.36-.02.84-.59,1.74-1.47,1.74Z"/>
              <path class="cls-4" d="M94.78,105.53c-.74,0-1.21-.62-1.35-1.24-.16-.68.08-1.3.59-1.55.25-.12.49-.18.73-.18.82,0,1.31.7,1.37,1.39.06.66-.26,1.39-1.1,1.55-.08.01-.16.02-.24.02Z"/>
              <path class="cls-4" d="M112.58,108.22c-.86,0-1.37-.74-1.4-1.43-.03-.65.33-1.34,1.22-1.43.06,0,.12,0,.18,0,.72,0,1.26.47,1.37,1.2.09.63-.18,1.38-.88,1.59-.16.05-.33.08-.48.08Z"/>
              <path class="cls-4" d="M103.38,112.96c-.38,0-.7-.17-.9-.48-.16-.24-.24-.56-.24-.93,0-.8.42-1.96,1.19-1.96.67,0,1.15,1,1.24,1.72.1.84-.23,1.43-.89,1.6-.14.03-.27.05-.4.05Z"/>
              <path class="cls-4" d="M110.24,111.65c-.83,0-1.36-.74-1.4-1.46-.03-.62.32-1.3,1.18-1.39.07,0,.13-.01.19-.01.7,0,1.25.48,1.36,1.2.09.63-.18,1.37-.88,1.59-.15.05-.3.07-.44.07Z"/>
              <path class="cls-4" d="M107.27,113.52c-.7,0-1.21-.57-1.31-1.44-.08-.73.19-1.54.84-1.68h.04s.11-.01.11-.01c.69,0,1.47.97,1.6,1.74.1.62-.18,1.1-.77,1.31-.17.06-.34.09-.51.09Z"/>
              <path class="cls-4" d="M112.81,99.23c-.8,0-1.26-.68-1.3-1.36-.05-.8.42-1.42,1.15-1.51.07,0,.13-.01.2-.01.66,0,1.17.46,1.29,1.16.1.62-.14,1.41-.8,1.63-.18.06-.36.09-.53.09Z"/>
              <path class="cls-4" d="M106.6,96.24c-.76-.01-1.27-.6-1.26-1.46,0-.8.51-1.62,1.33-1.62.09,0,.18,0,.27.03.7.15,1,1,.92,1.73-.08.8-.57,1.32-1.24,1.32h-.02Z"/>
              <path class="cls-4" d="M106.54,93.6c-.67,0-1.13-.34-1.26-.94-.15-.68.18-1.61.66-1.83.19-.09.38-.13.56-.13.81,0,1.33.81,1.35,1.57.02.76-.48,1.3-1.22,1.33h-.09Z"/>
              <path class="cls-4" d="M110.31,107.99c-.19,0-.41-.04-.64-.12-.94-.32-.94-.94-.9-1.19.12-.7.99-1.36,1.79-1.36.13,0,.25.02.37.05.46.13.61.98.53,1.52-.1.69-.53,1.1-1.16,1.1Z"/>
              <path class="cls-4" d="M102.04,93.07c-.63,0-1.05-.61-1.18-1.21-.16-.71.07-1.32.58-1.56.21-.1.4-.15.59-.15.6,0,1.04.52,1.08,1.29.04.72-.28,1.54-.96,1.62h-.11Z"/>
              <path class="cls-1" d="M105.1,100.1c-.45,0-1.25-.78-1.28-.82-.19-.26-.36-.56-.22-.83.04-.07.15-.23.4-.24l2.05-1.28-.59,1.12c-.35.67-.35.67-.21.98.07.15.15.33.24.61l.08.24-.29.2-.16.02Z"/>
              <path class="cls-1" d="M111.22,100.06s-.11-.09-.17-.13c-.17-.12-.44-.3-.38-.6.06-.32.41-.45,1.02-.58l.26-.06.12.23c.13.25-.04.46-.13.59-.09.12-.14.19-.12.23l-.6.31Z"/>
            </g>
          </g>
        </g>
      </g>
    </g>
  </g>
</svg>