<?xml version="1.0" encoding="utf-8"?>
<svg xmlns="http://www.w3.org/2000/svg" xmlns:xlink="http://www.w3.org/1999/xlink" width="600" height="400" viewBox="0 0 2400 1600">
<defs>
  <clipPath id="clip900">
    <rect x="0" y="0" width="2400" height="1600"/>
  </clipPath>
</defs>
<path clip-path="url(#clip900)" d="M0 1600 L2400 1600 L2400 0 L0 0  Z" fill="#ffffff" fill-rule="evenodd" fill-opacity="1"/>
<defs>
  <clipPath id="clip901">
    <rect x="480" y="0" width="1681" height="1600"/>
  </clipPath>
</defs>
<path clip-path="url(#clip900)" d="M186.76 1486.45 L2352.76 1486.45 L2352.76 123.472 L186.76 123.472  Z" fill="#ffffff" fill-rule="evenodd" fill-opacity="1"/>
<defs>
  <clipPath id="clip902">
    <rect x="186" y="123" width="2167" height="1364"/>
  </clipPath>
</defs>
<polyline clip-path="url(#clip902)" style="stroke:#000000; stroke-linecap:round; stroke-linejoin:round; stroke-width:2; stroke-opacity:0.1; fill:none" points="243.975,1486.45 243.975,123.472 "/>
<polyline clip-path="url(#clip902)" style="stroke:#000000; stroke-linecap:round; stroke-linejoin:round; stroke-width:2; stroke-opacity:0.1; fill:none" points="652.654,1486.45 652.654,123.472 "/>
<polyline clip-path="url(#clip902)" style="stroke:#000000; stroke-linecap:round; stroke-linejoin:round; stroke-width:2; stroke-opacity:0.1; fill:none" points="1061.33,1486.45 1061.33,123.472 "/>
<polyline clip-path="url(#clip902)" style="stroke:#000000; stroke-linecap:round; stroke-linejoin:round; stroke-width:2; stroke-opacity:0.1; fill:none" points="1470.01,1486.45 1470.01,123.472 "/>
<polyline clip-path="url(#clip902)" style="stroke:#000000; stroke-linecap:round; stroke-linejoin:round; stroke-width:2; stroke-opacity:0.1; fill:none" points="1878.69,1486.45 1878.69,123.472 "/>
<polyline clip-path="url(#clip902)" style="stroke:#000000; stroke-linecap:round; stroke-linejoin:round; stroke-width:2; stroke-opacity:0.1; fill:none" points="2287.37,1486.45 2287.37,123.472 "/>
<polyline clip-path="url(#clip900)" style="stroke:#000000; stroke-linecap:round; stroke-linejoin:round; stroke-width:4; stroke-opacity:1; fill:none" points="186.76,1486.45 2352.76,1486.45 "/>
<polyline clip-path="url(#clip900)" style="stroke:#000000; stroke-linecap:round; stroke-linejoin:round; stroke-width:4; stroke-opacity:1; fill:none" points="243.975,1486.45 243.975,1467.55 "/>
<polyline clip-path="url(#clip900)" style="stroke:#000000; stroke-linecap:round; stroke-linejoin:round; stroke-width:4; stroke-opacity:1; fill:none" points="652.654,1486.45 652.654,1467.55 "/>
<polyline clip-path="url(#clip900)" style="stroke:#000000; stroke-linecap:round; stroke-linejoin:round; stroke-width:4; stroke-opacity:1; fill:none" points="1061.33,1486.45 1061.33,1467.55 "/>
<polyline clip-path="url(#clip900)" style="stroke:#000000; stroke-linecap:round; stroke-linejoin:round; stroke-width:4; stroke-opacity:1; fill:none" points="1470.01,1486.45 1470.01,1467.55 "/>
<polyline clip-path="url(#clip900)" style="stroke:#000000; stroke-linecap:round; stroke-linejoin:round; stroke-width:4; stroke-opacity:1; fill:none" points="1878.69,1486.45 1878.69,1467.55 "/>
<polyline clip-path="url(#clip900)" style="stroke:#000000; stroke-linecap:round; stroke-linejoin:round; stroke-width:4; stroke-opacity:1; fill:none" points="2287.37,1486.45 2287.37,1467.55 "/>
<path clip-path="url(#clip900)" d="M221.359 1517.37 Q217.748 1517.37 215.92 1520.93 Q214.114 1524.47 214.114 1531.6 Q214.114 1538.71 215.92 1542.27 Q217.748 1545.82 221.359 1545.82 Q224.994 1545.82 226.799 1542.27 Q228.628 1538.71 228.628 1531.6 Q228.628 1524.47 226.799 1520.93 Q224.994 1517.37 221.359 1517.37 M221.359 1513.66 Q227.17 1513.66 230.225 1518.27 Q233.304 1522.85 233.304 1531.6 Q233.304 1540.33 230.225 1544.94 Q227.17 1549.52 221.359 1549.52 Q215.549 1549.52 212.471 1544.94 Q209.415 1540.33 209.415 1531.6 Q209.415 1522.85 212.471 1518.27 Q215.549 1513.66 221.359 1513.66 Z" fill="#000000" fill-rule="evenodd" fill-opacity="1" /><path clip-path="url(#clip900)" d="M241.521 1542.97 L246.406 1542.97 L246.406 1548.85 L241.521 1548.85 L241.521 1542.97 Z" fill="#000000" fill-rule="evenodd" fill-opacity="1" /><path clip-path="url(#clip900)" d="M266.591 1517.37 Q262.98 1517.37 261.151 1520.93 Q259.345 1524.47 259.345 1531.6 Q259.345 1538.71 261.151 1542.27 Q262.98 1545.82 266.591 1545.82 Q270.225 1545.82 272.03 1542.27 Q273.859 1538.71 273.859 1531.6 Q273.859 1524.47 272.03 1520.93 Q270.225 1517.37 266.591 1517.37 M266.591 1513.66 Q272.401 1513.66 275.456 1518.27 Q278.535 1522.85 278.535 1531.6 Q278.535 1540.33 275.456 1544.94 Q272.401 1549.52 266.591 1549.52 Q260.781 1549.52 257.702 1544.94 Q254.646 1540.33 254.646 1531.6 Q254.646 1522.85 257.702 1518.27 Q260.781 1513.66 266.591 1513.66 Z" fill="#000000" fill-rule="evenodd" fill-opacity="1" /><path clip-path="url(#clip900)" d="M630.536 1517.37 Q626.925 1517.37 625.096 1520.93 Q623.29 1524.47 623.29 1531.6 Q623.29 1538.71 625.096 1542.27 Q626.925 1545.82 630.536 1545.82 Q634.17 1545.82 635.975 1542.27 Q637.804 1538.71 637.804 1531.6 Q637.804 1524.47 635.975 1520.93 Q634.17 1517.37 630.536 1517.37 M630.536 1513.66 Q636.346 1513.66 639.401 1518.27 Q642.48 1522.85 642.48 1531.6 Q642.48 1540.33 639.401 1544.94 Q636.346 1549.52 630.536 1549.52 Q624.725 1549.52 621.647 1544.94 Q618.591 1540.33 618.591 1531.6 Q618.591 1522.85 621.647 1518.27 Q624.725 1513.66 630.536 1513.66 Z" fill="#000000" fill-rule="evenodd" fill-opacity="1" /><path clip-path="url(#clip900)" d="M650.698 1542.97 L655.582 1542.97 L655.582 1548.85 L650.698 1548.85 L650.698 1542.97 Z" fill="#000000" fill-rule="evenodd" fill-opacity="1" /><path clip-path="url(#clip900)" d="M665.813 1514.29 L684.17 1514.29 L684.17 1518.22 L670.096 1518.22 L670.096 1526.7 Q671.114 1526.35 672.133 1526.19 Q673.151 1526 674.17 1526 Q679.957 1526 683.336 1529.17 Q686.716 1532.34 686.716 1537.76 Q686.716 1543.34 683.244 1546.44 Q679.771 1549.52 673.452 1549.52 Q671.276 1549.52 669.008 1549.15 Q666.762 1548.78 664.355 1548.04 L664.355 1543.34 Q666.438 1544.47 668.66 1545.03 Q670.883 1545.58 673.359 1545.58 Q677.364 1545.58 679.702 1543.48 Q682.04 1541.37 682.04 1537.76 Q682.04 1534.15 679.702 1532.04 Q677.364 1529.94 673.359 1529.94 Q671.484 1529.94 669.609 1530.35 Q667.758 1530.77 665.813 1531.65 L665.813 1514.29 Z" fill="#000000" fill-rule="evenodd" fill-opacity="1" /><path clip-path="url(#clip900)" d="M1028.48 1544.91 L1036.12 1544.91 L1036.12 1518.55 L1027.81 1520.21 L1027.81 1515.95 L1036.08 1514.29 L1040.75 1514.29 L1040.75 1544.91 L1048.39 1544.91 L1048.39 1548.85 L1028.48 1548.85 L1028.48 1544.91 Z" fill="#000000" fill-rule="evenodd" fill-opacity="1" /><path clip-path="url(#clip900)" d="M1057.84 1542.97 L1062.72 1542.97 L1062.72 1548.85 L1057.84 1548.85 L1057.84 1542.97 Z" fill="#000000" fill-rule="evenodd" fill-opacity="1" /><path clip-path="url(#clip900)" d="M1082.91 1517.37 Q1079.29 1517.37 1077.47 1520.93 Q1075.66 1524.47 1075.66 1531.6 Q1075.66 1538.71 1077.47 1542.27 Q1079.29 1545.82 1082.91 1545.82 Q1086.54 1545.82 1088.35 1542.27 Q1090.17 1538.71 1090.17 1531.6 Q1090.17 1524.47 1088.35 1520.93 Q1086.54 1517.37 1082.91 1517.37 M1082.91 1513.66 Q1088.72 1513.66 1091.77 1518.27 Q1094.85 1522.85 1094.85 1531.6 Q1094.85 1540.33 1091.77 1544.94 Q1088.72 1549.52 1082.91 1549.52 Q1077.1 1549.52 1074.02 1544.94 Q1070.96 1540.33 1070.96 1531.6 Q1070.96 1522.85 1074.02 1518.27 Q1077.1 1513.66 1082.91 1513.66 Z" fill="#000000" fill-rule="evenodd" fill-opacity="1" /><path clip-path="url(#clip900)" d="M1437.66 1544.91 L1445.3 1544.91 L1445.3 1518.55 L1436.99 1520.21 L1436.99 1515.95 L1445.25 1514.29 L1449.93 1514.29 L1449.93 1544.91 L1457.57 1544.91 L1457.57 1548.85 L1437.66 1548.85 L1437.66 1544.91 Z" fill="#000000" fill-rule="evenodd" fill-opacity="1" /><path clip-path="url(#clip900)" d="M1467.01 1542.97 L1471.9 1542.97 L1471.9 1548.85 L1467.01 1548.85 L1467.01 1542.97 Z" fill="#000000" fill-rule="evenodd" fill-opacity="1" /><path clip-path="url(#clip900)" d="M1482.13 1514.29 L1500.48 1514.29 L1500.48 1518.22 L1486.41 1518.22 L1486.41 1526.7 Q1487.43 1526.35 1488.45 1526.19 Q1489.47 1526 1490.48 1526 Q1496.27 1526 1499.65 1529.17 Q1503.03 1532.34 1503.03 1537.76 Q1503.03 1543.34 1499.56 1546.44 Q1496.09 1549.52 1489.77 1549.52 Q1487.59 1549.52 1485.32 1549.15 Q1483.08 1548.78 1480.67 1548.04 L1480.67 1543.34 Q1482.75 1544.47 1484.98 1545.03 Q1487.2 1545.58 1489.67 1545.58 Q1493.68 1545.58 1496.02 1543.48 Q1498.36 1541.37 1498.36 1537.76 Q1498.36 1534.15 1496.02 1532.04 Q1493.68 1529.94 1489.67 1529.94 Q1487.8 1529.94 1485.92 1530.35 Q1484.07 1530.77 1482.13 1531.65 L1482.13 1514.29 Z" fill="#000000" fill-rule="evenodd" fill-opacity="1" /><path clip-path="url(#clip900)" d="M1849.93 1544.91 L1866.25 1544.91 L1866.25 1548.85 L1844.3 1548.85 L1844.3 1544.91 Q1846.96 1542.16 1851.55 1537.53 Q1856.15 1532.88 1857.33 1531.53 Q1859.58 1529.01 1860.46 1527.27 Q1861.36 1525.51 1861.36 1523.82 Q1861.36 1521.07 1859.42 1519.33 Q1857.5 1517.6 1854.4 1517.6 Q1852.2 1517.6 1849.74 1518.36 Q1847.31 1519.13 1844.53 1520.68 L1844.53 1515.95 Q1847.36 1514.82 1849.81 1514.24 Q1852.27 1513.66 1854.3 1513.66 Q1859.67 1513.66 1862.87 1516.35 Q1866.06 1519.03 1866.06 1523.52 Q1866.06 1525.65 1865.25 1527.57 Q1864.46 1529.47 1862.36 1532.07 Q1861.78 1532.74 1858.68 1535.95 Q1855.58 1539.15 1849.93 1544.91 Z" fill="#000000" fill-rule="evenodd" fill-opacity="1" /><path clip-path="url(#clip900)" d="M1876.06 1542.97 L1880.95 1542.97 L1880.95 1548.85 L1876.06 1548.85 L1876.06 1542.97 Z" fill="#000000" fill-rule="evenodd" fill-opacity="1" /><path clip-path="url(#clip900)" d="M1901.13 1517.37 Q1897.52 1517.37 1895.69 1520.93 Q1893.89 1524.47 1893.89 1531.6 Q1893.89 1538.71 1895.69 1542.27 Q1897.52 1545.82 1901.13 1545.82 Q1904.77 1545.82 1906.57 1542.27 Q1908.4 1538.71 1908.4 1531.6 Q1908.4 1524.47 1906.57 1520.93 Q1904.77 1517.37 1901.13 1517.37 M1901.13 1513.66 Q1906.94 1513.66 1910 1518.27 Q1913.08 1522.85 1913.08 1531.6 Q1913.08 1540.33 1910 1544.94 Q1906.94 1549.52 1901.13 1549.52 Q1895.32 1549.52 1892.24 1544.94 Q1889.19 1540.33 1889.19 1531.6 Q1889.19 1522.85 1892.24 1518.27 Q1895.32 1513.66 1901.13 1513.66 Z" fill="#000000" fill-rule="evenodd" fill-opacity="1" /><path clip-path="url(#clip900)" d="M2259.1 1544.91 L2275.42 1544.91 L2275.42 1548.85 L2253.48 1548.85 L2253.48 1544.91 Q2256.14 1542.16 2260.72 1537.53 Q2265.33 1532.88 2266.51 1531.53 Q2268.76 1529.01 2269.64 1527.27 Q2270.54 1525.51 2270.54 1523.82 Q2270.54 1521.07 2268.59 1519.33 Q2266.67 1517.6 2263.57 1517.6 Q2261.37 1517.6 2258.92 1518.36 Q2256.49 1519.13 2253.71 1520.68 L2253.71 1515.95 Q2256.53 1514.82 2258.99 1514.24 Q2261.44 1513.66 2263.48 1513.66 Q2268.85 1513.66 2272.04 1516.35 Q2275.24 1519.03 2275.24 1523.52 Q2275.24 1525.65 2274.43 1527.57 Q2273.64 1529.47 2271.53 1532.07 Q2270.96 1532.74 2267.85 1535.95 Q2264.75 1539.15 2259.1 1544.91 Z" fill="#000000" fill-rule="evenodd" fill-opacity="1" /><path clip-path="url(#clip900)" d="M2285.24 1542.97 L2290.12 1542.97 L2290.12 1548.85 L2285.24 1548.85 L2285.24 1542.97 Z" fill="#000000" fill-rule="evenodd" fill-opacity="1" /><path clip-path="url(#clip900)" d="M2300.35 1514.29 L2318.71 1514.29 L2318.71 1518.22 L2304.64 1518.22 L2304.64 1526.7 Q2305.65 1526.35 2306.67 1526.19 Q2307.69 1526 2308.71 1526 Q2314.5 1526 2317.88 1529.17 Q2321.26 1532.34 2321.26 1537.76 Q2321.26 1543.34 2317.78 1546.44 Q2314.31 1549.52 2307.99 1549.52 Q2305.82 1549.52 2303.55 1549.15 Q2301.3 1548.78 2298.9 1548.04 L2298.9 1543.34 Q2300.98 1544.47 2303.2 1545.03 Q2305.42 1545.58 2307.9 1545.58 Q2311.9 1545.58 2314.24 1543.48 Q2316.58 1541.37 2316.58 1537.76 Q2316.58 1534.15 2314.24 1532.04 Q2311.9 1529.94 2307.9 1529.94 Q2306.02 1529.94 2304.15 1530.35 Q2302.3 1530.77 2300.35 1531.65 L2300.35 1514.29 Z" fill="#000000" fill-rule="evenodd" fill-opacity="1" /><polyline clip-path="url(#clip902)" style="stroke:#000000; stroke-linecap:round; stroke-linejoin:round; stroke-width:2; stroke-opacity:0.1; fill:none" points="186.76,1448.81 2352.76,1448.81 "/>
<polyline clip-path="url(#clip902)" style="stroke:#000000; stroke-linecap:round; stroke-linejoin:round; stroke-width:2; stroke-opacity:0.1; fill:none" points="186.76,1248.45 2352.76,1248.45 "/>
<polyline clip-path="url(#clip902)" style="stroke:#000000; stroke-linecap:round; stroke-linejoin:round; stroke-width:2; stroke-opacity:0.1; fill:none" points="186.76,1048.1 2352.76,1048.1 "/>
<polyline clip-path="url(#clip902)" style="stroke:#000000; stroke-linecap:round; stroke-linejoin:round; stroke-width:2; stroke-opacity:0.1; fill:none" points="186.76,847.739 2352.76,847.739 "/>
<polyline clip-path="url(#clip902)" style="stroke:#000000; stroke-linecap:round; stroke-linejoin:round; stroke-width:2; stroke-opacity:0.1; fill:none" points="186.76,647.381 2352.76,647.381 "/>
<polyline clip-path="url(#clip902)" style="stroke:#000000; stroke-linecap:round; stroke-linejoin:round; stroke-width:2; stroke-opacity:0.1; fill:none" points="186.76,447.023 2352.76,447.023 "/>
<polyline clip-path="url(#clip902)" style="stroke:#000000; stroke-linecap:round; stroke-linejoin:round; stroke-width:2; stroke-opacity:0.1; fill:none" points="186.76,246.665 2352.76,246.665 "/>
<polyline clip-path="url(#clip900)" style="stroke:#000000; stroke-linecap:round; stroke-linejoin:round; stroke-width:4; stroke-opacity:1; fill:none" points="186.76,1486.45 186.76,123.472 "/>
<polyline clip-path="url(#clip900)" style="stroke:#000000; stroke-linecap:round; stroke-linejoin:round; stroke-width:4; stroke-opacity:1; fill:none" points="186.76,1448.81 205.658,1448.81 "/>
<polyline clip-path="url(#clip900)" style="stroke:#000000; stroke-linecap:round; stroke-linejoin:round; stroke-width:4; stroke-opacity:1; fill:none" points="186.76,1248.45 205.658,1248.45 "/>
<polyline clip-path="url(#clip900)" style="stroke:#000000; stroke-linecap:round; stroke-linejoin:round; stroke-width:4; stroke-opacity:1; fill:none" points="186.76,1048.1 205.658,1048.1 "/>
<polyline clip-path="url(#clip900)" style="stroke:#000000; stroke-linecap:round; stroke-linejoin:round; stroke-width:4; stroke-opacity:1; fill:none" points="186.76,847.739 205.658,847.739 "/>
<polyline clip-path="url(#clip900)" style="stroke:#000000; stroke-linecap:round; stroke-linejoin:round; stroke-width:4; stroke-opacity:1; fill:none" points="186.76,647.381 205.658,647.381 "/>
<polyline clip-path="url(#clip900)" style="stroke:#000000; stroke-linecap:round; stroke-linejoin:round; stroke-width:4; stroke-opacity:1; fill:none" points="186.76,447.023 205.658,447.023 "/>
<polyline clip-path="url(#clip900)" style="stroke:#000000; stroke-linecap:round; stroke-linejoin:round; stroke-width:4; stroke-opacity:1; fill:none" points="186.76,246.665 205.658,246.665 "/>
<path clip-path="url(#clip900)" d="M63.4226 1434.61 Q59.8115 1434.61 57.9828 1438.18 Q56.1773 1441.72 56.1773 1448.85 Q56.1773 1455.95 57.9828 1459.52 Q59.8115 1463.06 63.4226 1463.06 Q67.0569 1463.06 68.8624 1459.52 Q70.6911 1455.95 70.6911 1448.85 Q70.6911 1441.72 68.8624 1438.18 Q67.0569 1434.61 63.4226 1434.61 M63.4226 1430.91 Q69.2328 1430.91 72.2883 1435.51 Q75.367 1440.1 75.367 1448.85 Q75.367 1457.57 72.2883 1462.18 Q69.2328 1466.76 63.4226 1466.76 Q57.6125 1466.76 54.5338 1462.18 Q51.4782 1457.57 51.4782 1448.85 Q51.4782 1440.1 54.5338 1435.51 Q57.6125 1430.91 63.4226 1430.91 Z" fill="#000000" fill-rule="evenodd" fill-opacity="1" /><path clip-path="url(#clip900)" d="M83.5845 1460.21 L88.4688 1460.21 L88.4688 1466.09 L83.5845 1466.09 L83.5845 1460.21 Z" fill="#000000" fill-rule="evenodd" fill-opacity="1" /><path clip-path="url(#clip900)" d="M108.654 1434.61 Q105.043 1434.61 103.214 1438.18 Q101.409 1441.72 101.409 1448.85 Q101.409 1455.95 103.214 1459.52 Q105.043 1463.06 108.654 1463.06 Q112.288 1463.06 114.094 1459.52 Q115.922 1455.95 115.922 1448.85 Q115.922 1441.72 114.094 1438.18 Q112.288 1434.61 108.654 1434.61 M108.654 1430.91 Q114.464 1430.91 117.52 1435.51 Q120.598 1440.1 120.598 1448.85 Q120.598 1457.57 117.52 1462.18 Q114.464 1466.76 108.654 1466.76 Q102.844 1466.76 99.765 1462.18 Q96.7095 1457.57 96.7095 1448.85 Q96.7095 1440.1 99.765 1435.51 Q102.844 1430.91 108.654 1430.91 Z" fill="#000000" fill-rule="evenodd" fill-opacity="1" /><path clip-path="url(#clip900)" d="M138.816 1434.61 Q135.205 1434.61 133.376 1438.18 Q131.57 1441.72 131.57 1448.85 Q131.57 1455.95 133.376 1459.52 Q135.205 1463.06 138.816 1463.06 Q142.45 1463.06 144.256 1459.52 Q146.084 1455.95 146.084 1448.85 Q146.084 1441.72 144.256 1438.18 Q142.45 1434.61 138.816 1434.61 M138.816 1430.91 Q144.626 1430.91 147.681 1435.51 Q150.76 1440.1 150.76 1448.85 Q150.76 1457.57 147.681 1462.18 Q144.626 1466.76 138.816 1466.76 Q133.006 1466.76 129.927 1462.18 Q126.871 1457.57 126.871 1448.85 Q126.871 1440.1 129.927 1435.51 Q133.006 1430.91 138.816 1430.91 Z" fill="#000000" fill-rule="evenodd" fill-opacity="1" /><path clip-path="url(#clip900)" d="M64.6495 1234.25 Q61.0384 1234.25 59.2097 1237.82 Q57.4041 1241.36 57.4041 1248.49 Q57.4041 1255.6 59.2097 1259.16 Q61.0384 1262.7 64.6495 1262.7 Q68.2837 1262.7 70.0892 1259.16 Q71.9179 1255.6 71.9179 1248.49 Q71.9179 1241.36 70.0892 1237.82 Q68.2837 1234.25 64.6495 1234.25 M64.6495 1230.55 Q70.4596 1230.55 73.5152 1235.16 Q76.5938 1239.74 76.5938 1248.49 Q76.5938 1257.22 73.5152 1261.82 Q70.4596 1266.41 64.6495 1266.41 Q58.8393 1266.41 55.7606 1261.82 Q52.7051 1257.22 52.7051 1248.49 Q52.7051 1239.74 55.7606 1235.16 Q58.8393 1230.55 64.6495 1230.55 Z" fill="#000000" fill-rule="evenodd" fill-opacity="1" /><path clip-path="url(#clip900)" d="M84.8114 1259.86 L89.6956 1259.86 L89.6956 1265.73 L84.8114 1265.73 L84.8114 1259.86 Z" fill="#000000" fill-rule="evenodd" fill-opacity="1" /><path clip-path="url(#clip900)" d="M109.881 1234.25 Q106.27 1234.25 104.441 1237.82 Q102.635 1241.36 102.635 1248.49 Q102.635 1255.6 104.441 1259.16 Q106.27 1262.7 109.881 1262.7 Q113.515 1262.7 115.32 1259.16 Q117.149 1255.6 117.149 1248.49 Q117.149 1241.36 115.32 1237.82 Q113.515 1234.25 109.881 1234.25 M109.881 1230.55 Q115.691 1230.55 118.746 1235.16 Q121.825 1239.74 121.825 1248.49 Q121.825 1257.22 118.746 1261.82 Q115.691 1266.41 109.881 1266.41 Q104.071 1266.41 100.992 1261.82 Q97.9363 1257.22 97.9363 1248.49 Q97.9363 1239.74 100.992 1235.16 Q104.071 1230.55 109.881 1230.55 Z" fill="#000000" fill-rule="evenodd" fill-opacity="1" /><path clip-path="url(#clip900)" d="M130.853 1261.8 L138.492 1261.8 L138.492 1235.43 L130.182 1237.1 L130.182 1232.84 L138.445 1231.17 L143.121 1231.17 L143.121 1261.8 L150.76 1261.8 L150.76 1265.73 L130.853 1265.73 L130.853 1261.8 Z" fill="#000000" fill-rule="evenodd" fill-opacity="1" /><path clip-path="url(#clip900)" d="M65.0198 1033.9 Q61.4087 1033.9 59.58 1037.46 Q57.7745 1041 57.7745 1048.13 Q57.7745 1055.24 59.58 1058.8 Q61.4087 1062.34 65.0198 1062.34 Q68.6541 1062.34 70.4596 1058.8 Q72.2883 1055.24 72.2883 1048.13 Q72.2883 1041 70.4596 1037.46 Q68.6541 1033.9 65.0198 1033.9 M65.0198 1030.19 Q70.83 1030.19 73.8855 1034.8 Q76.9642 1039.38 76.9642 1048.13 Q76.9642 1056.86 73.8855 1061.47 Q70.83 1066.05 65.0198 1066.05 Q59.2097 1066.05 56.131 1061.47 Q53.0754 1056.86 53.0754 1048.13 Q53.0754 1039.38 56.131 1034.8 Q59.2097 1030.19 65.0198 1030.19 Z" fill="#000000" fill-rule="evenodd" fill-opacity="1" /><path clip-path="url(#clip900)" d="M85.1818 1059.5 L90.066 1059.5 L90.066 1065.38 L85.1818 1065.38 L85.1818 1059.5 Z" fill="#000000" fill-rule="evenodd" fill-opacity="1" /><path clip-path="url(#clip900)" d="M110.251 1033.9 Q106.64 1033.9 104.811 1037.46 Q103.006 1041 103.006 1048.13 Q103.006 1055.24 104.811 1058.8 Q106.64 1062.34 110.251 1062.34 Q113.885 1062.34 115.691 1058.8 Q117.52 1055.24 117.52 1048.13 Q117.52 1041 115.691 1037.46 Q113.885 1033.9 110.251 1033.9 M110.251 1030.19 Q116.061 1030.19 119.117 1034.8 Q122.195 1039.38 122.195 1048.13 Q122.195 1056.86 119.117 1061.47 Q116.061 1066.05 110.251 1066.05 Q104.441 1066.05 101.362 1061.47 Q98.3067 1056.86 98.3067 1048.13 Q98.3067 1039.38 101.362 1034.8 Q104.441 1030.19 110.251 1030.19 Z" fill="#000000" fill-rule="evenodd" fill-opacity="1" /><path clip-path="url(#clip900)" d="M134.441 1061.44 L150.76 1061.44 L150.76 1065.38 L128.816 1065.38 L128.816 1061.44 Q131.478 1058.69 136.061 1054.06 Q140.668 1049.4 141.848 1048.06 Q144.093 1045.54 144.973 1043.8 Q145.876 1042.04 145.876 1040.35 Q145.876 1037.6 143.931 1035.86 Q142.01 1034.13 138.908 1034.13 Q136.709 1034.13 134.256 1034.89 Q131.825 1035.65 129.047 1037.21 L129.047 1032.48 Q131.871 1031.35 134.325 1030.77 Q136.779 1030.19 138.816 1030.19 Q144.186 1030.19 147.38 1032.88 Q150.575 1035.56 150.575 1040.05 Q150.575 1042.18 149.765 1044.1 Q148.978 1046 146.871 1048.59 Q146.293 1049.27 143.191 1052.48 Q140.089 1055.68 134.441 1061.44 Z" fill="#000000" fill-rule="evenodd" fill-opacity="1" /><path clip-path="url(#clip900)" d="M64.0708 833.538 Q60.4597 833.538 58.631 837.103 Q56.8254 840.644 56.8254 847.774 Q56.8254 854.88 58.631 858.445 Q60.4597 861.987 64.0708 861.987 Q67.705 861.987 69.5105 858.445 Q71.3392 854.88 71.3392 847.774 Q71.3392 840.644 69.5105 837.103 Q67.705 833.538 64.0708 833.538 M64.0708 829.834 Q69.8809 829.834 72.9365 834.441 Q76.0151 839.024 76.0151 847.774 Q76.0151 856.501 72.9365 861.107 Q69.8809 865.69 64.0708 865.69 Q58.2606 865.69 55.1819 861.107 Q52.1264 856.501 52.1264 847.774 Q52.1264 839.024 55.1819 834.441 Q58.2606 829.834 64.0708 829.834 Z" fill="#000000" fill-rule="evenodd" fill-opacity="1" /><path clip-path="url(#clip900)" d="M84.2327 859.14 L89.1169 859.14 L89.1169 865.019 L84.2327 865.019 L84.2327 859.14 Z" fill="#000000" fill-rule="evenodd" fill-opacity="1" /><path clip-path="url(#clip900)" d="M109.302 833.538 Q105.691 833.538 103.862 837.103 Q102.057 840.644 102.057 847.774 Q102.057 854.88 103.862 858.445 Q105.691 861.987 109.302 861.987 Q112.936 861.987 114.742 858.445 Q116.57 854.88 116.57 847.774 Q116.57 840.644 114.742 837.103 Q112.936 833.538 109.302 833.538 M109.302 829.834 Q115.112 829.834 118.168 834.441 Q121.246 839.024 121.246 847.774 Q121.246 856.501 118.168 861.107 Q115.112 865.69 109.302 865.69 Q103.492 865.69 100.413 861.107 Q97.3576 856.501 97.3576 847.774 Q97.3576 839.024 100.413 834.441 Q103.492 829.834 109.302 829.834 Z" fill="#000000" fill-rule="evenodd" fill-opacity="1" /><path clip-path="url(#clip900)" d="M143.631 846.385 Q146.987 847.103 148.862 849.371 Q150.76 851.64 150.76 854.973 Q150.76 860.089 147.242 862.89 Q143.723 865.69 137.242 865.69 Q135.066 865.69 132.751 865.251 Q130.459 864.834 128.006 863.977 L128.006 859.464 Q129.95 860.598 132.265 861.177 Q134.58 861.755 137.103 861.755 Q141.501 861.755 143.793 860.019 Q146.107 858.283 146.107 854.973 Q146.107 851.917 143.955 850.204 Q141.825 848.468 138.006 848.468 L133.978 848.468 L133.978 844.626 L138.191 844.626 Q141.64 844.626 143.468 843.26 Q145.297 841.871 145.297 839.279 Q145.297 836.617 143.399 835.204 Q141.524 833.769 138.006 833.769 Q136.084 833.769 133.885 834.186 Q131.686 834.603 129.047 835.482 L129.047 831.316 Q131.709 830.575 134.024 830.205 Q136.362 829.834 138.422 829.834 Q143.746 829.834 146.848 832.265 Q149.95 834.672 149.95 838.792 Q149.95 841.663 148.306 843.654 Q146.663 845.621 143.631 846.385 Z" fill="#000000" fill-rule="evenodd" fill-opacity="1" /><path clip-path="url(#clip900)" d="M62.9365 633.18 Q59.3254 633.18 57.4967 636.745 Q55.6912 640.286 55.6912 647.416 Q55.6912 654.522 57.4967 658.087 Q59.3254 661.629 62.9365 661.629 Q66.5707 661.629 68.3763 658.087 Q70.205 654.522 70.205 647.416 Q70.205 640.286 68.3763 636.745 Q66.5707 633.18 62.9365 633.18 M62.9365 629.476 Q68.7467 629.476 71.8022 634.083 Q74.8809 638.666 74.8809 647.416 Q74.8809 656.143 71.8022 660.749 Q68.7467 665.332 62.9365 665.332 Q57.1264 665.332 54.0477 660.749 Q50.9921 656.143 50.9921 647.416 Q50.9921 638.666 54.0477 634.083 Q57.1264 629.476 62.9365 629.476 Z" fill="#000000" fill-rule="evenodd" fill-opacity="1" /><path clip-path="url(#clip900)" d="M83.0984 658.782 L87.9827 658.782 L87.9827 664.661 L83.0984 664.661 L83.0984 658.782 Z" fill="#000000" fill-rule="evenodd" fill-opacity="1" /><path clip-path="url(#clip900)" d="M108.168 633.18 Q104.557 633.18 102.728 636.745 Q100.922 640.286 100.922 647.416 Q100.922 654.522 102.728 658.087 Q104.557 661.629 108.168 661.629 Q111.802 661.629 113.608 658.087 Q115.436 654.522 115.436 647.416 Q115.436 640.286 113.608 636.745 Q111.802 633.18 108.168 633.18 M108.168 629.476 Q113.978 629.476 117.033 634.083 Q120.112 638.666 120.112 647.416 Q120.112 656.143 117.033 660.749 Q113.978 665.332 108.168 665.332 Q102.358 665.332 99.2789 660.749 Q96.2234 656.143 96.2234 647.416 Q96.2234 638.666 99.2789 634.083 Q102.358 629.476 108.168 629.476 Z" fill="#000000" fill-rule="evenodd" fill-opacity="1" /><path clip-path="url(#clip900)" d="M141.177 634.175 L129.371 652.624 L141.177 652.624 L141.177 634.175 M139.95 630.101 L145.83 630.101 L145.83 652.624 L150.76 652.624 L150.76 656.513 L145.83 656.513 L145.83 664.661 L141.177 664.661 L141.177 656.513 L125.575 656.513 L125.575 651.999 L139.95 630.101 Z" fill="#000000" fill-rule="evenodd" fill-opacity="1" /><path clip-path="url(#clip900)" d="M64.418 432.822 Q60.8069 432.822 58.9782 436.387 Q57.1726 439.928 57.1726 447.058 Q57.1726 454.164 58.9782 457.729 Q60.8069 461.271 64.418 461.271 Q68.0522 461.271 69.8578 457.729 Q71.6865 454.164 71.6865 447.058 Q71.6865 439.928 69.8578 436.387 Q68.0522 432.822 64.418 432.822 M64.418 429.118 Q70.2281 429.118 73.2837 433.725 Q76.3624 438.308 76.3624 447.058 Q76.3624 455.785 73.2837 460.391 Q70.2281 464.975 64.418 464.975 Q58.6078 464.975 55.5291 460.391 Q52.4736 455.785 52.4736 447.058 Q52.4736 438.308 55.5291 433.725 Q58.6078 429.118 64.418 429.118 Z" fill="#000000" fill-rule="evenodd" fill-opacity="1" /><path clip-path="url(#clip900)" d="M84.5799 458.424 L89.4641 458.424 L89.4641 464.303 L84.5799 464.303 L84.5799 458.424 Z" fill="#000000" fill-rule="evenodd" fill-opacity="1" /><path clip-path="url(#clip900)" d="M109.649 432.822 Q106.038 432.822 104.209 436.387 Q102.404 439.928 102.404 447.058 Q102.404 454.164 104.209 457.729 Q106.038 461.271 109.649 461.271 Q113.283 461.271 115.089 457.729 Q116.918 454.164 116.918 447.058 Q116.918 439.928 115.089 436.387 Q113.283 432.822 109.649 432.822 M109.649 429.118 Q115.459 429.118 118.515 433.725 Q121.594 438.308 121.594 447.058 Q121.594 455.785 118.515 460.391 Q115.459 464.975 109.649 464.975 Q103.839 464.975 100.76 460.391 Q97.7048 455.785 97.7048 447.058 Q97.7048 438.308 100.76 433.725 Q103.839 429.118 109.649 429.118 Z" fill="#000000" fill-rule="evenodd" fill-opacity="1" /><path clip-path="url(#clip900)" d="M129.857 429.743 L148.214 429.743 L148.214 433.678 L134.14 433.678 L134.14 442.151 Q135.158 441.803 136.177 441.641 Q137.195 441.456 138.214 441.456 Q144.001 441.456 147.38 444.627 Q150.76 447.799 150.76 453.215 Q150.76 458.794 147.288 461.896 Q143.816 464.975 137.496 464.975 Q135.32 464.975 133.052 464.604 Q130.807 464.234 128.399 463.493 L128.399 458.794 Q130.482 459.928 132.705 460.484 Q134.927 461.039 137.404 461.039 Q141.408 461.039 143.746 458.933 Q146.084 456.826 146.084 453.215 Q146.084 449.604 143.746 447.498 Q141.408 445.391 137.404 445.391 Q135.529 445.391 133.654 445.808 Q131.802 446.225 129.857 447.104 L129.857 429.743 Z" fill="#000000" fill-rule="evenodd" fill-opacity="1" /><path clip-path="url(#clip900)" d="M63.2606 232.464 Q59.6495 232.464 57.8208 236.029 Q56.0152 239.57 56.0152 246.7 Q56.0152 253.807 57.8208 257.371 Q59.6495 260.913 63.2606 260.913 Q66.8948 260.913 68.7004 257.371 Q70.5291 253.807 70.5291 246.7 Q70.5291 239.57 68.7004 236.029 Q66.8948 232.464 63.2606 232.464 M63.2606 228.76 Q69.0707 228.76 72.1263 233.367 Q75.205 237.95 75.205 246.7 Q75.205 255.427 72.1263 260.033 Q69.0707 264.617 63.2606 264.617 Q57.4504 264.617 54.3717 260.033 Q51.3162 255.427 51.3162 246.7 Q51.3162 237.95 54.3717 233.367 Q57.4504 228.76 63.2606 228.76 Z" fill="#000000" fill-rule="evenodd" fill-opacity="1" /><path clip-path="url(#clip900)" d="M83.4225 258.066 L88.3067 258.066 L88.3067 263.945 L83.4225 263.945 L83.4225 258.066 Z" fill="#000000" fill-rule="evenodd" fill-opacity="1" /><path clip-path="url(#clip900)" d="M108.492 232.464 Q104.881 232.464 103.052 236.029 Q101.246 239.57 101.246 246.7 Q101.246 253.807 103.052 257.371 Q104.881 260.913 108.492 260.913 Q112.126 260.913 113.932 257.371 Q115.76 253.807 115.76 246.7 Q115.76 239.57 113.932 236.029 Q112.126 232.464 108.492 232.464 M108.492 228.76 Q114.302 228.76 117.358 233.367 Q120.436 237.95 120.436 246.7 Q120.436 255.427 117.358 260.033 Q114.302 264.617 108.492 264.617 Q102.682 264.617 99.603 260.033 Q96.5474 255.427 96.5474 246.7 Q96.5474 237.95 99.603 233.367 Q102.682 228.76 108.492 228.76 Z" fill="#000000" fill-rule="evenodd" fill-opacity="1" /><path clip-path="url(#clip900)" d="M139.232 244.802 Q136.084 244.802 134.232 246.955 Q132.404 249.107 132.404 252.857 Q132.404 256.584 134.232 258.76 Q136.084 260.913 139.232 260.913 Q142.381 260.913 144.209 258.76 Q146.061 256.584 146.061 252.857 Q146.061 249.107 144.209 246.955 Q142.381 244.802 139.232 244.802 M148.515 230.149 L148.515 234.408 Q146.756 233.575 144.95 233.135 Q143.168 232.696 141.408 232.696 Q136.779 232.696 134.325 235.821 Q131.894 238.945 131.547 245.265 Q132.913 243.251 134.973 242.186 Q137.033 241.098 139.51 241.098 Q144.718 241.098 147.728 244.27 Q150.76 247.418 150.76 252.857 Q150.76 258.182 147.612 261.399 Q144.464 264.617 139.232 264.617 Q133.237 264.617 130.066 260.033 Q126.894 255.427 126.894 246.7 Q126.894 238.506 130.783 233.645 Q134.672 228.76 141.223 228.76 Q142.982 228.76 144.765 229.108 Q146.57 229.455 148.515 230.149 Z" fill="#000000" fill-rule="evenodd" fill-opacity="1" /><path clip-path="url(#clip900)" d="M1158.46 12.096 L1170.65 12.096 L1186.09 53.2532 L1201.6 12.096 L1213.79 12.096 L1213.79 72.576 L1205.81 72.576 L1205.81 19.4686 L1190.22 60.9499 L1182 60.9499 L1166.4 19.4686 L1166.4 72.576 L1158.46 72.576 L1158.46 12.096 Z" fill="#000000" fill-rule="evenodd" fill-opacity="1" /><path clip-path="url(#clip900)" d="M1229.11 12.096 L1237.33 12.096 L1237.33 48.8377 Q1237.33 58.5599 1240.85 62.8538 Q1244.38 67.1073 1252.28 67.1073 Q1260.14 67.1073 1263.66 62.8538 Q1267.19 58.5599 1267.19 48.8377 L1267.19 12.096 L1275.41 12.096 L1275.41 49.8504 Q1275.41 61.6791 1269.54 67.7149 Q1263.7 73.7508 1252.28 73.7508 Q1240.81 73.7508 1234.94 67.7149 Q1229.11 61.6791 1229.11 49.8504 L1229.11 12.096 Z" fill="#000000" fill-rule="evenodd" fill-opacity="1" /><path clip-path="url(#clip900)" d="M1327.02 14.0809 L1327.02 22.0612 Q1322.36 19.8332 1318.23 18.7395 Q1314.1 17.6457 1310.25 17.6457 Q1303.56 17.6457 1299.92 20.2383 Q1296.31 22.8309 1296.31 27.611 Q1296.31 31.6214 1298.7 33.6873 Q1301.13 35.7128 1307.86 36.9686 L1312.8 37.9813 Q1321.95 39.7232 1326.29 44.1387 Q1330.66 48.5136 1330.66 55.8863 Q1330.66 64.6767 1324.75 69.2137 Q1318.88 73.7508 1307.49 73.7508 Q1303.2 73.7508 1298.34 72.7785 Q1293.52 71.8063 1288.33 69.9024 L1288.33 61.4765 Q1293.31 64.2716 1298.09 65.6895 Q1302.87 67.1073 1307.49 67.1073 Q1314.5 67.1073 1318.31 64.3527 Q1322.12 61.598 1322.12 56.4939 Q1322.12 52.0379 1319.36 49.5264 Q1316.65 47.0148 1310.41 45.759 L1305.43 44.7868 Q1296.27 42.9639 1292.18 39.075 Q1288.09 35.1862 1288.09 28.2591 Q1288.09 20.2383 1293.72 15.6203 Q1299.39 11.0023 1309.32 11.0023 Q1313.57 11.0023 1317.98 11.7719 Q1322.4 12.5416 1327.02 14.0809 Z" fill="#000000" fill-rule="evenodd" fill-opacity="1" /><path clip-path="url(#clip900)" d="M1343.42 12.096 L1351.61 12.096 L1351.61 65.6895 L1381.06 65.6895 L1381.06 72.576 L1343.42 72.576 L1343.42 12.096 Z" fill="#000000" fill-rule="evenodd" fill-opacity="1" /><polyline clip-path="url(#clip902)" style="stroke:#009af9; stroke-linecap:round; stroke-linejoin:round; stroke-width:4; stroke-opacity:1; fill:none" points="248.062,198.238 252.149,206.544 256.235,222.615 260.322,246.415 264.409,277.661 268.496,315.951 272.583,360.79 276.669,411.598 280.756,467.715 284.843,528.415 288.93,592.914 293.017,660.377 297.103,729.93 301.19,800.676 305.277,871.7 309.364,942.085 313.45,1010.92 317.537,1077.33 321.624,1140.44 325.711,1199.44 329.798,1253.59 333.884,1302.17 337.971,1344.56 342.058,1380.23 346.145,1408.71 350.231,1429.64 354.318,1442.75 358.405,1447.87 362.492,1444.95 366.579,1434.01 370.665,1415.21 374.752,1388.78 378.839,1355.07 382.926,1314.52 387.013,1267.64 391.099,1215.04 395.186,1157.4 399.273,1095.46 403.36,1030.01 407.446,961.905 411.533,892.016 415.62,821.242 419.707,750.497 423.794,680.689 427.88,612.719 431.967,547.463 436.054,485.76 440.141,428.408 444.228,376.145 448.314,329.646 452.401,289.512 456.488,256.261 460.575,230.323 464.661,212.035 468.748,201.633 472.835,199.253 476.922,204.927 481.009,218.584 485.095,240.047 489.182,269.042 493.269,305.194 497.356,348.037 501.443,397.02 505.529,451.509 509.616,510.801 513.703,574.131 517.79,640.681 521.876,709.59 525.963,779.97 530.05,850.91 534.137,921.495 538.224,990.813 542.31,1057.97 546.397,1122.1 550.484,1182.37 554.571,1238 558.658,1288.29 562.744,1332.58 566.831,1370.29 570.918,1400.96 575.005,1424.17 579.091,1439.64 583.178,1447.16 587.265,1446.64 591.352,1438.09 595.439,1421.63 599.525,1397.45 603.612,1365.89 607.699,1327.34 611.786,1282.31 615.872,1231.37 619.959,1175.19 624.046,1114.48 628.133,1050.03 632.22,982.679 636.306,913.283 640.393,842.74 644.48,771.959 648.567,701.852 652.654,633.321 656.74,567.25 660.827,504.491 664.914,445.851 669.001,392.088 673.087,343.894 677.174,301.891 681.261,266.621 685.348,238.541 689.435,218.013 693.521,205.302 697.608,200.576 701.695,203.894 705.782,215.217 709.869,234.4 713.955,261.195 718.042,295.258 722.129,336.151 726.216,383.347 730.302,436.236 734.389,494.136 738.476,556.299 742.563,621.923 746.65,690.16 750.736,760.129 754.823,830.924 758.91,901.632 762.997,971.338 767.084,1039.14 771.17,1104.17 775.257,1165.57 779.344,1222.57 783.431,1274.42 787.517,1320.45 791.604,1360.08 795.691,1392.78 799.778,1418.14 803.865,1435.84 807.951,1445.65 812.038,1447.44 816.125,1441.2 820.212,1427 824.298,1405.04 828.385,1375.59 832.472,1339.05 836.559,1295.88 840.646,1246.64 844.732,1191.97 848.819,1132.58 852.906,1069.22 856.993,1002.73 861.08,933.946 865.166,863.765 869.253,793.086 873.34,722.821 877.427,653.873 881.513,587.129 885.6,523.448 889.687,463.648 893.774,408.499 897.861,358.711 901.947,314.925 906.034,277.704 910.121,247.529 914.208,224.788 918.295,209.777 922.381,202.689 926.468,203.619 930.555,212.555 934.642,229.386 938.728,253.895 942.815,285.77 946.902,324.602 950.989,369.892 955.076,421.058 959.162,477.44 963.249,538.314 967.336,602.893 971.423,670.345 975.51,739.798 979.596,810.357 983.683,881.109 987.77,951.139 991.857,1019.54 995.943,1085.43 1000.03,1147.96 1004.12,1206.31 1008.2,1259.73 1012.29,1307.53 1016.38,1349.1 1020.46,1383.89 1024.55,1411.45 1028.64,1431.43 1032.72,1443.57 1036.81,1447.72 1040.9,1443.83 1044.98,1431.94 1049.07,1412.21 1053.16,1384.9 1057.25,1350.37 1061.33,1309.07 1065.42,1261.52 1069.51,1208.35 1073.59,1150.25 1077.68,1087.96 1081.77,1022.29 1085.85,954.099 1089.94,884.256 1094.03,813.665 1098.11,743.236 1102.2,673.877 1106.29,606.481 1110.37,541.915 1114.46,481.01 1118.55,424.549 1122.63,373.257 1126.72,327.794 1130.81,288.743 1134.89,256.606 1138.98,231.794 1143.07,214.628 1147.15,205.327 1151.24,204.01 1155.33,210.695 1159.41,225.296 1163.5,247.625 1167.59,277.396 1171.68,314.227 1175.76,357.646 1179.85,407.093 1183.94,461.935 1188.02,521.465 1192.11,584.919 1196.2,651.48 1200.28,720.291 1204.37,790.465 1208.46,861.099 1212.54,931.282 1216.63,1000.11 1220.72,1066.69 1224.8,1130.16 1228.89,1189.71 1232.98,1244.57 1237.06,1294.02 1241.15,1337.43 1245.24,1374.23 1249.32,1403.94 1253.41,1426.19 1257.5,1440.68 1261.58,1447.23 1265.67,1445.74 1269.76,1436.25 1273.84,1418.86 1277.93,1393.82 1282.02,1361.43 1286.11,1322.12 1290.19,1276.4 1294.28,1224.86 1298.37,1168.18 1302.45,1107.07 1306.54,1042.33 1310.63,974.804 1314.71,905.36 1318.8,834.897 1322.89,764.324 1326.97,694.553 1331.06,626.485 1335.15,560.997 1339.23,498.935 1343.32,441.098 1347.41,388.23 1351.49,341.013 1355.58,300.054 1359.67,265.878 1363.75,238.926 1367.84,219.542 1371.93,207.976 1376.01,204.373 1380.1,208.78 1384.19,221.138 1388.27,241.287 1392.36,268.967 1396.45,303.82 1400.54,345.398 1404.62,393.164 1408.71,446.503 1412.8,504.729 1416.88,567.093 1420.97,632.79 1425.06,700.975 1429.14,770.771 1433.23,841.279 1437.32,911.59 1441.4,980.799 1445.49,1048.01 1449.58,1112.37 1453.66,1173.03 1457.75,1229.23 1461.84,1280.22 1465.92,1325.36 1470.01,1364.06 1474.1,1395.82 1478.18,1420.23 1482.27,1436.98 1486.36,1445.84 1490.44,1446.71 1494.53,1439.56 1498.62,1424.5 1502.7,1401.71 1506.79,1371.49 1510.88,1334.22 1514.97,1290.4 1519.05,1240.58 1523.14,1185.4 1527.23,1125.59 1531.31,1061.91 1535.4,995.179 1539.49,926.27 1543.57,856.069 1547.66,785.482 1551.75,715.421 1555.83,646.792 1559.92,580.481 1564.01,517.344 1568.09,458.196 1572.18,403.801 1576.27,354.861 1580.35,312.007 1584.44,275.792 1588.53,246.682 1592.61,225.051 1596.7,211.179 1600.79,205.243 1604.87,207.318 1608.96,217.377 1613.05,235.288 1617.13,260.82 1621.22,293.642 1625.31,333.33 1629.4,379.371 1633.48,431.171 1637.57,488.061 1641.66,549.308 1645.74,614.121 1649.83,681.665 1653.92,751.069 1658,821.439 1662.09,891.868 1666.18,961.448 1670.26,1029.28 1674.35,1094.5 1678.44,1156.25 1682.52,1213.76 1686.61,1266.26 1690.7,1313.09 1694.78,1353.65 1698.87,1387.41 1702.96,1413.94 1707.04,1432.89 1711.13,1444.03 1715.22,1447.2 1719.3,1442.36 1723.39,1429.59 1727.48,1409.04 1731.56,1380.98 1735.65,1345.76 1739.74,1303.85 1743.83,1255.78 1747.91,1202.18 1752,1143.73 1756.09,1081.19 1760.17,1015.36 1764.26,947.097 1768.35,877.277 1772.43,806.803 1776.52,736.582 1780.61,667.521 1784.69,600.511 1788.78,536.417 1792.87,476.066 1796.95,420.236 1801.04,369.649 1805.13,324.958 1809.21,286.738 1813.3,255.484 1817.39,231.598 1821.47,215.39 1825.56,207.067 1829.65,206.738 1833.73,214.407 1837.82,229.974 1841.91,253.239 1845.99,283.901 1850.08,321.564 1854.17,365.741 1858.25,415.864 1862.34,471.284 1866.43,531.286 1870.52,595.097 1874.6,661.892 1878.69,730.811 1882.78,800.963 1886.86,871.444 1890.95,941.346 1895.04,1009.77 1899.12,1075.82 1903.21,1138.66 1907.3,1197.48 1911.38,1251.51 1915.47,1300.07 1919.56,1342.51 1923.64,1378.31 1927.73,1406.99 1931.82,1428.19 1935.9,1441.64 1939.99,1447.15 1944.08,1444.67 1948.16,1434.22 1952.25,1415.93 1956.34,1390.05 1960.42,1356.91 1964.51,1316.93 1968.6,1270.64 1972.68,1218.62 1976.77,1161.55 1980.86,1100.16 1984.95,1035.25 1989.03,967.654 1993.12,898.242 1997.21,827.912 2001.29,757.57 2005.38,688.124 2009.47,620.47 2013.55,555.48 2017.64,493.995 2021.73,436.806 2025.81,384.653 2029.9,338.209 2033.99,298.073 2038.07,264.763 2042.16,238.708 2046.25,220.247 2050.33,209.615 2054.42,206.952 2058.51,212.289 2062.59,225.56 2066.68,246.591 2070.77,275.111 2074.85,310.752 2078.94,353.053 2083.03,401.467 2087.11,455.37 2091.2,514.066 2095.29,576.796 2099.38,642.751 2103.46,711.08 2107.55,780.902 2111.64,851.315 2115.72,921.411 2119.81,990.287 2123.9,1057.05 2127.98,1120.85 2132.07,1180.86 2136.16,1236.3 2140.24,1286.47 2144.33,1330.71 2148.42,1368.46 2152.5,1399.22 2156.59,1422.62 2160.68,1438.34 2164.76,1446.18 2168.85,1446.04 2172.94,1437.93 2177.02,1421.95 2181.11,1398.31 2185.2,1367.3 2189.28,1329.35 2193.37,1284.92 2197.46,1234.59 2201.54,1179.02 2205.63,1118.92 2209.72,1055.06 2213.81,988.266 2217.89,919.398 2221.98,849.345 2226.07,779.007 2230.15,709.294 2234.24,641.102 2238.33,575.311 2242.41,512.77 2246.5,454.285 2250.59,400.612 2254.67,352.443 2258.76,310.4 2262.85,275.026 2266.93,246.778 2271.02,226.023 2275.11,213.027 2279.19,207.961 2283.28,210.89 2287.37,221.777 2291.45,240.483 "/>
<polyline clip-path="url(#clip902)" style="stroke:#e26f46; stroke-linecap:round; stroke-linejoin:round; stroke-width:4; stroke-opacity:1; fill:none" points="248.062,1444.77 252.149,1432.69 256.235,1412.74 260.322,1385.18 264.409,1350.36 268.496,1308.73 272.583,1260.83 276.669,1207.29 280.756,1148.79 284.843,1086.1 288.93,1020.03 293.017,951.418 297.103,881.169 301.19,810.184 305.277,739.381 309.364,669.674 313.45,601.963 317.537,537.12 321.624,475.982 325.711,419.337 329.798,367.912 333.884,322.37 337.971,283.296 342.058,251.191 346.145,226.467 350.231,209.441 354.318,200.33 358.405,199.249 362.492,206.211 366.579,221.124 370.665,243.794 374.752,273.93 378.839,311.141 382.926,354.949 387.013,404.789 391.099,460.019 395.186,519.928 399.273,583.746 403.36,650.65 407.446,719.781 411.533,790.248 415.62,861.145 419.707,931.558 423.794,1000.58 427.88,1067.33 431.967,1130.93 436.054,1190.58 440.141,1245.5 444.228,1294.98 448.314,1338.38 452.401,1375.15 456.488,1404.81 460.575,1426.97 464.661,1441.35 468.748,1447.76 472.835,1446.12 476.922,1436.44 481.009,1418.86 485.095,1393.59 489.182,1360.96 493.269,1321.39 497.356,1275.4 501.443,1223.57 505.529,1166.58 509.616,1105.17 513.703,1040.12 517.79,972.275 521.876,902.516 525.963,831.743 530.05,760.87 534.137,690.813 538.224,622.478 542.31,556.748 546.397,494.471 550.484,436.451 554.571,383.437 558.658,336.113 562.744,295.088 566.831,260.892 570.918,233.964 575.005,214.649 579.091,203.197 583.178,199.752 587.265,204.357 591.352,216.952 595.439,237.372 599.525,265.352 603.612,300.531 607.699,342.453 611.786,390.577 615.872,444.282 619.959,502.877 624.046,565.605 628.133,631.658 632.22,700.185 636.306,770.304 640.393,841.112 644.48,911.697 648.567,981.151 652.654,1048.58 656.74,1113.11 660.827,1173.92 664.914,1230.22 669.001,1281.29 673.087,1326.46 677.174,1365.16 681.261,1396.89 685.348,1421.24 689.435,1437.88 693.521,1446.61 697.608,1447.32 701.695,1439.99 705.782,1424.71 709.869,1401.69 713.955,1371.22 718.042,1333.68 722.129,1289.57 726.216,1239.46 730.302,1183.98 734.389,1123.87 738.476,1059.88 742.563,992.857 746.65,923.659 750.736,853.18 754.823,782.334 758.91,712.034 762.997,643.191 767.084,576.694 771.17,513.403 775.257,454.135 779.344,399.655 783.431,350.668 787.517,307.805 791.604,271.618 795.691,242.574 799.778,221.046 803.865,207.309 807.951,201.539 812.038,203.808 816.125,214.085 820.212,232.233 824.298,258.016 828.385,291.1 832.472,331.055 836.559,377.365 840.646,429.431 844.732,486.581 848.819,548.076 852.906,613.126 856.993,680.89 861.08,750.498 865.166,821.053 869.253,891.646 873.34,961.371 877.427,1029.33 881.513,1094.65 885.6,1156.49 889.687,1214.06 893.774,1266.62 897.861,1313.48 901.947,1354.05 906.034,1387.8 910.121,1414.3 914.208,1433.21 918.295,1444.28 922.381,1447.37 926.468,1442.43 930.555,1429.53 934.642,1408.82 938.728,1380.59 942.815,1345.18 946.902,1303.05 950.989,1254.74 955.076,1200.87 959.162,1142.15 963.249,1079.31 967.336,1013.18 971.423,944.613 975.51,874.484 979.596,803.706 983.683,733.192 987.77,663.856 991.857,596.595 995.943,532.279 1000.03,471.742 1004.12,415.767 1008.2,365.079 1012.29,320.334 1016.38,282.113 1020.46,250.909 1024.55,227.126 1028.64,211.07 1032.72,202.949 1036.81,202.865 1040.9,210.819 1044.98,226.705 1049.07,250.315 1053.16,281.342 1057.25,319.383 1061.33,363.942 1065.42,414.443 1069.51,470.231 1073.59,530.583 1077.68,594.72 1081.77,661.811 1085.85,730.99 1089.94,801.366 1094.03,872.03 1098.11,942.073 1102.2,1010.59 1106.29,1076.7 1110.37,1139.56 1114.46,1198.36 1118.55,1252.33 1122.63,1300.8 1126.72,1343.13 1130.81,1378.79 1134.89,1407.31 1138.98,1428.33 1143.07,1441.59 1147.15,1446.91 1151.24,1444.22 1155.33,1433.57 1159.41,1415.07 1163.5,1388.99 1167.59,1355.64 1171.68,1315.46 1175.76,1268.96 1179.85,1216.75 1183.94,1159.48 1188.02,1097.91 1192.11,1032.81 1196.2,965.032 1200.28,895.445 1204.37,824.947 1208.46,754.445 1212.54,684.849 1216.63,617.058 1220.72,551.947 1224.8,490.357 1228.89,433.085 1232.98,380.873 1237.06,334.395 1241.15,294.254 1245.24,260.971 1249.32,234.977 1253.41,216.609 1257.5,206.106 1261.58,203.605 1265.67,209.139 1269.76,222.637 1273.84,243.925 1277.93,272.727 1282.02,308.67 1286.11,351.29 1290.19,400.034 1294.28,454.272 1298.37,513.302 1302.45,576.36 1306.54,642.63 1310.63,711.255 1314.71,781.348 1318.8,852.005 1322.89,922.311 1326.97,991.36 1331.06,1058.26 1335.15,1122.15 1339.23,1182.21 1343.32,1237.66 1347.41,1287.79 1351.49,1331.95 1355.58,1369.58 1359.67,1400.2 1363.75,1423.4 1367.84,1438.9 1371.93,1446.5 1376.01,1446.1 1380.1,1437.7 1384.19,1421.43 1388.27,1397.48 1392.36,1366.16 1396.45,1327.89 1400.54,1283.15 1404.62,1232.52 1408.71,1176.65 1412.8,1116.26 1416.88,1052.13 1420.97,985.089 1425.06,915.991 1429.14,845.73 1433.23,775.212 1437.32,705.343 1441.4,637.026 1445.49,571.14 1449.58,508.535 1453.66,450.019 1457.75,396.348 1461.84,348.214 1465.92,306.239 1470.01,270.967 1474.1,242.853 1478.18,222.262 1482.27,209.461 1486.36,204.617 1490.44,207.794 1494.53,218.952 1498.62,237.948 1502.7,264.538 1506.79,298.379 1510.88,339.035 1514.97,385.982 1519.05,438.613 1523.14,496.249 1527.23,558.145 1531.31,623.502 1535.4,691.475 1539.49,761.186 1543.57,831.735 1547.66,902.21 1551.75,971.701 1555.83,1039.31 1559.92,1104.17 1564.01,1165.43 1568.09,1222.31 1572.18,1274.08 1576.27,1320.06 1580.35,1359.67 1584.44,1392.39 1588.53,1417.8 1592.61,1435.58 1596.7,1445.51 1600.79,1447.44 1604.87,1441.36 1608.96,1427.36 1613.05,1405.61 1617.13,1376.39 1621.22,1340.08 1625.31,1297.15 1629.4,1248.17 1633.48,1193.75 1637.57,1134.6 1641.66,1071.49 1645.74,1005.22 1649.83,936.664 1653.92,866.69 1658,796.205 1662.09,726.116 1666.18,657.328 1670.26,590.727 1674.35,527.171 1678.44,467.478 1682.52,412.418 1686.61,362.7 1690.7,318.966 1694.78,281.778 1698.87,251.617 1702.96,228.87 1707.04,213.833 1711.13,206.698 1715.22,207.559 1719.3,216.404 1723.39,233.121 1727.48,257.494 1731.56,289.209 1735.65,327.858 1739.74,372.944 1743.83,423.885 1747.91,480.025 1752,540.64 1756.09,604.949 1760.17,672.123 1764.26,741.295 1768.35,811.573 1772.43,882.052 1776.52,951.821 1780.61,1019.98 1784.69,1085.65 1788.78,1147.99 1792.87,1206.18 1796.95,1259.48 1801.04,1307.21 1805.13,1348.74 1809.21,1383.54 1813.3,1411.15 1817.39,1431.24 1821.47,1443.52 1825.56,1447.86 1829.65,1444.18 1833.73,1432.55 1837.82,1413.1 1841.91,1386.09 1845.99,1351.87 1850.08,1310.89 1854.17,1263.66 1858.25,1210.8 1862.34,1153 1866.43,1090.99 1870.52,1025.59 1874.6,957.622 1878.69,887.978 1882.78,817.554 1886.86,747.257 1890.95,677.993 1895.04,610.658 1899.12,546.118 1903.21,485.207 1907.3,428.71 1911.38,377.355 1915.47,331.804 1919.56,292.645 1923.64,260.383 1927.73,235.433 1931.82,218.116 1935.9,208.657 1939.99,207.176 1944.08,213.694 1948.16,228.125 1952.25,250.285 1956.34,279.887 1960.42,316.549 1964.51,359.799 1968.6,409.08 1972.68,463.756 1976.77,523.121 1980.86,586.412 1984.95,652.811 1989.03,721.462 1993.12,791.48 1997.21,861.961 2001.29,931.997 2005.38,1000.68 2009.47,1067.14 2013.55,1130.5 2017.64,1189.95 2021.73,1244.72 2025.81,1294.11 2029.9,1337.48 2033.99,1374.27 2038.07,1404 2042.16,1426.3 2046.25,1440.87 2050.33,1447.53 2054.42,1446.19 2058.51,1436.88 2062.59,1419.7 2066.68,1394.88 2070.77,1362.75 2074.85,1323.72 2078.94,1278.3 2083.03,1227.06 2087.11,1170.68 2091.2,1109.89 2095.29,1045.45 2099.38,978.22 2103.46,909.053 2107.55,838.845 2111.64,768.503 2115.72,698.933 2119.81,631.034 2123.9,565.679 2127.98,503.713 2132.07,445.933 2136.16,393.083 2140.24,345.846 2144.33,304.829 2148.42,270.56 2152.5,243.479 2156.59,223.936 2160.68,212.181 2164.76,208.366 2168.85,212.538 2172.94,224.643 2177.02,244.525 2181.11,271.927 2185.2,306.497 2189.28,347.787 2193.37,395.268 2197.46,448.326 2201.54,506.279 2205.63,568.38 2209.72,633.829 2213.81,701.784 2217.89,771.369 2221.98,841.688 2226.07,911.835 2230.15,980.905 2234.24,1048.01 2238.33,1112.28 2242.41,1172.9 2246.5,1229.07 2250.59,1280.07 2254.67,1325.26 2258.76,1364.03 2262.85,1395.89 2266.93,1420.43 2271.02,1437.34 2275.11,1446.39 2279.19,1447.46 2283.28,1440.54 2287.37,1425.72 2291.45,1403.19 "/>
<polyline clip-path="url(#clip902)" style="stroke:#3da44d; stroke-linecap:round; stroke-linejoin:round; stroke-width:4; stroke-opacity:1; fill:none" points="248.062,194.195 252.149,190.425 256.235,186.546 260.322,182.782 264.409,179.206 268.496,175.868 272.583,172.811 276.669,170.075 280.756,167.696 284.843,165.705 288.93,164.127 293.017,162.982 297.103,162.286 301.19,162.047 305.277,162.268 309.364,162.946 313.45,164.073 317.537,165.633 321.624,167.606 325.711,169.966 329.798,172.684 333.884,175.724 337.971,179.047 342.058,182.609 346.145,186.366 350.231,190.268 354.318,194.266 358.405,198.309 362.492,202.345 366.579,206.323 370.665,210.19 374.752,213.899 378.839,217.402 382.926,220.655 387.013,223.615 391.099,226.245 395.186,228.513 399.273,230.388 403.36,231.847 407.446,232.873 411.533,233.451 415.62,233.574 419.707,233.242 423.794,232.458 427.88,231.232 431.967,229.581 436.054,227.524 440.141,225.09 444.228,222.308 448.314,219.216 452.401,215.851 456.488,212.258 460.575,208.483 464.661,204.575 468.748,200.583 472.835,196.56 476.922,192.558 481.009,188.628 485.095,184.821 489.182,181.187 493.269,177.773 497.356,174.624 501.443,171.781 505.529,169.281 509.616,167.156 513.703,165.436 517.79,164.143 521.876,163.293 525.963,162.899 530.05,162.967 534.137,163.496 538.224,164.479 542.31,165.904 546.397,167.754 550.484,170.005 554.571,172.629 558.658,175.59 562.744,178.852 566.831,182.373 570.918,186.107 575.005,190.006 579.091,194.02 583.178,198.098 587.265,202.186 591.352,206.233 595.439,210.185 599.525,213.993 603.612,217.607 607.699,220.981 611.786,224.072 615.872,226.841 619.959,229.251 624.046,231.272 628.133,232.879 632.22,234.051 636.306,234.774 640.393,235.039 644.48,234.843 648.567,234.189 652.654,233.087 656.74,231.55 660.827,229.599 664.914,227.26 669.001,224.563 673.087,221.544 677.174,218.242 681.261,214.7 685.348,210.963 689.435,207.081 693.521,203.104 697.608,199.082 701.695,195.07 705.782,191.117 709.869,187.277 713.955,183.597 718.042,180.128 722.129,176.912 726.216,173.992 730.302,171.407 734.389,169.189 738.476,167.368 742.563,165.968 746.65,165.006 750.736,164.496 754.823,164.445 758.91,164.853 762.997,165.717 767.084,167.023 771.17,168.757 775.257,170.896 779.344,173.412 783.431,176.274 787.517,179.444 791.604,182.881 795.691,186.541 799.778,190.378 803.865,194.34 807.951,198.378 812.038,202.44 816.125,206.472 820.212,210.423 824.298,214.243 828.385,217.881 832.472,221.292 836.559,224.432 840.646,227.26 844.732,229.74 848.819,231.841 852.906,233.537 856.993,234.806 861.08,235.631 865.166,236.004 869.253,235.92 873.34,235.38 877.427,234.392 881.513,232.968 885.6,231.129 889.687,228.897 893.774,226.302 897.861,223.377 901.947,220.16 906.034,216.692 910.121,213.018 914.208,209.186 918.295,205.244 922.381,201.242 926.468,197.233 930.555,193.267 934.642,189.396 938.728,185.669 942.815,182.134 946.902,178.836 950.989,175.818 955.076,173.12 959.162,170.775 963.249,168.814 967.336,167.264 971.423,166.144 975.51,165.47 979.596,165.25 983.683,165.488 987.77,166.182 991.857,167.324 995.943,168.898 1000.03,170.887 1004.12,173.263 1008.2,175.998 1012.29,179.057 1016.38,182.399 1020.46,185.983 1024.55,189.762 1028.64,193.688 1032.72,197.71 1036.81,201.776 1040.9,205.833 1044.98,209.83 1049.07,213.713 1053.16,217.434 1057.25,220.943 1061.33,224.196 1065.42,227.151 1069.51,229.769 1073.59,232.017 1077.68,233.865 1081.77,235.291 1085.85,236.276 1089.94,236.809 1094.03,236.882 1098.11,236.496 1102.2,235.655 1106.29,234.373 1110.37,232.665 1114.46,230.554 1118.55,228.069 1122.63,225.243 1126.72,222.112 1130.81,218.717 1134.89,215.102 1138.98,211.315 1143.07,207.405 1147.15,203.423 1151.24,199.42 1155.33,195.448 1159.41,191.558 1163.5,187.8 1167.59,184.224 1171.68,180.874 1175.76,177.795 1179.85,175.026 1183.94,172.603 1188.02,170.558 1192.11,168.916 1196.2,167.699 1200.28,166.923 1204.37,166.599 1208.46,166.731 1212.54,167.318 1216.63,168.352 1220.72,169.822 1224.8,171.708 1228.89,173.987 1232.98,176.629 1237.06,179.602 1241.15,182.868 1245.24,186.384 1249.32,190.106 1253.41,193.986 1257.5,197.974 1261.58,202.019 1265.67,206.069 1269.76,210.071 1273.84,213.975 1277.93,217.729 1282.02,221.285 1286.11,224.598 1290.19,227.624 1294.28,230.324 1298.37,232.664 1302.45,234.614 1306.54,236.148 1310.63,237.246 1314.71,237.896 1318.8,238.088 1322.89,237.822 1326.97,237.1 1331.06,235.933 1335.15,234.336 1339.23,232.33 1343.32,229.942 1347.41,227.204 1351.49,224.15 1355.58,220.821 1359.67,217.261 1363.75,213.515 1367.84,209.633 1371.93,205.664 1376.01,201.659 1380.1,197.672 1384.19,193.752 1388.27,189.95 1392.36,186.316 1396.45,182.896 1400.54,179.733 1404.62,176.869 1408.71,174.341 1412.8,172.179 1416.88,170.414 1420.97,169.066 1425.06,168.154 1429.14,167.689 1433.23,167.678 1437.32,168.12 1441.4,169.012 1445.49,170.341 1449.58,172.091 1453.66,174.24 1457.75,176.761 1461.84,179.621 1465.92,182.786 1470.01,186.214 1474.1,189.861 1478.18,193.682 1482.27,197.627 1486.36,201.647 1490.44,205.689 1494.53,209.701 1498.62,213.633 1502.7,217.433 1506.79,221.052 1510.88,224.445 1514.97,227.566 1519.05,230.375 1523.14,232.837 1527.23,234.919 1531.31,236.594 1535.4,237.841 1539.49,238.643 1543.57,238.991 1547.66,238.879 1551.75,238.309 1555.83,237.29 1559.92,235.834 1564.01,233.96 1568.09,231.694 1572.18,229.065 1576.27,226.107 1580.35,222.86 1584.44,219.366 1588.53,215.671 1592.61,211.822 1596.7,207.872 1600.79,203.87 1604.87,199.87 1608.96,195.923 1613.05,192.08 1617.13,188.393 1621.22,184.908 1625.31,181.672 1629.4,178.725 1633.48,176.106 1637.57,173.849 1641.66,171.983 1645.74,170.533 1649.83,169.516 1653.92,168.946 1658,168.831 1662.09,169.172 1666.18,169.964 1670.26,171.197 1674.35,172.856 1678.44,174.919 1682.52,177.361 1686.61,180.149 1690.7,183.248 1694.78,186.618 1698.87,190.217 1702.96,193.998 1707.04,197.913 1711.13,201.912 1715.22,205.943 1719.3,209.956 1723.39,213.898 1727.48,217.719 1731.56,221.371 1735.65,224.807 1739.74,227.982 1743.83,230.856 1747.91,233.391 1752,235.557 1756.09,237.324 1760.17,238.671 1764.26,239.579 1768.35,240.038 1772.43,240.041 1776.52,239.59 1780.61,238.688 1784.69,237.349 1788.78,235.59 1792.87,233.433 1796.95,230.907 1801.04,228.044 1805.13,224.882 1809.21,221.46 1813.3,217.825 1817.39,214.022 1821.47,210.101 1825.56,206.112 1829.65,202.108 1833.73,198.14 1837.82,194.26 1841.91,190.517 1845.99,186.96 1850.08,183.636 1854.17,180.587 1858.25,177.852 1862.34,175.468 1866.43,173.465 1870.52,171.869 1874.6,170.701 1878.69,169.976 1882.78,169.704 1886.86,169.888 1890.95,170.526 1895.04,171.611 1899.12,173.128 1903.21,175.058 1907.3,177.377 1911.38,180.055 1915.47,183.058 1919.56,186.347 1923.64,189.88 1927.73,193.612 1931.82,197.495 1935.9,201.48 1939.99,205.515 1944.08,209.548 1948.16,213.528 1952.25,217.404 1956.34,221.126 1960.42,224.646 1964.51,227.919 1968.6,230.903 1972.68,233.56 1976.77,235.855 1980.86,237.759 1984.95,239.248 1989.03,240.302 1993.12,240.909 1997.21,241.06 2001.29,240.754 2005.38,239.995 2009.47,238.793 2013.55,237.164 2017.64,235.128 2021.73,232.713 2025.81,229.95 2029.9,226.875 2033.99,223.529 2038.07,219.954 2042.16,216.197 2046.25,212.307 2050.33,208.335 2054.42,204.333 2058.51,200.352 2062.59,196.445 2066.68,192.662 2070.77,189.052 2074.85,185.663 2078.94,182.538 2083.03,179.719 2087.11,177.241 2091.2,175.138 2095.29,173.436 2099.38,172.158 2103.46,171.32 2107.55,170.934 2111.64,171.005 2115.72,171.532 2119.81,172.508 2123.9,173.921 2127.98,175.753 2132.07,177.98 2136.16,180.574 2140.24,183.502 2144.33,186.725 2148.42,190.203 2152.5,193.891 2156.59,197.741 2160.68,201.704 2164.76,205.729 2168.85,209.765 2172.94,213.759 2177.02,217.661 2181.11,221.42 2185.2,224.988 2189.28,228.32 2193.37,231.373 2197.46,234.107 2201.54,236.489 2205.63,238.487 2209.72,240.077 2213.81,241.237 2217.89,241.955 2221.98,242.22 2226.07,242.029 2230.15,241.386 2234.24,240.299 2238.33,238.781 2242.41,236.854 2246.5,234.542 2250.59,231.874 2254.67,228.886 2258.76,225.615 2262.85,222.105 2266.93,218.4 2271.02,214.549 2275.11,210.6 2279.19,206.605 2283.28,202.615 2287.37,198.681 2291.45,194.856 "/>
<path clip-path="url(#clip900)" d="M258.96 1441.02 L625.975 1441.02 L625.975 1233.66 L258.96 1233.66  Z" fill="#ffffff" fill-rule="evenodd" fill-opacity="1"/>
<polyline clip-path="url(#clip900)" style="stroke:#000000; stroke-linecap:round; stroke-linejoin:round; stroke-width:4; stroke-opacity:1; fill:none" points="258.96,1441.02 625.975,1441.02 625.975,1233.66 258.96,1233.66 258.96,1441.02 "/>
<polyline clip-path="url(#clip900)" style="stroke:#009af9; stroke-linecap:round; stroke-linejoin:round; stroke-width:4; stroke-opacity:1; fill:none" points="283.027,1285.5 427.426,1285.5 "/>
<path clip-path="url(#clip900)" d="M451.493 1266.76 L455.775 1266.76 L455.775 1288.03 L468.484 1276.85 L473.923 1276.85 L460.173 1288.98 L474.502 1302.78 L468.947 1302.78 L455.775 1290.11 L455.775 1302.78 L451.493 1302.78 L451.493 1266.76 Z" fill="#000000" fill-rule="evenodd" fill-opacity="1" /><path clip-path="url(#clip900)" d="M479.109 1276.85 L483.368 1276.85 L483.368 1302.78 L479.109 1302.78 L479.109 1276.85 M479.109 1266.76 L483.368 1266.76 L483.368 1272.15 L479.109 1272.15 L479.109 1266.76 Z" fill="#000000" fill-rule="evenodd" fill-opacity="1" /><path clip-path="url(#clip900)" d="M513.831 1287.13 L513.831 1302.78 L509.571 1302.78 L509.571 1287.27 Q509.571 1283.59 508.136 1281.76 Q506.701 1279.93 503.831 1279.93 Q500.382 1279.93 498.391 1282.13 Q496.4 1284.33 496.4 1288.12 L496.4 1302.78 L492.118 1302.78 L492.118 1276.85 L496.4 1276.85 L496.4 1280.88 Q497.928 1278.54 499.988 1277.38 Q502.071 1276.22 504.78 1276.22 Q509.247 1276.22 511.539 1279 Q513.831 1281.76 513.831 1287.13 Z" fill="#000000" fill-rule="evenodd" fill-opacity="1" /><path clip-path="url(#clip900)" d="M544.502 1288.75 L544.502 1290.83 L524.918 1290.83 Q525.196 1295.23 527.557 1297.54 Q529.942 1299.84 534.178 1299.84 Q536.631 1299.84 538.923 1299.23 Q541.238 1298.63 543.506 1297.43 L543.506 1301.46 Q541.215 1302.43 538.807 1302.94 Q536.4 1303.45 533.923 1303.45 Q527.719 1303.45 524.085 1299.84 Q520.474 1296.22 520.474 1290.07 Q520.474 1283.7 523.9 1279.97 Q527.349 1276.22 533.182 1276.22 Q538.414 1276.22 541.446 1279.6 Q544.502 1282.96 544.502 1288.75 M540.242 1287.5 Q540.196 1284 538.275 1281.92 Q536.377 1279.84 533.229 1279.84 Q529.664 1279.84 527.511 1281.85 Q525.381 1283.86 525.057 1287.52 L540.242 1287.5 Z" fill="#000000" fill-rule="evenodd" fill-opacity="1" /><path clip-path="url(#clip900)" d="M555.705 1269.49 L555.705 1276.85 L564.478 1276.85 L564.478 1280.16 L555.705 1280.16 L555.705 1294.23 Q555.705 1297.41 556.562 1298.31 Q557.441 1299.21 560.103 1299.21 L564.478 1299.21 L564.478 1302.78 L560.103 1302.78 Q555.173 1302.78 553.298 1300.95 Q551.423 1299.09 551.423 1294.23 L551.423 1280.16 L548.298 1280.16 L548.298 1276.85 L551.423 1276.85 L551.423 1269.49 L555.705 1269.49 Z" fill="#000000" fill-rule="evenodd" fill-opacity="1" /><path clip-path="url(#clip900)" d="M570.08 1276.85 L574.339 1276.85 L574.339 1302.78 L570.08 1302.78 L570.08 1276.85 M570.08 1266.76 L574.339 1266.76 L574.339 1272.15 L570.08 1272.15 L570.08 1266.76 Z" fill="#000000" fill-rule="evenodd" fill-opacity="1" /><path clip-path="url(#clip900)" d="M601.909 1277.84 L601.909 1281.83 Q600.103 1280.83 598.275 1280.34 Q596.469 1279.84 594.617 1279.84 Q590.474 1279.84 588.182 1282.47 Q585.89 1285.09 585.89 1289.84 Q585.89 1294.58 588.182 1297.22 Q590.474 1299.84 594.617 1299.84 Q596.469 1299.84 598.275 1299.35 Q600.103 1298.84 601.909 1297.84 L601.909 1301.78 Q600.126 1302.61 598.205 1303.03 Q596.307 1303.45 594.154 1303.45 Q588.298 1303.45 584.849 1299.77 Q581.4 1296.09 581.4 1289.84 Q581.4 1283.49 584.872 1279.86 Q588.367 1276.22 594.432 1276.22 Q596.4 1276.22 598.275 1276.64 Q600.15 1277.03 601.909 1277.84 Z" fill="#000000" fill-rule="evenodd" fill-opacity="1" /><polyline clip-path="url(#clip900)" style="stroke:#e26f46; stroke-linecap:round; stroke-linejoin:round; stroke-width:4; stroke-opacity:1; fill:none" points="283.027,1337.34 427.426,1337.34 "/>
<path clip-path="url(#clip900)" d="M469.919 1329.45 L469.919 1333.48 Q468.113 1332.56 466.169 1332.09 Q464.224 1331.63 462.141 1331.63 Q458.97 1331.63 457.373 1332.6 Q455.798 1333.57 455.798 1335.52 Q455.798 1337 456.933 1337.86 Q458.067 1338.69 461.493 1339.45 L462.951 1339.78 Q467.488 1340.75 469.386 1342.53 Q471.308 1344.29 471.308 1347.46 Q471.308 1351.07 468.437 1353.18 Q465.59 1355.29 460.59 1355.29 Q458.507 1355.29 456.238 1354.87 Q453.993 1354.48 451.493 1353.67 L451.493 1349.27 Q453.854 1350.5 456.146 1351.12 Q458.437 1351.72 460.683 1351.72 Q463.692 1351.72 465.312 1350.7 Q466.933 1349.66 466.933 1347.79 Q466.933 1346.05 465.752 1345.12 Q464.595 1344.2 460.636 1343.34 L459.155 1343 Q455.197 1342.16 453.437 1340.45 Q451.678 1338.71 451.678 1335.7 Q451.678 1332.05 454.271 1330.06 Q456.863 1328.06 461.632 1328.06 Q463.993 1328.06 466.076 1328.41 Q468.16 1328.76 469.919 1329.45 Z" fill="#000000" fill-rule="evenodd" fill-opacity="1" /><path clip-path="url(#clip900)" d="M482.303 1321.33 L482.303 1328.69 L491.076 1328.69 L491.076 1332 L482.303 1332 L482.303 1346.07 Q482.303 1349.25 483.159 1350.15 Q484.039 1351.05 486.701 1351.05 L491.076 1351.05 L491.076 1354.62 L486.701 1354.62 Q481.771 1354.62 479.896 1352.79 Q478.021 1350.93 478.021 1346.07 L478.021 1332 L474.896 1332 L474.896 1328.69 L478.021 1328.69 L478.021 1321.33 L482.303 1321.33 Z" fill="#000000" fill-rule="evenodd" fill-opacity="1" /><path clip-path="url(#clip900)" d="M511.701 1332.67 Q510.983 1332.25 510.127 1332.07 Q509.294 1331.86 508.275 1331.86 Q504.664 1331.86 502.72 1334.22 Q500.798 1336.56 500.798 1340.96 L500.798 1354.62 L496.516 1354.62 L496.516 1328.69 L500.798 1328.69 L500.798 1332.72 Q502.141 1330.36 504.294 1329.22 Q506.446 1328.06 509.525 1328.06 Q509.965 1328.06 510.497 1328.13 Q511.03 1328.18 511.678 1328.3 L511.701 1332.67 Z" fill="#000000" fill-rule="evenodd" fill-opacity="1" /><path clip-path="url(#clip900)" d="M527.951 1341.58 Q522.789 1341.58 520.798 1342.76 Q518.807 1343.94 518.807 1346.79 Q518.807 1349.06 520.289 1350.4 Q521.793 1351.72 524.363 1351.72 Q527.905 1351.72 530.034 1349.22 Q532.187 1346.7 532.187 1342.53 L532.187 1341.58 L527.951 1341.58 M536.446 1339.82 L536.446 1354.62 L532.187 1354.62 L532.187 1350.68 Q530.729 1353.04 528.553 1354.18 Q526.377 1355.29 523.229 1355.29 Q519.247 1355.29 516.886 1353.06 Q514.548 1350.82 514.548 1347.07 Q514.548 1342.69 517.465 1340.47 Q520.405 1338.25 526.215 1338.25 L532.187 1338.25 L532.187 1337.83 Q532.187 1334.89 530.243 1333.3 Q528.321 1331.68 524.826 1331.68 Q522.604 1331.68 520.497 1332.21 Q518.391 1332.74 516.446 1333.81 L516.446 1329.87 Q518.784 1328.97 520.983 1328.53 Q523.182 1328.06 525.266 1328.06 Q530.891 1328.06 533.668 1330.98 Q536.446 1333.9 536.446 1339.82 Z" fill="#000000" fill-rule="evenodd" fill-opacity="1" /><path clip-path="url(#clip900)" d="M545.219 1328.69 L549.479 1328.69 L549.479 1354.62 L545.219 1354.62 L545.219 1328.69 M545.219 1318.6 L549.479 1318.6 L549.479 1323.99 L545.219 1323.99 L545.219 1318.6 Z" fill="#000000" fill-rule="evenodd" fill-opacity="1" /><path clip-path="url(#clip900)" d="M579.941 1338.97 L579.941 1354.62 L575.682 1354.62 L575.682 1339.11 Q575.682 1335.43 574.247 1333.6 Q572.812 1331.77 569.941 1331.77 Q566.492 1331.77 564.502 1333.97 Q562.511 1336.17 562.511 1339.96 L562.511 1354.62 L558.228 1354.62 L558.228 1328.69 L562.511 1328.69 L562.511 1332.72 Q564.039 1330.38 566.099 1329.22 Q568.182 1328.06 570.89 1328.06 Q575.358 1328.06 577.65 1330.84 Q579.941 1333.6 579.941 1338.97 Z" fill="#000000" fill-rule="evenodd" fill-opacity="1" /><polyline clip-path="url(#clip900)" style="stroke:#3da44d; stroke-linecap:round; stroke-linejoin:round; stroke-width:4; stroke-opacity:1; fill:none" points="283.027,1389.18 427.426,1389.18 "/>
<path clip-path="url(#clip900)" d="M458.9 1373.17 L458.9 1380.53 L467.673 1380.53 L467.673 1383.84 L458.9 1383.84 L458.9 1397.91 Q458.9 1401.09 459.757 1401.99 Q460.636 1402.89 463.298 1402.89 L467.673 1402.89 L467.673 1406.46 L463.298 1406.46 Q458.368 1406.46 456.493 1404.63 Q454.618 1402.77 454.618 1397.91 L454.618 1383.84 L451.493 1383.84 L451.493 1380.53 L454.618 1380.53 L454.618 1373.17 L458.9 1373.17 Z" fill="#000000" fill-rule="evenodd" fill-opacity="1" /><path clip-path="url(#clip900)" d="M483.321 1383.52 Q479.896 1383.52 477.905 1386.2 Q475.914 1388.86 475.914 1393.52 Q475.914 1398.17 477.882 1400.85 Q479.872 1403.52 483.321 1403.52 Q486.724 1403.52 488.715 1400.83 Q490.706 1398.15 490.706 1393.52 Q490.706 1388.91 488.715 1386.22 Q486.724 1383.52 483.321 1383.52 M483.321 1379.9 Q488.877 1379.9 492.048 1383.52 Q495.22 1387.13 495.22 1393.52 Q495.22 1399.88 492.048 1403.52 Q488.877 1407.13 483.321 1407.13 Q477.743 1407.13 474.572 1403.52 Q471.423 1399.88 471.423 1393.52 Q471.423 1387.13 474.572 1383.52 Q477.743 1379.9 483.321 1379.9 Z" fill="#000000" fill-rule="evenodd" fill-opacity="1" /><path clip-path="url(#clip900)" d="M506.493 1373.17 L506.493 1380.53 L515.266 1380.53 L515.266 1383.84 L506.493 1383.84 L506.493 1397.91 Q506.493 1401.09 507.349 1401.99 Q508.229 1402.89 510.891 1402.89 L515.266 1402.89 L515.266 1406.46 L510.891 1406.46 Q505.96 1406.46 504.085 1404.63 Q502.21 1402.77 502.21 1397.91 L502.21 1383.84 L499.085 1383.84 L499.085 1380.53 L502.21 1380.53 L502.21 1373.17 L506.493 1373.17 Z" fill="#000000" fill-rule="evenodd" fill-opacity="1" /><path clip-path="url(#clip900)" d="M532.65 1393.42 Q527.488 1393.42 525.497 1394.6 Q523.506 1395.78 523.506 1398.63 Q523.506 1400.9 524.988 1402.24 Q526.493 1403.56 529.062 1403.56 Q532.604 1403.56 534.733 1401.06 Q536.886 1398.54 536.886 1394.37 L536.886 1393.42 L532.65 1393.42 M541.145 1391.66 L541.145 1406.46 L536.886 1406.46 L536.886 1402.52 Q535.428 1404.88 533.252 1406.02 Q531.076 1407.13 527.928 1407.13 Q523.946 1407.13 521.585 1404.9 Q519.247 1402.66 519.247 1398.91 Q519.247 1394.53 522.164 1392.31 Q525.104 1390.09 530.914 1390.09 L536.886 1390.09 L536.886 1389.67 Q536.886 1386.73 534.942 1385.14 Q533.02 1383.52 529.525 1383.52 Q527.303 1383.52 525.196 1384.05 Q523.09 1384.58 521.145 1385.65 L521.145 1381.71 Q523.483 1380.81 525.682 1380.37 Q527.881 1379.9 529.965 1379.9 Q535.59 1379.9 538.367 1382.82 Q541.145 1385.74 541.145 1391.66 Z" fill="#000000" fill-rule="evenodd" fill-opacity="1" /><path clip-path="url(#clip900)" d="M549.918 1370.44 L554.178 1370.44 L554.178 1406.46 L549.918 1406.46 L549.918 1370.44 Z" fill="#000000" fill-rule="evenodd" fill-opacity="1" /></svg>
