<?xml version="1.0" encoding="utf-8"?>
<svg xmlns="http://www.w3.org/2000/svg" xmlns:xlink="http://www.w3.org/1999/xlink" width="600" height="400" viewBox="0 0 2400 1600">
<defs>
  <clipPath id="clip870">
    <rect x="0" y="0" width="2400" height="1600"/>
  </clipPath>
</defs>
<path clip-path="url(#clip870)" d="M0 1600 L2400 1600 L2400 0 L0 0  Z" fill="#ffffff" fill-rule="evenodd" fill-opacity="1"/>
<defs>
  <clipPath id="clip871">
    <rect x="480" y="0" width="1681" height="1600"/>
  </clipPath>
</defs>
<path clip-path="url(#clip870)" d="M186.76 1486.45 L2352.76 1486.45 L2352.76 123.472 L186.76 123.472  Z" fill="#ffffff" fill-rule="evenodd" fill-opacity="1"/>
<defs>
  <clipPath id="clip872">
    <rect x="186" y="123" width="2167" height="1364"/>
  </clipPath>
</defs>
<polyline clip-path="url(#clip872)" style="stroke:#000000; stroke-linecap:round; stroke-linejoin:round; stroke-width:2; stroke-opacity:0.1; fill:none" points="243.975,1486.45 243.975,123.472 "/>
<polyline clip-path="url(#clip872)" style="stroke:#000000; stroke-linecap:round; stroke-linejoin:round; stroke-width:2; stroke-opacity:0.1; fill:none" points="652.654,1486.45 652.654,123.472 "/>
<polyline clip-path="url(#clip872)" style="stroke:#000000; stroke-linecap:round; stroke-linejoin:round; stroke-width:2; stroke-opacity:0.1; fill:none" points="1061.33,1486.45 1061.33,123.472 "/>
<polyline clip-path="url(#clip872)" style="stroke:#000000; stroke-linecap:round; stroke-linejoin:round; stroke-width:2; stroke-opacity:0.1; fill:none" points="1470.01,1486.45 1470.01,123.472 "/>
<polyline clip-path="url(#clip872)" style="stroke:#000000; stroke-linecap:round; stroke-linejoin:round; stroke-width:2; stroke-opacity:0.1; fill:none" points="1878.69,1486.45 1878.69,123.472 "/>
<polyline clip-path="url(#clip872)" style="stroke:#000000; stroke-linecap:round; stroke-linejoin:round; stroke-width:2; stroke-opacity:0.1; fill:none" points="2287.37,1486.45 2287.37,123.472 "/>
<polyline clip-path="url(#clip870)" style="stroke:#000000; stroke-linecap:round; stroke-linejoin:round; stroke-width:4; stroke-opacity:1; fill:none" points="186.76,1486.45 2352.76,1486.45 "/>
<polyline clip-path="url(#clip870)" style="stroke:#000000; stroke-linecap:round; stroke-linejoin:round; stroke-width:4; stroke-opacity:1; fill:none" points="243.975,1486.45 243.975,1467.55 "/>
<polyline clip-path="url(#clip870)" style="stroke:#000000; stroke-linecap:round; stroke-linejoin:round; stroke-width:4; stroke-opacity:1; fill:none" points="652.654,1486.45 652.654,1467.55 "/>
<polyline clip-path="url(#clip870)" style="stroke:#000000; stroke-linecap:round; stroke-linejoin:round; stroke-width:4; stroke-opacity:1; fill:none" points="1061.33,1486.45 1061.33,1467.55 "/>
<polyline clip-path="url(#clip870)" style="stroke:#000000; stroke-linecap:round; stroke-linejoin:round; stroke-width:4; stroke-opacity:1; fill:none" points="1470.01,1486.45 1470.01,1467.55 "/>
<polyline clip-path="url(#clip870)" style="stroke:#000000; stroke-linecap:round; stroke-linejoin:round; stroke-width:4; stroke-opacity:1; fill:none" points="1878.69,1486.45 1878.69,1467.55 "/>
<polyline clip-path="url(#clip870)" style="stroke:#000000; stroke-linecap:round; stroke-linejoin:round; stroke-width:4; stroke-opacity:1; fill:none" points="2287.37,1486.45 2287.37,1467.55 "/>
<path clip-path="url(#clip870)" d="M221.359 1517.37 Q217.748 1517.37 215.92 1520.93 Q214.114 1524.47 214.114 1531.6 Q214.114 1538.71 215.92 1542.27 Q217.748 1545.82 221.359 1545.82 Q224.994 1545.82 226.799 1542.27 Q228.628 1538.71 228.628 1531.6 Q228.628 1524.47 226.799 1520.93 Q224.994 1517.37 221.359 1517.37 M221.359 1513.66 Q227.17 1513.66 230.225 1518.27 Q233.304 1522.85 233.304 1531.6 Q233.304 1540.33 230.225 1544.94 Q227.17 1549.52 221.359 1549.52 Q215.549 1549.52 212.471 1544.94 Q209.415 1540.33 209.415 1531.6 Q209.415 1522.85 212.471 1518.27 Q215.549 1513.66 221.359 1513.66 Z" fill="#000000" fill-rule="evenodd" fill-opacity="1" /><path clip-path="url(#clip870)" d="M241.521 1542.97 L246.406 1542.97 L246.406 1548.85 L241.521 1548.85 L241.521 1542.97 Z" fill="#000000" fill-rule="evenodd" fill-opacity="1" /><path clip-path="url(#clip870)" d="M266.591 1517.37 Q262.98 1517.37 261.151 1520.93 Q259.345 1524.47 259.345 1531.6 Q259.345 1538.71 261.151 1542.27 Q262.98 1545.82 266.591 1545.82 Q270.225 1545.82 272.03 1542.27 Q273.859 1538.71 273.859 1531.6 Q273.859 1524.47 272.03 1520.93 Q270.225 1517.37 266.591 1517.37 M266.591 1513.66 Q272.401 1513.66 275.456 1518.27 Q278.535 1522.85 278.535 1531.6 Q278.535 1540.33 275.456 1544.94 Q272.401 1549.52 266.591 1549.52 Q260.781 1549.52 257.702 1544.94 Q254.646 1540.33 254.646 1531.6 Q254.646 1522.85 257.702 1518.27 Q260.781 1513.66 266.591 1513.66 Z" fill="#000000" fill-rule="evenodd" fill-opacity="1" /><path clip-path="url(#clip870)" d="M630.536 1517.37 Q626.925 1517.37 625.096 1520.93 Q623.29 1524.47 623.29 1531.6 Q623.29 1538.71 625.096 1542.27 Q626.925 1545.82 630.536 1545.82 Q634.17 1545.82 635.975 1542.27 Q637.804 1538.71 637.804 1531.6 Q637.804 1524.47 635.975 1520.93 Q634.17 1517.37 630.536 1517.37 M630.536 1513.66 Q636.346 1513.66 639.401 1518.27 Q642.48 1522.85 642.48 1531.6 Q642.48 1540.33 639.401 1544.94 Q636.346 1549.52 630.536 1549.52 Q624.725 1549.52 621.647 1544.94 Q618.591 1540.33 618.591 1531.6 Q618.591 1522.85 621.647 1518.27 Q624.725 1513.66 630.536 1513.66 Z" fill="#000000" fill-rule="evenodd" fill-opacity="1" /><path clip-path="url(#clip870)" d="M650.698 1542.97 L655.582 1542.97 L655.582 1548.85 L650.698 1548.85 L650.698 1542.97 Z" fill="#000000" fill-rule="evenodd" fill-opacity="1" /><path clip-path="url(#clip870)" d="M665.813 1514.29 L684.17 1514.29 L684.17 1518.22 L670.096 1518.22 L670.096 1526.7 Q671.114 1526.35 672.133 1526.19 Q673.151 1526 674.17 1526 Q679.957 1526 683.336 1529.17 Q686.716 1532.34 686.716 1537.76 Q686.716 1543.34 683.244 1546.44 Q679.771 1549.52 673.452 1549.52 Q671.276 1549.52 669.008 1549.15 Q666.762 1548.78 664.355 1548.04 L664.355 1543.34 Q666.438 1544.47 668.66 1545.03 Q670.883 1545.58 673.359 1545.58 Q677.364 1545.58 679.702 1543.48 Q682.04 1541.37 682.04 1537.76 Q682.04 1534.15 679.702 1532.04 Q677.364 1529.94 673.359 1529.94 Q671.484 1529.94 669.609 1530.35 Q667.758 1530.77 665.813 1531.65 L665.813 1514.29 Z" fill="#000000" fill-rule="evenodd" fill-opacity="1" /><path clip-path="url(#clip870)" d="M1028.48 1544.91 L1036.12 1544.91 L1036.12 1518.55 L1027.81 1520.21 L1027.81 1515.95 L1036.08 1514.29 L1040.75 1514.29 L1040.75 1544.91 L1048.39 1544.91 L1048.39 1548.85 L1028.48 1548.85 L1028.48 1544.91 Z" fill="#000000" fill-rule="evenodd" fill-opacity="1" /><path clip-path="url(#clip870)" d="M1057.84 1542.97 L1062.72 1542.97 L1062.72 1548.85 L1057.84 1548.85 L1057.84 1542.97 Z" fill="#000000" fill-rule="evenodd" fill-opacity="1" /><path clip-path="url(#clip870)" d="M1082.91 1517.37 Q1079.29 1517.37 1077.47 1520.93 Q1075.66 1524.47 1075.66 1531.6 Q1075.66 1538.71 1077.47 1542.27 Q1079.29 1545.82 1082.91 1545.82 Q1086.54 1545.82 1088.35 1542.27 Q1090.17 1538.71 1090.17 1531.6 Q1090.17 1524.47 1088.35 1520.93 Q1086.54 1517.37 1082.91 1517.37 M1082.91 1513.66 Q1088.72 1513.66 1091.77 1518.27 Q1094.85 1522.85 1094.85 1531.6 Q1094.85 1540.33 1091.77 1544.94 Q1088.72 1549.52 1082.91 1549.52 Q1077.1 1549.52 1074.02 1544.94 Q1070.96 1540.33 1070.96 1531.6 Q1070.96 1522.85 1074.02 1518.27 Q1077.1 1513.66 1082.91 1513.66 Z" fill="#000000" fill-rule="evenodd" fill-opacity="1" /><path clip-path="url(#clip870)" d="M1437.66 1544.91 L1445.3 1544.91 L1445.3 1518.55 L1436.99 1520.21 L1436.99 1515.95 L1445.25 1514.29 L1449.93 1514.29 L1449.93 1544.91 L1457.57 1544.91 L1457.57 1548.85 L1437.66 1548.85 L1437.66 1544.91 Z" fill="#000000" fill-rule="evenodd" fill-opacity="1" /><path clip-path="url(#clip870)" d="M1467.01 1542.97 L1471.9 1542.97 L1471.9 1548.85 L1467.01 1548.85 L1467.01 1542.97 Z" fill="#000000" fill-rule="evenodd" fill-opacity="1" /><path clip-path="url(#clip870)" d="M1482.13 1514.29 L1500.48 1514.29 L1500.48 1518.22 L1486.41 1518.22 L1486.41 1526.7 Q1487.43 1526.35 1488.45 1526.19 Q1489.47 1526 1490.48 1526 Q1496.27 1526 1499.65 1529.17 Q1503.03 1532.34 1503.03 1537.76 Q1503.03 1543.34 1499.56 1546.44 Q1496.09 1549.52 1489.77 1549.52 Q1487.59 1549.52 1485.32 1549.15 Q1483.08 1548.78 1480.67 1548.04 L1480.67 1543.34 Q1482.75 1544.47 1484.98 1545.03 Q1487.2 1545.58 1489.67 1545.58 Q1493.68 1545.58 1496.02 1543.48 Q1498.36 1541.37 1498.36 1537.76 Q1498.36 1534.15 1496.02 1532.04 Q1493.68 1529.94 1489.67 1529.94 Q1487.8 1529.94 1485.92 1530.35 Q1484.07 1530.77 1482.13 1531.65 L1482.13 1514.29 Z" fill="#000000" fill-rule="evenodd" fill-opacity="1" /><path clip-path="url(#clip870)" d="M1849.93 1544.91 L1866.25 1544.91 L1866.25 1548.85 L1844.3 1548.85 L1844.3 1544.91 Q1846.96 1542.16 1851.55 1537.53 Q1856.15 1532.88 1857.33 1531.53 Q1859.58 1529.01 1860.46 1527.27 Q1861.36 1525.51 1861.36 1523.82 Q1861.36 1521.07 1859.42 1519.33 Q1857.5 1517.6 1854.4 1517.6 Q1852.2 1517.6 1849.74 1518.36 Q1847.31 1519.13 1844.53 1520.68 L1844.53 1515.95 Q1847.36 1514.82 1849.81 1514.24 Q1852.27 1513.66 1854.3 1513.66 Q1859.67 1513.66 1862.87 1516.35 Q1866.06 1519.03 1866.06 1523.52 Q1866.06 1525.65 1865.25 1527.57 Q1864.46 1529.47 1862.36 1532.07 Q1861.78 1532.74 1858.68 1535.95 Q1855.58 1539.15 1849.93 1544.91 Z" fill="#000000" fill-rule="evenodd" fill-opacity="1" /><path clip-path="url(#clip870)" d="M1876.06 1542.97 L1880.95 1542.97 L1880.95 1548.85 L1876.06 1548.85 L1876.06 1542.97 Z" fill="#000000" fill-rule="evenodd" fill-opacity="1" /><path clip-path="url(#clip870)" d="M1901.13 1517.37 Q1897.52 1517.37 1895.69 1520.93 Q1893.89 1524.47 1893.89 1531.6 Q1893.89 1538.71 1895.69 1542.27 Q1897.52 1545.82 1901.13 1545.82 Q1904.77 1545.82 1906.57 1542.27 Q1908.4 1538.71 1908.4 1531.6 Q1908.4 1524.47 1906.57 1520.93 Q1904.77 1517.37 1901.13 1517.37 M1901.13 1513.66 Q1906.94 1513.66 1910 1518.27 Q1913.08 1522.85 1913.08 1531.6 Q1913.08 1540.33 1910 1544.94 Q1906.94 1549.52 1901.13 1549.52 Q1895.32 1549.52 1892.24 1544.94 Q1889.19 1540.33 1889.19 1531.6 Q1889.19 1522.85 1892.24 1518.27 Q1895.32 1513.66 1901.13 1513.66 Z" fill="#000000" fill-rule="evenodd" fill-opacity="1" /><path clip-path="url(#clip870)" d="M2259.1 1544.91 L2275.42 1544.91 L2275.42 1548.85 L2253.48 1548.85 L2253.48 1544.91 Q2256.14 1542.16 2260.72 1537.53 Q2265.33 1532.88 2266.51 1531.53 Q2268.76 1529.01 2269.64 1527.27 Q2270.54 1525.51 2270.54 1523.82 Q2270.54 1521.07 2268.59 1519.33 Q2266.67 1517.6 2263.57 1517.6 Q2261.37 1517.6 2258.92 1518.36 Q2256.49 1519.13 2253.71 1520.68 L2253.71 1515.95 Q2256.53 1514.82 2258.99 1514.24 Q2261.44 1513.66 2263.48 1513.66 Q2268.85 1513.66 2272.04 1516.35 Q2275.24 1519.03 2275.24 1523.52 Q2275.24 1525.65 2274.43 1527.57 Q2273.64 1529.47 2271.53 1532.07 Q2270.96 1532.74 2267.85 1535.95 Q2264.75 1539.15 2259.1 1544.91 Z" fill="#000000" fill-rule="evenodd" fill-opacity="1" /><path clip-path="url(#clip870)" d="M2285.24 1542.97 L2290.12 1542.97 L2290.12 1548.85 L2285.24 1548.85 L2285.24 1542.97 Z" fill="#000000" fill-rule="evenodd" fill-opacity="1" /><path clip-path="url(#clip870)" d="M2300.35 1514.29 L2318.71 1514.29 L2318.71 1518.22 L2304.64 1518.22 L2304.64 1526.7 Q2305.65 1526.35 2306.67 1526.19 Q2307.69 1526 2308.71 1526 Q2314.5 1526 2317.88 1529.17 Q2321.26 1532.34 2321.26 1537.76 Q2321.26 1543.34 2317.78 1546.44 Q2314.31 1549.52 2307.99 1549.52 Q2305.82 1549.52 2303.55 1549.15 Q2301.3 1548.78 2298.9 1548.04 L2298.9 1543.34 Q2300.98 1544.47 2303.2 1545.03 Q2305.42 1545.58 2307.9 1545.58 Q2311.9 1545.58 2314.24 1543.48 Q2316.58 1541.37 2316.58 1537.76 Q2316.58 1534.15 2314.24 1532.04 Q2311.9 1529.94 2307.9 1529.94 Q2306.02 1529.94 2304.15 1530.35 Q2302.3 1530.77 2300.35 1531.65 L2300.35 1514.29 Z" fill="#000000" fill-rule="evenodd" fill-opacity="1" /><polyline clip-path="url(#clip872)" style="stroke:#000000; stroke-linecap:round; stroke-linejoin:round; stroke-width:2; stroke-opacity:0.1; fill:none" points="186.76,1447.98 2352.76,1447.98 "/>
<polyline clip-path="url(#clip872)" style="stroke:#000000; stroke-linecap:round; stroke-linejoin:round; stroke-width:2; stroke-opacity:0.1; fill:none" points="186.76,1248.1 2352.76,1248.1 "/>
<polyline clip-path="url(#clip872)" style="stroke:#000000; stroke-linecap:round; stroke-linejoin:round; stroke-width:2; stroke-opacity:0.1; fill:none" points="186.76,1048.22 2352.76,1048.22 "/>
<polyline clip-path="url(#clip872)" style="stroke:#000000; stroke-linecap:round; stroke-linejoin:round; stroke-width:2; stroke-opacity:0.1; fill:none" points="186.76,848.335 2352.76,848.335 "/>
<polyline clip-path="url(#clip872)" style="stroke:#000000; stroke-linecap:round; stroke-linejoin:round; stroke-width:2; stroke-opacity:0.1; fill:none" points="186.76,648.454 2352.76,648.454 "/>
<polyline clip-path="url(#clip872)" style="stroke:#000000; stroke-linecap:round; stroke-linejoin:round; stroke-width:2; stroke-opacity:0.1; fill:none" points="186.76,448.573 2352.76,448.573 "/>
<polyline clip-path="url(#clip872)" style="stroke:#000000; stroke-linecap:round; stroke-linejoin:round; stroke-width:2; stroke-opacity:0.1; fill:none" points="186.76,248.691 2352.76,248.691 "/>
<polyline clip-path="url(#clip870)" style="stroke:#000000; stroke-linecap:round; stroke-linejoin:round; stroke-width:4; stroke-opacity:1; fill:none" points="186.76,1486.45 186.76,123.472 "/>
<polyline clip-path="url(#clip870)" style="stroke:#000000; stroke-linecap:round; stroke-linejoin:round; stroke-width:4; stroke-opacity:1; fill:none" points="186.76,1447.98 205.658,1447.98 "/>
<polyline clip-path="url(#clip870)" style="stroke:#000000; stroke-linecap:round; stroke-linejoin:round; stroke-width:4; stroke-opacity:1; fill:none" points="186.76,1248.1 205.658,1248.1 "/>
<polyline clip-path="url(#clip870)" style="stroke:#000000; stroke-linecap:round; stroke-linejoin:round; stroke-width:4; stroke-opacity:1; fill:none" points="186.76,1048.22 205.658,1048.22 "/>
<polyline clip-path="url(#clip870)" style="stroke:#000000; stroke-linecap:round; stroke-linejoin:round; stroke-width:4; stroke-opacity:1; fill:none" points="186.76,848.335 205.658,848.335 "/>
<polyline clip-path="url(#clip870)" style="stroke:#000000; stroke-linecap:round; stroke-linejoin:round; stroke-width:4; stroke-opacity:1; fill:none" points="186.76,648.454 205.658,648.454 "/>
<polyline clip-path="url(#clip870)" style="stroke:#000000; stroke-linecap:round; stroke-linejoin:round; stroke-width:4; stroke-opacity:1; fill:none" points="186.76,448.573 205.658,448.573 "/>
<polyline clip-path="url(#clip870)" style="stroke:#000000; stroke-linecap:round; stroke-linejoin:round; stroke-width:4; stroke-opacity:1; fill:none" points="186.76,248.691 205.658,248.691 "/>
<path clip-path="url(#clip870)" d="M63.4226 1433.78 Q59.8115 1433.78 57.9828 1437.34 Q56.1773 1440.88 56.1773 1448.01 Q56.1773 1455.12 57.9828 1458.68 Q59.8115 1462.23 63.4226 1462.23 Q67.0569 1462.23 68.8624 1458.68 Q70.6911 1455.12 70.6911 1448.01 Q70.6911 1440.88 68.8624 1437.34 Q67.0569 1433.78 63.4226 1433.78 M63.4226 1430.07 Q69.2328 1430.07 72.2883 1434.68 Q75.367 1439.26 75.367 1448.01 Q75.367 1456.74 72.2883 1461.35 Q69.2328 1465.93 63.4226 1465.93 Q57.6125 1465.93 54.5338 1461.35 Q51.4782 1456.74 51.4782 1448.01 Q51.4782 1439.26 54.5338 1434.68 Q57.6125 1430.07 63.4226 1430.07 Z" fill="#000000" fill-rule="evenodd" fill-opacity="1" /><path clip-path="url(#clip870)" d="M83.5845 1459.38 L88.4688 1459.38 L88.4688 1465.26 L83.5845 1465.26 L83.5845 1459.38 Z" fill="#000000" fill-rule="evenodd" fill-opacity="1" /><path clip-path="url(#clip870)" d="M108.654 1433.78 Q105.043 1433.78 103.214 1437.34 Q101.409 1440.88 101.409 1448.01 Q101.409 1455.12 103.214 1458.68 Q105.043 1462.23 108.654 1462.23 Q112.288 1462.23 114.094 1458.68 Q115.922 1455.12 115.922 1448.01 Q115.922 1440.88 114.094 1437.34 Q112.288 1433.78 108.654 1433.78 M108.654 1430.07 Q114.464 1430.07 117.52 1434.68 Q120.598 1439.26 120.598 1448.01 Q120.598 1456.74 117.52 1461.35 Q114.464 1465.93 108.654 1465.93 Q102.844 1465.93 99.765 1461.35 Q96.7095 1456.74 96.7095 1448.01 Q96.7095 1439.26 99.765 1434.68 Q102.844 1430.07 108.654 1430.07 Z" fill="#000000" fill-rule="evenodd" fill-opacity="1" /><path clip-path="url(#clip870)" d="M138.816 1433.78 Q135.205 1433.78 133.376 1437.34 Q131.57 1440.88 131.57 1448.01 Q131.57 1455.12 133.376 1458.68 Q135.205 1462.23 138.816 1462.23 Q142.45 1462.23 144.256 1458.68 Q146.084 1455.12 146.084 1448.01 Q146.084 1440.88 144.256 1437.34 Q142.45 1433.78 138.816 1433.78 M138.816 1430.07 Q144.626 1430.07 147.681 1434.68 Q150.76 1439.26 150.76 1448.01 Q150.76 1456.74 147.681 1461.35 Q144.626 1465.93 138.816 1465.93 Q133.006 1465.93 129.927 1461.35 Q126.871 1456.74 126.871 1448.01 Q126.871 1439.26 129.927 1434.68 Q133.006 1430.07 138.816 1430.07 Z" fill="#000000" fill-rule="evenodd" fill-opacity="1" /><path clip-path="url(#clip870)" d="M64.6495 1233.9 Q61.0384 1233.9 59.2097 1237.46 Q57.4041 1241 57.4041 1248.13 Q57.4041 1255.24 59.2097 1258.8 Q61.0384 1262.34 64.6495 1262.34 Q68.2837 1262.34 70.0892 1258.8 Q71.9179 1255.24 71.9179 1248.13 Q71.9179 1241 70.0892 1237.46 Q68.2837 1233.9 64.6495 1233.9 M64.6495 1230.19 Q70.4596 1230.19 73.5152 1234.8 Q76.5938 1239.38 76.5938 1248.13 Q76.5938 1256.86 73.5152 1261.47 Q70.4596 1266.05 64.6495 1266.05 Q58.8393 1266.05 55.7606 1261.47 Q52.7051 1256.86 52.7051 1248.13 Q52.7051 1239.38 55.7606 1234.8 Q58.8393 1230.19 64.6495 1230.19 Z" fill="#000000" fill-rule="evenodd" fill-opacity="1" /><path clip-path="url(#clip870)" d="M84.8114 1259.5 L89.6956 1259.5 L89.6956 1265.38 L84.8114 1265.38 L84.8114 1259.5 Z" fill="#000000" fill-rule="evenodd" fill-opacity="1" /><path clip-path="url(#clip870)" d="M109.881 1233.9 Q106.27 1233.9 104.441 1237.46 Q102.635 1241 102.635 1248.13 Q102.635 1255.24 104.441 1258.8 Q106.27 1262.34 109.881 1262.34 Q113.515 1262.34 115.32 1258.8 Q117.149 1255.24 117.149 1248.13 Q117.149 1241 115.32 1237.46 Q113.515 1233.9 109.881 1233.9 M109.881 1230.19 Q115.691 1230.19 118.746 1234.8 Q121.825 1239.38 121.825 1248.13 Q121.825 1256.86 118.746 1261.47 Q115.691 1266.05 109.881 1266.05 Q104.071 1266.05 100.992 1261.47 Q97.9363 1256.86 97.9363 1248.13 Q97.9363 1239.38 100.992 1234.8 Q104.071 1230.19 109.881 1230.19 Z" fill="#000000" fill-rule="evenodd" fill-opacity="1" /><path clip-path="url(#clip870)" d="M130.853 1261.44 L138.492 1261.44 L138.492 1235.08 L130.182 1236.74 L130.182 1232.48 L138.445 1230.82 L143.121 1230.82 L143.121 1261.44 L150.76 1261.44 L150.76 1265.38 L130.853 1265.38 L130.853 1261.44 Z" fill="#000000" fill-rule="evenodd" fill-opacity="1" /><path clip-path="url(#clip870)" d="M65.0198 1034.01 Q61.4087 1034.01 59.58 1037.58 Q57.7745 1041.12 57.7745 1048.25 Q57.7745 1055.36 59.58 1058.92 Q61.4087 1062.46 65.0198 1062.46 Q68.6541 1062.46 70.4596 1058.92 Q72.2883 1055.36 72.2883 1048.25 Q72.2883 1041.12 70.4596 1037.58 Q68.6541 1034.01 65.0198 1034.01 M65.0198 1030.31 Q70.83 1030.31 73.8855 1034.92 Q76.9642 1039.5 76.9642 1048.25 Q76.9642 1056.98 73.8855 1061.58 Q70.83 1066.17 65.0198 1066.17 Q59.2097 1066.17 56.131 1061.58 Q53.0754 1056.98 53.0754 1048.25 Q53.0754 1039.5 56.131 1034.92 Q59.2097 1030.31 65.0198 1030.31 Z" fill="#000000" fill-rule="evenodd" fill-opacity="1" /><path clip-path="url(#clip870)" d="M85.1818 1059.62 L90.066 1059.62 L90.066 1065.5 L85.1818 1065.5 L85.1818 1059.62 Z" fill="#000000" fill-rule="evenodd" fill-opacity="1" /><path clip-path="url(#clip870)" d="M110.251 1034.01 Q106.64 1034.01 104.811 1037.58 Q103.006 1041.12 103.006 1048.25 Q103.006 1055.36 104.811 1058.92 Q106.64 1062.46 110.251 1062.46 Q113.885 1062.46 115.691 1058.92 Q117.52 1055.36 117.52 1048.25 Q117.52 1041.12 115.691 1037.58 Q113.885 1034.01 110.251 1034.01 M110.251 1030.31 Q116.061 1030.31 119.117 1034.92 Q122.195 1039.5 122.195 1048.25 Q122.195 1056.98 119.117 1061.58 Q116.061 1066.17 110.251 1066.17 Q104.441 1066.17 101.362 1061.58 Q98.3067 1056.98 98.3067 1048.25 Q98.3067 1039.5 101.362 1034.92 Q104.441 1030.31 110.251 1030.31 Z" fill="#000000" fill-rule="evenodd" fill-opacity="1" /><path clip-path="url(#clip870)" d="M134.441 1061.56 L150.76 1061.56 L150.76 1065.5 L128.816 1065.5 L128.816 1061.56 Q131.478 1058.81 136.061 1054.18 Q140.668 1049.52 141.848 1048.18 Q144.093 1045.66 144.973 1043.92 Q145.876 1042.16 145.876 1040.47 Q145.876 1037.72 143.931 1035.98 Q142.01 1034.25 138.908 1034.25 Q136.709 1034.25 134.256 1035.01 Q131.825 1035.77 129.047 1037.32 L129.047 1032.6 Q131.871 1031.47 134.325 1030.89 Q136.779 1030.31 138.816 1030.31 Q144.186 1030.31 147.38 1033 Q150.575 1035.68 150.575 1040.17 Q150.575 1042.3 149.765 1044.22 Q148.978 1046.12 146.871 1048.71 Q146.293 1049.39 143.191 1052.6 Q140.089 1055.8 134.441 1061.56 Z" fill="#000000" fill-rule="evenodd" fill-opacity="1" /><path clip-path="url(#clip870)" d="M64.0708 834.134 Q60.4597 834.134 58.631 837.698 Q56.8254 841.24 56.8254 848.37 Q56.8254 855.476 58.631 859.041 Q60.4597 862.583 64.0708 862.583 Q67.705 862.583 69.5105 859.041 Q71.3392 855.476 71.3392 848.37 Q71.3392 841.24 69.5105 837.698 Q67.705 834.134 64.0708 834.134 M64.0708 830.43 Q69.8809 830.43 72.9365 835.036 Q76.0151 839.62 76.0151 848.37 Q76.0151 857.096 72.9365 861.703 Q69.8809 866.286 64.0708 866.286 Q58.2606 866.286 55.1819 861.703 Q52.1264 857.096 52.1264 848.37 Q52.1264 839.62 55.1819 835.036 Q58.2606 830.43 64.0708 830.43 Z" fill="#000000" fill-rule="evenodd" fill-opacity="1" /><path clip-path="url(#clip870)" d="M84.2327 859.735 L89.1169 859.735 L89.1169 865.615 L84.2327 865.615 L84.2327 859.735 Z" fill="#000000" fill-rule="evenodd" fill-opacity="1" /><path clip-path="url(#clip870)" d="M109.302 834.134 Q105.691 834.134 103.862 837.698 Q102.057 841.24 102.057 848.37 Q102.057 855.476 103.862 859.041 Q105.691 862.583 109.302 862.583 Q112.936 862.583 114.742 859.041 Q116.57 855.476 116.57 848.37 Q116.57 841.24 114.742 837.698 Q112.936 834.134 109.302 834.134 M109.302 830.43 Q115.112 830.43 118.168 835.036 Q121.246 839.62 121.246 848.37 Q121.246 857.096 118.168 861.703 Q115.112 866.286 109.302 866.286 Q103.492 866.286 100.413 861.703 Q97.3576 857.096 97.3576 848.37 Q97.3576 839.62 100.413 835.036 Q103.492 830.43 109.302 830.43 Z" fill="#000000" fill-rule="evenodd" fill-opacity="1" /><path clip-path="url(#clip870)" d="M143.631 846.981 Q146.987 847.698 148.862 849.967 Q150.76 852.235 150.76 855.569 Q150.76 860.684 147.242 863.485 Q143.723 866.286 137.242 866.286 Q135.066 866.286 132.751 865.846 Q130.459 865.43 128.006 864.573 L128.006 860.059 Q129.95 861.194 132.265 861.772 Q134.58 862.351 137.103 862.351 Q141.501 862.351 143.793 860.615 Q146.107 858.879 146.107 855.569 Q146.107 852.513 143.955 850.8 Q141.825 849.064 138.006 849.064 L133.978 849.064 L133.978 845.222 L138.191 845.222 Q141.64 845.222 143.468 843.856 Q145.297 842.467 145.297 839.874 Q145.297 837.212 143.399 835.8 Q141.524 834.365 138.006 834.365 Q136.084 834.365 133.885 834.782 Q131.686 835.198 129.047 836.078 L129.047 831.911 Q131.709 831.171 134.024 830.8 Q136.362 830.43 138.422 830.43 Q143.746 830.43 146.848 832.86 Q149.95 835.268 149.95 839.388 Q149.95 842.259 148.306 844.249 Q146.663 846.217 143.631 846.981 Z" fill="#000000" fill-rule="evenodd" fill-opacity="1" /><path clip-path="url(#clip870)" d="M62.9365 634.252 Q59.3254 634.252 57.4967 637.817 Q55.6912 641.359 55.6912 648.488 Q55.6912 655.595 57.4967 659.16 Q59.3254 662.701 62.9365 662.701 Q66.5707 662.701 68.3763 659.16 Q70.205 655.595 70.205 648.488 Q70.205 641.359 68.3763 637.817 Q66.5707 634.252 62.9365 634.252 M62.9365 630.549 Q68.7467 630.549 71.8022 635.155 Q74.8809 639.739 74.8809 648.488 Q74.8809 657.215 71.8022 661.822 Q68.7467 666.405 62.9365 666.405 Q57.1264 666.405 54.0477 661.822 Q50.9921 657.215 50.9921 648.488 Q50.9921 639.739 54.0477 635.155 Q57.1264 630.549 62.9365 630.549 Z" fill="#000000" fill-rule="evenodd" fill-opacity="1" /><path clip-path="url(#clip870)" d="M83.0984 659.854 L87.9827 659.854 L87.9827 665.734 L83.0984 665.734 L83.0984 659.854 Z" fill="#000000" fill-rule="evenodd" fill-opacity="1" /><path clip-path="url(#clip870)" d="M108.168 634.252 Q104.557 634.252 102.728 637.817 Q100.922 641.359 100.922 648.488 Q100.922 655.595 102.728 659.16 Q104.557 662.701 108.168 662.701 Q111.802 662.701 113.608 659.16 Q115.436 655.595 115.436 648.488 Q115.436 641.359 113.608 637.817 Q111.802 634.252 108.168 634.252 M108.168 630.549 Q113.978 630.549 117.033 635.155 Q120.112 639.739 120.112 648.488 Q120.112 657.215 117.033 661.822 Q113.978 666.405 108.168 666.405 Q102.358 666.405 99.2789 661.822 Q96.2234 657.215 96.2234 648.488 Q96.2234 639.739 99.2789 635.155 Q102.358 630.549 108.168 630.549 Z" fill="#000000" fill-rule="evenodd" fill-opacity="1" /><path clip-path="url(#clip870)" d="M141.177 635.248 L129.371 653.697 L141.177 653.697 L141.177 635.248 M139.95 631.174 L145.83 631.174 L145.83 653.697 L150.76 653.697 L150.76 657.586 L145.83 657.586 L145.83 665.734 L141.177 665.734 L141.177 657.586 L125.575 657.586 L125.575 653.072 L139.95 631.174 Z" fill="#000000" fill-rule="evenodd" fill-opacity="1" /><path clip-path="url(#clip870)" d="M64.418 434.371 Q60.8069 434.371 58.9782 437.936 Q57.1726 441.478 57.1726 448.607 Q57.1726 455.714 58.9782 459.279 Q60.8069 462.82 64.418 462.82 Q68.0522 462.82 69.8578 459.279 Q71.6865 455.714 71.6865 448.607 Q71.6865 441.478 69.8578 437.936 Q68.0522 434.371 64.418 434.371 M64.418 430.668 Q70.2281 430.668 73.2837 435.274 Q76.3624 439.857 76.3624 448.607 Q76.3624 457.334 73.2837 461.941 Q70.2281 466.524 64.418 466.524 Q58.6078 466.524 55.5291 461.941 Q52.4736 457.334 52.4736 448.607 Q52.4736 439.857 55.5291 435.274 Q58.6078 430.668 64.418 430.668 Z" fill="#000000" fill-rule="evenodd" fill-opacity="1" /><path clip-path="url(#clip870)" d="M84.5799 459.973 L89.4641 459.973 L89.4641 465.853 L84.5799 465.853 L84.5799 459.973 Z" fill="#000000" fill-rule="evenodd" fill-opacity="1" /><path clip-path="url(#clip870)" d="M109.649 434.371 Q106.038 434.371 104.209 437.936 Q102.404 441.478 102.404 448.607 Q102.404 455.714 104.209 459.279 Q106.038 462.82 109.649 462.82 Q113.283 462.82 115.089 459.279 Q116.918 455.714 116.918 448.607 Q116.918 441.478 115.089 437.936 Q113.283 434.371 109.649 434.371 M109.649 430.668 Q115.459 430.668 118.515 435.274 Q121.594 439.857 121.594 448.607 Q121.594 457.334 118.515 461.941 Q115.459 466.524 109.649 466.524 Q103.839 466.524 100.76 461.941 Q97.7048 457.334 97.7048 448.607 Q97.7048 439.857 100.76 435.274 Q103.839 430.668 109.649 430.668 Z" fill="#000000" fill-rule="evenodd" fill-opacity="1" /><path clip-path="url(#clip870)" d="M129.857 431.293 L148.214 431.293 L148.214 435.228 L134.14 435.228 L134.14 443.7 Q135.158 443.353 136.177 443.191 Q137.195 443.006 138.214 443.006 Q144.001 443.006 147.38 446.177 Q150.76 449.348 150.76 454.765 Q150.76 460.343 147.288 463.445 Q143.816 466.524 137.496 466.524 Q135.32 466.524 133.052 466.154 Q130.807 465.783 128.399 465.042 L128.399 460.343 Q130.482 461.478 132.705 462.033 Q134.927 462.589 137.404 462.589 Q141.408 462.589 143.746 460.482 Q146.084 458.376 146.084 454.765 Q146.084 451.154 143.746 449.047 Q141.408 446.941 137.404 446.941 Q135.529 446.941 133.654 447.357 Q131.802 447.774 129.857 448.654 L129.857 431.293 Z" fill="#000000" fill-rule="evenodd" fill-opacity="1" /><path clip-path="url(#clip870)" d="M63.2606 234.49 Q59.6495 234.49 57.8208 238.055 Q56.0152 241.597 56.0152 248.726 Q56.0152 255.833 57.8208 259.397 Q59.6495 262.939 63.2606 262.939 Q66.8948 262.939 68.7004 259.397 Q70.5291 255.833 70.5291 248.726 Q70.5291 241.597 68.7004 238.055 Q66.8948 234.49 63.2606 234.49 M63.2606 230.786 Q69.0707 230.786 72.1263 235.393 Q75.205 239.976 75.205 248.726 Q75.205 257.453 72.1263 262.059 Q69.0707 266.643 63.2606 266.643 Q57.4504 266.643 54.3717 262.059 Q51.3162 257.453 51.3162 248.726 Q51.3162 239.976 54.3717 235.393 Q57.4504 230.786 63.2606 230.786 Z" fill="#000000" fill-rule="evenodd" fill-opacity="1" /><path clip-path="url(#clip870)" d="M83.4225 260.092 L88.3067 260.092 L88.3067 265.971 L83.4225 265.971 L83.4225 260.092 Z" fill="#000000" fill-rule="evenodd" fill-opacity="1" /><path clip-path="url(#clip870)" d="M108.492 234.49 Q104.881 234.49 103.052 238.055 Q101.246 241.597 101.246 248.726 Q101.246 255.833 103.052 259.397 Q104.881 262.939 108.492 262.939 Q112.126 262.939 113.932 259.397 Q115.76 255.833 115.76 248.726 Q115.76 241.597 113.932 238.055 Q112.126 234.49 108.492 234.49 M108.492 230.786 Q114.302 230.786 117.358 235.393 Q120.436 239.976 120.436 248.726 Q120.436 257.453 117.358 262.059 Q114.302 266.643 108.492 266.643 Q102.682 266.643 99.603 262.059 Q96.5474 257.453 96.5474 248.726 Q96.5474 239.976 99.603 235.393 Q102.682 230.786 108.492 230.786 Z" fill="#000000" fill-rule="evenodd" fill-opacity="1" /><path clip-path="url(#clip870)" d="M139.232 246.828 Q136.084 246.828 134.232 248.981 Q132.404 251.134 132.404 254.884 Q132.404 258.61 134.232 260.786 Q136.084 262.939 139.232 262.939 Q142.381 262.939 144.209 260.786 Q146.061 258.61 146.061 254.884 Q146.061 251.134 144.209 248.981 Q142.381 246.828 139.232 246.828 M148.515 232.175 L148.515 236.435 Q146.756 235.601 144.95 235.161 Q143.168 234.722 141.408 234.722 Q136.779 234.722 134.325 237.847 Q131.894 240.972 131.547 247.291 Q132.913 245.277 134.973 244.212 Q137.033 243.124 139.51 243.124 Q144.718 243.124 147.728 246.296 Q150.76 249.444 150.76 254.884 Q150.76 260.208 147.612 263.425 Q144.464 266.643 139.232 266.643 Q133.237 266.643 130.066 262.059 Q126.894 257.453 126.894 248.726 Q126.894 240.532 130.783 235.671 Q134.672 230.786 141.223 230.786 Q142.982 230.786 144.765 231.134 Q146.57 231.481 148.515 232.175 Z" fill="#000000" fill-rule="evenodd" fill-opacity="1" /><path clip-path="url(#clip870)" d="M1195.22 12.096 L1203.44 12.096 L1203.44 48.8377 Q1203.44 58.5599 1206.97 62.8538 Q1210.49 67.1073 1218.39 67.1073 Q1226.25 67.1073 1229.78 62.8538 Q1233.3 58.5599 1233.3 48.8377 L1233.3 12.096 L1241.52 12.096 L1241.52 49.8504 Q1241.52 61.6791 1235.65 67.7149 Q1229.82 73.7508 1218.39 73.7508 Q1206.93 73.7508 1201.05 67.7149 Q1195.22 61.6791 1195.22 49.8504 L1195.22 12.096 Z" fill="#000000" fill-rule="evenodd" fill-opacity="1" /><path clip-path="url(#clip870)" d="M1293.13 14.0809 L1293.13 22.0612 Q1288.47 19.8332 1284.34 18.7395 Q1280.21 17.6457 1276.36 17.6457 Q1269.68 17.6457 1266.03 20.2383 Q1262.43 22.8309 1262.43 27.611 Q1262.43 31.6214 1264.82 33.6873 Q1267.25 35.7128 1273.97 36.9686 L1278.91 37.9813 Q1288.07 39.7232 1292.4 44.1387 Q1296.78 48.5136 1296.78 55.8863 Q1296.78 64.6767 1290.86 69.2137 Q1284.99 73.7508 1273.61 73.7508 Q1269.31 73.7508 1264.45 72.7785 Q1259.63 71.8063 1254.45 69.9024 L1254.45 61.4765 Q1259.43 64.2716 1264.21 65.6895 Q1268.99 67.1073 1273.61 67.1073 Q1280.61 67.1073 1284.42 64.3527 Q1288.23 61.598 1288.23 56.4939 Q1288.23 52.0379 1285.48 49.5264 Q1282.76 47.0148 1276.52 45.759 L1271.54 44.7868 Q1262.39 42.9639 1258.29 39.075 Q1254.2 35.1862 1254.2 28.2591 Q1254.2 20.2383 1259.83 15.6203 Q1265.5 11.0023 1275.43 11.0023 Q1279.68 11.0023 1284.1 11.7719 Q1288.51 12.5416 1293.13 14.0809 Z" fill="#000000" fill-rule="evenodd" fill-opacity="1" /><path clip-path="url(#clip870)" d="M1309.54 12.096 L1344.29 12.096 L1344.29 18.9825 L1317.72 18.9825 L1317.72 36.8065 L1341.7 36.8065 L1341.7 43.6931 L1317.72 43.6931 L1317.72 72.576 L1309.54 72.576 L1309.54 12.096 Z" fill="#000000" fill-rule="evenodd" fill-opacity="1" /><polyline clip-path="url(#clip872)" style="stroke:#009af9; stroke-linecap:round; stroke-linejoin:round; stroke-width:4; stroke-opacity:1; fill:none" points="248.062,206.788 252.149,222.818 256.235,246.603 260.322,277.837 264.409,316.114 268.496,360.94 272.583,411.735 276.669,467.844 280.756,528.54 284.843,593.039 288.93,660.507 293.017,730.073 297.103,800.837 301.19,871.885 305.277,942.298 309.364,1011.17 313.45,1077.6 317.537,1140.74 321.624,1199.77 325.711,1253.93 329.798,1302.52 333.884,1344.91 337.971,1380.55 342.058,1408.99 346.145,1429.85 350.231,1442.87 354.318,1447.87 358.405,1444.8 362.492,1433.69 366.579,1414.69 370.665,1388.05 374.752,1354.1 378.839,1313.28 382.926,1266.13 387.013,1213.25 391.099,1155.33 395.186,1093.11 399.273,1027.39 403.36,959.036 407.446,888.92 411.533,817.949 415.62,747.04 419.707,677.11 423.794,609.062 427.88,543.775 431.967,482.094 436.054,424.815 440.141,372.678 444.228,326.359 448.314,286.455 452.401,253.483 456.488,227.87 460.575,209.947 464.661,199.945 468.748,197.996 472.835,204.124 476.922,218.251 481.009,240.195 485.095,269.672 489.182,306.302 493.269,349.611 497.356,399.039 501.443,453.947 505.529,513.626 509.616,577.303 513.703,644.155 517.79,713.317 521.876,783.895 525.963,854.975 530.05,925.638 534.137,994.97 538.224,1062.07 542.31,1126.08 546.397,1186.17 550.484,1241.55 554.571,1291.52 558.658,1335.42 562.744,1372.7 566.831,1402.86 570.918,1425.52 575.005,1440.39 579.091,1447.28 583.178,1446.09 587.265,1436.85 591.352,1419.67 595.439,1394.78 599.525,1362.5 603.612,1323.24 607.699,1277.52 611.786,1225.93 615.872,1169.13 619.959,1107.86 624.046,1042.91 628.133,975.111 632.22,905.351 636.306,834.526 640.393,763.551 644.48,693.343 648.567,624.808 652.654,558.83 656.74,496.264 660.827,437.915 664.914,384.538 669.001,336.823 673.087,295.387 677.174,260.764 681.261,233.403 685.348,213.659 689.435,201.786 693.521,197.94 697.608,202.171 701.695,214.424 705.782,234.544 709.869,262.271 713.955,297.246 718.042,339.02 722.129,387.052 726.216,440.722 730.302,499.336 734.389,562.137 738.476,628.312 742.563,697.006 746.65,767.33 750.736,838.373 754.823,909.216 758.91,978.942 762.997,1046.65 767.084,1111.46 771.17,1172.54 775.257,1229.09 779.344,1280.39 783.431,1325.76 787.517,1364.63 791.604,1396.49 795.691,1420.93 799.778,1437.63 803.865,1446.38 807.951,1447.07 812.038,1439.69 816.125,1424.33 820.212,1401.21 824.298,1370.61 828.385,1332.93 832.472,1288.66 836.559,1238.39 840.646,1182.74 844.732,1122.46 848.819,1058.31 852.906,991.121 856.993,921.768 861.08,851.142 865.166,780.157 869.253,709.728 873.34,640.763 877.427,574.153 881.513,510.757 885.6,451.392 889.687,396.825 893.774,347.758 897.861,304.826 901.947,268.582 906.034,239.494 910.121,217.939 914.208,204.194 918.295,198.439 922.381,200.748 926.468,211.094 930.555,229.343 934.642,255.263 938.728,288.518 942.815,328.683 946.902,375.238 950.989,427.584 955.076,485.046 959.162,546.882 963.249,612.294 967.336,680.435 971.423,750.426 975.51,821.36 979.596,892.322 983.683,962.39 987.77,1030.66 991.857,1096.25 995.943,1158.3 1000.03,1216.01 1004.12,1268.64 1008.2,1315.5 1012.29,1355.99 1016.38,1389.58 1020.46,1415.83 1024.55,1434.4 1028.64,1445.06 1032.72,1447.67 1036.81,1442.19 1040.9,1428.69 1044.98,1407.36 1049.07,1378.46 1053.16,1342.38 1057.25,1299.57 1061.33,1250.61 1065.42,1196.11 1069.51,1136.8 1073.59,1073.43 1077.68,1006.83 1081.77,937.853 1085.85,867.4 1089.94,796.38 1094.03,725.71 1098.11,656.303 1102.2,589.057 1106.29,524.838 1110.37,464.475 1114.46,408.748 1118.55,358.375 1122.63,314.005 1126.72,276.21 1130.81,245.477 1134.89,222.202 1138.98,206.685 1143.07,199.125 1147.15,199.619 1151.24,208.162 1155.33,224.642 1159.41,248.847 1163.5,280.466 1167.59,319.09 1171.68,364.222 1175.76,415.279 1179.85,471.604 1183.94,532.469 1188.02,597.091 1192.11,664.634 1196.2,734.226 1200.28,804.97 1204.37,875.951 1208.46,946.253 1212.54,1014.97 1216.63,1081.2 1220.72,1144.1 1224.8,1202.86 1228.89,1256.7 1232.98,1304.94 1237.06,1346.95 1241.15,1382.19 1245.24,1410.19 1249.32,1430.6 1253.41,1443.15 1257.5,1447.67 1261.58,1444.12 1265.67,1432.52 1269.76,1413.04 1273.84,1385.93 1277.93,1351.53 1282.02,1310.29 1286.11,1262.75 1290.19,1209.52 1294.28,1151.29 1298.37,1088.81 1302.45,1022.9 1306.54,954.399 1310.63,884.202 1314.71,813.215 1318.8,742.357 1322.89,672.543 1326.97,604.676 1331.06,539.634 1335.15,478.256 1339.23,421.335 1343.32,369.607 1347.41,323.739 1351.49,284.322 1355.58,251.866 1359.67,226.789 1363.75,209.414 1367.84,199.964 1371.93,198.561 1376.01,205.222 1380.1,219.862 1384.19,242.29 1388.27,272.217 1392.36,309.256 1396.45,352.929 1400.54,402.672 1404.62,457.843 1408.71,517.729 1412.8,581.558 1416.88,648.504 1420.97,717.705 1425.06,788.266 1429.14,859.275 1433.23,929.816 1437.32,998.977 1441.4,1065.86 1445.49,1129.61 1449.58,1189.4 1453.66,1244.45 1457.75,1294.05 1461.84,1337.57 1465.92,1374.43 1470.01,1404.15 1474.1,1426.37 1478.18,1440.78 1482.27,1447.2 1486.36,1445.54 1490.44,1435.83 1494.53,1418.19 1498.62,1392.85 1502.7,1360.13 1506.79,1320.47 1510.88,1274.36 1514.97,1222.42 1519.05,1165.3 1523.14,1103.75 1527.23,1038.57 1531.31,970.597 1535.4,900.711 1539.49,829.817 1543.57,758.832 1547.66,688.675 1551.75,620.253 1555.83,554.45 1559.92,492.119 1564.01,434.064 1568.09,381.036 1572.18,333.721 1576.27,292.73 1580.35,258.593 1584.44,231.749 1588.53,212.546 1592.61,201.231 1596.7,197.95 1600.79,202.745 1604.87,215.552 1608.96,236.206 1613.05,264.439 1617.13,299.887 1621.22,342.089 1625.31,390.501 1629.4,444.497 1633.48,503.379 1637.57,566.387 1641.66,632.705 1645.74,701.477 1649.83,771.814 1653.92,842.809 1658,913.543 1662.09,983.104 1666.18,1050.59 1670.26,1115.14 1674.35,1175.9 1678.44,1232.1 1682.52,1283.02 1686.61,1327.98 1690.7,1366.42 1694.78,1397.84 1698.87,1421.82 1702.96,1438.06 1707.04,1446.35 1711.13,1446.59 1715.22,1438.76 1719.3,1422.97 1723.39,1399.42 1727.48,1368.42 1731.56,1330.37 1735.65,1285.76 1739.74,1235.16 1743.83,1179.23 1747.91,1118.69 1752,1054.33 1756.09,986.965 1760.17,917.481 1764.26,846.77 1768.35,775.746 1772.43,705.328 1776.52,636.425 1780.61,569.929 1784.69,506.698 1788.78,447.551 1792.87,393.251 1796.95,344.502 1801.04,301.933 1805.13,266.095 1809.21,237.451 1813.3,216.372 1817.39,203.13 1821.47,197.898 1825.56,200.741 1829.65,211.625 1833.73,230.408 1837.82,256.848 1841.91,290.602 1845.99,331.234 1850.08,378.219 1854.17,430.95 1858.25,488.744 1862.34,550.854 1866.43,616.478 1870.52,684.766 1874.6,754.835 1878.69,825.78 1882.78,896.684 1886.86,966.629 1890.95,1034.71 1895.04,1100.05 1899.12,1161.8 1903.21,1219.17 1907.3,1271.41 1911.38,1317.85 1915.47,1357.89 1919.56,1391.01 1923.64,1416.78 1927.73,1434.87 1931.82,1445.04 1935.9,1447.18 1939.99,1441.24 1944.08,1427.3 1948.16,1405.55 1952.25,1376.27 1956.34,1339.83 1960.42,1296.71 1964.51,1247.45 1968.6,1192.71 1972.68,1133.19 1976.77,1069.65 1980.86,1002.92 1984.95,933.858 1989.03,863.358 1993.12,792.332 1997.21,721.696 2001.29,652.364 2005.38,585.232 2009.47,521.167 2013.55,460.999 2017.64,405.504 2021.73,355.401 2025.81,311.336 2029.9,273.881 2033.99,243.518 2038.07,220.641 2042.16,205.546 2046.25,198.428 2050.33,199.38 2054.42,208.388 2058.51,225.338 2062.59,250.009 2066.68,282.082 2070.77,321.144 2074.85,366.688 2078.94,418.127 2083.03,474.794 2087.11,535.957 2091.2,600.825 2095.29,668.56 2099.38,738.284 2103.46,809.097 2107.55,880.083 2111.64,950.325 2115.72,1018.91 2119.81,1084.96 2123.9,1147.62 2127.98,1206.07 2132.07,1259.57 2136.16,1307.41 2140.24,1348.99 2144.33,1383.76 2148.42,1411.28 2152.5,1431.2 2156.59,1443.25 2160.68,1447.27 2164.76,1443.23 2168.85,1431.17 2172.94,1411.24 2177.02,1383.71 2181.11,1348.94 2185.2,1307.36 2189.28,1259.52 2193.37,1206.04 2197.46,1147.61 2201.54,1084.98 2205.63,1018.96 2209.72,950.405 2213.81,880.199 2217.89,809.248 2221.98,738.47 2226.07,668.778 2230.15,601.072 2234.24,536.228 2238.33,475.081 2242.41,418.424 2246.5,366.987 2250.59,321.436 2254.67,282.359 2258.76,250.262 2262.85,225.56 2266.93,208.574 2271.02,199.523 2275.11,198.525 2279.19,205.593 2283.28,220.638 2287.37,243.465 2291.45,273.78 "/>
<polyline clip-path="url(#clip872)" style="stroke:#e26f46; stroke-linecap:round; stroke-linejoin:round; stroke-width:4; stroke-opacity:1; fill:none" points="248.062,1443.94 252.149,1431.87 256.235,1411.93 260.322,1384.38 264.409,1349.57 268.496,1307.95 272.583,1260.07 276.669,1206.53 280.756,1148.04 284.843,1085.35 288.93,1019.27 293.017,950.65 297.103,880.382 301.19,809.373 305.277,738.541 309.364,668.8 313.45,601.053 317.537,536.174 321.624,475.002 325.711,418.328 329.798,366.883 333.884,321.333 337.971,282.264 342.058,250.183 346.145,225.504 350.231,208.544 354.318,199.523 358.405,198.558 362.492,205.66 366.579,220.737 370.665,243.595 374.752,273.939 378.839,311.376 382.926,355.422 387.013,405.508 391.099,460.988 395.186,521.144 399.273,585.2 403.36,652.328 407.446,721.662 411.533,792.304 415.62,863.344 419.707,933.863 423.794,1002.95 427.88,1069.71 431.967,1133.29 436.054,1192.85 440.141,1247.64 444.228,1296.94 448.314,1340.12 452.401,1376.61 456.488,1405.95 460.575,1427.75 464.661,1441.73 468.748,1447.72 472.835,1445.63 476.922,1435.48 481.009,1417.42 485.095,1391.66 489.182,1358.55 493.269,1318.52 497.356,1272.07 501.443,1219.81 505.529,1162.42 509.616,1100.63 513.703,1035.25 517.79,967.12 521.876,897.124 525.963,826.166 530.05,755.165 534.137,685.039 538.224,616.695 542.31,551.019 546.397,488.858 550.484,431.018 554.571,378.247 558.658,331.226 562.744,290.564 566.831,256.785 570.918,230.328 575.005,211.531 579.091,200.639 583.178,197.791 587.265,203.022 591.352,216.265 595.439,237.346 599.525,265.993 603.612,301.834 607.699,344.406 611.786,393.157 615.872,447.457 619.959,506.604 624.046,569.833 628.133,636.327 632.22,705.227 636.306,775.644 640.393,846.668 644.48,917.381 648.567,986.871 652.654,1054.24 656.74,1118.62 660.827,1179.18 664.914,1235.13 669.001,1285.76 673.087,1330.4 677.174,1368.49 681.261,1399.53 685.348,1423.12 689.435,1438.96 693.521,1446.83 697.608,1446.63 701.695,1438.38 705.782,1422.17 709.869,1398.21 713.955,1366.81 718.042,1328.37 722.129,1283.4 726.216,1232.47 730.302,1176.24 734.389,1115.44 738.476,1050.85 742.563,983.31 746.65,913.693 750.736,842.899 754.823,771.845 758.91,701.45 762.997,632.626 767.084,566.264 771.17,503.222 775.257,444.317 779.344,390.31 783.431,341.902 787.517,299.717 791.604,264.302 795.691,236.113 799.778,215.516 803.865,202.774 807.951,198.052 812.038,201.41 816.125,212.802 820.212,232.079 824.298,258.991 828.385,293.188 832.472,334.227 836.559,381.575 840.646,434.62 844.732,492.675 848.819,554.99 852.906,620.758 856.993,689.13 861.08,759.224 865.166,830.134 869.253,900.944 873.34,970.742 877.427,1038.63 881.513,1103.72 885.6,1165.19 889.687,1222.24 893.774,1274.13 897.861,1320.2 901.947,1359.84 906.034,1392.55 910.121,1417.91 914.208,1435.59 918.295,1445.35 922.381,1447.08 926.468,1440.74 930.555,1426.42 934.642,1404.3 938.728,1374.66 942.815,1337.89 946.902,1294.46 950.989,1244.93 955.076,1189.93 959.162,1130.18 963.249,1066.44 967.336,999.549 971.423,930.358 975.51,859.765 979.596,788.685 983.683,718.037 987.77,648.735 991.857,581.678 995.943,517.734 1000.03,457.732 1004.12,402.449 1008.2,352.604 1012.29,308.842 1016.38,271.731 1020.46,241.751 1024.55,219.293 1028.64,204.646 1032.72,198.001 1036.81,199.443 1040.9,208.952 1044.98,226.405 1049.07,251.574 1053.16,284.133 1057.25,323.658 1061.33,369.636 1065.42,421.471 1069.51,478.489 1073.59,539.953 1077.68,605.066 1081.77,672.985 1085.85,742.83 1089.94,813.698 1094.03,884.673 1098.11,954.838 1102.2,1023.29 1106.29,1089.13 1110.37,1151.53 1114.46,1209.67 1118.55,1262.81 1122.63,1310.26 1126.72,1351.41 1130.81,1385.73 1134.89,1412.77 1138.98,1432.2 1143.07,1443.75 1147.15,1447.29 1151.24,1442.76 1155.33,1430.23 1159.41,1409.86 1163.5,1381.91 1167.59,1346.73 1171.68,1304.79 1175.76,1256.63 1179.85,1202.86 1183.94,1144.17 1188.02,1081.34 1192.11,1015.16 1196.2,946.488 1200.28,876.215 1204.37,805.245 1208.46,734.496 1212.54,664.882 1216.63,597.304 1220.72,532.634 1224.8,471.71 1228.89,415.32 1232.98,364.195 1237.06,318.996 1241.15,280.309 1245.24,248.637 1249.32,224.389 1253.41,207.881 1257.5,199.327 1261.58,198.839 1265.67,206.422 1269.76,221.981 1273.84,245.312 1277.93,276.116 1282.02,313.992 1286.11,358.45 1290.19,408.916 1294.28,464.734 1298.37,525.182 1302.45,589.479 1306.54,656.79 1310.63,726.246 1314.71,796.947 1318.8,867.979 1322.89,938.423 1326.97,1007.37 1331.06,1073.93 1335.15,1137.23 1339.23,1196.47 1343.32,1250.88 1347.41,1299.75 1351.49,1342.45 1355.58,1378.44 1359.67,1407.25 1363.75,1428.51 1367.84,1441.94 1371.93,1447.38 1376.01,1444.74 1380.1,1434.08 1384.19,1415.51 1388.27,1389.29 1392.36,1355.76 1396.45,1315.34 1400.54,1268.55 1404.62,1216.01 1408.71,1158.39 1412.8,1096.43 1416.88,1030.93 1420.97,962.738 1425.06,892.735 1429.14,821.826 1433.23,750.924 1437.32,680.946 1441.4,612.797 1445.49,547.357 1449.58,485.473 1453.66,427.944 1457.75,375.516 1461.84,328.866 1465.92,288.598 1470.01,255.236 1474.1,229.209 1478.18,210.857 1482.27,200.418 1486.36,198.027 1490.44,203.717 1494.53,217.413 1498.62,238.941 1502.7,268.022 1506.79,304.279 1510.88,347.244 1514.97,396.362 1519.05,450.996 1523.14,510.44 1527.23,573.925 1531.31,640.628 1535.4,709.687 1539.49,780.208 1543.57,851.278 1547.66,921.979 1551.75,991.394 1555.83,1058.63 1559.92,1122.81 1564.01,1183.11 1568.09,1238.74 1572.18,1289 1576.27,1333.23 1580.35,1370.85 1584.44,1401.4 1588.53,1424.46 1592.61,1439.74 1596.7,1447.05 1600.79,1446.29 1604.87,1437.47 1608.96,1420.72 1613.05,1396.24 1617.13,1364.35 1621.22,1325.46 1625.31,1280.09 1629.4,1228.81 1633.48,1172.29 1637.57,1111.25 1641.66,1046.5 1645.74,978.854 1649.83,909.198 1653.92,838.43 1658,767.463 1662.09,697.214 1666.18,628.59 1670.26,562.479 1674.35,499.733 1678.44,441.163 1682.52,387.527 1686.61,339.516 1690.7,297.751 1694.78,262.772 1698.87,235.031 1702.96,214.886 1707.04,202.599 1711.13,198.328 1715.22,202.128 1719.3,213.951 1723.39,233.644 1727.48,260.954 1731.56,295.528 1735.65,336.918 1739.74,384.592 1743.83,437.932 1747.91,496.25 1752,558.792 1756.09,624.75 1760.17,693.272 1764.26,763.473 1768.35,834.445 1772.43,905.27 1776.52,975.034 1780.61,1042.83 1784.69,1107.79 1788.78,1169.08 1792.87,1225.88 1796.95,1277.49 1801.04,1323.22 1805.13,1362.48 1809.21,1394.77 1813.3,1419.67 1817.39,1436.86 1821.47,1446.11 1825.56,1447.3 1829.65,1440.43 1833.73,1425.57 1837.82,1402.92 1841.91,1372.78 1845.99,1335.52 1850.08,1291.64 1854.17,1241.7 1858.25,1186.34 1862.34,1126.29 1866.43,1062.31 1870.52,995.243 1874.6,925.943 1878.69,855.312 1882.78,784.262 1886.86,713.713 1890.95,644.575 1895.04,577.744 1899.12,514.082 1903.21,454.414 1907.3,399.51 1911.38,350.079 1915.47,306.762 1919.56,270.118 1923.64,240.619 1927.73,218.649 1931.82,204.489 1935.9,198.324 1939.99,200.232 1944.08,210.188 1948.16,228.065 1952.25,253.63 1956.34,286.553 1960.42,326.409 1964.51,372.681 1968.6,424.773 1972.68,482.01 1976.77,543.654 1980.86,608.906 1984.95,676.925 1989.03,746.83 1993.12,817.719 1997.21,888.675 2001.29,958.781 2005.38,1027.13 2009.47,1092.84 2013.55,1155.06 2017.64,1212.99 2021.73,1265.88 2025.81,1313.04 2029.9,1353.87 2033.99,1387.83 2038.07,1414.5 2042.16,1433.51 2046.25,1444.64 2050.33,1447.72 2054.42,1442.74 2058.51,1429.74 2062.59,1408.89 2066.68,1380.48 2070.77,1344.85 2074.85,1302.49 2078.94,1253.92 2083.03,1199.78 2087.11,1140.78 2091.2,1077.67 2095.29,1011.27 2099.38,942.434 2103.46,872.059 2107.55,801.053 2111.64,730.334 2115.72,660.816 2119.81,593.398 2123.9,528.951 2127.98,468.308 2132.07,412.253 2136.16,361.51 2140.24,316.734 2144.33,278.504 2148.42,247.314 2152.5,223.565 2156.59,207.565 2160.68,199.519 2164.76,199.531 2168.85,207.599 2172.94,223.619 2177.02,247.384 2181.11,278.586 2185.2,316.821 2189.28,361.595 2193.37,412.329 2197.46,468.369 2201.54,528.989 2205.63,593.408 2209.72,660.793 2213.81,730.274 2217.89,800.954 2221.98,871.92 2226.07,942.256 2230.15,1011.05 2234.24,1077.42 2238.33,1140.51 2242.41,1199.5 2246.5,1253.62 2250.59,1302.19 2254.67,1344.56 2258.76,1380.2 2262.85,1408.64 2266.93,1429.52 2271.02,1442.56 2275.11,1447.59 2279.19,1444.55 2283.28,1433.47 2287.37,1414.51 2291.45,1387.89 "/>
<polyline clip-path="url(#clip872)" style="stroke:#3da44d; stroke-linecap:round; stroke-linejoin:round; stroke-width:4; stroke-opacity:1; fill:none" points="248.062,202.748 252.149,206.71 256.235,210.556 260.322,214.237 264.409,217.704 268.496,220.914 272.583,223.825 276.669,226.4 280.756,228.605 284.843,230.412 288.93,231.798 293.017,232.745 297.103,233.241 301.19,233.28 305.277,232.86 309.364,231.988 313.45,230.674 317.537,228.936 321.624,226.796 325.711,224.282 329.798,221.426 333.884,218.265 337.971,214.84 342.058,211.194 346.145,207.375 350.231,203.433 354.318,199.418 358.405,195.381 362.492,191.376 366.579,187.453 370.665,183.664 374.752,180.056 378.839,176.678 382.926,173.572 387.013,170.779 391.099,168.335 395.186,166.271 399.273,164.614 403.36,163.386 407.446,162.603 411.533,162.275 415.62,162.406 419.707,162.995 423.794,164.034 427.88,165.51 431.967,167.403 436.054,169.691 440.141,172.342 444.228,175.323 448.314,178.595 452.401,182.116 456.488,185.84 460.575,189.718 464.661,193.701 468.748,197.736 472.835,201.771 476.922,205.754 481.009,209.633 485.095,213.357 489.182,216.878 493.269,220.15 497.356,223.13 501.443,225.78 505.529,228.065 509.616,229.955 513.703,231.426 517.79,232.459 521.876,233.04 525.963,233.163 530.05,232.824 534.137,232.03 538.224,230.791 542.31,229.122 546.397,227.046 550.484,224.59 554.571,221.785 558.658,218.669 562.744,215.282 566.831,211.667 570.918,207.872 575.005,203.946 579.091,199.94 583.178,195.905 587.265,191.894 591.352,187.958 595.439,184.148 599.525,180.513 603.612,177.099 607.699,173.951 611.786,171.109 615.872,168.609 619.959,166.483 624.046,164.76 628.133,163.46 632.22,162.6 636.306,162.192 640.393,162.241 644.48,162.745 648.567,163.7 652.654,165.092 656.74,166.904 660.827,169.112 664.914,171.689 669.001,174.601 673.087,177.812 677.174,181.279 681.261,184.958 685.348,188.803 689.435,192.764 693.521,196.789 697.608,200.826 701.695,204.825 705.782,208.733 709.869,212.499 713.955,216.075 718.042,219.414 722.129,222.473 726.216,225.213 730.302,227.598 734.389,229.597 738.476,231.184 742.563,232.338 746.65,233.044 750.736,233.293 754.823,233.082 758.91,232.414 762.997,231.297 767.084,229.747 771.17,227.782 775.257,225.429 779.344,222.718 783.431,219.685 787.517,216.369 791.604,212.813 795.691,209.063 799.778,205.168 803.865,201.178 807.951,197.145 812.038,193.121 816.125,189.158 820.212,185.308 824.298,181.619 828.385,178.139 832.472,174.913 836.559,171.982 840.646,169.385 844.732,167.154 848.819,165.318 852.906,163.901 856.993,162.92 861.08,162.388 865.166,162.312 869.253,162.694 873.34,163.527 877.427,164.802 881.513,166.503 885.6,168.606 889.687,171.086 893.774,173.91 897.861,177.043 901.947,180.444 906.034,184.069 910.121,187.871 914.208,191.802 918.295,195.81 922.381,199.845 926.468,203.853 930.555,207.782 934.642,211.582 938.728,215.203 942.815,218.598 946.902,221.722 950.989,224.535 955.076,226.999 959.162,229.083 963.249,230.759 967.336,232.005 971.423,232.805 975.51,233.148 979.596,233.028 983.683,232.449 987.77,231.417 991.857,229.945 995.943,228.053 1000.03,225.766 1004.12,223.113 1008.2,220.129 1012.29,216.853 1016.38,213.328 1020.46,209.6 1024.55,205.717 1028.64,201.731 1032.72,197.691 1036.81,193.653 1040.9,189.666 1044.98,185.784 1049.07,182.056 1053.16,178.531 1057.25,175.254 1061.33,172.266 1065.42,169.607 1069.51,167.31 1073.59,165.404 1077.68,163.914 1081.77,162.859 1085.85,162.252 1089.94,162.1 1094.03,162.405 1098.11,163.163 1102.2,164.364 1106.29,165.993 1110.37,168.028 1114.46,170.443 1118.55,173.208 1122.63,176.287 1126.72,179.64 1130.81,183.225 1134.89,186.996 1138.98,190.904 1143.07,194.899 1147.15,198.931 1151.24,202.948 1155.33,206.897 1159.41,210.729 1163.5,214.394 1167.59,217.844 1171.68,221.036 1175.76,223.928 1179.85,226.482 1183.94,228.666 1188.02,230.451 1192.11,231.814 1196.2,232.736 1200.28,233.206 1204.37,233.218 1208.46,232.77 1212.54,231.869 1216.63,230.526 1220.72,228.759 1224.8,226.589 1228.89,224.045 1232.98,221.16 1237.06,217.971 1241.15,214.519 1245.24,210.85 1249.32,207.011 1253.41,203.051 1257.5,199.023 1261.58,194.978 1265.67,190.968 1269.76,187.047 1273.84,183.264 1277.93,179.669 1282.02,176.308 1286.11,173.224 1290.19,170.458 1294.28,168.045 1298.37,166.016 1302.45,164.398 1306.54,163.21 1310.63,162.469 1314.71,162.184 1318.8,162.357 1322.89,162.988 1326.97,164.067 1331.06,165.58 1335.15,167.508 1339.23,169.827 1343.32,172.505 1347.41,175.508 1351.49,178.798 1355.58,182.332 1359.67,186.064 1363.75,189.947 1367.84,193.929 1371.93,197.96 1376.01,201.988 1380.1,205.96 1384.19,209.825 1388.27,213.533 1392.36,217.035 1396.45,220.287 1400.54,223.247 1404.62,225.875 1408.71,228.138 1412.8,230.006 1416.88,231.454 1420.97,232.464 1425.06,233.023 1429.14,233.123 1433.23,232.762 1437.32,231.945 1441.4,230.683 1445.49,228.992 1449.58,226.894 1453.66,224.416 1457.75,221.59 1461.84,218.453 1465.92,215.045 1470.01,211.411 1474.1,207.598 1478.18,203.656 1482.27,199.635 1486.36,195.588 1490.44,191.567 1494.53,187.625 1498.62,183.812 1502.7,180.178 1506.79,176.769 1510.88,173.63 1514.97,170.802 1519.05,168.32 1523.14,166.216 1527.23,164.518 1531.31,163.247 1535.4,162.42 1539.49,162.047 1543.57,162.132 1547.66,162.675 1551.75,163.668 1555.83,165.098 1559.92,166.947 1564.01,169.191 1568.09,171.801 1572.18,174.743 1576.27,177.98 1580.35,181.469 1584.44,185.166 1588.53,189.024 1592.61,192.992 1596.7,197.02 1600.79,201.056 1604.87,205.048 1608.96,208.946 1613.05,212.698 1617.13,216.256 1621.22,219.575 1625.31,222.612 1629.4,225.328 1633.48,227.688 1637.57,229.662 1641.66,231.223 1645.74,232.352 1649.83,233.034 1653.92,233.26 1658,233.028 1662.09,232.339 1666.18,231.204 1670.26,229.636 1674.35,227.656 1678.44,225.289 1682.52,222.566 1686.61,219.521 1690.7,216.195 1694.78,212.63 1698.87,208.872 1702.96,204.969 1707.04,200.973 1711.13,196.935 1715.22,192.907 1719.3,188.94 1723.39,185.088 1727.48,181.398 1731.56,177.92 1735.65,174.697 1739.74,171.772 1743.83,169.182 1747.91,166.962 1752,165.139 1756.09,163.737 1760.17,162.775 1764.26,162.264 1768.35,162.212 1772.43,162.619 1776.52,163.481 1780.61,164.785 1784.69,166.515 1788.78,168.648 1792.87,171.158 1796.95,174.011 1801.04,177.171 1805.13,180.596 1809.21,184.243 1813.3,188.064 1817.39,192.009 1821.47,196.028 1825.56,200.068 1829.65,204.076 1833.73,208.002 1837.82,211.794 1841.91,215.402 1845.99,218.779 1850.08,221.883 1854.17,224.672 1858.25,227.11 1862.34,229.166 1866.43,230.813 1870.52,232.03 1874.6,232.8 1878.69,233.114 1882.78,232.968 1886.86,232.363 1890.95,231.309 1895.04,229.817 1899.12,227.909 1903.21,225.608 1907.3,222.944 1911.38,219.953 1915.47,216.672 1919.56,213.146 1923.64,209.418 1927.73,205.538 1931.82,201.555 1935.9,197.522 1939.99,193.49 1944.08,189.512 1948.16,185.639 1952.25,181.92 1956.34,178.404 1960.42,175.136 1964.51,172.158 1968.6,169.508 1972.68,167.221 1976.77,165.326 1980.86,163.848 1984.95,162.805 1989.03,162.21 1993.12,162.072 1997.21,162.392 2001.29,163.166 2005.38,164.384 2009.47,166.03 2013.55,168.084 2017.64,170.518 2021.73,173.302 2025.81,176.4 2029.9,179.771 2033.99,183.373 2038.07,187.159 2042.16,191.081 2046.25,195.087 2050.33,199.126 2054.42,203.147 2058.51,207.096 2062.59,210.924 2066.68,214.581 2070.77,218.02 2074.85,221.196 2078.94,224.069 2083.03,226.6 2087.11,228.758 2091.2,230.515 2095.29,231.848 2099.38,232.739 2103.46,233.178 2107.55,233.158 2111.64,232.681 2115.72,231.751 2119.81,230.382 2123.9,228.591 2127.98,226.401 2132.07,223.84 2136.16,220.943 2140.24,217.746 2144.33,214.29 2148.42,210.62 2152.5,206.785 2156.59,202.832 2160.68,198.814 2164.76,194.782 2168.85,190.788 2172.94,186.884 2177.02,183.12 2181.11,179.544 2185.2,176.203 2189.28,173.14 2193.37,170.394 2197.46,168 2201.54,165.99 2205.63,164.39 2209.72,163.219 2213.81,162.494 2217.89,162.224 2221.98,162.411 2226.07,163.055 2230.15,164.147 2234.24,165.673 2238.33,167.613 2242.41,169.942 2246.5,172.631 2250.59,175.644 2254.67,178.943 2258.76,182.486 2262.85,186.226 2266.93,190.114 2271.02,194.102 2275.11,198.136 2279.19,202.164 2283.28,206.134 2287.37,209.995 2291.45,213.695 "/>
<path clip-path="url(#clip870)" d="M258.96 1441.02 L625.975 1441.02 L625.975 1233.66 L258.96 1233.66  Z" fill="#ffffff" fill-rule="evenodd" fill-opacity="1"/>
<polyline clip-path="url(#clip870)" style="stroke:#000000; stroke-linecap:round; stroke-linejoin:round; stroke-width:4; stroke-opacity:1; fill:none" points="258.96,1441.02 625.975,1441.02 625.975,1233.66 258.96,1233.66 258.96,1441.02 "/>
<polyline clip-path="url(#clip870)" style="stroke:#009af9; stroke-linecap:round; stroke-linejoin:round; stroke-width:4; stroke-opacity:1; fill:none" points="283.027,1285.5 427.426,1285.5 "/>
<path clip-path="url(#clip870)" d="M451.493 1266.76 L455.775 1266.76 L455.775 1288.03 L468.484 1276.85 L473.923 1276.85 L460.173 1288.98 L474.502 1302.78 L468.947 1302.78 L455.775 1290.11 L455.775 1302.78 L451.493 1302.78 L451.493 1266.76 Z" fill="#000000" fill-rule="evenodd" fill-opacity="1" /><path clip-path="url(#clip870)" d="M479.109 1276.85 L483.368 1276.85 L483.368 1302.78 L479.109 1302.78 L479.109 1276.85 M479.109 1266.76 L483.368 1266.76 L483.368 1272.15 L479.109 1272.15 L479.109 1266.76 Z" fill="#000000" fill-rule="evenodd" fill-opacity="1" /><path clip-path="url(#clip870)" d="M513.831 1287.13 L513.831 1302.78 L509.571 1302.78 L509.571 1287.27 Q509.571 1283.59 508.136 1281.76 Q506.701 1279.93 503.831 1279.93 Q500.382 1279.93 498.391 1282.13 Q496.4 1284.33 496.4 1288.12 L496.4 1302.78 L492.118 1302.78 L492.118 1276.85 L496.4 1276.85 L496.4 1280.88 Q497.928 1278.54 499.988 1277.38 Q502.071 1276.22 504.78 1276.22 Q509.247 1276.22 511.539 1279 Q513.831 1281.76 513.831 1287.13 Z" fill="#000000" fill-rule="evenodd" fill-opacity="1" /><path clip-path="url(#clip870)" d="M544.502 1288.75 L544.502 1290.83 L524.918 1290.83 Q525.196 1295.23 527.557 1297.54 Q529.942 1299.84 534.178 1299.84 Q536.631 1299.84 538.923 1299.23 Q541.238 1298.63 543.506 1297.43 L543.506 1301.46 Q541.215 1302.43 538.807 1302.94 Q536.4 1303.45 533.923 1303.45 Q527.719 1303.45 524.085 1299.84 Q520.474 1296.22 520.474 1290.07 Q520.474 1283.7 523.9 1279.97 Q527.349 1276.22 533.182 1276.22 Q538.414 1276.22 541.446 1279.6 Q544.502 1282.96 544.502 1288.75 M540.242 1287.5 Q540.196 1284 538.275 1281.92 Q536.377 1279.84 533.229 1279.84 Q529.664 1279.84 527.511 1281.85 Q525.381 1283.86 525.057 1287.52 L540.242 1287.5 Z" fill="#000000" fill-rule="evenodd" fill-opacity="1" /><path clip-path="url(#clip870)" d="M555.705 1269.49 L555.705 1276.85 L564.478 1276.85 L564.478 1280.16 L555.705 1280.16 L555.705 1294.23 Q555.705 1297.41 556.562 1298.31 Q557.441 1299.21 560.103 1299.21 L564.478 1299.21 L564.478 1302.78 L560.103 1302.78 Q555.173 1302.78 553.298 1300.95 Q551.423 1299.09 551.423 1294.23 L551.423 1280.16 L548.298 1280.16 L548.298 1276.85 L551.423 1276.85 L551.423 1269.49 L555.705 1269.49 Z" fill="#000000" fill-rule="evenodd" fill-opacity="1" /><path clip-path="url(#clip870)" d="M570.08 1276.85 L574.339 1276.85 L574.339 1302.78 L570.08 1302.78 L570.08 1276.85 M570.08 1266.76 L574.339 1266.76 L574.339 1272.15 L570.08 1272.15 L570.08 1266.76 Z" fill="#000000" fill-rule="evenodd" fill-opacity="1" /><path clip-path="url(#clip870)" d="M601.909 1277.84 L601.909 1281.83 Q600.103 1280.83 598.275 1280.34 Q596.469 1279.84 594.617 1279.84 Q590.474 1279.84 588.182 1282.47 Q585.89 1285.09 585.89 1289.84 Q585.89 1294.58 588.182 1297.22 Q590.474 1299.84 594.617 1299.84 Q596.469 1299.84 598.275 1299.35 Q600.103 1298.84 601.909 1297.84 L601.909 1301.78 Q600.126 1302.61 598.205 1303.03 Q596.307 1303.45 594.154 1303.45 Q588.298 1303.45 584.849 1299.77 Q581.4 1296.09 581.4 1289.84 Q581.4 1283.49 584.872 1279.86 Q588.367 1276.22 594.432 1276.22 Q596.4 1276.22 598.275 1276.64 Q600.15 1277.03 601.909 1277.84 Z" fill="#000000" fill-rule="evenodd" fill-opacity="1" /><polyline clip-path="url(#clip870)" style="stroke:#e26f46; stroke-linecap:round; stroke-linejoin:round; stroke-width:4; stroke-opacity:1; fill:none" points="283.027,1337.34 427.426,1337.34 "/>
<path clip-path="url(#clip870)" d="M469.919 1329.45 L469.919 1333.48 Q468.113 1332.56 466.169 1332.09 Q464.224 1331.63 462.141 1331.63 Q458.97 1331.63 457.373 1332.6 Q455.798 1333.57 455.798 1335.52 Q455.798 1337 456.933 1337.86 Q458.067 1338.69 461.493 1339.45 L462.951 1339.78 Q467.488 1340.75 469.386 1342.53 Q471.308 1344.29 471.308 1347.46 Q471.308 1351.07 468.437 1353.18 Q465.59 1355.29 460.59 1355.29 Q458.507 1355.29 456.238 1354.87 Q453.993 1354.48 451.493 1353.67 L451.493 1349.27 Q453.854 1350.5 456.146 1351.12 Q458.437 1351.72 460.683 1351.72 Q463.692 1351.72 465.312 1350.7 Q466.933 1349.66 466.933 1347.79 Q466.933 1346.05 465.752 1345.12 Q464.595 1344.2 460.636 1343.34 L459.155 1343 Q455.197 1342.16 453.437 1340.45 Q451.678 1338.71 451.678 1335.7 Q451.678 1332.05 454.271 1330.06 Q456.863 1328.06 461.632 1328.06 Q463.993 1328.06 466.076 1328.41 Q468.16 1328.76 469.919 1329.45 Z" fill="#000000" fill-rule="evenodd" fill-opacity="1" /><path clip-path="url(#clip870)" d="M482.303 1321.33 L482.303 1328.69 L491.076 1328.69 L491.076 1332 L482.303 1332 L482.303 1346.07 Q482.303 1349.25 483.159 1350.15 Q484.039 1351.05 486.701 1351.05 L491.076 1351.05 L491.076 1354.62 L486.701 1354.62 Q481.771 1354.62 479.896 1352.79 Q478.021 1350.93 478.021 1346.07 L478.021 1332 L474.896 1332 L474.896 1328.69 L478.021 1328.69 L478.021 1321.33 L482.303 1321.33 Z" fill="#000000" fill-rule="evenodd" fill-opacity="1" /><path clip-path="url(#clip870)" d="M511.701 1332.67 Q510.983 1332.25 510.127 1332.07 Q509.294 1331.86 508.275 1331.86 Q504.664 1331.86 502.72 1334.22 Q500.798 1336.56 500.798 1340.96 L500.798 1354.62 L496.516 1354.62 L496.516 1328.69 L500.798 1328.69 L500.798 1332.72 Q502.141 1330.36 504.294 1329.22 Q506.446 1328.06 509.525 1328.06 Q509.965 1328.06 510.497 1328.13 Q511.03 1328.18 511.678 1328.3 L511.701 1332.67 Z" fill="#000000" fill-rule="evenodd" fill-opacity="1" /><path clip-path="url(#clip870)" d="M527.951 1341.58 Q522.789 1341.58 520.798 1342.76 Q518.807 1343.94 518.807 1346.79 Q518.807 1349.06 520.289 1350.4 Q521.793 1351.72 524.363 1351.72 Q527.905 1351.72 530.034 1349.22 Q532.187 1346.7 532.187 1342.53 L532.187 1341.58 L527.951 1341.58 M536.446 1339.82 L536.446 1354.62 L532.187 1354.62 L532.187 1350.68 Q530.729 1353.04 528.553 1354.18 Q526.377 1355.29 523.229 1355.29 Q519.247 1355.29 516.886 1353.06 Q514.548 1350.82 514.548 1347.07 Q514.548 1342.69 517.465 1340.47 Q520.405 1338.25 526.215 1338.25 L532.187 1338.25 L532.187 1337.83 Q532.187 1334.89 530.243 1333.3 Q528.321 1331.68 524.826 1331.68 Q522.604 1331.68 520.497 1332.21 Q518.391 1332.74 516.446 1333.81 L516.446 1329.87 Q518.784 1328.97 520.983 1328.53 Q523.182 1328.06 525.266 1328.06 Q530.891 1328.06 533.668 1330.98 Q536.446 1333.9 536.446 1339.82 Z" fill="#000000" fill-rule="evenodd" fill-opacity="1" /><path clip-path="url(#clip870)" d="M545.219 1328.69 L549.479 1328.69 L549.479 1354.62 L545.219 1354.62 L545.219 1328.69 M545.219 1318.6 L549.479 1318.6 L549.479 1323.99 L545.219 1323.99 L545.219 1318.6 Z" fill="#000000" fill-rule="evenodd" fill-opacity="1" /><path clip-path="url(#clip870)" d="M579.941 1338.97 L579.941 1354.62 L575.682 1354.62 L575.682 1339.11 Q575.682 1335.43 574.247 1333.6 Q572.812 1331.77 569.941 1331.77 Q566.492 1331.77 564.502 1333.97 Q562.511 1336.17 562.511 1339.96 L562.511 1354.62 L558.228 1354.62 L558.228 1328.69 L562.511 1328.69 L562.511 1332.72 Q564.039 1330.38 566.099 1329.22 Q568.182 1328.06 570.89 1328.06 Q575.358 1328.06 577.65 1330.84 Q579.941 1333.6 579.941 1338.97 Z" fill="#000000" fill-rule="evenodd" fill-opacity="1" /><polyline clip-path="url(#clip870)" style="stroke:#3da44d; stroke-linecap:round; stroke-linejoin:round; stroke-width:4; stroke-opacity:1; fill:none" points="283.027,1389.18 427.426,1389.18 "/>
<path clip-path="url(#clip870)" d="M458.9 1373.17 L458.9 1380.53 L467.673 1380.53 L467.673 1383.84 L458.9 1383.84 L458.9 1397.91 Q458.9 1401.09 459.757 1401.99 Q460.636 1402.89 463.298 1402.89 L467.673 1402.89 L467.673 1406.46 L463.298 1406.46 Q458.368 1406.46 456.493 1404.63 Q454.618 1402.77 454.618 1397.91 L454.618 1383.84 L451.493 1383.84 L451.493 1380.53 L454.618 1380.53 L454.618 1373.17 L458.9 1373.17 Z" fill="#000000" fill-rule="evenodd" fill-opacity="1" /><path clip-path="url(#clip870)" d="M483.321 1383.52 Q479.896 1383.52 477.905 1386.2 Q475.914 1388.86 475.914 1393.52 Q475.914 1398.17 477.882 1400.85 Q479.872 1403.52 483.321 1403.52 Q486.724 1403.52 488.715 1400.83 Q490.706 1398.15 490.706 1393.52 Q490.706 1388.91 488.715 1386.22 Q486.724 1383.52 483.321 1383.52 M483.321 1379.9 Q488.877 1379.9 492.048 1383.52 Q495.22 1387.13 495.22 1393.52 Q495.22 1399.88 492.048 1403.52 Q488.877 1407.13 483.321 1407.13 Q477.743 1407.13 474.572 1403.52 Q471.423 1399.88 471.423 1393.52 Q471.423 1387.13 474.572 1383.52 Q477.743 1379.9 483.321 1379.9 Z" fill="#000000" fill-rule="evenodd" fill-opacity="1" /><path clip-path="url(#clip870)" d="M506.493 1373.17 L506.493 1380.53 L515.266 1380.53 L515.266 1383.84 L506.493 1383.84 L506.493 1397.91 Q506.493 1401.09 507.349 1401.99 Q508.229 1402.89 510.891 1402.89 L515.266 1402.89 L515.266 1406.46 L510.891 1406.46 Q505.96 1406.46 504.085 1404.63 Q502.21 1402.77 502.21 1397.91 L502.21 1383.84 L499.085 1383.84 L499.085 1380.53 L502.21 1380.53 L502.21 1373.17 L506.493 1373.17 Z" fill="#000000" fill-rule="evenodd" fill-opacity="1" /><path clip-path="url(#clip870)" d="M532.65 1393.42 Q527.488 1393.42 525.497 1394.6 Q523.506 1395.78 523.506 1398.63 Q523.506 1400.9 524.988 1402.24 Q526.493 1403.56 529.062 1403.56 Q532.604 1403.56 534.733 1401.06 Q536.886 1398.54 536.886 1394.37 L536.886 1393.42 L532.65 1393.42 M541.145 1391.66 L541.145 1406.46 L536.886 1406.46 L536.886 1402.52 Q535.428 1404.88 533.252 1406.02 Q531.076 1407.13 527.928 1407.13 Q523.946 1407.13 521.585 1404.9 Q519.247 1402.66 519.247 1398.91 Q519.247 1394.53 522.164 1392.31 Q525.104 1390.09 530.914 1390.09 L536.886 1390.09 L536.886 1389.67 Q536.886 1386.73 534.942 1385.14 Q533.02 1383.52 529.525 1383.52 Q527.303 1383.52 525.196 1384.05 Q523.09 1384.58 521.145 1385.65 L521.145 1381.71 Q523.483 1380.81 525.682 1380.37 Q527.881 1379.9 529.965 1379.9 Q535.59 1379.9 538.367 1382.82 Q541.145 1385.74 541.145 1391.66 Z" fill="#000000" fill-rule="evenodd" fill-opacity="1" /><path clip-path="url(#clip870)" d="M549.918 1370.44 L554.178 1370.44 L554.178 1406.46 L549.918 1406.46 L549.918 1370.44 Z" fill="#000000" fill-rule="evenodd" fill-opacity="1" /></svg>
