<?xml version="1.0" encoding="utf-8"?>
<svg xmlns="http://www.w3.org/2000/svg" xmlns:xlink="http://www.w3.org/1999/xlink" width="600" height="400" viewBox="0 0 2400 1600">
<defs>
  <clipPath id="clip840">
    <rect x="0" y="0" width="2400" height="1600"/>
  </clipPath>
</defs>
<path clip-path="url(#clip840)" d="M0 1600 L2400 1600 L2400 0 L0 0  Z" fill="#ffffff" fill-rule="evenodd" fill-opacity="1"/>
<defs>
  <clipPath id="clip841">
    <rect x="480" y="0" width="1681" height="1600"/>
  </clipPath>
</defs>
<path clip-path="url(#clip840)" d="M186.76 1486.45 L2352.76 1486.45 L2352.76 123.472 L186.76 123.472  Z" fill="#ffffff" fill-rule="evenodd" fill-opacity="1"/>
<defs>
  <clipPath id="clip842">
    <rect x="186" y="123" width="2167" height="1364"/>
  </clipPath>
</defs>
<polyline clip-path="url(#clip842)" style="stroke:#000000; stroke-linecap:round; stroke-linejoin:round; stroke-width:2; stroke-opacity:0.1; fill:none" points="243.975,1486.45 243.975,123.472 "/>
<polyline clip-path="url(#clip842)" style="stroke:#000000; stroke-linecap:round; stroke-linejoin:round; stroke-width:2; stroke-opacity:0.1; fill:none" points="652.654,1486.45 652.654,123.472 "/>
<polyline clip-path="url(#clip842)" style="stroke:#000000; stroke-linecap:round; stroke-linejoin:round; stroke-width:2; stroke-opacity:0.1; fill:none" points="1061.33,1486.45 1061.33,123.472 "/>
<polyline clip-path="url(#clip842)" style="stroke:#000000; stroke-linecap:round; stroke-linejoin:round; stroke-width:2; stroke-opacity:0.1; fill:none" points="1470.01,1486.45 1470.01,123.472 "/>
<polyline clip-path="url(#clip842)" style="stroke:#000000; stroke-linecap:round; stroke-linejoin:round; stroke-width:2; stroke-opacity:0.1; fill:none" points="1878.69,1486.45 1878.69,123.472 "/>
<polyline clip-path="url(#clip842)" style="stroke:#000000; stroke-linecap:round; stroke-linejoin:round; stroke-width:2; stroke-opacity:0.1; fill:none" points="2287.37,1486.45 2287.37,123.472 "/>
<polyline clip-path="url(#clip840)" style="stroke:#000000; stroke-linecap:round; stroke-linejoin:round; stroke-width:4; stroke-opacity:1; fill:none" points="186.76,1486.45 2352.76,1486.45 "/>
<polyline clip-path="url(#clip840)" style="stroke:#000000; stroke-linecap:round; stroke-linejoin:round; stroke-width:4; stroke-opacity:1; fill:none" points="243.975,1486.45 243.975,1467.55 "/>
<polyline clip-path="url(#clip840)" style="stroke:#000000; stroke-linecap:round; stroke-linejoin:round; stroke-width:4; stroke-opacity:1; fill:none" points="652.654,1486.45 652.654,1467.55 "/>
<polyline clip-path="url(#clip840)" style="stroke:#000000; stroke-linecap:round; stroke-linejoin:round; stroke-width:4; stroke-opacity:1; fill:none" points="1061.33,1486.45 1061.33,1467.55 "/>
<polyline clip-path="url(#clip840)" style="stroke:#000000; stroke-linecap:round; stroke-linejoin:round; stroke-width:4; stroke-opacity:1; fill:none" points="1470.01,1486.45 1470.01,1467.55 "/>
<polyline clip-path="url(#clip840)" style="stroke:#000000; stroke-linecap:round; stroke-linejoin:round; stroke-width:4; stroke-opacity:1; fill:none" points="1878.69,1486.45 1878.69,1467.55 "/>
<polyline clip-path="url(#clip840)" style="stroke:#000000; stroke-linecap:round; stroke-linejoin:round; stroke-width:4; stroke-opacity:1; fill:none" points="2287.37,1486.45 2287.37,1467.55 "/>
<path clip-path="url(#clip840)" d="M221.359 1517.37 Q217.748 1517.37 215.92 1520.93 Q214.114 1524.47 214.114 1531.6 Q214.114 1538.71 215.92 1542.27 Q217.748 1545.82 221.359 1545.82 Q224.994 1545.82 226.799 1542.27 Q228.628 1538.71 228.628 1531.6 Q228.628 1524.47 226.799 1520.93 Q224.994 1517.37 221.359 1517.37 M221.359 1513.66 Q227.17 1513.66 230.225 1518.27 Q233.304 1522.85 233.304 1531.6 Q233.304 1540.33 230.225 1544.94 Q227.17 1549.52 221.359 1549.52 Q215.549 1549.52 212.471 1544.94 Q209.415 1540.33 209.415 1531.6 Q209.415 1522.85 212.471 1518.27 Q215.549 1513.66 221.359 1513.66 Z" fill="#000000" fill-rule="evenodd" fill-opacity="1" /><path clip-path="url(#clip840)" d="M241.521 1542.97 L246.406 1542.97 L246.406 1548.85 L241.521 1548.85 L241.521 1542.97 Z" fill="#000000" fill-rule="evenodd" fill-opacity="1" /><path clip-path="url(#clip840)" d="M266.591 1517.37 Q262.98 1517.37 261.151 1520.93 Q259.345 1524.47 259.345 1531.6 Q259.345 1538.71 261.151 1542.27 Q262.98 1545.82 266.591 1545.82 Q270.225 1545.82 272.03 1542.27 Q273.859 1538.71 273.859 1531.6 Q273.859 1524.47 272.03 1520.93 Q270.225 1517.37 266.591 1517.37 M266.591 1513.66 Q272.401 1513.66 275.456 1518.27 Q278.535 1522.85 278.535 1531.6 Q278.535 1540.33 275.456 1544.94 Q272.401 1549.52 266.591 1549.52 Q260.781 1549.52 257.702 1544.94 Q254.646 1540.33 254.646 1531.6 Q254.646 1522.85 257.702 1518.27 Q260.781 1513.66 266.591 1513.66 Z" fill="#000000" fill-rule="evenodd" fill-opacity="1" /><path clip-path="url(#clip840)" d="M630.536 1517.37 Q626.925 1517.37 625.096 1520.93 Q623.29 1524.47 623.29 1531.6 Q623.29 1538.71 625.096 1542.27 Q626.925 1545.82 630.536 1545.82 Q634.17 1545.82 635.975 1542.27 Q637.804 1538.71 637.804 1531.6 Q637.804 1524.47 635.975 1520.93 Q634.17 1517.37 630.536 1517.37 M630.536 1513.66 Q636.346 1513.66 639.401 1518.27 Q642.48 1522.85 642.48 1531.6 Q642.48 1540.33 639.401 1544.94 Q636.346 1549.52 630.536 1549.52 Q624.725 1549.52 621.647 1544.94 Q618.591 1540.33 618.591 1531.6 Q618.591 1522.85 621.647 1518.27 Q624.725 1513.66 630.536 1513.66 Z" fill="#000000" fill-rule="evenodd" fill-opacity="1" /><path clip-path="url(#clip840)" d="M650.698 1542.97 L655.582 1542.97 L655.582 1548.85 L650.698 1548.85 L650.698 1542.97 Z" fill="#000000" fill-rule="evenodd" fill-opacity="1" /><path clip-path="url(#clip840)" d="M665.813 1514.29 L684.17 1514.29 L684.17 1518.22 L670.096 1518.22 L670.096 1526.7 Q671.114 1526.35 672.133 1526.19 Q673.151 1526 674.17 1526 Q679.957 1526 683.336 1529.17 Q686.716 1532.34 686.716 1537.76 Q686.716 1543.34 683.244 1546.44 Q679.771 1549.52 673.452 1549.52 Q671.276 1549.52 669.008 1549.15 Q666.762 1548.78 664.355 1548.04 L664.355 1543.34 Q666.438 1544.47 668.66 1545.03 Q670.883 1545.58 673.359 1545.58 Q677.364 1545.58 679.702 1543.48 Q682.04 1541.37 682.04 1537.76 Q682.04 1534.15 679.702 1532.04 Q677.364 1529.94 673.359 1529.94 Q671.484 1529.94 669.609 1530.35 Q667.758 1530.77 665.813 1531.65 L665.813 1514.29 Z" fill="#000000" fill-rule="evenodd" fill-opacity="1" /><path clip-path="url(#clip840)" d="M1028.48 1544.91 L1036.12 1544.91 L1036.12 1518.55 L1027.81 1520.21 L1027.81 1515.95 L1036.08 1514.29 L1040.75 1514.29 L1040.75 1544.91 L1048.39 1544.91 L1048.39 1548.85 L1028.48 1548.85 L1028.48 1544.91 Z" fill="#000000" fill-rule="evenodd" fill-opacity="1" /><path clip-path="url(#clip840)" d="M1057.84 1542.97 L1062.72 1542.97 L1062.72 1548.85 L1057.84 1548.85 L1057.84 1542.97 Z" fill="#000000" fill-rule="evenodd" fill-opacity="1" /><path clip-path="url(#clip840)" d="M1082.91 1517.37 Q1079.29 1517.37 1077.47 1520.93 Q1075.66 1524.47 1075.66 1531.6 Q1075.66 1538.71 1077.47 1542.27 Q1079.29 1545.82 1082.91 1545.82 Q1086.54 1545.82 1088.35 1542.27 Q1090.17 1538.71 1090.17 1531.6 Q1090.17 1524.47 1088.35 1520.93 Q1086.54 1517.37 1082.91 1517.37 M1082.91 1513.66 Q1088.72 1513.66 1091.77 1518.27 Q1094.85 1522.85 1094.85 1531.6 Q1094.85 1540.33 1091.77 1544.94 Q1088.72 1549.52 1082.91 1549.52 Q1077.1 1549.52 1074.02 1544.94 Q1070.96 1540.33 1070.96 1531.6 Q1070.96 1522.85 1074.02 1518.27 Q1077.1 1513.66 1082.91 1513.66 Z" fill="#000000" fill-rule="evenodd" fill-opacity="1" /><path clip-path="url(#clip840)" d="M1437.66 1544.91 L1445.3 1544.91 L1445.3 1518.55 L1436.99 1520.21 L1436.99 1515.95 L1445.25 1514.29 L1449.93 1514.29 L1449.93 1544.91 L1457.57 1544.91 L1457.57 1548.85 L1437.66 1548.85 L1437.66 1544.91 Z" fill="#000000" fill-rule="evenodd" fill-opacity="1" /><path clip-path="url(#clip840)" d="M1467.01 1542.97 L1471.9 1542.97 L1471.9 1548.85 L1467.01 1548.85 L1467.01 1542.97 Z" fill="#000000" fill-rule="evenodd" fill-opacity="1" /><path clip-path="url(#clip840)" d="M1482.13 1514.29 L1500.48 1514.29 L1500.48 1518.22 L1486.41 1518.22 L1486.41 1526.7 Q1487.43 1526.35 1488.45 1526.19 Q1489.47 1526 1490.48 1526 Q1496.27 1526 1499.65 1529.17 Q1503.03 1532.34 1503.03 1537.76 Q1503.03 1543.34 1499.56 1546.44 Q1496.09 1549.52 1489.77 1549.52 Q1487.59 1549.52 1485.32 1549.15 Q1483.08 1548.78 1480.67 1548.04 L1480.67 1543.34 Q1482.75 1544.47 1484.98 1545.03 Q1487.2 1545.58 1489.67 1545.58 Q1493.68 1545.58 1496.02 1543.48 Q1498.36 1541.37 1498.36 1537.76 Q1498.36 1534.15 1496.02 1532.04 Q1493.68 1529.94 1489.67 1529.94 Q1487.8 1529.94 1485.92 1530.35 Q1484.07 1530.77 1482.13 1531.65 L1482.13 1514.29 Z" fill="#000000" fill-rule="evenodd" fill-opacity="1" /><path clip-path="url(#clip840)" d="M1849.93 1544.91 L1866.25 1544.91 L1866.25 1548.85 L1844.3 1548.85 L1844.3 1544.91 Q1846.96 1542.16 1851.55 1537.53 Q1856.15 1532.88 1857.33 1531.53 Q1859.58 1529.01 1860.46 1527.27 Q1861.36 1525.51 1861.36 1523.82 Q1861.36 1521.07 1859.42 1519.33 Q1857.5 1517.6 1854.4 1517.6 Q1852.2 1517.6 1849.74 1518.36 Q1847.31 1519.13 1844.53 1520.68 L1844.53 1515.95 Q1847.36 1514.82 1849.81 1514.24 Q1852.27 1513.66 1854.3 1513.66 Q1859.67 1513.66 1862.87 1516.35 Q1866.06 1519.03 1866.06 1523.52 Q1866.06 1525.65 1865.25 1527.57 Q1864.46 1529.47 1862.36 1532.07 Q1861.78 1532.74 1858.68 1535.95 Q1855.58 1539.15 1849.93 1544.91 Z" fill="#000000" fill-rule="evenodd" fill-opacity="1" /><path clip-path="url(#clip840)" d="M1876.06 1542.97 L1880.95 1542.97 L1880.95 1548.85 L1876.06 1548.85 L1876.06 1542.97 Z" fill="#000000" fill-rule="evenodd" fill-opacity="1" /><path clip-path="url(#clip840)" d="M1901.13 1517.37 Q1897.52 1517.37 1895.69 1520.93 Q1893.89 1524.47 1893.89 1531.6 Q1893.89 1538.71 1895.69 1542.27 Q1897.52 1545.82 1901.13 1545.82 Q1904.77 1545.82 1906.57 1542.27 Q1908.4 1538.71 1908.4 1531.6 Q1908.4 1524.47 1906.57 1520.93 Q1904.77 1517.37 1901.13 1517.37 M1901.13 1513.66 Q1906.94 1513.66 1910 1518.27 Q1913.08 1522.85 1913.08 1531.6 Q1913.08 1540.33 1910 1544.94 Q1906.94 1549.52 1901.13 1549.52 Q1895.32 1549.52 1892.24 1544.94 Q1889.19 1540.33 1889.19 1531.6 Q1889.19 1522.85 1892.24 1518.27 Q1895.32 1513.66 1901.13 1513.66 Z" fill="#000000" fill-rule="evenodd" fill-opacity="1" /><path clip-path="url(#clip840)" d="M2259.1 1544.91 L2275.42 1544.91 L2275.42 1548.85 L2253.48 1548.85 L2253.48 1544.91 Q2256.14 1542.16 2260.72 1537.53 Q2265.33 1532.88 2266.51 1531.53 Q2268.76 1529.01 2269.64 1527.27 Q2270.54 1525.51 2270.54 1523.82 Q2270.54 1521.07 2268.59 1519.33 Q2266.67 1517.6 2263.57 1517.6 Q2261.37 1517.6 2258.92 1518.36 Q2256.49 1519.13 2253.71 1520.68 L2253.71 1515.95 Q2256.53 1514.82 2258.99 1514.24 Q2261.44 1513.66 2263.48 1513.66 Q2268.85 1513.66 2272.04 1516.35 Q2275.24 1519.03 2275.24 1523.52 Q2275.24 1525.65 2274.43 1527.57 Q2273.64 1529.47 2271.53 1532.07 Q2270.96 1532.74 2267.85 1535.95 Q2264.75 1539.15 2259.1 1544.91 Z" fill="#000000" fill-rule="evenodd" fill-opacity="1" /><path clip-path="url(#clip840)" d="M2285.24 1542.97 L2290.12 1542.97 L2290.12 1548.85 L2285.24 1548.85 L2285.24 1542.97 Z" fill="#000000" fill-rule="evenodd" fill-opacity="1" /><path clip-path="url(#clip840)" d="M2300.35 1514.29 L2318.71 1514.29 L2318.71 1518.22 L2304.64 1518.22 L2304.64 1526.7 Q2305.65 1526.35 2306.67 1526.19 Q2307.69 1526 2308.71 1526 Q2314.5 1526 2317.88 1529.17 Q2321.26 1532.34 2321.26 1537.76 Q2321.26 1543.34 2317.78 1546.44 Q2314.31 1549.52 2307.99 1549.52 Q2305.82 1549.52 2303.55 1549.15 Q2301.3 1548.78 2298.9 1548.04 L2298.9 1543.34 Q2300.98 1544.47 2303.2 1545.03 Q2305.42 1545.58 2307.9 1545.58 Q2311.9 1545.58 2314.24 1543.48 Q2316.58 1541.37 2316.58 1537.76 Q2316.58 1534.15 2314.24 1532.04 Q2311.9 1529.94 2307.9 1529.94 Q2306.02 1529.94 2304.15 1530.35 Q2302.3 1530.77 2300.35 1531.65 L2300.35 1514.29 Z" fill="#000000" fill-rule="evenodd" fill-opacity="1" /><polyline clip-path="url(#clip842)" style="stroke:#000000; stroke-linecap:round; stroke-linejoin:round; stroke-width:2; stroke-opacity:0.1; fill:none" points="186.76,1448.48 2352.76,1448.48 "/>
<polyline clip-path="url(#clip842)" style="stroke:#000000; stroke-linecap:round; stroke-linejoin:round; stroke-width:2; stroke-opacity:0.1; fill:none" points="186.76,1247.95 2352.76,1247.95 "/>
<polyline clip-path="url(#clip842)" style="stroke:#000000; stroke-linecap:round; stroke-linejoin:round; stroke-width:2; stroke-opacity:0.1; fill:none" points="186.76,1047.42 2352.76,1047.42 "/>
<polyline clip-path="url(#clip842)" style="stroke:#000000; stroke-linecap:round; stroke-linejoin:round; stroke-width:2; stroke-opacity:0.1; fill:none" points="186.76,846.896 2352.76,846.896 "/>
<polyline clip-path="url(#clip842)" style="stroke:#000000; stroke-linecap:round; stroke-linejoin:round; stroke-width:2; stroke-opacity:0.1; fill:none" points="186.76,646.368 2352.76,646.368 "/>
<polyline clip-path="url(#clip842)" style="stroke:#000000; stroke-linecap:round; stroke-linejoin:round; stroke-width:2; stroke-opacity:0.1; fill:none" points="186.76,445.841 2352.76,445.841 "/>
<polyline clip-path="url(#clip842)" style="stroke:#000000; stroke-linecap:round; stroke-linejoin:round; stroke-width:2; stroke-opacity:0.1; fill:none" points="186.76,245.313 2352.76,245.313 "/>
<polyline clip-path="url(#clip840)" style="stroke:#000000; stroke-linecap:round; stroke-linejoin:round; stroke-width:4; stroke-opacity:1; fill:none" points="186.76,1486.45 186.76,123.472 "/>
<polyline clip-path="url(#clip840)" style="stroke:#000000; stroke-linecap:round; stroke-linejoin:round; stroke-width:4; stroke-opacity:1; fill:none" points="186.76,1448.48 205.658,1448.48 "/>
<polyline clip-path="url(#clip840)" style="stroke:#000000; stroke-linecap:round; stroke-linejoin:round; stroke-width:4; stroke-opacity:1; fill:none" points="186.76,1247.95 205.658,1247.95 "/>
<polyline clip-path="url(#clip840)" style="stroke:#000000; stroke-linecap:round; stroke-linejoin:round; stroke-width:4; stroke-opacity:1; fill:none" points="186.76,1047.42 205.658,1047.42 "/>
<polyline clip-path="url(#clip840)" style="stroke:#000000; stroke-linecap:round; stroke-linejoin:round; stroke-width:4; stroke-opacity:1; fill:none" points="186.76,846.896 205.658,846.896 "/>
<polyline clip-path="url(#clip840)" style="stroke:#000000; stroke-linecap:round; stroke-linejoin:round; stroke-width:4; stroke-opacity:1; fill:none" points="186.76,646.368 205.658,646.368 "/>
<polyline clip-path="url(#clip840)" style="stroke:#000000; stroke-linecap:round; stroke-linejoin:round; stroke-width:4; stroke-opacity:1; fill:none" points="186.76,445.841 205.658,445.841 "/>
<polyline clip-path="url(#clip840)" style="stroke:#000000; stroke-linecap:round; stroke-linejoin:round; stroke-width:4; stroke-opacity:1; fill:none" points="186.76,245.313 205.658,245.313 "/>
<path clip-path="url(#clip840)" d="M63.4226 1434.28 Q59.8115 1434.28 57.9828 1437.84 Q56.1773 1441.38 56.1773 1448.51 Q56.1773 1455.62 57.9828 1459.18 Q59.8115 1462.73 63.4226 1462.73 Q67.0569 1462.73 68.8624 1459.18 Q70.6911 1455.62 70.6911 1448.51 Q70.6911 1441.38 68.8624 1437.84 Q67.0569 1434.28 63.4226 1434.28 M63.4226 1430.57 Q69.2328 1430.57 72.2883 1435.18 Q75.367 1439.76 75.367 1448.51 Q75.367 1457.24 72.2883 1461.85 Q69.2328 1466.43 63.4226 1466.43 Q57.6125 1466.43 54.5338 1461.85 Q51.4782 1457.24 51.4782 1448.51 Q51.4782 1439.76 54.5338 1435.18 Q57.6125 1430.57 63.4226 1430.57 Z" fill="#000000" fill-rule="evenodd" fill-opacity="1" /><path clip-path="url(#clip840)" d="M83.5845 1459.88 L88.4688 1459.88 L88.4688 1465.76 L83.5845 1465.76 L83.5845 1459.88 Z" fill="#000000" fill-rule="evenodd" fill-opacity="1" /><path clip-path="url(#clip840)" d="M108.654 1434.28 Q105.043 1434.28 103.214 1437.84 Q101.409 1441.38 101.409 1448.51 Q101.409 1455.62 103.214 1459.18 Q105.043 1462.73 108.654 1462.73 Q112.288 1462.73 114.094 1459.18 Q115.922 1455.62 115.922 1448.51 Q115.922 1441.38 114.094 1437.84 Q112.288 1434.28 108.654 1434.28 M108.654 1430.57 Q114.464 1430.57 117.52 1435.18 Q120.598 1439.76 120.598 1448.51 Q120.598 1457.24 117.52 1461.85 Q114.464 1466.43 108.654 1466.43 Q102.844 1466.43 99.765 1461.85 Q96.7095 1457.24 96.7095 1448.51 Q96.7095 1439.76 99.765 1435.18 Q102.844 1430.57 108.654 1430.57 Z" fill="#000000" fill-rule="evenodd" fill-opacity="1" /><path clip-path="url(#clip840)" d="M138.816 1434.28 Q135.205 1434.28 133.376 1437.84 Q131.57 1441.38 131.57 1448.51 Q131.57 1455.62 133.376 1459.18 Q135.205 1462.73 138.816 1462.73 Q142.45 1462.73 144.256 1459.18 Q146.084 1455.62 146.084 1448.51 Q146.084 1441.38 144.256 1437.84 Q142.45 1434.28 138.816 1434.28 M138.816 1430.57 Q144.626 1430.57 147.681 1435.18 Q150.76 1439.76 150.76 1448.51 Q150.76 1457.24 147.681 1461.85 Q144.626 1466.43 138.816 1466.43 Q133.006 1466.43 129.927 1461.85 Q126.871 1457.24 126.871 1448.51 Q126.871 1439.76 129.927 1435.18 Q133.006 1430.57 138.816 1430.57 Z" fill="#000000" fill-rule="evenodd" fill-opacity="1" /><path clip-path="url(#clip840)" d="M64.6495 1233.75 Q61.0384 1233.75 59.2097 1237.31 Q57.4041 1240.86 57.4041 1247.99 Q57.4041 1255.09 59.2097 1258.66 Q61.0384 1262.2 64.6495 1262.2 Q68.2837 1262.2 70.0892 1258.66 Q71.9179 1255.09 71.9179 1247.99 Q71.9179 1240.86 70.0892 1237.31 Q68.2837 1233.75 64.6495 1233.75 M64.6495 1230.05 Q70.4596 1230.05 73.5152 1234.65 Q76.5938 1239.24 76.5938 1247.99 Q76.5938 1256.71 73.5152 1261.32 Q70.4596 1265.9 64.6495 1265.9 Q58.8393 1265.9 55.7606 1261.32 Q52.7051 1256.71 52.7051 1247.99 Q52.7051 1239.24 55.7606 1234.65 Q58.8393 1230.05 64.6495 1230.05 Z" fill="#000000" fill-rule="evenodd" fill-opacity="1" /><path clip-path="url(#clip840)" d="M84.8114 1259.35 L89.6956 1259.35 L89.6956 1265.23 L84.8114 1265.23 L84.8114 1259.35 Z" fill="#000000" fill-rule="evenodd" fill-opacity="1" /><path clip-path="url(#clip840)" d="M109.881 1233.75 Q106.27 1233.75 104.441 1237.31 Q102.635 1240.86 102.635 1247.99 Q102.635 1255.09 104.441 1258.66 Q106.27 1262.2 109.881 1262.2 Q113.515 1262.2 115.32 1258.66 Q117.149 1255.09 117.149 1247.99 Q117.149 1240.86 115.32 1237.31 Q113.515 1233.75 109.881 1233.75 M109.881 1230.05 Q115.691 1230.05 118.746 1234.65 Q121.825 1239.24 121.825 1247.99 Q121.825 1256.71 118.746 1261.32 Q115.691 1265.9 109.881 1265.9 Q104.071 1265.9 100.992 1261.32 Q97.9363 1256.71 97.9363 1247.99 Q97.9363 1239.24 100.992 1234.65 Q104.071 1230.05 109.881 1230.05 Z" fill="#000000" fill-rule="evenodd" fill-opacity="1" /><path clip-path="url(#clip840)" d="M130.853 1261.3 L138.492 1261.3 L138.492 1234.93 L130.182 1236.6 L130.182 1232.34 L138.445 1230.67 L143.121 1230.67 L143.121 1261.3 L150.76 1261.3 L150.76 1265.23 L130.853 1265.23 L130.853 1261.3 Z" fill="#000000" fill-rule="evenodd" fill-opacity="1" /><path clip-path="url(#clip840)" d="M65.0198 1033.22 Q61.4087 1033.22 59.58 1036.79 Q57.7745 1040.33 57.7745 1047.46 Q57.7745 1054.56 59.58 1058.13 Q61.4087 1061.67 65.0198 1061.67 Q68.6541 1061.67 70.4596 1058.13 Q72.2883 1054.56 72.2883 1047.46 Q72.2883 1040.33 70.4596 1036.79 Q68.6541 1033.22 65.0198 1033.22 M65.0198 1029.52 Q70.83 1029.52 73.8855 1034.12 Q76.9642 1038.71 76.9642 1047.46 Q76.9642 1056.18 73.8855 1060.79 Q70.83 1065.37 65.0198 1065.37 Q59.2097 1065.37 56.131 1060.79 Q53.0754 1056.18 53.0754 1047.46 Q53.0754 1038.71 56.131 1034.12 Q59.2097 1029.52 65.0198 1029.52 Z" fill="#000000" fill-rule="evenodd" fill-opacity="1" /><path clip-path="url(#clip840)" d="M85.1818 1058.82 L90.066 1058.82 L90.066 1064.7 L85.1818 1064.7 L85.1818 1058.82 Z" fill="#000000" fill-rule="evenodd" fill-opacity="1" /><path clip-path="url(#clip840)" d="M110.251 1033.22 Q106.64 1033.22 104.811 1036.79 Q103.006 1040.33 103.006 1047.46 Q103.006 1054.56 104.811 1058.13 Q106.64 1061.67 110.251 1061.67 Q113.885 1061.67 115.691 1058.13 Q117.52 1054.56 117.52 1047.46 Q117.52 1040.33 115.691 1036.79 Q113.885 1033.22 110.251 1033.22 M110.251 1029.52 Q116.061 1029.52 119.117 1034.12 Q122.195 1038.71 122.195 1047.46 Q122.195 1056.18 119.117 1060.79 Q116.061 1065.37 110.251 1065.37 Q104.441 1065.37 101.362 1060.79 Q98.3067 1056.18 98.3067 1047.46 Q98.3067 1038.71 101.362 1034.12 Q104.441 1029.52 110.251 1029.52 Z" fill="#000000" fill-rule="evenodd" fill-opacity="1" /><path clip-path="url(#clip840)" d="M134.441 1060.77 L150.76 1060.77 L150.76 1064.7 L128.816 1064.7 L128.816 1060.77 Q131.478 1058.01 136.061 1053.38 Q140.668 1048.73 141.848 1047.39 Q144.093 1044.87 144.973 1043.13 Q145.876 1041.37 145.876 1039.68 Q145.876 1036.93 143.931 1035.19 Q142.01 1033.45 138.908 1033.45 Q136.709 1033.45 134.256 1034.22 Q131.825 1034.98 129.047 1036.53 L129.047 1031.81 Q131.871 1030.68 134.325 1030.1 Q136.779 1029.52 138.816 1029.52 Q144.186 1029.52 147.38 1032.2 Q150.575 1034.89 150.575 1039.38 Q150.575 1041.51 149.765 1043.43 Q148.978 1045.33 146.871 1047.92 Q146.293 1048.59 143.191 1051.81 Q140.089 1055 134.441 1060.77 Z" fill="#000000" fill-rule="evenodd" fill-opacity="1" /><path clip-path="url(#clip840)" d="M64.0708 832.695 Q60.4597 832.695 58.631 836.259 Q56.8254 839.801 56.8254 846.931 Q56.8254 854.037 58.631 857.602 Q60.4597 861.143 64.0708 861.143 Q67.705 861.143 69.5105 857.602 Q71.3392 854.037 71.3392 846.931 Q71.3392 839.801 69.5105 836.259 Q67.705 832.695 64.0708 832.695 M64.0708 828.991 Q69.8809 828.991 72.9365 833.597 Q76.0151 838.181 76.0151 846.931 Q76.0151 855.657 72.9365 860.264 Q69.8809 864.847 64.0708 864.847 Q58.2606 864.847 55.1819 860.264 Q52.1264 855.657 52.1264 846.931 Q52.1264 838.181 55.1819 833.597 Q58.2606 828.991 64.0708 828.991 Z" fill="#000000" fill-rule="evenodd" fill-opacity="1" /><path clip-path="url(#clip840)" d="M84.2327 858.296 L89.1169 858.296 L89.1169 864.176 L84.2327 864.176 L84.2327 858.296 Z" fill="#000000" fill-rule="evenodd" fill-opacity="1" /><path clip-path="url(#clip840)" d="M109.302 832.695 Q105.691 832.695 103.862 836.259 Q102.057 839.801 102.057 846.931 Q102.057 854.037 103.862 857.602 Q105.691 861.143 109.302 861.143 Q112.936 861.143 114.742 857.602 Q116.57 854.037 116.57 846.931 Q116.57 839.801 114.742 836.259 Q112.936 832.695 109.302 832.695 M109.302 828.991 Q115.112 828.991 118.168 833.597 Q121.246 838.181 121.246 846.931 Q121.246 855.657 118.168 860.264 Q115.112 864.847 109.302 864.847 Q103.492 864.847 100.413 860.264 Q97.3576 855.657 97.3576 846.931 Q97.3576 838.181 100.413 833.597 Q103.492 828.991 109.302 828.991 Z" fill="#000000" fill-rule="evenodd" fill-opacity="1" /><path clip-path="url(#clip840)" d="M143.631 845.542 Q146.987 846.259 148.862 848.528 Q150.76 850.796 150.76 854.13 Q150.76 859.245 147.242 862.046 Q143.723 864.847 137.242 864.847 Q135.066 864.847 132.751 864.407 Q130.459 863.991 128.006 863.134 L128.006 858.62 Q129.95 859.755 132.265 860.333 Q134.58 860.912 137.103 860.912 Q141.501 860.912 143.793 859.176 Q146.107 857.44 146.107 854.13 Q146.107 851.074 143.955 849.361 Q141.825 847.625 138.006 847.625 L133.978 847.625 L133.978 843.782 L138.191 843.782 Q141.64 843.782 143.468 842.417 Q145.297 841.028 145.297 838.435 Q145.297 835.773 143.399 834.361 Q141.524 832.926 138.006 832.926 Q136.084 832.926 133.885 833.343 Q131.686 833.759 129.047 834.639 L129.047 830.472 Q131.709 829.732 134.024 829.361 Q136.362 828.991 138.422 828.991 Q143.746 828.991 146.848 831.421 Q149.95 833.829 149.95 837.949 Q149.95 840.819 148.306 842.81 Q146.663 844.778 143.631 845.542 Z" fill="#000000" fill-rule="evenodd" fill-opacity="1" /><path clip-path="url(#clip840)" d="M62.9365 632.167 Q59.3254 632.167 57.4967 635.732 Q55.6912 639.273 55.6912 646.403 Q55.6912 653.509 57.4967 657.074 Q59.3254 660.616 62.9365 660.616 Q66.5707 660.616 68.3763 657.074 Q70.205 653.509 70.205 646.403 Q70.205 639.273 68.3763 635.732 Q66.5707 632.167 62.9365 632.167 M62.9365 628.463 Q68.7467 628.463 71.8022 633.07 Q74.8809 637.653 74.8809 646.403 Q74.8809 655.13 71.8022 659.736 Q68.7467 664.32 62.9365 664.32 Q57.1264 664.32 54.0477 659.736 Q50.9921 655.13 50.9921 646.403 Q50.9921 637.653 54.0477 633.07 Q57.1264 628.463 62.9365 628.463 Z" fill="#000000" fill-rule="evenodd" fill-opacity="1" /><path clip-path="url(#clip840)" d="M83.0984 657.769 L87.9827 657.769 L87.9827 663.648 L83.0984 663.648 L83.0984 657.769 Z" fill="#000000" fill-rule="evenodd" fill-opacity="1" /><path clip-path="url(#clip840)" d="M108.168 632.167 Q104.557 632.167 102.728 635.732 Q100.922 639.273 100.922 646.403 Q100.922 653.509 102.728 657.074 Q104.557 660.616 108.168 660.616 Q111.802 660.616 113.608 657.074 Q115.436 653.509 115.436 646.403 Q115.436 639.273 113.608 635.732 Q111.802 632.167 108.168 632.167 M108.168 628.463 Q113.978 628.463 117.033 633.07 Q120.112 637.653 120.112 646.403 Q120.112 655.13 117.033 659.736 Q113.978 664.32 108.168 664.32 Q102.358 664.32 99.2789 659.736 Q96.2234 655.13 96.2234 646.403 Q96.2234 637.653 99.2789 633.07 Q102.358 628.463 108.168 628.463 Z" fill="#000000" fill-rule="evenodd" fill-opacity="1" /><path clip-path="url(#clip840)" d="M141.177 633.162 L129.371 651.611 L141.177 651.611 L141.177 633.162 M139.95 629.088 L145.83 629.088 L145.83 651.611 L150.76 651.611 L150.76 655.5 L145.83 655.5 L145.83 663.648 L141.177 663.648 L141.177 655.5 L125.575 655.5 L125.575 650.986 L139.95 629.088 Z" fill="#000000" fill-rule="evenodd" fill-opacity="1" /><path clip-path="url(#clip840)" d="M64.418 431.639 Q60.8069 431.639 58.9782 435.204 Q57.1726 438.746 57.1726 445.875 Q57.1726 452.982 58.9782 456.547 Q60.8069 460.088 64.418 460.088 Q68.0522 460.088 69.8578 456.547 Q71.6865 452.982 71.6865 445.875 Q71.6865 438.746 69.8578 435.204 Q68.0522 431.639 64.418 431.639 M64.418 427.936 Q70.2281 427.936 73.2837 432.542 Q76.3624 437.125 76.3624 445.875 Q76.3624 454.602 73.2837 459.209 Q70.2281 463.792 64.418 463.792 Q58.6078 463.792 55.5291 459.209 Q52.4736 454.602 52.4736 445.875 Q52.4736 437.125 55.5291 432.542 Q58.6078 427.936 64.418 427.936 Z" fill="#000000" fill-rule="evenodd" fill-opacity="1" /><path clip-path="url(#clip840)" d="M84.5799 457.241 L89.4641 457.241 L89.4641 463.121 L84.5799 463.121 L84.5799 457.241 Z" fill="#000000" fill-rule="evenodd" fill-opacity="1" /><path clip-path="url(#clip840)" d="M109.649 431.639 Q106.038 431.639 104.209 435.204 Q102.404 438.746 102.404 445.875 Q102.404 452.982 104.209 456.547 Q106.038 460.088 109.649 460.088 Q113.283 460.088 115.089 456.547 Q116.918 452.982 116.918 445.875 Q116.918 438.746 115.089 435.204 Q113.283 431.639 109.649 431.639 M109.649 427.936 Q115.459 427.936 118.515 432.542 Q121.594 437.125 121.594 445.875 Q121.594 454.602 118.515 459.209 Q115.459 463.792 109.649 463.792 Q103.839 463.792 100.76 459.209 Q97.7048 454.602 97.7048 445.875 Q97.7048 437.125 100.76 432.542 Q103.839 427.936 109.649 427.936 Z" fill="#000000" fill-rule="evenodd" fill-opacity="1" /><path clip-path="url(#clip840)" d="M129.857 428.561 L148.214 428.561 L148.214 432.496 L134.14 432.496 L134.14 440.968 Q135.158 440.621 136.177 440.459 Q137.195 440.274 138.214 440.274 Q144.001 440.274 147.38 443.445 Q150.76 446.616 150.76 452.033 Q150.76 457.611 147.288 460.713 Q143.816 463.792 137.496 463.792 Q135.32 463.792 133.052 463.422 Q130.807 463.051 128.399 462.31 L128.399 457.611 Q130.482 458.746 132.705 459.301 Q134.927 459.857 137.404 459.857 Q141.408 459.857 143.746 457.75 Q146.084 455.644 146.084 452.033 Q146.084 448.422 143.746 446.315 Q141.408 444.209 137.404 444.209 Q135.529 444.209 133.654 444.625 Q131.802 445.042 129.857 445.922 L129.857 428.561 Z" fill="#000000" fill-rule="evenodd" fill-opacity="1" /><path clip-path="url(#clip840)" d="M63.2606 231.112 Q59.6495 231.112 57.8208 234.677 Q56.0152 238.218 56.0152 245.348 Q56.0152 252.454 57.8208 256.019 Q59.6495 259.561 63.2606 259.561 Q66.8948 259.561 68.7004 256.019 Q70.5291 252.454 70.5291 245.348 Q70.5291 238.218 68.7004 234.677 Q66.8948 231.112 63.2606 231.112 M63.2606 227.408 Q69.0707 227.408 72.1263 232.015 Q75.205 236.598 75.205 245.348 Q75.205 254.075 72.1263 258.681 Q69.0707 263.264 63.2606 263.264 Q57.4504 263.264 54.3717 258.681 Q51.3162 254.075 51.3162 245.348 Q51.3162 236.598 54.3717 232.015 Q57.4504 227.408 63.2606 227.408 Z" fill="#000000" fill-rule="evenodd" fill-opacity="1" /><path clip-path="url(#clip840)" d="M83.4225 256.713 L88.3067 256.713 L88.3067 262.593 L83.4225 262.593 L83.4225 256.713 Z" fill="#000000" fill-rule="evenodd" fill-opacity="1" /><path clip-path="url(#clip840)" d="M108.492 231.112 Q104.881 231.112 103.052 234.677 Q101.246 238.218 101.246 245.348 Q101.246 252.454 103.052 256.019 Q104.881 259.561 108.492 259.561 Q112.126 259.561 113.932 256.019 Q115.76 252.454 115.76 245.348 Q115.76 238.218 113.932 234.677 Q112.126 231.112 108.492 231.112 M108.492 227.408 Q114.302 227.408 117.358 232.015 Q120.436 236.598 120.436 245.348 Q120.436 254.075 117.358 258.681 Q114.302 263.264 108.492 263.264 Q102.682 263.264 99.603 258.681 Q96.5474 254.075 96.5474 245.348 Q96.5474 236.598 99.603 232.015 Q102.682 227.408 108.492 227.408 Z" fill="#000000" fill-rule="evenodd" fill-opacity="1" /><path clip-path="url(#clip840)" d="M139.232 243.45 Q136.084 243.45 134.232 245.602 Q132.404 247.755 132.404 251.505 Q132.404 255.232 134.232 257.408 Q136.084 259.561 139.232 259.561 Q142.381 259.561 144.209 257.408 Q146.061 255.232 146.061 251.505 Q146.061 247.755 144.209 245.602 Q142.381 243.45 139.232 243.45 M148.515 228.797 L148.515 233.056 Q146.756 232.223 144.95 231.783 Q143.168 231.343 141.408 231.343 Q136.779 231.343 134.325 234.468 Q131.894 237.593 131.547 243.913 Q132.913 241.899 134.973 240.834 Q137.033 239.746 139.51 239.746 Q144.718 239.746 147.728 242.917 Q150.76 246.065 150.76 251.505 Q150.76 256.829 147.612 260.047 Q144.464 263.264 139.232 263.264 Q133.237 263.264 130.066 258.681 Q126.894 254.075 126.894 245.348 Q126.894 237.153 130.783 232.292 Q134.672 227.408 141.223 227.408 Q142.982 227.408 144.765 227.755 Q146.57 228.103 148.515 228.797 Z" fill="#000000" fill-rule="evenodd" fill-opacity="1" /><path clip-path="url(#clip840)" d="M1193.78 12.096 L1202.01 12.096 L1202.01 48.8377 Q1202.01 58.5599 1205.53 62.8538 Q1209.06 67.1073 1216.95 67.1073 Q1224.81 67.1073 1228.34 62.8538 Q1231.86 58.5599 1231.86 48.8377 L1231.86 12.096 L1240.09 12.096 L1240.09 49.8504 Q1240.09 61.6791 1234.21 67.7149 Q1228.38 73.7508 1216.95 73.7508 Q1205.49 73.7508 1199.62 67.7149 Q1193.78 61.6791 1193.78 49.8504 L1193.78 12.096 Z" fill="#000000" fill-rule="evenodd" fill-opacity="1" /><path clip-path="url(#clip840)" d="M1291.69 14.0809 L1291.69 22.0612 Q1287.04 19.8332 1282.9 18.7395 Q1278.77 17.6457 1274.92 17.6457 Q1268.24 17.6457 1264.59 20.2383 Q1260.99 22.8309 1260.99 27.611 Q1260.99 31.6214 1263.38 33.6873 Q1265.81 35.7128 1272.53 36.9686 L1277.47 37.9813 Q1286.63 39.7232 1290.96 44.1387 Q1295.34 48.5136 1295.34 55.8863 Q1295.34 64.6767 1289.43 69.2137 Q1283.55 73.7508 1272.17 73.7508 Q1267.87 73.7508 1263.01 72.7785 Q1258.19 71.8063 1253.01 69.9024 L1253.01 61.4765 Q1257.99 64.2716 1262.77 65.6895 Q1267.55 67.1073 1272.17 67.1073 Q1279.18 67.1073 1282.98 64.3527 Q1286.79 61.598 1286.79 56.4939 Q1286.79 52.0379 1284.04 49.5264 Q1281.32 47.0148 1275.08 45.759 L1270.1 44.7868 Q1260.95 42.9639 1256.86 39.075 Q1252.76 35.1862 1252.76 28.2591 Q1252.76 20.2383 1258.4 15.6203 Q1264.07 11.0023 1273.99 11.0023 Q1278.24 11.0023 1282.66 11.7719 Q1287.08 12.5416 1291.69 14.0809 Z" fill="#000000" fill-rule="evenodd" fill-opacity="1" /><path clip-path="url(#clip840)" d="M1308.1 12.096 L1316.28 12.096 L1316.28 65.6895 L1345.73 65.6895 L1345.73 72.576 L1308.1 72.576 L1308.1 12.096 Z" fill="#000000" fill-rule="evenodd" fill-opacity="1" /><polyline clip-path="url(#clip842)" style="stroke:#009af9; stroke-linecap:round; stroke-linejoin:round; stroke-width:4; stroke-opacity:1; fill:none" points="248.062,196.845 252.149,205.161 256.235,221.246 260.322,245.065 264.409,276.331 268.496,314.642 272.583,359.501 276.669,410.325 280.756,466.456 284.843,527.167 288.93,591.671 293.017,659.136 297.103,728.689 301.19,799.433 305.277,870.453 309.364,940.836 313.45,1009.68 317.537,1076.08 321.624,1139.21 325.711,1198.24 329.798,1252.43 333.884,1301.07 337.971,1343.54 342.058,1379.31 346.145,1407.92 350.231,1429.01 354.318,1442.31 358.405,1447.66 362.492,1445 366.579,1434.37 370.665,1415.91 374.752,1389.87 378.839,1356.59 382.926,1316.51 387.013,1270.14 391.099,1218.1 395.186,1161.05 399.273,1099.74 403.36,1034.95 407.446,967.536 411.533,898.358 415.62,828.314 419.707,758.309 423.794,689.245 427.88,622.015 431.967,557.485 436.054,496.49 440.141,439.814 444.228,388.19 448.314,342.282 452.401,302.682 456.488,269.9 460.575,244.358 464.661,226.385 468.748,216.211 472.835,213.967 476.922,219.679 481.009,233.274 485.095,254.575 489.182,283.304 493.269,319.091 497.356,361.472 501.443,409.9 505.529,463.747 509.616,522.32 513.703,584.861 517.79,650.563 521.876,718.579 525.963,788.032 530.05,858.026 534.137,927.66 538.224,996.037 542.31,1062.28 546.397,1125.53 550.484,1184.98 554.571,1239.87 558.658,1289.5 562.744,1333.22 566.831,1370.48 570.918,1400.8 575.005,1423.81 579.091,1439.21 583.178,1446.8 587.265,1446.51 591.352,1438.33 595.439,1422.38 599.525,1398.87 603.612,1368.12 607.699,1330.52 611.786,1286.56 615.872,1236.82 619.959,1181.95 624.046,1122.65 628.133,1059.69 632.22,993.895 636.306,926.109 640.393,857.209 644.48,788.087 648.567,719.635 652.654,652.737 656.74,588.257 660.827,527.026 664.914,469.835 669.001,417.421 673.087,370.461 677.174,329.559 681.261,295.242 685.348,267.953 689.435,248.042 693.521,235.767 697.608,231.284 701.695,234.65 705.782,245.821 709.869,264.651 713.955,290.898 718.042,324.22 722.129,364.187 726.216,410.282 730.302,461.909 734.389,518.401 738.476,579.028 742.563,643.008 746.65,709.514 750.736,777.688 754.823,846.65 758.91,915.512 762.997,983.385 767.084,1049.4 771.17,1112.7 775.257,1172.47 779.344,1227.95 783.431,1278.42 787.517,1323.25 791.604,1361.84 795.691,1393.72 799.778,1418.48 803.865,1435.81 807.951,1445.48 812.038,1447.39 816.125,1441.51 820.212,1427.92 824.298,1406.82 828.385,1378.48 832.472,1343.27 836.559,1301.65 840.646,1254.17 844.732,1201.45 848.819,1144.16 852.906,1083.05 856.993,1018.91 861.08,952.58 865.166,884.906 869.253,816.766 873.34,749.04 877.427,682.6 881.513,618.303 885.6,556.978 889.687,499.416 893.774,446.356 897.861,398.483 901.947,356.411 906.034,320.684 910.121,291.76 914.208,270.011 918.295,255.717 922.381,249.061 926.468,250.129 930.555,258.907 934.642,275.281 938.728,299.039 942.815,329.876 946.902,367.394 950.989,411.108 955.076,460.455 959.162,514.799 963.249,573.438 967.336,635.615 971.423,700.53 975.51,767.344 979.596,835.196 983.683,903.211 987.77,970.511 991.857,1036.23 995.943,1099.52 1000.03,1159.56 1004.12,1215.59 1008.2,1266.88 1012.29,1312.78 1016.38,1352.69 1020.46,1386.11 1024.55,1412.6 1028.64,1431.84 1032.72,1443.57 1036.81,1447.66 1040.9,1444.06 1044.98,1432.82 1049.07,1414.09 1053.16,1388.13 1057.25,1355.28 1061.33,1315.96 1065.42,1270.69 1069.51,1220.06 1073.59,1164.74 1077.68,1105.44 1081.77,1042.92 1085.85,978.011 1089.94,911.539 1094.03,844.369 1098.11,777.368 1102.2,711.402 1106.29,647.321 1110.37,585.952 1114.46,528.085 1118.55,474.465 1122.63,425.782 1126.72,382.66 1130.81,345.655 1134.89,315.241 1138.98,291.808 1143.07,275.655 1147.15,266.989 1151.24,265.92 1155.33,272.459 1159.41,286.522 1163.5,307.926 1167.59,336.393 1171.68,371.557 1175.76,412.965 1179.85,460.082 1183.94,512.301 1188.02,568.95 1192.11,629.298 1196.2,692.569 1200.28,757.948 1204.37,824.593 1208.46,891.646 1212.54,958.244 1216.63,1023.53 1220.72,1086.66 1224.8,1146.83 1228.89,1203.26 1232.98,1255.22 1237.06,1302.05 1241.15,1343.15 1245.24,1377.99 1249.32,1406.13 1253.41,1427.2 1257.5,1440.94 1261.58,1447.18 1265.67,1445.83 1269.76,1436.94 1273.84,1420.61 1277.93,1397.06 1282.02,1366.61 1286.11,1329.64 1290.19,1286.66 1294.28,1238.2 1298.37,1184.92 1302.45,1127.49 1306.54,1066.67 1310.63,1003.24 1314.71,938.029 1318.8,871.879 1322.89,805.646 1326.97,740.187 1331.06,676.347 1335.15,614.95 1339.23,556.788 1343.32,502.612 1347.41,453.118 1351.49,408.943 1355.58,370.656 1359.67,338.748 1363.75,313.628 1367.84,295.619 1371.93,284.948 1376.01,281.753 1380.1,286.071 1384.19,297.846 1388.27,316.923 1392.36,343.054 1396.45,375.903 1400.54,415.044 1404.62,459.971 1408.71,510.106 1412.8,564.802 1416.88,623.354 1420.97,685.007 1425.06,748.968 1429.14,814.414 1433.23,880.501 1437.32,946.38 1441.4,1011.2 1445.49,1074.13 1449.58,1134.37 1453.66,1191.13 1457.75,1243.68 1461.84,1291.37 1465.92,1333.56 1470.01,1369.72 1474.1,1399.39 1478.18,1422.19 1482.27,1437.84 1486.36,1446.12 1490.44,1446.95 1494.53,1440.31 1498.62,1426.3 1502.7,1405.1 1506.79,1377 1510.88,1342.35 1514.97,1301.62 1519.05,1255.33 1523.14,1204.09 1527.23,1148.56 1531.31,1089.47 1535.4,1027.57 1539.49,963.677 1543.57,898.613 1547.66,833.222 1551.75,768.35 1555.83,704.835 1559.92,643.498 1564.01,585.131 1568.09,530.486 1572.18,480.27 1576.27,435.127 1580.35,395.641 1584.44,362.318 1588.53,335.586 1592.61,315.788 1596.7,303.177 1600.79,297.913 1604.87,300.063 1608.96,309.595 1613.05,326.385 1617.13,350.215 1621.22,380.774 1625.31,417.668 1629.4,460.419 1633.48,508.475 1637.57,561.215 1641.66,617.961 1645.74,677.978 1649.83,740.496 1653.92,804.707 1658,869.786 1662.09,934.894 1666.18,999.194 1670.26,1061.86 1674.35,1122.09 1678.44,1179.1 1682.52,1232.17 1686.61,1280.61 1690.7,1323.8 1694.78,1361.2 1698.87,1392.31 1702.96,1416.76 1707.04,1434.22 1711.13,1444.47 1715.22,1447.4 1719.3,1442.96 1723.39,1431.22 1727.48,1412.33 1731.56,1386.55 1735.65,1354.21 1739.74,1315.74 1743.83,1271.63 1747.91,1222.47 1752,1168.88 1756.09,1111.56 1760.17,1051.26 1764.26,988.755 1768.35,924.859 1772.43,860.396 1776.52,796.201 1780.61,733.102 1784.69,671.915 1788.78,613.43 1792.87,558.402 1796.95,507.54 1801.04,461.501 1805.13,420.876 1809.21,386.19 1813.3,357.887 1817.39,336.333 1821.47,321.803 1825.56,314.483 1829.65,314.465 1833.73,321.749 1837.82,336.237 1841.91,357.743 1845.99,385.986 1850.08,420.601 1854.17,461.14 1858.25,507.08 1862.34,557.827 1866.43,612.726 1870.52,671.069 1874.6,732.104 1878.69,795.043 1882.78,859.077 1886.86,923.379 1890.95,987.124 1895.04,1049.49 1899.12,1109.67 1903.21,1166.9 1907.3,1220.45 1911.38,1269.61 1915.47,1313.77 1919.56,1352.36 1923.64,1384.88 1927.73,1410.92 1931.82,1430.15 1935.9,1442.32 1939.99,1447.3 1944.08,1445 1948.16,1435.48 1952.25,1418.86 1956.34,1395.36 1960.42,1365.28 1964.51,1329.03 1968.6,1287.07 1972.68,1239.95 1976.77,1188.29 1980.86,1132.74 1984.95,1074.04 1989.03,1012.95 1993.12,950.247 1997.21,886.753 2001.29,823.286 2005.38,760.666 2009.47,699.704 2013.55,641.186 2017.64,585.867 2021.73,534.46 2025.81,487.63 2029.9,445.978 2033.99,410.042 2038.07,380.284 2042.16,357.086 2046.25,340.746 2050.33,331.473 2054.42,329.385 2058.51,334.507 2062.59,346.772 2066.68,366.019 2070.77,391.999 2074.85,424.375 2078.94,462.727 2083.03,506.561 2087.11,555.311 2091.2,608.345 2095.29,664.981 2099.38,724.488 2103.46,786.098 2107.55,849.017 2111.64,912.436 2115.72,975.536 2119.81,1037.51 2123.9,1097.55 2127.98,1154.9 2132.07,1208.81 2136.16,1258.59 2140.24,1303.61 2144.33,1343.29 2148.42,1377.12 2152.5,1404.67 2156.59,1425.59 2160.68,1439.62 2164.76,1446.57 2168.85,1446.38 2172.94,1439.03 2177.02,1424.64 2181.11,1403.4 2185.2,1375.59 2189.28,1341.56 2193.37,1301.77 2197.46,1256.73 2201.54,1207.02 2205.63,1153.3 2209.72,1096.25 2213.81,1036.63 2217.89,975.189 2221.98,912.734 2226.07,850.071 2230.15,788.008 2234.24,727.348 2238.33,668.873 2242.41,613.337 2246.5,561.457 2250.59,513.902 2254.67,471.284 2258.76,434.153 2262.85,402.987 2266.93,378.185 2271.02,360.068 2275.11,348.868 2279.19,344.728 2283.28,347.699 2287.37,357.743 2291.45,374.729 "/>
<polyline clip-path="url(#clip842)" style="stroke:#e26f46; stroke-linecap:round; stroke-linejoin:round; stroke-width:4; stroke-opacity:1; fill:none" points="248.062,1444.43 252.149,1432.34 256.235,1412.38 260.322,1384.81 264.409,1350 268.496,1308.4 272.583,1260.56 276.669,1207.09 280.756,1148.71 284.843,1086.15 288.93,1020.25 293.017,951.846 297.103,881.836 301.19,811.125 305.277,740.627 309.364,671.256 313.45,603.906 317.537,539.448 321.624,478.714 325.711,422.485 329.798,371.487 333.884,326.374 337.971,287.726 342.058,256.038 346.145,231.718 350.231,215.073 354.318,206.317 358.405,205.559 362.492,212.805 366.579,227.96 370.665,250.824 374.752,281.101 378.839,318.399 382.926,362.236 387.013,412.044 391.099,467.183 395.186,526.94 399.273,590.545 403.36,657.18 407.446,725.987 411.533,796.079 415.62,866.556 419.707,936.511 423.794,1005.04 427.88,1071.28 431.967,1134.36 436.054,1193.47 440.141,1247.87 444.228,1296.84 448.314,1339.77 452.401,1376.1 456.488,1405.38 460.575,1427.22 464.661,1441.35 468.748,1447.59 472.835,1445.87 476.922,1436.22 481.009,1418.75 485.095,1393.72 489.182,1361.44 493.269,1322.33 497.356,1276.91 501.443,1225.77 505.529,1169.57 509.616,1109.04 513.703,1044.97 517.79,978.192 521.876,909.567 525.963,839.986 530.05,770.351 534.137,701.561 538.224,634.508 542.31,570.057 546.397,509.041 550.484,452.248 554.571,400.41 558.658,354.195 562.744,314.197 566.831,280.932 570.918,254.825 575.005,236.212 579.091,225.329 583.178,222.313 587.265,227.202 591.352,239.929 595.439,260.327 599.525,288.13 603.612,322.977 607.699,364.418 611.786,411.916 615.872,464.857 619.959,522.559 624.046,584.277 628.133,649.216 632.22,716.539 636.306,785.38 640.393,854.853 644.48,924.065 648.567,992.126 652.654,1058.16 656.74,1121.32 660.827,1180.8 664.914,1235.83 669.001,1285.71 673.087,1329.8 677.174,1367.54 681.261,1398.43 685.348,1422.1 689.435,1438.23 693.521,1446.63 697.608,1447.2 701.695,1439.92 705.782,1424.9 709.869,1402.34 713.955,1372.54 718.042,1335.88 722.129,1292.84 726.216,1243.98 730.302,1189.94 734.389,1131.42 738.476,1069.18 742.563,1004.03 746.65,936.805 750.736,868.388 754.823,799.661 758.91,731.515 762.997,664.83 767.084,600.471 771.17,539.268 775.257,482.012 779.344,429.442 783.431,382.236 787.517,341.002 791.604,306.27 795.691,278.486 799.778,258.007 803.865,245.092 807.951,239.905 812.038,242.51 816.125,252.87 820.212,270.846 824.298,296.204 828.385,328.613 832.472,367.652 836.559,412.817 840.646,463.521 844.732,519.111 848.819,578.87 852.906,642.025 856.993,707.766 861.08,775.244 865.166,843.593 869.253,911.934 873.34,979.389 877.427,1045.09 881.513,1108.2 885.6,1167.91 889.687,1223.45 893.774,1274.11 897.861,1319.24 901.947,1358.27 906.034,1390.69 910.121,1416.11 914.208,1434.18 918.295,1444.68 922.381,1447.49 926.468,1442.56 930.555,1429.97 934.642,1409.89 938.728,1382.57 942.815,1348.37 946.902,1307.74 950.989,1261.21 955.076,1209.37 959.162,1152.9 963.249,1092.53 967.336,1029.05 971.423,963.274 975.51,896.06 979.596,828.276 983.683,760.801 987.77,694.509 991.857,630.259 995.943,568.881 1000.03,511.172 1004.12,457.876 1008.2,409.684 1012.29,367.217 1016.38,331.025 1020.46,301.572 1024.55,279.24 1028.64,264.313 1032.72,256.982 1036.81,257.339 1040.9,265.376 1044.98,280.985 1049.07,303.963 1053.16,334.008 1057.25,370.728 1061.33,413.648 1065.42,462.209 1069.51,515.783 1073.59,573.677 1077.68,635.142 1081.77,699.384 1085.85,765.576 1089.94,832.863 1094.03,900.381 1098.11,967.261 1102.2,1032.64 1106.29,1095.69 1110.37,1155.59 1114.46,1211.58 1118.55,1262.94 1122.63,1309.02 1126.72,1349.22 1130.81,1383.04 1134.89,1410.05 1138.98,1429.9 1143.07,1442.35 1147.15,1447.23 1151.24,1444.5 1155.33,1434.19 1159.41,1416.45 1163.5,1391.5 1167.59,1359.67 1171.68,1321.37 1175.76,1277.11 1179.85,1227.46 1183.94,1173.05 1188.02,1114.6 1192.11,1052.87 1196.2,988.642 1200.28,922.758 1204.37,856.068 1208.46,789.433 1212.54,723.717 1216.63,659.768 1220.72,598.414 1224.8,540.447 1228.89,486.618 1232.98,437.621 1237.06,394.089 1241.15,356.585 1245.24,325.594 1249.32,301.513 1253.41,284.655 1257.5,275.234 1261.58,273.372 1265.67,279.091 1269.76,292.315 1273.84,312.87 1277.93,340.491 1282.02,374.816 1286.11,415.402 1290.19,461.722 1294.28,513.176 1298.37,569.099 1302.45,628.767 1306.54,691.41 1310.63,756.22 1314.71,822.36 1318.8,888.978 1322.89,955.216 1326.97,1020.22 1331.06,1083.16 1335.15,1143.22 1339.23,1199.64 1343.32,1251.69 1347.41,1298.7 1351.49,1340.08 1355.58,1375.29 1359.67,1403.89 1363.75,1425.52 1367.84,1439.9 1371.93,1446.85 1376.01,1446.3 1380.1,1438.24 1384.19,1422.8 1388.27,1400.18 1392.36,1370.67 1396.45,1334.66 1400.54,1292.62 1404.62,1245.09 1408.71,1192.7 1412.8,1136.11 1416.88,1076.06 1420.97,1013.34 1425.06,948.74 1429.14,883.111 1433.23,817.295 1437.32,752.145 1441.4,688.502 1445.49,627.188 1449.58,568.995 1453.66,514.676 1457.75,464.931 1461.84,420.402 1465.92,381.665 1470.01,349.22 1474.1,323.484 1478.18,304.789 1482.27,293.376 1486.36,289.39 1490.44,292.882 1494.53,303.806 1498.62,322.019 1502.7,347.283 1506.79,379.272 1510.88,417.57 1514.97,461.681 1519.05,511.036 1523.14,564.995 1527.23,622.861 1531.31,683.886 1535.4,747.283 1539.49,812.234 1543.57,877.901 1547.66,943.439 1551.75,1008 1555.83,1070.76 1559.92,1130.91 1564.01,1187.68 1568.09,1240.33 1572.18,1288.2 1576.27,1330.67 1580.35,1367.2 1584.44,1397.32 1588.53,1420.65 1592.61,1436.9 1596.7,1445.86 1600.79,1447.42 1604.87,1441.58 1608.96,1428.4 1613.05,1408.07 1617.13,1380.86 1621.22,1347.12 1625.31,1307.29 1629.4,1261.9 1633.48,1211.52 1637.57,1156.81 1641.66,1098.49 1645.74,1037.31 1649.83,974.062 1653.92,909.56 1658,844.641 1662.09,780.143 1666.18,716.9 1670.26,655.728 1674.35,597.417 1678.44,542.72 1682.52,492.341 1686.61,446.931 1690.7,407.075 1694.78,373.285 1698.87,345.998 1702.96,325.564 1707.04,312.244 1711.13,306.21 1715.22,307.538 1719.3,316.209 1723.39,332.11 1727.48,355.034 1731.56,384.684 1735.65,420.675 1739.74,462.543 1743.83,509.746 1747.91,561.675 1752,617.659 1756.09,676.976 1760.17,738.861 1764.26,802.516 1768.35,867.121 1772.43,931.844 1776.52,995.853 1780.61,1058.32 1784.69,1118.45 1788.78,1175.47 1792.87,1228.64 1796.95,1277.28 1801.04,1320.77 1805.13,1358.55 1809.21,1390.14 1813.3,1415.15 1817.39,1433.24 1821.47,1444.19 1825.56,1447.87 1829.65,1444.24 1833.73,1433.34 1837.82,1415.32 1841.91,1390.43 1845.99,1358.98 1850.08,1321.38 1854.17,1278.14 1858.25,1229.8 1862.34,1177 1866.43,1120.41 1870.52,1060.79 1874.6,998.885 1878.69,935.512 1882.78,871.488 1886.86,807.64 1890.95,744.793 1895.04,683.76 1899.12,625.329 1903.21,570.255 1907.3,519.249 1911.38,472.968 1915.47,432.009 1919.56,396.9 1923.64,368.093 1927.73,345.958 1931.82,330.78 1935.9,322.752 1939.99,321.976 1944.08,328.461 1948.16,342.121 1952.25,362.778 1956.34,390.163 1960.42,423.921 1964.51,463.616 1968.6,508.734 1972.68,558.692 1976.77,612.844 1980.86,670.491 1984.95,730.891 1989.03,793.264 1993.12,856.807 1997.21,920.7 2001.29,984.123 2005.38,1046.26 2009.47,1106.31 2013.55,1163.5 2017.64,1217.1 2021.73,1266.42 2025.81,1310.83 2029.9,1349.76 2033.99,1382.72 2038.07,1409.28 2042.16,1429.1 2046.25,1441.94 2050.33,1447.64 2054.42,1446.12 2058.51,1437.42 2062.59,1421.65 2066.68,1399.02 2070.77,1369.82 2074.85,1334.44 2078.94,1293.34 2083.03,1247.06 2087.11,1196.19 2091.2,1141.4 2095.29,1083.4 2099.38,1022.93 2103.46,960.787 2107.55,897.769 2111.64,834.691 2115.72,772.37 2119.81,711.611 2123.9,653.199 2127.98,597.888 2132.07,546.392 2136.16,499.374 2140.24,457.441 2144.33,421.132 2148.42,390.915 2152.5,367.179 2156.59,350.226 2160.68,340.275 2164.76,337.45 2168.85,341.788 2172.94,353.229 2177.02,371.625 2181.11,396.735 2185.2,428.234 2189.28,465.714 2193.37,508.691 2197.46,556.609 2201.54,608.851 2205.63,664.741 2209.72,723.56 2213.81,784.549 2217.89,846.924 2221.98,909.88 2226.07,972.609 2230.15,1034.3 2234.24,1094.17 2238.33,1151.44 2242.41,1205.39 2246.5,1255.3 2250.59,1300.56 2254.67,1340.57 2258.76,1374.83 2262.85,1402.9 2266.93,1424.42 2271.02,1439.11 2275.11,1446.8 2279.19,1447.39 2283.28,1440.88 2287.37,1427.35 2291.45,1406.98 "/>
<polyline clip-path="url(#clip842)" style="stroke:#3da44d; stroke-linecap:round; stroke-linejoin:round; stroke-width:4; stroke-opacity:1; fill:none" points="248.062,192.792 252.149,189.018 256.235,185.144 260.322,181.397 264.409,177.854 268.496,174.566 272.583,171.581 276.669,168.94 280.756,166.683 284.843,164.84 288.93,163.44 293.017,162.504 297.103,162.047 301.19,162.079 305.277,162.602 309.364,163.614 313.45,165.103 317.537,167.055 321.624,169.446 325.711,172.251 329.798,175.435 333.884,178.962 337.971,182.79 342.058,186.872 346.145,191.161 350.231,195.605 354.318,200.15 358.405,204.743 362.492,209.328 366.579,213.851 370.665,218.257 374.752,222.495 378.839,226.514 382.926,230.267 387.013,233.71 391.099,236.803 395.186,239.511 399.273,241.803 403.36,243.654 407.446,245.044 411.533,245.959 415.62,246.392 419.707,246.341 423.794,245.811 427.88,244.813 431.967,243.362 436.054,241.483 440.141,239.202 444.228,236.553 448.314,233.574 452.401,230.307 456.488,226.799 460.575,223.097 464.661,219.254 468.748,215.323 472.835,211.358 476.922,207.416 481.009,203.551 485.095,199.816 489.182,196.264 493.269,192.945 497.356,189.907 501.443,187.191 505.529,184.839 509.616,182.884 513.703,181.355 517.79,180.277 521.876,179.668 525.963,179.54 530.05,179.898 534.137,180.743 538.224,182.066 542.31,183.856 546.397,186.094 550.484,188.753 554.571,191.804 558.658,195.211 562.744,198.935 566.831,202.93 570.918,207.15 575.005,211.544 579.091,216.058 583.178,220.638 587.265,225.23 591.352,229.778 595.439,234.226 599.525,238.523 603.612,242.615 607.699,246.455 611.786,249.998 615.872,253.201 619.959,256.028 624.046,258.446 628.133,260.429 632.22,261.956 636.306,263.01 640.393,263.584 644.48,263.674 648.567,263.283 652.654,262.42 656.74,261.103 660.827,259.351 664.914,257.191 669.001,254.657 673.087,251.785 677.174,248.617 681.261,245.196 685.348,241.573 689.435,237.798 693.521,233.923 697.608,230.003 701.695,226.092 705.782,222.246 709.869,218.517 713.955,214.957 718.042,211.617 722.129,208.544 726.216,205.782 730.302,203.369 734.389,201.341 738.476,199.728 742.563,198.555 746.65,197.84 750.736,197.597 754.823,197.833 758.91,198.548 762.997,199.737 767.084,201.388 771.17,203.485 775.257,206.002 779.344,208.912 783.431,212.181 787.517,215.769 791.604,219.635 795.691,223.733 799.778,228.012 803.865,232.422 807.951,236.909 812.038,241.419 816.125,245.898 820.212,250.292 824.298,254.547 828.385,258.615 832.472,262.445 836.559,265.993 840.646,269.217 844.732,272.079 848.819,274.548 852.906,276.596 856.993,278.2 861.08,279.345 865.166,280.02 869.253,280.221 873.34,279.95 877.427,279.214 881.513,278.027 885.6,276.41 889.687,274.386 893.774,271.986 897.861,269.245 901.947,266.202 906.034,262.9 910.121,259.386 914.208,255.709 918.295,251.919 922.381,248.07 926.468,244.213 930.555,240.403 934.642,236.692 938.728,233.132 942.815,229.772 946.902,226.658 950.989,223.835 955.076,221.343 959.162,219.217 963.249,217.489 967.336,216.185 971.423,215.326 975.51,214.925 979.596,214.993 983.683,215.533 987.77,216.541 991.857,218.009 995.943,219.921 1000.03,222.257 1004.12,224.99 1008.2,228.089 1012.29,231.518 1016.38,235.237 1020.46,239.2 1024.55,243.361 1028.64,247.67 1032.72,252.074 1036.81,256.52 1040.9,260.955 1044.98,265.325 1049.07,269.577 1053.16,273.66 1057.25,277.525 1061.33,281.126 1065.42,284.42 1069.51,287.369 1073.59,289.939 1077.68,292.1 1081.77,293.829 1085.85,295.108 1089.94,295.924 1094.03,296.272 1098.11,296.151 1102.2,295.567 1106.29,294.532 1110.37,293.064 1114.46,291.186 1118.55,288.927 1122.63,286.321 1126.72,283.404 1130.81,280.219 1134.89,276.812 1138.98,273.23 1143.07,269.522 1147.15,265.742 1151.24,261.942 1155.33,258.174 1159.41,254.49 1163.5,250.943 1167.59,247.58 1171.68,244.45 1175.76,241.596 1179.85,239.059 1183.94,236.874 1188.02,235.075 1192.11,233.687 1196.2,232.733 1200.28,232.228 1204.37,232.182 1208.46,232.601 1212.54,233.482 1216.63,234.818 1220.72,236.596 1224.8,238.796 1228.89,241.395 1232.98,244.361 1237.06,247.662 1241.15,251.257 1245.24,255.105 1249.32,259.16 1253.41,263.373 1257.5,267.693 1261.58,272.069 1265.67,276.447 1269.76,280.776 1273.84,285.001 1277.93,289.074 1282.02,292.945 1286.11,296.568 1290.19,299.899 1294.28,302.9 1298.37,305.537 1302.45,307.778 1306.54,309.599 1310.63,310.981 1314.71,311.91 1318.8,312.378 1322.89,312.384 1326.97,311.931 1331.06,311.029 1335.15,309.695 1339.23,307.951 1343.32,305.821 1347.41,303.34 1351.49,300.542 1355.58,297.468 1359.67,294.161 1363.75,290.668 1367.84,287.038 1371.93,283.322 1376.01,279.571 1380.1,275.837 1384.19,272.171 1388.27,268.626 1392.36,265.249 1396.45,262.088 1400.54,259.187 1404.62,256.587 1408.71,254.324 1412.8,252.432 1416.88,250.938 1420.97,249.865 1425.06,249.23 1429.14,249.046 1433.23,249.318 1437.32,250.046 1441.4,251.225 1445.49,252.843 1449.58,254.884 1453.66,257.324 1457.75,260.137 1461.84,263.289 1465.92,266.744 1470.01,270.462 1474.1,274.397 1478.18,278.504 1482.27,282.733 1486.36,287.033 1490.44,291.352 1494.53,295.639 1498.62,299.841 1502.7,303.908 1506.79,307.792 1510.88,311.446 1514.97,314.826 1519.05,317.892 1523.14,320.609 1527.23,322.945 1531.31,324.874 1535.4,326.375 1539.49,327.432 1543.57,328.036 1547.66,328.183 1551.75,327.874 1555.83,327.119 1559.92,325.931 1564.01,324.329 1568.09,322.339 1572.18,319.99 1576.27,317.316 1580.35,314.357 1584.44,311.155 1588.53,307.755 1592.61,304.205 1596.7,300.555 1600.79,296.856 1604.87,293.16 1608.96,289.518 1613.05,285.981 1617.13,282.598 1621.22,279.417 1625.31,276.483 1629.4,273.836 1633.48,271.514 1637.57,269.552 1641.66,267.977 1645.74,266.813 1649.83,266.08 1653.92,265.789 1658,265.948 1662.09,266.558 1666.18,267.615 1670.26,269.109 1674.35,271.025 1678.44,273.34 1682.52,276.028 1686.61,279.059 1690.7,282.398 1694.78,286.003 1698.87,289.834 1702.96,293.843 1707.04,297.983 1711.13,302.205 1715.22,306.457 1719.3,310.689 1723.39,314.849 1727.48,318.888 1731.56,322.758 1735.65,326.411 1739.74,329.806 1743.83,332.902 1747.91,335.662 1752,338.056 1756.09,340.056 1760.17,341.64 1764.26,342.792 1768.35,343.501 1772.43,343.762 1776.52,343.575 1780.61,342.946 1784.69,341.888 1788.78,340.418 1792.87,338.559 1796.95,336.338 1801.04,333.789 1805.13,330.948 1809.21,327.856 1813.3,324.555 1817.39,321.093 1821.47,317.517 1825.56,313.877 1829.65,310.225 1833.73,306.61 1837.82,303.082 1841.91,299.691 1845.99,296.484 1850.08,293.506 1854.17,290.798 1858.25,288.399 1862.34,286.343 1866.43,284.661 1870.52,283.376 1874.6,282.51 1878.69,282.077 1882.78,282.086 1886.86,282.54 1890.95,283.438 1895.04,284.771 1899.12,286.525 1903.21,288.681 1907.3,291.216 1911.38,294.1 1915.47,297.299 1919.56,300.777 1923.64,304.491 1927.73,308.397 1931.82,312.449 1935.9,316.598 1939.99,320.794 1944.08,324.987 1948.16,329.125 1952.25,333.16 1956.34,337.043 1960.42,340.728 1964.51,344.17 1968.6,347.328 1972.68,350.167 1976.77,352.653 1980.86,354.757 1984.95,356.457 1989.03,357.734 1993.12,358.575 1997.21,358.974 2001.29,358.93 2005.38,358.446 2009.47,357.533 2013.55,356.207 2017.64,354.488 2021.73,352.403 2025.81,349.984 2029.9,347.264 2033.99,344.282 2038.07,341.083 2042.16,337.709 2046.25,334.21 2050.33,330.633 2054.42,327.03 2058.51,323.449 2062.59,319.941 2066.68,316.556 2070.77,313.339 2074.85,310.338 2078.94,307.593 2083.03,305.143 2087.11,303.025 2091.2,301.269 2095.29,299.9 2099.38,298.941 2103.46,298.406 2107.55,298.307 2111.64,298.648 2115.72,299.428 2119.81,300.64 2123.9,302.273 2127.98,304.308 2132.07,306.723 2136.16,309.489 2140.24,312.576 2144.33,315.945 2148.42,319.558 2152.5,323.371 2156.59,327.339 2160.68,331.413 2164.76,335.545 2168.85,339.685 2172.94,343.783 2177.02,347.79 2181.11,351.658 2185.2,355.341 2189.28,358.795 2193.37,361.979 2197.46,364.856 2201.54,367.393 2205.63,369.56 2209.72,371.335 2213.81,372.697 2217.89,373.633 2221.98,374.136 2226.07,374.202 2230.15,373.834 2234.24,373.042 2238.33,371.838 2242.41,370.243 2246.5,368.282 2250.59,365.982 2254.67,363.377 2258.76,360.504 2262.85,357.405 2266.93,354.123 2271.02,350.702 2275.11,347.192 2279.19,343.641 2283.28,340.097 2287.37,336.61 2291.45,333.229 "/>
<path clip-path="url(#clip840)" d="M258.96 1441.02 L625.975 1441.02 L625.975 1233.66 L258.96 1233.66  Z" fill="#ffffff" fill-rule="evenodd" fill-opacity="1"/>
<polyline clip-path="url(#clip840)" style="stroke:#000000; stroke-linecap:round; stroke-linejoin:round; stroke-width:4; stroke-opacity:1; fill:none" points="258.96,1441.02 625.975,1441.02 625.975,1233.66 258.96,1233.66 258.96,1441.02 "/>
<polyline clip-path="url(#clip840)" style="stroke:#009af9; stroke-linecap:round; stroke-linejoin:round; stroke-width:4; stroke-opacity:1; fill:none" points="283.027,1285.5 427.426,1285.5 "/>
<path clip-path="url(#clip840)" d="M451.493 1266.76 L455.775 1266.76 L455.775 1288.03 L468.484 1276.85 L473.923 1276.85 L460.173 1288.98 L474.502 1302.78 L468.947 1302.78 L455.775 1290.11 L455.775 1302.78 L451.493 1302.78 L451.493 1266.76 Z" fill="#000000" fill-rule="evenodd" fill-opacity="1" /><path clip-path="url(#clip840)" d="M479.109 1276.85 L483.368 1276.85 L483.368 1302.78 L479.109 1302.78 L479.109 1276.85 M479.109 1266.76 L483.368 1266.76 L483.368 1272.15 L479.109 1272.15 L479.109 1266.76 Z" fill="#000000" fill-rule="evenodd" fill-opacity="1" /><path clip-path="url(#clip840)" d="M513.831 1287.13 L513.831 1302.78 L509.571 1302.78 L509.571 1287.27 Q509.571 1283.59 508.136 1281.76 Q506.701 1279.93 503.831 1279.93 Q500.382 1279.93 498.391 1282.13 Q496.4 1284.33 496.4 1288.12 L496.4 1302.78 L492.118 1302.78 L492.118 1276.85 L496.4 1276.85 L496.4 1280.88 Q497.928 1278.54 499.988 1277.38 Q502.071 1276.22 504.78 1276.22 Q509.247 1276.22 511.539 1279 Q513.831 1281.76 513.831 1287.13 Z" fill="#000000" fill-rule="evenodd" fill-opacity="1" /><path clip-path="url(#clip840)" d="M544.502 1288.75 L544.502 1290.83 L524.918 1290.83 Q525.196 1295.23 527.557 1297.54 Q529.942 1299.84 534.178 1299.84 Q536.631 1299.84 538.923 1299.23 Q541.238 1298.63 543.506 1297.43 L543.506 1301.46 Q541.215 1302.43 538.807 1302.94 Q536.4 1303.45 533.923 1303.45 Q527.719 1303.45 524.085 1299.84 Q520.474 1296.22 520.474 1290.07 Q520.474 1283.7 523.9 1279.97 Q527.349 1276.22 533.182 1276.22 Q538.414 1276.22 541.446 1279.6 Q544.502 1282.96 544.502 1288.75 M540.242 1287.5 Q540.196 1284 538.275 1281.92 Q536.377 1279.84 533.229 1279.84 Q529.664 1279.84 527.511 1281.85 Q525.381 1283.86 525.057 1287.52 L540.242 1287.5 Z" fill="#000000" fill-rule="evenodd" fill-opacity="1" /><path clip-path="url(#clip840)" d="M555.705 1269.49 L555.705 1276.85 L564.478 1276.85 L564.478 1280.16 L555.705 1280.16 L555.705 1294.23 Q555.705 1297.41 556.562 1298.31 Q557.441 1299.21 560.103 1299.21 L564.478 1299.21 L564.478 1302.78 L560.103 1302.78 Q555.173 1302.78 553.298 1300.95 Q551.423 1299.09 551.423 1294.23 L551.423 1280.16 L548.298 1280.16 L548.298 1276.85 L551.423 1276.85 L551.423 1269.49 L555.705 1269.49 Z" fill="#000000" fill-rule="evenodd" fill-opacity="1" /><path clip-path="url(#clip840)" d="M570.08 1276.85 L574.339 1276.85 L574.339 1302.78 L570.08 1302.78 L570.08 1276.85 M570.08 1266.76 L574.339 1266.76 L574.339 1272.15 L570.08 1272.15 L570.08 1266.76 Z" fill="#000000" fill-rule="evenodd" fill-opacity="1" /><path clip-path="url(#clip840)" d="M601.909 1277.84 L601.909 1281.83 Q600.103 1280.83 598.275 1280.34 Q596.469 1279.84 594.617 1279.84 Q590.474 1279.84 588.182 1282.47 Q585.89 1285.09 585.89 1289.84 Q585.89 1294.58 588.182 1297.22 Q590.474 1299.84 594.617 1299.84 Q596.469 1299.84 598.275 1299.35 Q600.103 1298.84 601.909 1297.84 L601.909 1301.78 Q600.126 1302.61 598.205 1303.03 Q596.307 1303.45 594.154 1303.45 Q588.298 1303.45 584.849 1299.77 Q581.4 1296.09 581.4 1289.84 Q581.4 1283.49 584.872 1279.86 Q588.367 1276.22 594.432 1276.22 Q596.4 1276.22 598.275 1276.64 Q600.15 1277.03 601.909 1277.84 Z" fill="#000000" fill-rule="evenodd" fill-opacity="1" /><polyline clip-path="url(#clip840)" style="stroke:#e26f46; stroke-linecap:round; stroke-linejoin:round; stroke-width:4; stroke-opacity:1; fill:none" points="283.027,1337.34 427.426,1337.34 "/>
<path clip-path="url(#clip840)" d="M469.919 1329.45 L469.919 1333.48 Q468.113 1332.56 466.169 1332.09 Q464.224 1331.63 462.141 1331.63 Q458.97 1331.63 457.373 1332.6 Q455.798 1333.57 455.798 1335.52 Q455.798 1337 456.933 1337.86 Q458.067 1338.69 461.493 1339.45 L462.951 1339.78 Q467.488 1340.75 469.386 1342.53 Q471.308 1344.29 471.308 1347.46 Q471.308 1351.07 468.437 1353.18 Q465.59 1355.29 460.59 1355.29 Q458.507 1355.29 456.238 1354.87 Q453.993 1354.48 451.493 1353.67 L451.493 1349.27 Q453.854 1350.5 456.146 1351.12 Q458.437 1351.72 460.683 1351.72 Q463.692 1351.72 465.312 1350.7 Q466.933 1349.66 466.933 1347.79 Q466.933 1346.05 465.752 1345.12 Q464.595 1344.2 460.636 1343.34 L459.155 1343 Q455.197 1342.16 453.437 1340.45 Q451.678 1338.71 451.678 1335.7 Q451.678 1332.05 454.271 1330.06 Q456.863 1328.06 461.632 1328.06 Q463.993 1328.06 466.076 1328.41 Q468.16 1328.76 469.919 1329.45 Z" fill="#000000" fill-rule="evenodd" fill-opacity="1" /><path clip-path="url(#clip840)" d="M482.303 1321.33 L482.303 1328.69 L491.076 1328.69 L491.076 1332 L482.303 1332 L482.303 1346.07 Q482.303 1349.25 483.159 1350.15 Q484.039 1351.05 486.701 1351.05 L491.076 1351.05 L491.076 1354.62 L486.701 1354.62 Q481.771 1354.62 479.896 1352.79 Q478.021 1350.93 478.021 1346.07 L478.021 1332 L474.896 1332 L474.896 1328.69 L478.021 1328.69 L478.021 1321.33 L482.303 1321.33 Z" fill="#000000" fill-rule="evenodd" fill-opacity="1" /><path clip-path="url(#clip840)" d="M511.701 1332.67 Q510.983 1332.25 510.127 1332.07 Q509.294 1331.86 508.275 1331.86 Q504.664 1331.86 502.72 1334.22 Q500.798 1336.56 500.798 1340.96 L500.798 1354.62 L496.516 1354.62 L496.516 1328.69 L500.798 1328.69 L500.798 1332.72 Q502.141 1330.36 504.294 1329.22 Q506.446 1328.06 509.525 1328.06 Q509.965 1328.06 510.497 1328.13 Q511.03 1328.18 511.678 1328.3 L511.701 1332.67 Z" fill="#000000" fill-rule="evenodd" fill-opacity="1" /><path clip-path="url(#clip840)" d="M527.951 1341.58 Q522.789 1341.58 520.798 1342.76 Q518.807 1343.94 518.807 1346.79 Q518.807 1349.06 520.289 1350.4 Q521.793 1351.72 524.363 1351.72 Q527.905 1351.72 530.034 1349.22 Q532.187 1346.7 532.187 1342.53 L532.187 1341.58 L527.951 1341.58 M536.446 1339.82 L536.446 1354.62 L532.187 1354.62 L532.187 1350.68 Q530.729 1353.04 528.553 1354.18 Q526.377 1355.29 523.229 1355.29 Q519.247 1355.29 516.886 1353.06 Q514.548 1350.82 514.548 1347.07 Q514.548 1342.69 517.465 1340.47 Q520.405 1338.25 526.215 1338.25 L532.187 1338.25 L532.187 1337.83 Q532.187 1334.89 530.243 1333.3 Q528.321 1331.68 524.826 1331.68 Q522.604 1331.68 520.497 1332.21 Q518.391 1332.74 516.446 1333.81 L516.446 1329.87 Q518.784 1328.97 520.983 1328.53 Q523.182 1328.06 525.266 1328.06 Q530.891 1328.06 533.668 1330.98 Q536.446 1333.9 536.446 1339.82 Z" fill="#000000" fill-rule="evenodd" fill-opacity="1" /><path clip-path="url(#clip840)" d="M545.219 1328.69 L549.479 1328.69 L549.479 1354.62 L545.219 1354.62 L545.219 1328.69 M545.219 1318.6 L549.479 1318.6 L549.479 1323.99 L545.219 1323.99 L545.219 1318.6 Z" fill="#000000" fill-rule="evenodd" fill-opacity="1" /><path clip-path="url(#clip840)" d="M579.941 1338.97 L579.941 1354.62 L575.682 1354.62 L575.682 1339.11 Q575.682 1335.43 574.247 1333.6 Q572.812 1331.77 569.941 1331.77 Q566.492 1331.77 564.502 1333.97 Q562.511 1336.17 562.511 1339.96 L562.511 1354.62 L558.228 1354.62 L558.228 1328.69 L562.511 1328.69 L562.511 1332.72 Q564.039 1330.38 566.099 1329.22 Q568.182 1328.06 570.89 1328.06 Q575.358 1328.06 577.65 1330.84 Q579.941 1333.6 579.941 1338.97 Z" fill="#000000" fill-rule="evenodd" fill-opacity="1" /><polyline clip-path="url(#clip840)" style="stroke:#3da44d; stroke-linecap:round; stroke-linejoin:round; stroke-width:4; stroke-opacity:1; fill:none" points="283.027,1389.18 427.426,1389.18 "/>
<path clip-path="url(#clip840)" d="M458.9 1373.17 L458.9 1380.53 L467.673 1380.53 L467.673 1383.84 L458.9 1383.84 L458.9 1397.91 Q458.9 1401.09 459.757 1401.99 Q460.636 1402.89 463.298 1402.89 L467.673 1402.89 L467.673 1406.46 L463.298 1406.46 Q458.368 1406.46 456.493 1404.63 Q454.618 1402.77 454.618 1397.91 L454.618 1383.84 L451.493 1383.84 L451.493 1380.53 L454.618 1380.53 L454.618 1373.17 L458.9 1373.17 Z" fill="#000000" fill-rule="evenodd" fill-opacity="1" /><path clip-path="url(#clip840)" d="M483.321 1383.52 Q479.896 1383.52 477.905 1386.2 Q475.914 1388.86 475.914 1393.52 Q475.914 1398.17 477.882 1400.85 Q479.872 1403.52 483.321 1403.52 Q486.724 1403.52 488.715 1400.83 Q490.706 1398.15 490.706 1393.52 Q490.706 1388.91 488.715 1386.22 Q486.724 1383.52 483.321 1383.52 M483.321 1379.9 Q488.877 1379.9 492.048 1383.52 Q495.22 1387.13 495.22 1393.52 Q495.22 1399.88 492.048 1403.52 Q488.877 1407.13 483.321 1407.13 Q477.743 1407.13 474.572 1403.52 Q471.423 1399.88 471.423 1393.52 Q471.423 1387.13 474.572 1383.52 Q477.743 1379.9 483.321 1379.9 Z" fill="#000000" fill-rule="evenodd" fill-opacity="1" /><path clip-path="url(#clip840)" d="M506.493 1373.17 L506.493 1380.53 L515.266 1380.53 L515.266 1383.84 L506.493 1383.84 L506.493 1397.91 Q506.493 1401.09 507.349 1401.99 Q508.229 1402.89 510.891 1402.89 L515.266 1402.89 L515.266 1406.46 L510.891 1406.46 Q505.96 1406.46 504.085 1404.63 Q502.21 1402.77 502.21 1397.91 L502.21 1383.84 L499.085 1383.84 L499.085 1380.53 L502.21 1380.53 L502.21 1373.17 L506.493 1373.17 Z" fill="#000000" fill-rule="evenodd" fill-opacity="1" /><path clip-path="url(#clip840)" d="M532.65 1393.42 Q527.488 1393.42 525.497 1394.6 Q523.506 1395.78 523.506 1398.63 Q523.506 1400.9 524.988 1402.24 Q526.493 1403.56 529.062 1403.56 Q532.604 1403.56 534.733 1401.06 Q536.886 1398.54 536.886 1394.37 L536.886 1393.42 L532.65 1393.42 M541.145 1391.66 L541.145 1406.46 L536.886 1406.46 L536.886 1402.52 Q535.428 1404.88 533.252 1406.02 Q531.076 1407.13 527.928 1407.13 Q523.946 1407.13 521.585 1404.9 Q519.247 1402.66 519.247 1398.91 Q519.247 1394.53 522.164 1392.31 Q525.104 1390.09 530.914 1390.09 L536.886 1390.09 L536.886 1389.67 Q536.886 1386.73 534.942 1385.14 Q533.02 1383.52 529.525 1383.52 Q527.303 1383.52 525.196 1384.05 Q523.09 1384.58 521.145 1385.65 L521.145 1381.71 Q523.483 1380.81 525.682 1380.37 Q527.881 1379.9 529.965 1379.9 Q535.59 1379.9 538.367 1382.82 Q541.145 1385.74 541.145 1391.66 Z" fill="#000000" fill-rule="evenodd" fill-opacity="1" /><path clip-path="url(#clip840)" d="M549.918 1370.44 L554.178 1370.44 L554.178 1406.46 L549.918 1406.46 L549.918 1370.44 Z" fill="#000000" fill-rule="evenodd" fill-opacity="1" /></svg>
