<?xml version="1.0" encoding="utf-8"?>
<svg xmlns="http://www.w3.org/2000/svg" xmlns:xlink="http://www.w3.org/1999/xlink" width="600" height="400" viewBox="0 0 2400 1600">
<defs>
  <clipPath id="clip300">
    <rect x="0" y="0" width="2400" height="1600"/>
  </clipPath>
</defs>
<path clip-path="url(#clip300)" d="M0 1600 L2400 1600 L2400 0 L0 0  Z" fill="#ffffff" fill-rule="evenodd" fill-opacity="1"/>
<defs>
  <clipPath id="clip301">
    <rect x="203" y="47" width="2150" height="1377"/>
  </clipPath>
</defs>
<path clip-path="url(#clip300)" d="M203.964 1423.18 L2352.76 1423.18 L2352.76 47.2441 L203.964 47.2441  Z" fill="#ffffff" fill-rule="evenodd" fill-opacity="1"/>
<polyline clip-path="url(#clip301)" style="stroke:#000000; stroke-linecap:round; stroke-linejoin:round; stroke-width:2; stroke-opacity:0.1; fill:none" points="203.964,1423.18 203.964,47.2441 "/>
<polyline clip-path="url(#clip301)" style="stroke:#000000; stroke-linecap:round; stroke-linejoin:round; stroke-width:2; stroke-opacity:0.1; fill:none" points="633.722,1423.18 633.722,47.2441 "/>
<polyline clip-path="url(#clip301)" style="stroke:#000000; stroke-linecap:round; stroke-linejoin:round; stroke-width:2; stroke-opacity:0.1; fill:none" points="1063.48,1423.18 1063.48,47.2441 "/>
<polyline clip-path="url(#clip301)" style="stroke:#000000; stroke-linecap:round; stroke-linejoin:round; stroke-width:2; stroke-opacity:0.1; fill:none" points="1493.24,1423.18 1493.24,47.2441 "/>
<polyline clip-path="url(#clip301)" style="stroke:#000000; stroke-linecap:round; stroke-linejoin:round; stroke-width:2; stroke-opacity:0.1; fill:none" points="1923,1423.18 1923,47.2441 "/>
<polyline clip-path="url(#clip301)" style="stroke:#000000; stroke-linecap:round; stroke-linejoin:round; stroke-width:2; stroke-opacity:0.1; fill:none" points="2352.76,1423.18 2352.76,47.2441 "/>
<polyline clip-path="url(#clip301)" style="stroke:#000000; stroke-linecap:round; stroke-linejoin:round; stroke-width:2; stroke-opacity:0.1; fill:none" points="203.964,1423.18 2352.76,1423.18 "/>
<polyline clip-path="url(#clip301)" style="stroke:#000000; stroke-linecap:round; stroke-linejoin:round; stroke-width:2; stroke-opacity:0.1; fill:none" points="203.964,1147.99 2352.76,1147.99 "/>
<polyline clip-path="url(#clip301)" style="stroke:#000000; stroke-linecap:round; stroke-linejoin:round; stroke-width:2; stroke-opacity:0.1; fill:none" points="203.964,872.806 2352.76,872.806 "/>
<polyline clip-path="url(#clip301)" style="stroke:#000000; stroke-linecap:round; stroke-linejoin:round; stroke-width:2; stroke-opacity:0.1; fill:none" points="203.964,597.618 2352.76,597.618 "/>
<polyline clip-path="url(#clip301)" style="stroke:#000000; stroke-linecap:round; stroke-linejoin:round; stroke-width:2; stroke-opacity:0.1; fill:none" points="203.964,322.431 2352.76,322.431 "/>
<polyline clip-path="url(#clip301)" style="stroke:#000000; stroke-linecap:round; stroke-linejoin:round; stroke-width:2; stroke-opacity:0.1; fill:none" points="203.964,47.2441 2352.76,47.2441 "/>
<polyline clip-path="url(#clip300)" style="stroke:#000000; stroke-linecap:round; stroke-linejoin:round; stroke-width:4; stroke-opacity:1; fill:none" points="203.964,1423.18 2352.76,1423.18 "/>
<polyline clip-path="url(#clip300)" style="stroke:#000000; stroke-linecap:round; stroke-linejoin:round; stroke-width:4; stroke-opacity:1; fill:none" points="203.964,1423.18 203.964,1404.28 "/>
<polyline clip-path="url(#clip300)" style="stroke:#000000; stroke-linecap:round; stroke-linejoin:round; stroke-width:4; stroke-opacity:1; fill:none" points="633.722,1423.18 633.722,1404.28 "/>
<polyline clip-path="url(#clip300)" style="stroke:#000000; stroke-linecap:round; stroke-linejoin:round; stroke-width:4; stroke-opacity:1; fill:none" points="1063.48,1423.18 1063.48,1404.28 "/>
<polyline clip-path="url(#clip300)" style="stroke:#000000; stroke-linecap:round; stroke-linejoin:round; stroke-width:4; stroke-opacity:1; fill:none" points="1493.24,1423.18 1493.24,1404.28 "/>
<polyline clip-path="url(#clip300)" style="stroke:#000000; stroke-linecap:round; stroke-linejoin:round; stroke-width:4; stroke-opacity:1; fill:none" points="1923,1423.18 1923,1404.28 "/>
<polyline clip-path="url(#clip300)" style="stroke:#000000; stroke-linecap:round; stroke-linejoin:round; stroke-width:4; stroke-opacity:1; fill:none" points="2352.76,1423.18 2352.76,1404.28 "/>
<path clip-path="url(#clip300)" d="M203.964 1454.1 Q200.352 1454.1 198.524 1457.66 Q196.718 1461.2 196.718 1468.33 Q196.718 1475.44 198.524 1479.01 Q200.352 1482.55 203.964 1482.55 Q207.598 1482.55 209.403 1479.01 Q211.232 1475.44 211.232 1468.33 Q211.232 1461.2 209.403 1457.66 Q207.598 1454.1 203.964 1454.1 M203.964 1450.39 Q209.774 1450.39 212.829 1455 Q215.908 1459.58 215.908 1468.33 Q215.908 1477.06 212.829 1481.67 Q209.774 1486.25 203.964 1486.25 Q198.153 1486.25 195.075 1481.67 Q192.019 1477.06 192.019 1468.33 Q192.019 1459.58 195.075 1455 Q198.153 1450.39 203.964 1450.39 Z" fill="#000000" fill-rule="nonzero" fill-opacity="1" /><path clip-path="url(#clip300)" d="M624 1451.02 L642.356 1451.02 L642.356 1454.96 L628.282 1454.96 L628.282 1463.43 Q629.301 1463.08 630.319 1462.92 Q631.338 1462.73 632.356 1462.73 Q638.143 1462.73 641.523 1465.9 Q644.903 1469.08 644.903 1474.49 Q644.903 1480.07 641.43 1483.17 Q637.958 1486.25 631.639 1486.25 Q629.463 1486.25 627.194 1485.88 Q624.949 1485.51 622.542 1484.77 L622.542 1480.07 Q624.625 1481.2 626.847 1481.76 Q629.069 1482.32 631.546 1482.32 Q635.551 1482.32 637.889 1480.21 Q640.227 1478.1 640.227 1474.49 Q640.227 1470.88 637.889 1468.77 Q635.551 1466.67 631.546 1466.67 Q629.671 1466.67 627.796 1467.08 Q625.944 1467.5 624 1468.38 L624 1451.02 Z" fill="#000000" fill-rule="nonzero" fill-opacity="1" /><path clip-path="url(#clip300)" d="M1038.17 1481.64 L1045.81 1481.64 L1045.81 1455.28 L1037.5 1456.95 L1037.5 1452.69 L1045.76 1451.02 L1050.44 1451.02 L1050.44 1481.64 L1058.08 1481.64 L1058.08 1485.58 L1038.17 1485.58 L1038.17 1481.64 Z" fill="#000000" fill-rule="nonzero" fill-opacity="1" /><path clip-path="url(#clip300)" d="M1077.52 1454.1 Q1073.91 1454.1 1072.08 1457.66 Q1070.27 1461.2 1070.27 1468.33 Q1070.27 1475.44 1072.08 1479.01 Q1073.91 1482.55 1077.52 1482.55 Q1081.15 1482.55 1082.96 1479.01 Q1084.79 1475.44 1084.79 1468.33 Q1084.79 1461.2 1082.96 1457.66 Q1081.15 1454.1 1077.52 1454.1 M1077.52 1450.39 Q1083.33 1450.39 1086.39 1455 Q1089.46 1459.58 1089.46 1468.33 Q1089.46 1477.06 1086.39 1481.67 Q1083.33 1486.25 1077.52 1486.25 Q1071.71 1486.25 1068.63 1481.67 Q1065.58 1477.06 1065.58 1468.33 Q1065.58 1459.58 1068.63 1455 Q1071.71 1450.39 1077.52 1450.39 Z" fill="#000000" fill-rule="nonzero" fill-opacity="1" /><path clip-path="url(#clip300)" d="M1468.42 1481.64 L1476.06 1481.64 L1476.06 1455.28 L1467.75 1456.95 L1467.75 1452.69 L1476.02 1451.02 L1480.69 1451.02 L1480.69 1481.64 L1488.33 1481.64 L1488.33 1485.58 L1468.42 1485.58 L1468.42 1481.64 Z" fill="#000000" fill-rule="nonzero" fill-opacity="1" /><path clip-path="url(#clip300)" d="M1497.82 1451.02 L1516.18 1451.02 L1516.18 1454.96 L1502.1 1454.96 L1502.1 1463.43 Q1503.12 1463.08 1504.14 1462.92 Q1505.16 1462.73 1506.18 1462.73 Q1511.97 1462.73 1515.35 1465.9 Q1518.72 1469.08 1518.72 1474.49 Q1518.72 1480.07 1515.25 1483.17 Q1511.78 1486.25 1505.46 1486.25 Q1503.29 1486.25 1501.02 1485.88 Q1498.77 1485.51 1496.36 1484.77 L1496.36 1480.07 Q1498.45 1481.2 1500.67 1481.76 Q1502.89 1482.32 1505.37 1482.32 Q1509.37 1482.32 1511.71 1480.21 Q1514.05 1478.1 1514.05 1474.49 Q1514.05 1470.88 1511.71 1468.77 Q1509.37 1466.67 1505.37 1466.67 Q1503.49 1466.67 1501.62 1467.08 Q1499.77 1467.5 1497.82 1468.38 L1497.82 1451.02 Z" fill="#000000" fill-rule="nonzero" fill-opacity="1" /><path clip-path="url(#clip300)" d="M1901.77 1481.64 L1918.09 1481.64 L1918.09 1485.58 L1896.15 1485.58 L1896.15 1481.64 Q1898.81 1478.89 1903.39 1474.26 Q1908 1469.61 1909.18 1468.27 Q1911.42 1465.74 1912.3 1464.01 Q1913.21 1462.25 1913.21 1460.56 Q1913.21 1457.8 1911.26 1456.07 Q1909.34 1454.33 1906.24 1454.33 Q1904.04 1454.33 1901.59 1455.09 Q1899.15 1455.86 1896.38 1457.41 L1896.38 1452.69 Q1899.2 1451.55 1901.65 1450.97 Q1904.11 1450.39 1906.15 1450.39 Q1911.52 1450.39 1914.71 1453.08 Q1917.9 1455.77 1917.9 1460.26 Q1917.9 1462.39 1917.09 1464.31 Q1916.31 1466.2 1914.2 1468.8 Q1913.62 1469.47 1910.52 1472.69 Q1907.42 1475.88 1901.77 1481.64 Z" fill="#000000" fill-rule="nonzero" fill-opacity="1" /><path clip-path="url(#clip300)" d="M1937.9 1454.1 Q1934.29 1454.1 1932.46 1457.66 Q1930.66 1461.2 1930.66 1468.33 Q1930.66 1475.44 1932.46 1479.01 Q1934.29 1482.55 1937.9 1482.55 Q1941.54 1482.55 1943.34 1479.01 Q1945.17 1475.44 1945.17 1468.33 Q1945.17 1461.2 1943.34 1457.66 Q1941.54 1454.1 1937.9 1454.1 M1937.9 1450.39 Q1943.71 1450.39 1946.77 1455 Q1949.85 1459.58 1949.85 1468.33 Q1949.85 1477.06 1946.77 1481.67 Q1943.71 1486.25 1937.9 1486.25 Q1932.09 1486.25 1929.02 1481.67 Q1925.96 1477.06 1925.96 1468.33 Q1925.96 1459.58 1929.02 1455 Q1932.09 1450.39 1937.9 1450.39 Z" fill="#000000" fill-rule="nonzero" fill-opacity="1" /><path clip-path="url(#clip300)" d="M2332.03 1481.64 L2348.35 1481.64 L2348.35 1485.58 L2326.4 1485.58 L2326.4 1481.64 Q2329.06 1478.89 2333.65 1474.26 Q2338.25 1469.61 2339.43 1468.27 Q2341.68 1465.74 2342.56 1464.01 Q2343.46 1462.25 2343.46 1460.56 Q2343.46 1457.8 2341.52 1456.07 Q2339.6 1454.33 2336.49 1454.33 Q2334.3 1454.33 2331.84 1455.09 Q2329.41 1455.86 2326.63 1457.41 L2326.63 1452.69 Q2329.46 1451.55 2331.91 1450.97 Q2334.36 1450.39 2336.4 1450.39 Q2341.77 1450.39 2344.97 1453.08 Q2348.16 1455.77 2348.16 1460.26 Q2348.16 1462.39 2347.35 1464.31 Q2346.56 1466.2 2344.46 1468.8 Q2343.88 1469.47 2340.78 1472.69 Q2337.67 1475.88 2332.03 1481.64 Z" fill="#000000" fill-rule="nonzero" fill-opacity="1" /><path clip-path="url(#clip300)" d="M2358.21 1451.02 L2376.56 1451.02 L2376.56 1454.96 L2362.49 1454.96 L2362.49 1463.43 Q2363.51 1463.08 2364.53 1462.92 Q2365.55 1462.73 2366.56 1462.73 Q2372.35 1462.73 2375.73 1465.9 Q2379.11 1469.08 2379.11 1474.49 Q2379.11 1480.07 2375.64 1483.17 Q2372.17 1486.25 2365.85 1486.25 Q2363.67 1486.25 2361.4 1485.88 Q2359.16 1485.51 2356.75 1484.77 L2356.75 1480.07 Q2358.83 1481.2 2361.05 1481.76 Q2363.28 1482.32 2365.75 1482.32 Q2369.76 1482.32 2372.1 1480.21 Q2374.43 1478.1 2374.43 1474.49 Q2374.43 1470.88 2372.1 1468.77 Q2369.76 1466.67 2365.75 1466.67 Q2363.88 1466.67 2362 1467.08 Q2360.15 1467.5 2358.21 1468.38 L2358.21 1451.02 Z" fill="#000000" fill-rule="nonzero" fill-opacity="1" /><path clip-path="url(#clip300)" d="M976.275 1520.52 L984.932 1520.52 L1006 1560.28 L1006 1520.52 L1012.24 1520.52 L1012.24 1568.04 L1003.58 1568.04 L982.514 1528.29 L982.514 1568.04 L976.275 1568.04 L976.275 1520.52 Z" fill="#000000" fill-rule="nonzero" fill-opacity="1" /><path clip-path="url(#clip300)" d="M1024.18 1553.98 L1024.18 1532.4 L1030.03 1532.4 L1030.03 1553.75 Q1030.03 1558.81 1032.01 1561.36 Q1033.98 1563.87 1037.93 1563.87 Q1042.67 1563.87 1045.41 1560.85 Q1048.18 1557.83 1048.18 1552.61 L1048.18 1532.4 L1054.03 1532.4 L1054.03 1568.04 L1048.18 1568.04 L1048.18 1562.57 Q1046.04 1565.82 1043.21 1567.41 Q1040.41 1568.97 1036.69 1568.97 Q1030.54 1568.97 1027.36 1565.15 Q1024.18 1561.33 1024.18 1553.98 M1038.91 1531.54 L1038.91 1531.54 Z" fill="#000000" fill-rule="nonzero" fill-opacity="1" /><path clip-path="url(#clip300)" d="M1093.85 1539.24 Q1096.05 1535.29 1099.1 1533.41 Q1102.16 1531.54 1106.29 1531.54 Q1111.86 1531.54 1114.89 1535.45 Q1117.91 1539.33 1117.91 1546.53 L1117.91 1568.04 L1112.02 1568.04 L1112.02 1546.72 Q1112.02 1541.59 1110.21 1539.11 Q1108.4 1536.63 1104.67 1536.63 Q1100.12 1536.63 1097.48 1539.65 Q1094.84 1542.68 1094.84 1547.9 L1094.84 1568.04 L1088.95 1568.04 L1088.95 1546.72 Q1088.95 1541.56 1087.13 1539.11 Q1085.32 1536.63 1081.53 1536.63 Q1077.04 1536.63 1074.4 1539.68 Q1071.76 1542.71 1071.76 1547.9 L1071.76 1568.04 L1065.87 1568.04 L1065.87 1532.4 L1071.76 1532.4 L1071.76 1537.93 Q1073.77 1534.66 1076.57 1533.1 Q1079.37 1531.54 1083.22 1531.54 Q1087.1 1531.54 1089.81 1533.51 Q1092.54 1535.48 1093.85 1539.24 Z" fill="#000000" fill-rule="nonzero" fill-opacity="1" /><path clip-path="url(#clip300)" d="M1155.18 1550.25 Q1155.18 1543.79 1152.51 1540.13 Q1149.87 1536.44 1145.22 1536.44 Q1140.57 1536.44 1137.9 1540.13 Q1135.26 1543.79 1135.26 1550.25 Q1135.26 1556.71 1137.9 1560.4 Q1140.57 1564.07 1145.22 1564.07 Q1149.87 1564.07 1152.51 1560.4 Q1155.18 1556.71 1155.18 1550.25 M1135.26 1537.81 Q1137.1 1534.62 1139.91 1533.1 Q1142.74 1531.54 1146.65 1531.54 Q1153.15 1531.54 1157.19 1536.69 Q1161.26 1541.85 1161.26 1550.25 Q1161.26 1558.65 1157.19 1563.81 Q1153.15 1568.97 1146.65 1568.97 Q1142.74 1568.97 1139.91 1567.44 Q1137.1 1565.88 1135.26 1562.7 L1135.26 1568.04 L1129.37 1568.04 L1129.37 1518.52 L1135.26 1518.52 L1135.26 1537.81 Z" fill="#000000" fill-rule="nonzero" fill-opacity="1" /><path clip-path="url(#clip300)" d="M1201.46 1548.76 L1201.46 1551.62 L1174.54 1551.62 Q1174.92 1557.67 1178.16 1560.85 Q1181.44 1564 1187.27 1564 Q1190.64 1564 1193.79 1563.17 Q1196.97 1562.35 1200.09 1560.69 L1200.09 1566.23 Q1196.94 1567.57 1193.63 1568.27 Q1190.32 1568.97 1186.92 1568.97 Q1178.39 1568.97 1173.39 1564 Q1168.42 1559.04 1168.42 1550.57 Q1168.42 1541.82 1173.13 1536.69 Q1177.88 1531.54 1185.9 1531.54 Q1193.09 1531.54 1197.26 1536.18 Q1201.46 1540.8 1201.46 1548.76 M1195.61 1547.04 Q1195.54 1542.23 1192.9 1539.37 Q1190.29 1536.5 1185.96 1536.5 Q1181.06 1536.5 1178.1 1539.27 Q1175.17 1542.04 1174.73 1547.07 L1195.61 1547.04 Z" fill="#000000" fill-rule="nonzero" fill-opacity="1" /><path clip-path="url(#clip300)" d="M1231.73 1537.87 Q1230.74 1537.3 1229.57 1537.04 Q1228.42 1536.76 1227.02 1536.76 Q1222.06 1536.76 1219.38 1540 Q1216.74 1543.22 1216.74 1549.27 L1216.74 1568.04 L1210.85 1568.04 L1210.85 1532.4 L1216.74 1532.4 L1216.74 1537.93 Q1218.59 1534.69 1221.55 1533.13 Q1224.51 1531.54 1228.74 1531.54 Q1229.34 1531.54 1230.08 1531.63 Q1230.81 1531.7 1231.7 1531.85 L1231.73 1537.87 Z" fill="#000000" fill-rule="nonzero" fill-opacity="1" /><path clip-path="url(#clip300)" d="M1272.41 1536.5 Q1267.7 1536.5 1264.96 1540.19 Q1262.22 1543.85 1262.22 1550.25 Q1262.22 1556.65 1264.93 1560.34 Q1267.67 1564 1272.41 1564 Q1277.09 1564 1279.82 1560.31 Q1282.56 1556.62 1282.56 1550.25 Q1282.56 1543.92 1279.82 1540.23 Q1277.09 1536.5 1272.41 1536.5 M1272.41 1531.54 Q1280.05 1531.54 1284.41 1536.5 Q1288.77 1541.47 1288.77 1550.25 Q1288.77 1559 1284.41 1564 Q1280.05 1568.97 1272.41 1568.97 Q1264.74 1568.97 1260.38 1564 Q1256.05 1559 1256.05 1550.25 Q1256.05 1541.47 1260.38 1536.5 Q1264.74 1531.54 1272.41 1531.54 Z" fill="#000000" fill-rule="nonzero" fill-opacity="1" /><path clip-path="url(#clip300)" d="M1316.52 1518.52 L1316.52 1523.39 L1310.92 1523.39 Q1307.77 1523.39 1306.53 1524.66 Q1305.32 1525.93 1305.32 1529.24 L1305.32 1532.4 L1314.96 1532.4 L1314.96 1536.95 L1305.32 1536.95 L1305.32 1568.04 L1299.43 1568.04 L1299.43 1536.95 L1293.83 1536.95 L1293.83 1532.4 L1299.43 1532.4 L1299.43 1529.91 Q1299.43 1523.96 1302.2 1521.26 Q1304.97 1518.52 1310.98 1518.52 L1316.52 1518.52 Z" fill="#000000" fill-rule="nonzero" fill-opacity="1" /><path clip-path="url(#clip300)" d="M1347.94 1522.27 L1347.94 1532.4 L1360 1532.4 L1360 1536.95 L1347.94 1536.95 L1347.94 1556.3 Q1347.94 1560.66 1349.11 1561.9 Q1350.32 1563.14 1353.98 1563.14 L1360 1563.14 L1360 1568.04 L1353.98 1568.04 Q1347.2 1568.04 1344.63 1565.53 Q1342.05 1562.98 1342.05 1556.3 L1342.05 1536.95 L1337.75 1536.95 L1337.75 1532.4 L1342.05 1532.4 L1342.05 1522.27 L1347.94 1522.27 Z" fill="#000000" fill-rule="nonzero" fill-opacity="1" /><path clip-path="url(#clip300)" d="M1397.33 1546.53 L1397.33 1568.04 L1391.48 1568.04 L1391.48 1546.72 Q1391.48 1541.66 1389.5 1539.14 Q1387.53 1536.63 1383.58 1536.63 Q1378.84 1536.63 1376.11 1539.65 Q1373.37 1542.68 1373.37 1547.9 L1373.37 1568.04 L1367.48 1568.04 L1367.48 1518.52 L1373.37 1518.52 L1373.37 1537.93 Q1375.47 1534.72 1378.3 1533.13 Q1381.17 1531.54 1384.89 1531.54 Q1391.03 1531.54 1394.18 1535.36 Q1397.33 1539.14 1397.33 1546.53 Z" fill="#000000" fill-rule="nonzero" fill-opacity="1" /><path clip-path="url(#clip300)" d="M1429.67 1537.87 Q1428.69 1537.3 1427.51 1537.04 Q1426.36 1536.76 1424.96 1536.76 Q1420 1536.76 1417.32 1540 Q1414.68 1543.22 1414.68 1549.27 L1414.68 1568.04 L1408.79 1568.04 L1408.79 1532.4 L1414.68 1532.4 L1414.68 1537.93 Q1416.53 1534.69 1419.49 1533.13 Q1422.45 1531.54 1426.68 1531.54 Q1427.29 1531.54 1428.02 1531.63 Q1428.75 1531.7 1429.64 1531.85 L1429.67 1537.87 Z" fill="#000000" fill-rule="nonzero" fill-opacity="1" /><path clip-path="url(#clip300)" d="M1464.87 1548.76 L1464.87 1551.62 L1437.95 1551.62 Q1438.33 1557.67 1441.58 1560.85 Q1444.85 1564 1450.68 1564 Q1454.05 1564 1457.2 1563.17 Q1460.39 1562.35 1463.51 1560.69 L1463.51 1566.23 Q1460.36 1567.57 1457.05 1568.27 Q1453.73 1568.97 1450.33 1568.97 Q1441.8 1568.97 1436.8 1564 Q1431.84 1559.04 1431.84 1550.57 Q1431.84 1541.82 1436.55 1536.69 Q1441.29 1531.54 1449.31 1531.54 Q1456.5 1531.54 1460.67 1536.18 Q1464.87 1540.8 1464.87 1548.76 M1459.02 1547.04 Q1458.95 1542.23 1456.31 1539.37 Q1453.7 1536.5 1449.37 1536.5 Q1444.47 1536.5 1441.51 1539.27 Q1438.58 1542.04 1438.14 1547.07 L1459.02 1547.04 Z" fill="#000000" fill-rule="nonzero" fill-opacity="1" /><path clip-path="url(#clip300)" d="M1490.69 1550.12 Q1483.59 1550.12 1480.85 1551.75 Q1478.12 1553.37 1478.12 1557.29 Q1478.12 1560.4 1480.15 1562.25 Q1482.22 1564.07 1485.75 1564.07 Q1490.62 1564.07 1493.55 1560.63 Q1496.51 1557.16 1496.51 1551.43 L1496.51 1550.12 L1490.69 1550.12 M1502.37 1547.71 L1502.37 1568.04 L1496.51 1568.04 L1496.51 1562.63 Q1494.51 1565.88 1491.52 1567.44 Q1488.52 1568.97 1484.19 1568.97 Q1478.72 1568.97 1475.47 1565.91 Q1472.26 1562.82 1472.26 1557.67 Q1472.26 1551.65 1476.27 1548.6 Q1480.31 1545.54 1488.3 1545.54 L1496.51 1545.54 L1496.51 1544.97 Q1496.51 1540.93 1493.84 1538.73 Q1491.2 1536.5 1486.39 1536.5 Q1483.34 1536.5 1480.44 1537.23 Q1477.54 1537.97 1474.87 1539.43 L1474.87 1534.02 Q1478.08 1532.78 1481.11 1532.17 Q1484.13 1531.54 1487 1531.54 Q1494.73 1531.54 1498.55 1535.55 Q1502.37 1539.56 1502.37 1547.71 Z" fill="#000000" fill-rule="nonzero" fill-opacity="1" /><path clip-path="url(#clip300)" d="M1537.89 1537.81 L1537.89 1518.52 L1543.75 1518.52 L1543.75 1568.04 L1537.89 1568.04 L1537.89 1562.7 Q1536.04 1565.88 1533.21 1567.44 Q1530.41 1568.97 1526.46 1568.97 Q1520 1568.97 1515.93 1563.81 Q1511.89 1558.65 1511.89 1550.25 Q1511.89 1541.85 1515.93 1536.69 Q1520 1531.54 1526.46 1531.54 Q1530.41 1531.54 1533.21 1533.1 Q1536.04 1534.62 1537.89 1537.81 M1517.93 1550.25 Q1517.93 1556.71 1520.57 1560.4 Q1523.25 1564.07 1527.9 1564.07 Q1532.54 1564.07 1535.22 1560.4 Q1537.89 1556.71 1537.89 1550.25 Q1537.89 1543.79 1535.22 1540.13 Q1532.54 1536.44 1527.9 1536.44 Q1523.25 1536.44 1520.57 1540.13 Q1517.93 1543.79 1517.93 1550.25 Z" fill="#000000" fill-rule="nonzero" fill-opacity="1" /><path clip-path="url(#clip300)" d="M1578.53 1533.45 L1578.53 1538.98 Q1576.05 1537.71 1573.38 1537.07 Q1570.7 1536.44 1567.84 1536.44 Q1563.48 1536.44 1561.28 1537.77 Q1559.12 1539.11 1559.12 1541.79 Q1559.12 1543.82 1560.68 1545 Q1562.24 1546.15 1566.95 1547.2 L1568.95 1547.64 Q1575.19 1548.98 1577.8 1551.43 Q1580.44 1553.85 1580.44 1558.21 Q1580.44 1563.17 1576.5 1566.07 Q1572.58 1568.97 1565.71 1568.97 Q1562.84 1568.97 1559.72 1568.39 Q1556.64 1567.85 1553.2 1566.74 L1553.2 1560.69 Q1556.45 1562.38 1559.6 1563.24 Q1562.75 1564.07 1565.84 1564.07 Q1569.97 1564.07 1572.2 1562.66 Q1574.43 1561.23 1574.43 1558.65 Q1574.43 1556.27 1572.81 1554.99 Q1571.21 1553.72 1565.77 1552.54 L1563.73 1552.07 Q1558.29 1550.92 1555.87 1548.56 Q1553.45 1546.18 1553.45 1542.04 Q1553.45 1537.01 1557.02 1534.27 Q1560.58 1531.54 1567.14 1531.54 Q1570.39 1531.54 1573.25 1532.01 Q1576.12 1532.49 1578.53 1533.45 Z" fill="#000000" fill-rule="nonzero" fill-opacity="1" /><polyline clip-path="url(#clip300)" style="stroke:#000000; stroke-linecap:round; stroke-linejoin:round; stroke-width:4; stroke-opacity:1; fill:none" points="203.964,1423.18 203.964,47.2441 "/>
<polyline clip-path="url(#clip300)" style="stroke:#000000; stroke-linecap:round; stroke-linejoin:round; stroke-width:4; stroke-opacity:1; fill:none" points="203.964,1423.18 222.861,1423.18 "/>
<polyline clip-path="url(#clip300)" style="stroke:#000000; stroke-linecap:round; stroke-linejoin:round; stroke-width:4; stroke-opacity:1; fill:none" points="203.964,1147.99 222.861,1147.99 "/>
<polyline clip-path="url(#clip300)" style="stroke:#000000; stroke-linecap:round; stroke-linejoin:round; stroke-width:4; stroke-opacity:1; fill:none" points="203.964,872.806 222.861,872.806 "/>
<polyline clip-path="url(#clip300)" style="stroke:#000000; stroke-linecap:round; stroke-linejoin:round; stroke-width:4; stroke-opacity:1; fill:none" points="203.964,597.618 222.861,597.618 "/>
<polyline clip-path="url(#clip300)" style="stroke:#000000; stroke-linecap:round; stroke-linejoin:round; stroke-width:4; stroke-opacity:1; fill:none" points="203.964,322.431 222.861,322.431 "/>
<polyline clip-path="url(#clip300)" style="stroke:#000000; stroke-linecap:round; stroke-linejoin:round; stroke-width:4; stroke-opacity:1; fill:none" points="203.964,47.2441 222.861,47.2441 "/>
<path clip-path="url(#clip300)" d="M156.019 1408.98 Q152.408 1408.98 150.579 1412.54 Q148.774 1416.08 148.774 1423.21 Q148.774 1430.32 150.579 1433.89 Q152.408 1437.43 156.019 1437.43 Q159.653 1437.43 161.459 1433.89 Q163.288 1430.32 163.288 1423.21 Q163.288 1416.08 161.459 1412.54 Q159.653 1408.98 156.019 1408.98 M156.019 1405.27 Q161.829 1405.27 164.885 1409.88 Q167.964 1414.46 167.964 1423.21 Q167.964 1431.94 164.885 1436.55 Q161.829 1441.13 156.019 1441.13 Q150.209 1441.13 147.13 1436.55 Q144.075 1431.94 144.075 1423.21 Q144.075 1414.46 147.13 1409.88 Q150.209 1405.27 156.019 1405.27 Z" fill="#000000" fill-rule="nonzero" fill-opacity="1" /><path clip-path="url(#clip300)" d="M147.061 1130.71 L165.417 1130.71 L165.417 1134.65 L151.343 1134.65 L151.343 1143.12 Q152.362 1142.77 153.38 1142.61 Q154.399 1142.43 155.417 1142.43 Q161.204 1142.43 164.584 1145.6 Q167.964 1148.77 167.964 1154.18 Q167.964 1159.76 164.491 1162.87 Q161.019 1165.94 154.7 1165.94 Q152.524 1165.94 150.255 1165.57 Q148.01 1165.2 145.603 1164.46 L145.603 1159.76 Q147.686 1160.9 149.908 1161.45 Q152.13 1162.01 154.607 1162.01 Q158.612 1162.01 160.95 1159.9 Q163.288 1157.8 163.288 1154.18 Q163.288 1150.57 160.95 1148.47 Q158.612 1146.36 154.607 1146.36 Q152.732 1146.36 150.857 1146.78 Q149.005 1147.19 147.061 1148.07 L147.061 1130.71 Z" fill="#000000" fill-rule="nonzero" fill-opacity="1" /><path clip-path="url(#clip300)" d="M116.668 886.15 L124.306 886.15 L124.306 859.785 L115.996 861.451 L115.996 857.192 L124.26 855.526 L128.936 855.526 L128.936 886.15 L136.575 886.15 L136.575 890.086 L116.668 890.086 L116.668 886.15 Z" fill="#000000" fill-rule="nonzero" fill-opacity="1" /><path clip-path="url(#clip300)" d="M156.019 858.604 Q152.408 858.604 150.579 862.169 Q148.774 865.711 148.774 872.84 Q148.774 879.947 150.579 883.512 Q152.408 887.053 156.019 887.053 Q159.653 887.053 161.459 883.512 Q163.288 879.947 163.288 872.84 Q163.288 865.711 161.459 862.169 Q159.653 858.604 156.019 858.604 M156.019 854.901 Q161.829 854.901 164.885 859.507 Q167.964 864.09 167.964 872.84 Q167.964 881.567 164.885 886.174 Q161.829 890.757 156.019 890.757 Q150.209 890.757 147.13 886.174 Q144.075 881.567 144.075 872.84 Q144.075 864.09 147.13 859.507 Q150.209 854.901 156.019 854.901 Z" fill="#000000" fill-rule="nonzero" fill-opacity="1" /><path clip-path="url(#clip300)" d="M117.663 610.963 L125.302 610.963 L125.302 584.598 L116.992 586.264 L116.992 582.005 L125.255 580.338 L129.931 580.338 L129.931 610.963 L137.57 610.963 L137.57 614.898 L117.663 614.898 L117.663 610.963 Z" fill="#000000" fill-rule="nonzero" fill-opacity="1" /><path clip-path="url(#clip300)" d="M147.061 580.338 L165.417 580.338 L165.417 584.274 L151.343 584.274 L151.343 592.746 Q152.362 592.399 153.38 592.236 Q154.399 592.051 155.417 592.051 Q161.204 592.051 164.584 595.223 Q167.964 598.394 167.964 603.81 Q167.964 609.389 164.491 612.491 Q161.019 615.57 154.7 615.57 Q152.524 615.57 150.255 615.199 Q148.01 614.829 145.603 614.088 L145.603 609.389 Q147.686 610.523 149.908 611.079 Q152.13 611.635 154.607 611.635 Q158.612 611.635 160.95 609.528 Q163.288 607.422 163.288 603.81 Q163.288 600.199 160.95 598.093 Q158.612 595.986 154.607 595.986 Q152.732 595.986 150.857 596.403 Q149.005 596.82 147.061 597.699 L147.061 580.338 Z" fill="#000000" fill-rule="nonzero" fill-opacity="1" /><path clip-path="url(#clip300)" d="M119.885 335.776 L136.204 335.776 L136.204 339.711 L114.26 339.711 L114.26 335.776 Q116.922 333.021 121.505 328.392 Q126.112 323.739 127.292 322.397 Q129.538 319.873 130.417 318.137 Q131.32 316.378 131.32 314.688 Q131.32 311.934 129.376 310.198 Q127.455 308.461 124.353 308.461 Q122.154 308.461 119.7 309.225 Q117.269 309.989 114.492 311.54 L114.492 306.818 Q117.316 305.684 119.769 305.105 Q122.223 304.526 124.26 304.526 Q129.63 304.526 132.825 307.211 Q136.019 309.897 136.019 314.387 Q136.019 316.517 135.209 318.438 Q134.422 320.336 132.316 322.929 Q131.737 323.6 128.635 326.818 Q125.533 330.012 119.885 335.776 Z" fill="#000000" fill-rule="nonzero" fill-opacity="1" /><path clip-path="url(#clip300)" d="M156.019 308.23 Q152.408 308.23 150.579 311.795 Q148.774 315.336 148.774 322.466 Q148.774 329.572 150.579 333.137 Q152.408 336.679 156.019 336.679 Q159.653 336.679 161.459 333.137 Q163.288 329.572 163.288 322.466 Q163.288 315.336 161.459 311.795 Q159.653 308.23 156.019 308.23 M156.019 304.526 Q161.829 304.526 164.885 309.133 Q167.964 313.716 167.964 322.466 Q167.964 331.193 164.885 335.799 Q161.829 340.383 156.019 340.383 Q150.209 340.383 147.13 335.799 Q144.075 331.193 144.075 322.466 Q144.075 313.716 147.13 309.133 Q150.209 304.526 156.019 304.526 Z" fill="#000000" fill-rule="nonzero" fill-opacity="1" /><path clip-path="url(#clip300)" d="M120.88 60.5889 L137.2 60.5889 L137.2 64.5241 L115.256 64.5241 L115.256 60.5889 Q117.918 57.8343 122.501 53.2047 Q127.107 48.552 128.288 47.2094 Q130.533 44.6862 131.413 42.9501 Q132.316 41.1909 132.316 39.5011 Q132.316 36.7465 130.371 35.0104 Q128.45 33.2743 125.348 33.2743 Q123.149 33.2743 120.695 34.0381 Q118.265 34.802 115.487 36.3529 L115.487 31.6308 Q118.311 30.4965 120.765 29.9178 Q123.218 29.3391 125.255 29.3391 Q130.626 29.3391 133.82 32.0243 Q137.015 34.7094 137.015 39.2002 Q137.015 41.3298 136.204 43.2511 Q135.417 45.1492 133.311 47.7418 Q132.732 48.4131 129.63 51.6306 Q126.529 54.8251 120.88 60.5889 Z" fill="#000000" fill-rule="nonzero" fill-opacity="1" /><path clip-path="url(#clip300)" d="M147.061 29.9641 L165.417 29.9641 L165.417 33.8993 L151.343 33.8993 L151.343 42.3714 Q152.362 42.0242 153.38 41.8622 Q154.399 41.677 155.417 41.677 Q161.204 41.677 164.584 44.8483 Q167.964 48.0196 167.964 53.4362 Q167.964 59.0149 164.491 62.1167 Q161.019 65.1954 154.7 65.1954 Q152.524 65.1954 150.255 64.825 Q148.01 64.4547 145.603 63.7139 L145.603 59.0149 Q147.686 60.1491 149.908 60.7047 Q152.13 61.2602 154.607 61.2602 Q158.612 61.2602 160.95 59.1538 Q163.288 57.0473 163.288 53.4362 Q163.288 49.8251 160.95 47.7186 Q158.612 45.6122 154.607 45.6122 Q152.732 45.6122 150.857 46.0288 Q149.005 46.4455 147.061 47.3251 L147.061 29.9641 Z" fill="#000000" fill-rule="nonzero" fill-opacity="1" /><path clip-path="url(#clip300)" d="M18.0438 844.209 L24.314 844.209 Q22.5634 847.869 21.704 851.116 Q20.8447 854.362 20.8447 857.386 Q20.8447 862.638 22.8817 865.502 Q24.9187 868.335 28.6745 868.335 Q31.8255 868.335 33.4488 866.457 Q35.0402 864.547 36.0269 859.264 L36.8226 855.381 Q38.1912 848.187 41.6605 844.782 Q45.098 841.344 50.8908 841.344 Q57.7976 841.344 61.3624 845.991 Q64.9272 850.606 64.9272 859.55 Q64.9272 862.924 64.1633 866.743 Q63.3994 870.531 61.9035 874.605 L55.2831 874.605 Q57.4793 870.69 58.5933 866.934 Q59.7073 863.179 59.7073 859.55 Q59.7073 854.044 57.543 851.052 Q55.3786 848.06 51.3682 848.06 Q47.8671 848.06 45.8937 850.224 Q43.9204 852.357 42.9337 857.258 L42.1698 861.173 Q40.7375 868.367 37.682 871.581 Q34.6264 874.796 29.1837 874.796 Q22.8817 874.796 19.2532 870.372 Q15.6248 865.916 15.6248 858.118 Q15.6248 854.776 16.2295 851.307 Q16.8343 847.837 18.0438 844.209 Z" fill="#000000" fill-rule="nonzero" fill-opacity="1" /><path clip-path="url(#clip300)" d="M58.657 825.907 L77.5631 825.907 L77.5631 831.796 L28.3562 831.796 L28.3562 825.907 L33.7671 825.907 Q30.5842 824.061 29.0564 821.26 Q27.4968 818.428 27.4968 814.513 Q27.4968 808.02 32.6531 803.978 Q37.8093 799.903 46.212 799.903 Q54.6147 799.903 59.771 803.978 Q64.9272 808.02 64.9272 814.513 Q64.9272 818.428 63.3994 821.26 Q61.8398 824.061 58.657 825.907 M46.212 805.983 Q39.7508 805.983 36.0905 808.656 Q32.3984 811.298 32.3984 815.945 Q32.3984 820.592 36.0905 823.266 Q39.7508 825.907 46.212 825.907 Q52.6732 825.907 56.3653 823.266 Q60.0256 820.592 60.0256 815.945 Q60.0256 811.298 56.3653 808.656 Q52.6732 805.983 46.212 805.983 Z" fill="#000000" fill-rule="nonzero" fill-opacity="1" /><path clip-path="url(#clip300)" d="M44.7161 759.704 L47.5806 759.704 L47.5806 786.631 Q53.6281 786.249 56.8109 783.003 Q59.9619 779.724 59.9619 773.9 Q59.9619 770.526 59.1344 767.375 Q58.3069 764.192 56.6518 761.073 L62.1899 761.073 Q63.5267 764.224 64.227 767.534 Q64.9272 770.844 64.9272 774.25 Q64.9272 782.78 59.9619 787.777 Q54.9967 792.742 46.5303 792.742 Q37.7774 792.742 32.6531 788.031 Q27.4968 783.289 27.4968 775.268 Q27.4968 768.075 32.1438 763.905 Q36.7589 759.704 44.7161 759.704 M42.9973 765.56 Q38.1912 765.624 35.3266 768.266 Q32.4621 770.876 32.4621 775.205 Q32.4621 780.106 35.2312 783.066 Q38.0002 785.994 43.0292 786.44 L42.9973 765.56 Z" fill="#000000" fill-rule="nonzero" fill-opacity="1" /><path clip-path="url(#clip300)" d="M44.7161 719.6 L47.5806 719.6 L47.5806 746.527 Q53.6281 746.145 56.8109 742.899 Q59.9619 739.62 59.9619 733.796 Q59.9619 730.422 59.1344 727.271 Q58.3069 724.088 56.6518 720.969 L62.1899 720.969 Q63.5267 724.12 64.227 727.43 Q64.9272 730.74 64.9272 734.146 Q64.9272 742.676 59.9619 747.673 Q54.9967 752.638 46.5303 752.638 Q37.7774 752.638 32.6531 747.927 Q27.4968 743.185 27.4968 735.164 Q27.4968 727.971 32.1438 723.801 Q36.7589 719.6 44.7161 719.6 M42.9973 725.457 Q38.1912 725.52 35.3266 728.162 Q32.4621 730.772 32.4621 735.101 Q32.4621 740.002 35.2312 742.962 Q38.0002 745.89 43.0292 746.336 L42.9973 725.457 Z" fill="#000000" fill-rule="nonzero" fill-opacity="1" /><path clip-path="url(#clip300)" d="M33.7671 686.53 L14.479 686.53 L14.479 680.674 L64.0042 680.674 L64.0042 686.53 L58.657 686.53 Q61.8398 688.376 63.3994 691.209 Q64.9272 694.01 64.9272 697.957 Q64.9272 704.418 59.771 708.492 Q54.6147 712.534 46.212 712.534 Q37.8093 712.534 32.6531 708.492 Q27.4968 704.418 27.4968 697.957 Q27.4968 694.01 29.0564 691.209 Q30.5842 688.376 33.7671 686.53 M46.212 706.487 Q52.6732 706.487 56.3653 703.845 Q60.0256 701.171 60.0256 696.524 Q60.0256 691.877 56.3653 689.204 Q52.6732 686.53 46.212 686.53 Q39.7508 686.53 36.0905 689.204 Q32.3984 691.877 32.3984 696.524 Q32.3984 701.171 36.0905 703.845 Q39.7508 706.487 46.212 706.487 Z" fill="#000000" fill-rule="nonzero" fill-opacity="1" /><path clip-path="url(#clip300)" d="M49.9359 669.216 L28.3562 669.216 L28.3562 663.359 L49.7131 663.359 Q54.7739 663.359 57.3202 661.386 Q59.8346 659.412 59.8346 655.466 Q59.8346 650.723 56.8109 647.986 Q53.7872 645.217 48.5673 645.217 L28.3562 645.217 L28.3562 639.36 L64.0042 639.36 L64.0042 645.217 L58.5296 645.217 Q61.7762 647.349 63.3676 650.182 Q64.9272 652.983 64.9272 656.707 Q64.9272 662.85 61.1078 666.033 Q57.2883 669.216 49.9359 669.216 M27.4968 654.479 L27.4968 654.479 Z" fill="#000000" fill-rule="nonzero" fill-opacity="1" /><path clip-path="url(#clip300)" d="M58.657 621.632 L77.5631 621.632 L77.5631 627.52 L28.3562 627.52 L28.3562 621.632 L33.7671 621.632 Q30.5842 619.786 29.0564 616.985 Q27.4968 614.152 27.4968 610.237 Q27.4968 603.744 32.6531 599.702 Q37.8093 595.628 46.212 595.628 Q54.6147 595.628 59.771 599.702 Q64.9272 603.744 64.9272 610.237 Q64.9272 614.152 63.3994 616.985 Q61.8398 619.786 58.657 621.632 M46.212 601.707 Q39.7508 601.707 36.0905 604.381 Q32.3984 607.023 32.3984 611.67 Q32.3984 616.316 36.0905 618.99 Q39.7508 621.632 46.212 621.632 Q52.6732 621.632 56.3653 618.99 Q60.0256 616.316 60.0256 611.67 Q60.0256 607.023 56.3653 604.381 Q52.6732 601.707 46.212 601.707 Z" fill="#000000" fill-rule="nonzero" fill-opacity="1" /><polyline clip-path="url(#clip301)" style="stroke:#c9001f; stroke-linecap:round; stroke-linejoin:round; stroke-width:4; stroke-opacity:1; fill:none" points="289.915,1368.14 375.867,1332.1 547.77,1324.22 891.577,1309.96 1579.19,1302.81 2266.8,1303.64 "/>
<circle clip-path="url(#clip301)" cx="289.915" cy="1368.14" r="14.4" fill="#c9001f" fill-rule="evenodd" fill-opacity="1" stroke="#000000" stroke-opacity="1" stroke-width="3.2"/>
<circle clip-path="url(#clip301)" cx="375.867" cy="1332.1" r="14.4" fill="#c9001f" fill-rule="evenodd" fill-opacity="1" stroke="#000000" stroke-opacity="1" stroke-width="3.2"/>
<circle clip-path="url(#clip301)" cx="547.77" cy="1324.22" r="14.4" fill="#c9001f" fill-rule="evenodd" fill-opacity="1" stroke="#000000" stroke-opacity="1" stroke-width="3.2"/>
<circle clip-path="url(#clip301)" cx="891.577" cy="1309.96" r="14.4" fill="#c9001f" fill-rule="evenodd" fill-opacity="1" stroke="#000000" stroke-opacity="1" stroke-width="3.2"/>
<circle clip-path="url(#clip301)" cx="1579.19" cy="1302.81" r="14.4" fill="#c9001f" fill-rule="evenodd" fill-opacity="1" stroke="#000000" stroke-opacity="1" stroke-width="3.2"/>
<circle clip-path="url(#clip301)" cx="2266.8" cy="1303.64" r="14.4" fill="#c9001f" fill-rule="evenodd" fill-opacity="1" stroke="#000000" stroke-opacity="1" stroke-width="3.2"/>
<polyline clip-path="url(#clip301)" style="stroke:#f4a482; stroke-linecap:round; stroke-linejoin:round; stroke-width:4; stroke-opacity:1; fill:none" points="289.915,1368.14 375.867,1340.62 547.77,1290.95 891.577,1252.83 1579.19,1218.43 2266.8,1214.11 "/>
<circle clip-path="url(#clip301)" cx="289.915" cy="1368.14" r="14.4" fill="#f4a482" fill-rule="evenodd" fill-opacity="1" stroke="#000000" stroke-opacity="1" stroke-width="3.2"/>
<circle clip-path="url(#clip301)" cx="375.867" cy="1340.62" r="14.4" fill="#f4a482" fill-rule="evenodd" fill-opacity="1" stroke="#000000" stroke-opacity="1" stroke-width="3.2"/>
<circle clip-path="url(#clip301)" cx="547.77" cy="1290.95" r="14.4" fill="#f4a482" fill-rule="evenodd" fill-opacity="1" stroke="#000000" stroke-opacity="1" stroke-width="3.2"/>
<circle clip-path="url(#clip301)" cx="891.577" cy="1252.83" r="14.4" fill="#f4a482" fill-rule="evenodd" fill-opacity="1" stroke="#000000" stroke-opacity="1" stroke-width="3.2"/>
<circle clip-path="url(#clip301)" cx="1579.19" cy="1218.43" r="14.4" fill="#f4a482" fill-rule="evenodd" fill-opacity="1" stroke="#000000" stroke-opacity="1" stroke-width="3.2"/>
<circle clip-path="url(#clip301)" cx="2266.8" cy="1214.11" r="14.4" fill="#f4a482" fill-rule="evenodd" fill-opacity="1" stroke="#000000" stroke-opacity="1" stroke-width="3.2"/>
<polyline clip-path="url(#clip301)" style="stroke:#92c5de; stroke-linecap:round; stroke-linejoin:round; stroke-width:4; stroke-opacity:1; fill:none" points="289.915,1368.14 375.867,1335.54 547.77,1281.13 891.577,1247.09 1579.19,1214.9 2266.8,1214.9 "/>
<circle clip-path="url(#clip301)" cx="289.915" cy="1368.14" r="14.4" fill="#92c5de" fill-rule="evenodd" fill-opacity="1" stroke="#000000" stroke-opacity="1" stroke-width="3.2"/>
<circle clip-path="url(#clip301)" cx="375.867" cy="1335.54" r="14.4" fill="#92c5de" fill-rule="evenodd" fill-opacity="1" stroke="#000000" stroke-opacity="1" stroke-width="3.2"/>
<circle clip-path="url(#clip301)" cx="547.77" cy="1281.13" r="14.4" fill="#92c5de" fill-rule="evenodd" fill-opacity="1" stroke="#000000" stroke-opacity="1" stroke-width="3.2"/>
<circle clip-path="url(#clip301)" cx="891.577" cy="1247.09" r="14.4" fill="#92c5de" fill-rule="evenodd" fill-opacity="1" stroke="#000000" stroke-opacity="1" stroke-width="3.2"/>
<circle clip-path="url(#clip301)" cx="1579.19" cy="1214.9" r="14.4" fill="#92c5de" fill-rule="evenodd" fill-opacity="1" stroke="#000000" stroke-opacity="1" stroke-width="3.2"/>
<circle clip-path="url(#clip301)" cx="2266.8" cy="1214.9" r="14.4" fill="#92c5de" fill-rule="evenodd" fill-opacity="1" stroke="#000000" stroke-opacity="1" stroke-width="3.2"/>
<polyline clip-path="url(#clip301)" style="stroke:#0570af; stroke-linecap:round; stroke-linejoin:round; stroke-width:4; stroke-opacity:1; fill:none" points="289.915,1368.14 375.867,1313.84 547.77,1211.36 891.577,1011.32 1579.19,857.261 2266.8,659.684 "/>
<circle clip-path="url(#clip301)" cx="289.915" cy="1368.14" r="14.4" fill="#0570af" fill-rule="evenodd" fill-opacity="1" stroke="#000000" stroke-opacity="1" stroke-width="3.2"/>
<circle clip-path="url(#clip301)" cx="375.867" cy="1313.84" r="14.4" fill="#0570af" fill-rule="evenodd" fill-opacity="1" stroke="#000000" stroke-opacity="1" stroke-width="3.2"/>
<circle clip-path="url(#clip301)" cx="547.77" cy="1211.36" r="14.4" fill="#0570af" fill-rule="evenodd" fill-opacity="1" stroke="#000000" stroke-opacity="1" stroke-width="3.2"/>
<circle clip-path="url(#clip301)" cx="891.577" cy="1011.32" r="14.4" fill="#0570af" fill-rule="evenodd" fill-opacity="1" stroke="#000000" stroke-opacity="1" stroke-width="3.2"/>
<circle clip-path="url(#clip301)" cx="1579.19" cy="857.261" r="14.4" fill="#0570af" fill-rule="evenodd" fill-opacity="1" stroke="#000000" stroke-opacity="1" stroke-width="3.2"/>
<circle clip-path="url(#clip301)" cx="2266.8" cy="659.684" r="14.4" fill="#0570af" fill-rule="evenodd" fill-opacity="1" stroke="#000000" stroke-opacity="1" stroke-width="3.2"/>
<polyline clip-path="url(#clip301)" style="stroke:#000000; stroke-linecap:round; stroke-linejoin:round; stroke-width:4; stroke-opacity:1; fill:none" points="289.915,1368.14 375.867,1323.77 547.77,1255.88 891.577,1173.47 1579.19,1118.37 2266.8,1086.6 "/>
<circle clip-path="url(#clip301)" cx="289.915" cy="1368.14" r="14.4" fill="#000000" fill-rule="evenodd" fill-opacity="1" stroke="none"/>
<circle clip-path="url(#clip301)" cx="375.867" cy="1323.77" r="14.4" fill="#000000" fill-rule="evenodd" fill-opacity="1" stroke="none"/>
<circle clip-path="url(#clip301)" cx="547.77" cy="1255.88" r="14.4" fill="#000000" fill-rule="evenodd" fill-opacity="1" stroke="none"/>
<circle clip-path="url(#clip301)" cx="891.577" cy="1173.47" r="14.4" fill="#000000" fill-rule="evenodd" fill-opacity="1" stroke="none"/>
<circle clip-path="url(#clip301)" cx="1579.19" cy="1118.37" r="14.4" fill="#000000" fill-rule="evenodd" fill-opacity="1" stroke="none"/>
<circle clip-path="url(#clip301)" cx="2266.8" cy="1086.6" r="14.4" fill="#000000" fill-rule="evenodd" fill-opacity="1" stroke="none"/>
<polyline clip-path="url(#clip301)" style="stroke:#000000; stroke-linecap:round; stroke-linejoin:round; stroke-width:4; stroke-opacity:1; fill:none" stroke-dasharray="16, 10" points="289.915,1368.14 2352.76,47.2441 "/>
<path clip-path="url(#clip300)" d="M275.59 404.149 L992.11 404.149 L992.11 93.1086 L275.59 93.1086  Z" fill="#ffffff" fill-rule="evenodd" fill-opacity="1"/>
<polyline clip-path="url(#clip300)" style="stroke:#000000; stroke-linecap:round; stroke-linejoin:round; stroke-width:4; stroke-opacity:1; fill:none" points="275.59,404.149 992.11,404.149 992.11,93.1086 275.59,93.1086 275.59,404.149 "/>
<polyline clip-path="url(#clip300)" style="stroke:#c9001f; stroke-linecap:round; stroke-linejoin:round; stroke-width:4; stroke-opacity:1; fill:none" points="299.465,144.949 442.718,144.949 "/>
<circle clip-path="url(#clip300)" cx="371.092" cy="144.949" r="19.8962" fill="#c9001f" fill-rule="evenodd" fill-opacity="1" stroke="#000000" stroke-opacity="1" stroke-width="4.55111"/>
<path clip-path="url(#clip300)" d="M466.594 127.669 L471.293 127.669 L471.293 148.664 Q471.293 154.219 473.307 156.673 Q475.321 159.104 479.834 159.104 Q484.325 159.104 486.339 156.673 Q488.353 154.219 488.353 148.664 L488.353 127.669 L493.052 127.669 L493.052 149.243 Q493.052 156.002 489.695 159.451 Q486.362 162.9 479.834 162.9 Q473.284 162.9 469.927 159.451 Q466.594 156.002 466.594 149.243 L466.594 127.669 Z" fill="#000000" fill-rule="nonzero" fill-opacity="1" /><path clip-path="url(#clip300)" d="M505.76 158.34 L505.76 172.09 L501.478 172.09 L501.478 136.303 L505.76 136.303 L505.76 140.238 Q507.103 137.923 509.14 136.812 Q511.2 135.678 514.047 135.678 Q518.769 135.678 521.709 139.428 Q524.672 143.178 524.672 149.289 Q524.672 155.4 521.709 159.15 Q518.769 162.9 514.047 162.9 Q511.2 162.9 509.14 161.789 Q507.103 160.655 505.76 158.34 M520.251 149.289 Q520.251 144.59 518.306 141.928 Q516.385 139.243 513.006 139.243 Q509.626 139.243 507.681 141.928 Q505.76 144.59 505.76 149.289 Q505.76 153.988 507.681 156.673 Q509.626 159.335 513.006 159.335 Q516.385 159.335 518.306 156.673 Q520.251 153.988 520.251 149.289 Z" fill="#000000" fill-rule="nonzero" fill-opacity="1" /><path clip-path="url(#clip300)" d="M548.792 140.238 L548.792 126.21 L553.052 126.21 L553.052 162.229 L548.792 162.229 L548.792 158.34 Q547.45 160.655 545.39 161.789 Q543.353 162.9 540.482 162.9 Q535.783 162.9 532.82 159.15 Q529.88 155.4 529.88 149.289 Q529.88 143.178 532.82 139.428 Q535.783 135.678 540.482 135.678 Q543.353 135.678 545.39 136.812 Q547.45 137.923 548.792 140.238 M534.279 149.289 Q534.279 153.988 536.2 156.673 Q538.144 159.335 541.524 159.335 Q544.904 159.335 546.848 156.673 Q548.792 153.988 548.792 149.289 Q548.792 144.59 546.848 141.928 Q544.904 139.243 541.524 139.243 Q538.144 139.243 536.2 141.928 Q534.279 144.59 534.279 149.289 Z" fill="#000000" fill-rule="nonzero" fill-opacity="1" /><path clip-path="url(#clip300)" d="M573.607 149.196 Q568.445 149.196 566.454 150.377 Q564.464 151.557 564.464 154.405 Q564.464 156.673 565.945 158.016 Q567.45 159.335 570.019 159.335 Q573.561 159.335 575.69 156.835 Q577.843 154.312 577.843 150.145 L577.843 149.196 L573.607 149.196 M582.102 147.437 L582.102 162.229 L577.843 162.229 L577.843 158.293 Q576.385 160.655 574.209 161.789 Q572.033 162.9 568.885 162.9 Q564.903 162.9 562.542 160.678 Q560.204 158.432 560.204 154.682 Q560.204 150.307 563.121 148.085 Q566.061 145.863 571.871 145.863 L577.843 145.863 L577.843 145.446 Q577.843 142.507 575.899 140.909 Q573.977 139.289 570.482 139.289 Q568.26 139.289 566.153 139.821 Q564.047 140.354 562.102 141.419 L562.102 137.483 Q564.44 136.581 566.64 136.141 Q568.839 135.678 570.922 135.678 Q576.547 135.678 579.325 138.594 Q582.102 141.511 582.102 147.437 Z" fill="#000000" fill-rule="nonzero" fill-opacity="1" /><path clip-path="url(#clip300)" d="M595.088 128.942 L595.088 136.303 L603.862 136.303 L603.862 139.613 L595.088 139.613 L595.088 153.687 Q595.088 156.858 595.945 157.761 Q596.825 158.664 599.487 158.664 L603.862 158.664 L603.862 162.229 L599.487 162.229 Q594.556 162.229 592.681 160.4 Q590.806 158.548 590.806 153.687 L590.806 139.613 L587.681 139.613 L587.681 136.303 L590.806 136.303 L590.806 128.942 L595.088 128.942 Z" fill="#000000" fill-rule="nonzero" fill-opacity="1" /><path clip-path="url(#clip300)" d="M631.639 148.201 L631.639 150.284 L612.056 150.284 Q612.334 154.682 614.695 156.997 Q617.079 159.289 621.315 159.289 Q623.769 159.289 626.06 158.687 Q628.375 158.085 630.644 156.881 L630.644 160.909 Q628.352 161.881 625.945 162.391 Q623.537 162.9 621.061 162.9 Q614.857 162.9 611.223 159.289 Q607.612 155.678 607.612 149.52 Q607.612 143.155 611.037 139.428 Q614.486 135.678 620.32 135.678 Q625.551 135.678 628.584 139.057 Q631.639 142.414 631.639 148.201 M627.38 146.951 Q627.334 143.456 625.412 141.372 Q623.514 139.289 620.366 139.289 Q616.801 139.289 614.649 141.303 Q612.519 143.317 612.195 146.974 L627.38 146.951 Z" fill="#000000" fill-rule="nonzero" fill-opacity="1" /><path clip-path="url(#clip300)" d="M672.31 149.289 Q672.31 144.59 670.366 141.928 Q668.445 139.243 665.065 139.243 Q661.685 139.243 659.741 141.928 Q657.82 144.59 657.82 149.289 Q657.82 153.988 659.741 156.673 Q661.685 159.335 665.065 159.335 Q668.445 159.335 670.366 156.673 Q672.31 153.988 672.31 149.289 M657.82 140.238 Q659.162 137.923 661.199 136.812 Q663.259 135.678 666.107 135.678 Q670.829 135.678 673.769 139.428 Q676.732 143.178 676.732 149.289 Q676.732 155.4 673.769 159.15 Q670.829 162.9 666.107 162.9 Q663.259 162.9 661.199 161.789 Q659.162 160.655 657.82 158.34 L657.82 162.229 L653.537 162.229 L653.537 126.21 L657.82 126.21 L657.82 140.238 Z" fill="#000000" fill-rule="nonzero" fill-opacity="1" /><path clip-path="url(#clip300)" d="M695.574 149.196 Q690.412 149.196 688.421 150.377 Q686.431 151.557 686.431 154.405 Q686.431 156.673 687.912 158.016 Q689.417 159.335 691.986 159.335 Q695.528 159.335 697.657 156.835 Q699.81 154.312 699.81 150.145 L699.81 149.196 L695.574 149.196 M704.069 147.437 L704.069 162.229 L699.81 162.229 L699.81 158.293 Q698.352 160.655 696.176 161.789 Q694 162.9 690.852 162.9 Q686.87 162.9 684.509 160.678 Q682.171 158.432 682.171 154.682 Q682.171 150.307 685.088 148.085 Q688.028 145.863 693.838 145.863 L699.81 145.863 L699.81 145.446 Q699.81 142.507 697.866 140.909 Q695.944 139.289 692.449 139.289 Q690.227 139.289 688.12 139.821 Q686.014 140.354 684.069 141.419 L684.069 137.483 Q686.407 136.581 688.606 136.141 Q690.806 135.678 692.889 135.678 Q698.514 135.678 701.292 138.594 Q704.069 141.511 704.069 147.437 Z" fill="#000000" fill-rule="nonzero" fill-opacity="1" /><path clip-path="url(#clip300)" d="M729.37 137.067 L729.37 141.094 Q727.565 140.169 725.62 139.706 Q723.676 139.243 721.592 139.243 Q718.421 139.243 716.824 140.215 Q715.25 141.187 715.25 143.131 Q715.25 144.613 716.384 145.469 Q717.518 146.303 720.944 147.067 L722.403 147.391 Q726.94 148.363 728.838 150.145 Q730.759 151.905 730.759 155.076 Q730.759 158.687 727.889 160.793 Q725.041 162.9 720.041 162.9 Q717.958 162.9 715.69 162.483 Q713.444 162.09 710.944 161.28 L710.944 156.881 Q713.305 158.108 715.597 158.733 Q717.889 159.335 720.134 159.335 Q723.143 159.335 724.764 158.317 Q726.384 157.275 726.384 155.4 Q726.384 153.664 725.203 152.738 Q724.046 151.812 720.088 150.956 L718.606 150.608 Q714.648 149.775 712.889 148.062 Q711.129 146.326 711.129 143.317 Q711.129 139.659 713.722 137.669 Q716.315 135.678 721.083 135.678 Q723.444 135.678 725.528 136.025 Q727.611 136.372 729.37 137.067 Z" fill="#000000" fill-rule="nonzero" fill-opacity="1" /><path clip-path="url(#clip300)" d="M737.541 136.303 L741.801 136.303 L741.801 162.229 L737.541 162.229 L737.541 136.303 M737.541 126.21 L741.801 126.21 L741.801 131.604 L737.541 131.604 L737.541 126.21 Z" fill="#000000" fill-rule="nonzero" fill-opacity="1" /><path clip-path="url(#clip300)" d="M767.24 137.067 L767.24 141.094 Q765.435 140.169 763.49 139.706 Q761.546 139.243 759.463 139.243 Q756.291 139.243 754.694 140.215 Q753.12 141.187 753.12 143.131 Q753.12 144.613 754.254 145.469 Q755.388 146.303 758.814 147.067 L760.273 147.391 Q764.81 148.363 766.708 150.145 Q768.629 151.905 768.629 155.076 Q768.629 158.687 765.759 160.793 Q762.912 162.9 757.912 162.9 Q755.828 162.9 753.56 162.483 Q751.314 162.09 748.814 161.28 L748.814 156.881 Q751.176 158.108 753.467 158.733 Q755.759 159.335 758.004 159.335 Q761.013 159.335 762.634 158.317 Q764.254 157.275 764.254 155.4 Q764.254 153.664 763.074 152.738 Q761.916 151.812 757.958 150.956 L756.476 150.608 Q752.518 149.775 750.759 148.062 Q749 146.326 749 143.317 Q749 139.659 751.592 137.669 Q754.185 135.678 758.953 135.678 Q761.314 135.678 763.398 136.025 Q765.481 136.372 767.24 137.067 Z" fill="#000000" fill-rule="nonzero" fill-opacity="1" /><path clip-path="url(#clip300)" d="M788.004 136.303 L792.263 136.303 L797.587 156.534 L802.888 136.303 L807.911 136.303 L813.235 156.534 L818.536 136.303 L822.796 136.303 L816.013 162.229 L810.99 162.229 L805.411 140.979 L799.81 162.229 L794.786 162.229 L788.004 136.303 Z" fill="#000000" fill-rule="nonzero" fill-opacity="1" /><path clip-path="url(#clip300)" d="M851.43 148.201 L851.43 150.284 L831.846 150.284 Q832.124 154.682 834.485 156.997 Q836.87 159.289 841.106 159.289 Q843.559 159.289 845.851 158.687 Q848.166 158.085 850.434 156.881 L850.434 160.909 Q848.143 161.881 845.735 162.391 Q843.328 162.9 840.851 162.9 Q834.647 162.9 831.013 159.289 Q827.402 155.678 827.402 149.52 Q827.402 143.155 830.828 139.428 Q834.277 135.678 840.11 135.678 Q845.342 135.678 848.374 139.057 Q851.43 142.414 851.43 148.201 M847.17 146.951 Q847.124 143.456 845.203 141.372 Q843.305 139.289 840.157 139.289 Q836.592 139.289 834.439 141.303 Q832.309 143.317 831.985 146.974 L847.17 146.951 Z" fill="#000000" fill-rule="nonzero" fill-opacity="1" /><path clip-path="url(#clip300)" d="M858.42 136.303 L862.68 136.303 L862.68 162.229 L858.42 162.229 L858.42 136.303 M858.42 126.21 L862.68 126.21 L862.68 131.604 L858.42 131.604 L858.42 126.21 Z" fill="#000000" fill-rule="nonzero" fill-opacity="1" /><path clip-path="url(#clip300)" d="M888.652 148.965 Q888.652 144.335 886.73 141.789 Q884.832 139.243 881.383 139.243 Q877.957 139.243 876.036 141.789 Q874.138 144.335 874.138 148.965 Q874.138 153.571 876.036 156.118 Q877.957 158.664 881.383 158.664 Q884.832 158.664 886.73 156.118 Q888.652 153.571 888.652 148.965 M892.911 159.011 Q892.911 165.631 889.971 168.849 Q887.031 172.09 880.967 172.09 Q878.721 172.09 876.73 171.742 Q874.74 171.418 872.865 170.724 L872.865 166.58 Q874.74 167.599 876.568 168.085 Q878.397 168.571 880.295 168.571 Q884.485 168.571 886.568 166.372 Q888.652 164.196 888.652 159.775 L888.652 157.668 Q887.332 159.96 885.272 161.094 Q883.212 162.229 880.342 162.229 Q875.573 162.229 872.656 158.594 Q869.74 154.96 869.74 148.965 Q869.74 142.946 872.656 139.312 Q875.573 135.678 880.342 135.678 Q883.212 135.678 885.272 136.812 Q887.332 137.946 888.652 140.238 L888.652 136.303 L892.911 136.303 L892.911 159.011 Z" fill="#000000" fill-rule="nonzero" fill-opacity="1" /><path clip-path="url(#clip300)" d="M923.235 146.581 L923.235 162.229 L918.976 162.229 L918.976 146.719 Q918.976 143.039 917.54 141.21 Q916.105 139.382 913.235 139.382 Q909.786 139.382 907.795 141.581 Q905.804 143.78 905.804 147.576 L905.804 162.229 L901.522 162.229 L901.522 126.21 L905.804 126.21 L905.804 140.331 Q907.332 137.993 909.392 136.835 Q911.476 135.678 914.184 135.678 Q918.652 135.678 920.943 138.456 Q923.235 141.21 923.235 146.581 Z" fill="#000000" fill-rule="nonzero" fill-opacity="1" /><path clip-path="url(#clip300)" d="M935.943 128.942 L935.943 136.303 L944.716 136.303 L944.716 139.613 L935.943 139.613 L935.943 153.687 Q935.943 156.858 936.8 157.761 Q937.679 158.664 940.341 158.664 L944.716 158.664 L944.716 162.229 L940.341 162.229 Q935.411 162.229 933.536 160.4 Q931.661 158.548 931.661 153.687 L931.661 139.613 L928.536 139.613 L928.536 136.303 L931.661 136.303 L931.661 128.942 L935.943 128.942 Z" fill="#000000" fill-rule="nonzero" fill-opacity="1" /><path clip-path="url(#clip300)" d="M966.846 137.067 L966.846 141.094 Q965.04 140.169 963.096 139.706 Q961.151 139.243 959.068 139.243 Q955.897 139.243 954.299 140.215 Q952.725 141.187 952.725 143.131 Q952.725 144.613 953.86 145.469 Q954.994 146.303 958.42 147.067 L959.878 147.391 Q964.415 148.363 966.313 150.145 Q968.235 151.905 968.235 155.076 Q968.235 158.687 965.364 160.793 Q962.517 162.9 957.517 162.9 Q955.434 162.9 953.165 162.483 Q950.92 162.09 948.42 161.28 L948.42 156.881 Q950.781 158.108 953.073 158.733 Q955.364 159.335 957.61 159.335 Q960.619 159.335 962.239 158.317 Q963.86 157.275 963.86 155.4 Q963.86 153.664 962.679 152.738 Q961.522 151.812 957.563 150.956 L956.082 150.608 Q952.124 149.775 950.364 148.062 Q948.605 146.326 948.605 143.317 Q948.605 139.659 951.198 137.669 Q953.79 135.678 958.559 135.678 Q960.92 135.678 963.003 136.025 Q965.086 136.372 966.846 137.067 Z" fill="#000000" fill-rule="nonzero" fill-opacity="1" /><polyline clip-path="url(#clip300)" style="stroke:#f4a482; stroke-linecap:round; stroke-linejoin:round; stroke-width:4; stroke-opacity:1; fill:none" points="299.465,196.789 442.718,196.789 "/>
<circle clip-path="url(#clip300)" cx="371.092" cy="196.789" r="19.8962" fill="#f4a482" fill-rule="evenodd" fill-opacity="1" stroke="#000000" stroke-opacity="1" stroke-width="4.55111"/>
<path clip-path="url(#clip300)" d="M471.27 183.351 L471.27 196.337 L477.149 196.337 Q480.413 196.337 482.196 194.647 Q483.978 192.958 483.978 189.833 Q483.978 186.731 482.196 185.041 Q480.413 183.351 477.149 183.351 L471.27 183.351 M466.594 179.509 L477.149 179.509 Q482.959 179.509 485.922 182.147 Q488.908 184.763 488.908 189.833 Q488.908 194.948 485.922 197.564 Q482.959 200.18 477.149 200.18 L471.27 200.18 L471.27 214.069 L466.594 214.069 L466.594 179.509 Z" fill="#000000" fill-rule="nonzero" fill-opacity="1" /><path clip-path="url(#clip300)" d="M499.626 210.133 L515.945 210.133 L515.945 214.069 L494.001 214.069 L494.001 210.133 Q496.663 207.379 501.246 202.749 Q505.853 198.096 507.033 196.754 Q509.279 194.231 510.158 192.495 Q511.061 190.735 511.061 189.046 Q511.061 186.291 509.117 184.555 Q507.195 182.819 504.094 182.819 Q501.894 182.819 499.441 183.583 Q497.01 184.347 494.232 185.897 L494.232 181.175 Q497.057 180.041 499.51 179.462 Q501.964 178.884 504.001 178.884 Q509.371 178.884 512.566 181.569 Q515.76 184.254 515.76 188.745 Q515.76 190.874 514.95 192.796 Q514.163 194.694 512.056 197.286 Q511.478 197.958 508.376 201.175 Q505.274 204.37 499.626 210.133 Z" fill="#000000" fill-rule="nonzero" fill-opacity="1" /><path clip-path="url(#clip300)" d="M548.908 209.138 L548.908 199.856 L541.269 199.856 L541.269 196.013 L553.538 196.013 L553.538 210.851 Q550.829 212.772 547.566 213.768 Q544.302 214.74 540.598 214.74 Q532.496 214.74 527.913 210.018 Q523.353 205.272 523.353 196.823 Q523.353 188.351 527.913 183.629 Q532.496 178.884 540.598 178.884 Q543.978 178.884 547.01 179.717 Q550.066 180.55 552.635 182.171 L552.635 187.147 Q550.042 184.948 547.126 183.837 Q544.209 182.726 540.991 182.726 Q534.649 182.726 531.455 186.268 Q528.283 189.809 528.283 196.823 Q528.283 203.814 531.455 207.356 Q534.649 210.897 540.991 210.897 Q543.468 210.897 545.413 210.481 Q547.357 210.041 548.908 209.138 Z" fill="#000000" fill-rule="nonzero" fill-opacity="1" /><path clip-path="url(#clip300)" d="M581.176 180.782 L581.176 188.143 L589.95 188.143 L589.95 191.453 L581.176 191.453 L581.176 205.527 Q581.176 208.698 582.033 209.601 Q582.913 210.504 585.575 210.504 L589.95 210.504 L589.95 214.069 L585.575 214.069 Q580.644 214.069 578.769 212.24 Q576.894 210.388 576.894 205.527 L576.894 191.453 L573.769 191.453 L573.769 188.143 L576.894 188.143 L576.894 180.782 L581.176 180.782 Z" fill="#000000" fill-rule="nonzero" fill-opacity="1" /><path clip-path="url(#clip300)" d="M610.574 192.124 Q609.857 191.708 609 191.522 Q608.167 191.314 607.149 191.314 Q603.537 191.314 601.593 193.675 Q599.672 196.013 599.672 200.411 L599.672 214.069 L595.389 214.069 L595.389 188.143 L599.672 188.143 L599.672 192.171 Q601.014 189.809 603.167 188.675 Q605.32 187.518 608.399 187.518 Q608.838 187.518 609.371 187.587 Q609.903 187.634 610.551 187.749 L610.574 192.124 Z" fill="#000000" fill-rule="nonzero" fill-opacity="1" /><path clip-path="url(#clip300)" d="M626.824 201.036 Q621.662 201.036 619.672 202.217 Q617.681 203.397 617.681 206.245 Q617.681 208.513 619.162 209.856 Q620.667 211.175 623.236 211.175 Q626.778 211.175 628.908 208.675 Q631.06 206.152 631.06 201.985 L631.06 201.036 L626.824 201.036 M635.32 199.277 L635.32 214.069 L631.06 214.069 L631.06 210.133 Q629.602 212.495 627.426 213.629 Q625.25 214.74 622.102 214.74 Q618.121 214.74 615.76 212.518 Q613.422 210.272 613.422 206.522 Q613.422 202.147 616.338 199.925 Q619.278 197.703 625.088 197.703 L631.06 197.703 L631.06 197.286 Q631.06 194.347 629.116 192.749 Q627.195 191.129 623.699 191.129 Q621.477 191.129 619.371 191.661 Q617.264 192.194 615.32 193.259 L615.32 189.323 Q617.658 188.421 619.857 187.981 Q622.056 187.518 624.139 187.518 Q629.764 187.518 632.542 190.434 Q635.32 193.351 635.32 199.277 Z" fill="#000000" fill-rule="nonzero" fill-opacity="1" /><path clip-path="url(#clip300)" d="M665.644 198.421 L665.644 214.069 L661.384 214.069 L661.384 198.559 Q661.384 194.879 659.949 193.05 Q658.514 191.222 655.644 191.222 Q652.195 191.222 650.204 193.421 Q648.213 195.62 648.213 199.416 L648.213 214.069 L643.931 214.069 L643.931 188.143 L648.213 188.143 L648.213 192.171 Q649.741 189.833 651.801 188.675 Q653.884 187.518 656.593 187.518 Q661.06 187.518 663.352 190.296 Q665.644 193.05 665.644 198.421 Z" fill="#000000" fill-rule="nonzero" fill-opacity="1" /><path clip-path="url(#clip300)" d="M690.667 188.907 L690.667 192.934 Q688.861 192.009 686.917 191.546 Q684.972 191.083 682.889 191.083 Q679.718 191.083 678.12 192.055 Q676.546 193.027 676.546 194.971 Q676.546 196.453 677.681 197.309 Q678.815 198.143 682.241 198.907 L683.699 199.231 Q688.236 200.203 690.134 201.985 Q692.056 203.745 692.056 206.916 Q692.056 210.527 689.185 212.633 Q686.338 214.74 681.338 214.74 Q679.255 214.74 676.986 214.323 Q674.741 213.93 672.241 213.12 L672.241 208.721 Q674.602 209.948 676.894 210.573 Q679.185 211.175 681.431 211.175 Q684.44 211.175 686.06 210.157 Q687.681 209.115 687.681 207.24 Q687.681 205.504 686.5 204.578 Q685.343 203.652 681.384 202.796 L679.903 202.448 Q675.944 201.615 674.185 199.902 Q672.426 198.166 672.426 195.157 Q672.426 191.499 675.019 189.509 Q677.611 187.518 682.38 187.518 Q684.741 187.518 686.824 187.865 Q688.907 188.212 690.667 188.907 Z" fill="#000000" fill-rule="nonzero" fill-opacity="1" /><path clip-path="url(#clip300)" d="M711.963 178.05 L711.963 181.592 L707.889 181.592 Q705.597 181.592 704.694 182.518 Q703.815 183.444 703.815 185.851 L703.815 188.143 L710.829 188.143 L710.829 191.453 L703.815 191.453 L703.815 214.069 L699.532 214.069 L699.532 191.453 L695.458 191.453 L695.458 188.143 L699.532 188.143 L699.532 186.337 Q699.532 182.009 701.546 180.041 Q703.56 178.05 707.935 178.05 L711.963 178.05 Z" fill="#000000" fill-rule="nonzero" fill-opacity="1" /><path clip-path="url(#clip300)" d="M737.703 200.041 L737.703 202.124 L718.12 202.124 Q718.398 206.522 720.759 208.837 Q723.143 211.129 727.379 211.129 Q729.833 211.129 732.125 210.527 Q734.44 209.925 736.708 208.721 L736.708 212.749 Q734.416 213.721 732.009 214.231 Q729.602 214.74 727.125 214.74 Q720.921 214.74 717.287 211.129 Q713.676 207.518 713.676 201.36 Q713.676 194.995 717.102 191.268 Q720.551 187.518 726.384 187.518 Q731.615 187.518 734.648 190.897 Q737.703 194.254 737.703 200.041 M733.444 198.791 Q733.398 195.296 731.477 193.212 Q729.578 191.129 726.43 191.129 Q722.866 191.129 720.713 193.143 Q718.583 195.157 718.259 198.814 L733.444 198.791 Z" fill="#000000" fill-rule="nonzero" fill-opacity="1" /><path clip-path="url(#clip300)" d="M759.717 192.124 Q759 191.708 758.143 191.522 Q757.31 191.314 756.291 191.314 Q752.68 191.314 750.736 193.675 Q748.814 196.013 748.814 200.411 L748.814 214.069 L744.532 214.069 L744.532 188.143 L748.814 188.143 L748.814 192.171 Q750.157 189.809 752.31 188.675 Q754.463 187.518 757.541 187.518 Q757.981 187.518 758.513 187.587 Q759.046 187.634 759.694 187.749 L759.717 192.124 Z" fill="#000000" fill-rule="nonzero" fill-opacity="1" /><polyline clip-path="url(#clip300)" style="stroke:#92c5de; stroke-linecap:round; stroke-linejoin:round; stroke-width:4; stroke-opacity:1; fill:none" points="299.465,248.629 442.718,248.629 "/>
<circle clip-path="url(#clip300)" cx="371.092" cy="248.629" r="19.8962" fill="#92c5de" fill-rule="evenodd" fill-opacity="1" stroke="#000000" stroke-opacity="1" stroke-width="4.55111"/>
<path clip-path="url(#clip300)" d="M492.149 260.978 L492.149 251.696 L484.51 251.696 L484.51 247.853 L496.779 247.853 L496.779 262.691 Q494.07 264.612 490.807 265.608 Q487.543 266.58 483.839 266.58 Q475.737 266.58 471.154 261.858 Q466.594 257.112 466.594 248.663 Q466.594 240.191 471.154 235.469 Q475.737 230.724 483.839 230.724 Q487.219 230.724 490.251 231.557 Q493.307 232.39 495.876 234.011 L495.876 238.987 Q493.283 236.788 490.367 235.677 Q487.45 234.566 484.233 234.566 Q477.89 234.566 474.696 238.108 Q471.524 241.649 471.524 248.663 Q471.524 255.654 474.696 259.196 Q477.89 262.737 484.233 262.737 Q486.709 262.737 488.654 262.321 Q490.598 261.881 492.149 260.978 Z" fill="#000000" fill-rule="nonzero" fill-opacity="1" /><path clip-path="url(#clip300)" d="M509.765 261.973 L526.084 261.973 L526.084 265.909 L504.14 265.909 L504.14 261.973 Q506.802 259.219 511.385 254.589 Q515.992 249.936 517.172 248.594 Q519.418 246.071 520.297 244.335 Q521.2 242.575 521.2 240.886 Q521.2 238.131 519.256 236.395 Q517.334 234.659 514.232 234.659 Q512.033 234.659 509.58 235.423 Q507.149 236.187 504.371 237.737 L504.371 233.015 Q507.195 231.881 509.649 231.302 Q512.103 230.724 514.14 230.724 Q519.51 230.724 522.705 233.409 Q525.899 236.094 525.899 240.585 Q525.899 242.714 525.089 244.636 Q524.302 246.534 522.195 249.126 Q521.617 249.798 518.515 253.015 Q515.413 256.21 509.765 261.973 Z" fill="#000000" fill-rule="nonzero" fill-opacity="1" /><path clip-path="url(#clip300)" d="M540.158 235.191 L540.158 248.177 L546.038 248.177 Q549.302 248.177 551.084 246.487 Q552.866 244.798 552.866 241.673 Q552.866 238.571 551.084 236.881 Q549.302 235.191 546.038 235.191 L540.158 235.191 M535.482 231.349 L546.038 231.349 Q551.848 231.349 554.811 233.987 Q557.797 236.603 557.797 241.673 Q557.797 246.788 554.811 249.404 Q551.848 252.02 546.038 252.02 L540.158 252.02 L540.158 265.909 L535.482 265.909 L535.482 231.349 Z" fill="#000000" fill-rule="nonzero" fill-opacity="1" /><path clip-path="url(#clip300)" d="M583.167 232.622 L583.167 239.983 L591.94 239.983 L591.94 243.293 L583.167 243.293 L583.167 257.367 Q583.167 260.538 584.024 261.441 Q584.903 262.344 587.565 262.344 L591.94 262.344 L591.94 265.909 L587.565 265.909 Q582.635 265.909 580.76 264.08 Q578.885 262.228 578.885 257.367 L578.885 243.293 L575.76 243.293 L575.76 239.983 L578.885 239.983 L578.885 232.622 L583.167 232.622 Z" fill="#000000" fill-rule="nonzero" fill-opacity="1" /><path clip-path="url(#clip300)" d="M612.565 243.964 Q611.848 243.548 610.991 243.362 Q610.158 243.154 609.139 243.154 Q605.528 243.154 603.584 245.515 Q601.662 247.853 601.662 252.251 L601.662 265.909 L597.38 265.909 L597.38 239.983 L601.662 239.983 L601.662 244.011 Q603.005 241.649 605.158 240.515 Q607.311 239.358 610.389 239.358 Q610.829 239.358 611.361 239.427 Q611.894 239.474 612.542 239.589 L612.565 243.964 Z" fill="#000000" fill-rule="nonzero" fill-opacity="1" /><path clip-path="url(#clip300)" d="M628.815 252.876 Q623.653 252.876 621.662 254.057 Q619.672 255.237 619.672 258.085 Q619.672 260.353 621.153 261.696 Q622.658 263.015 625.227 263.015 Q628.769 263.015 630.898 260.515 Q633.051 257.992 633.051 253.825 L633.051 252.876 L628.815 252.876 M637.31 251.117 L637.31 265.909 L633.051 265.909 L633.051 261.973 Q631.593 264.335 629.417 265.469 Q627.241 266.58 624.093 266.58 Q620.111 266.58 617.75 264.358 Q615.412 262.112 615.412 258.362 Q615.412 253.987 618.329 251.765 Q621.269 249.543 627.079 249.543 L633.051 249.543 L633.051 249.126 Q633.051 246.187 631.107 244.589 Q629.185 242.969 625.69 242.969 Q623.468 242.969 621.361 243.501 Q619.255 244.034 617.311 245.099 L617.311 241.163 Q619.648 240.261 621.848 239.821 Q624.047 239.358 626.13 239.358 Q631.755 239.358 634.533 242.274 Q637.31 245.191 637.31 251.117 Z" fill="#000000" fill-rule="nonzero" fill-opacity="1" /><path clip-path="url(#clip300)" d="M667.634 250.261 L667.634 265.909 L663.375 265.909 L663.375 250.399 Q663.375 246.719 661.94 244.89 Q660.505 243.062 657.634 243.062 Q654.185 243.062 652.195 245.261 Q650.204 247.46 650.204 251.256 L650.204 265.909 L645.921 265.909 L645.921 239.983 L650.204 239.983 L650.204 244.011 Q651.732 241.673 653.792 240.515 Q655.875 239.358 658.583 239.358 Q663.051 239.358 665.343 242.136 Q667.634 244.89 667.634 250.261 Z" fill="#000000" fill-rule="nonzero" fill-opacity="1" /><path clip-path="url(#clip300)" d="M692.657 240.747 L692.657 244.774 Q690.852 243.849 688.907 243.386 Q686.963 242.923 684.88 242.923 Q681.708 242.923 680.111 243.895 Q678.537 244.867 678.537 246.811 Q678.537 248.293 679.671 249.149 Q680.806 249.983 684.231 250.747 L685.69 251.071 Q690.227 252.043 692.125 253.825 Q694.046 255.585 694.046 258.756 Q694.046 262.367 691.176 264.473 Q688.329 266.58 683.329 266.58 Q681.245 266.58 678.977 266.163 Q676.732 265.77 674.232 264.96 L674.232 260.561 Q676.593 261.788 678.884 262.413 Q681.176 263.015 683.421 263.015 Q686.431 263.015 688.051 261.997 Q689.671 260.955 689.671 259.08 Q689.671 257.344 688.491 256.418 Q687.333 255.492 683.375 254.636 L681.894 254.288 Q677.935 253.455 676.176 251.742 Q674.417 250.006 674.417 246.997 Q674.417 243.339 677.009 241.349 Q679.602 239.358 684.37 239.358 Q686.731 239.358 688.815 239.705 Q690.898 240.052 692.657 240.747 Z" fill="#000000" fill-rule="nonzero" fill-opacity="1" /><path clip-path="url(#clip300)" d="M713.954 229.89 L713.954 233.432 L709.879 233.432 Q707.588 233.432 706.685 234.358 Q705.805 235.284 705.805 237.691 L705.805 239.983 L712.819 239.983 L712.819 243.293 L705.805 243.293 L705.805 265.909 L701.523 265.909 L701.523 243.293 L697.449 243.293 L697.449 239.983 L701.523 239.983 L701.523 238.177 Q701.523 233.849 703.537 231.881 Q705.551 229.89 709.926 229.89 L713.954 229.89 Z" fill="#000000" fill-rule="nonzero" fill-opacity="1" /><path clip-path="url(#clip300)" d="M739.694 251.881 L739.694 253.964 L720.111 253.964 Q720.389 258.362 722.75 260.677 Q725.134 262.969 729.37 262.969 Q731.824 262.969 734.115 262.367 Q736.43 261.765 738.699 260.561 L738.699 264.589 Q736.407 265.561 734 266.071 Q731.592 266.58 729.115 266.58 Q722.912 266.58 719.278 262.969 Q715.666 259.358 715.666 253.2 Q715.666 246.835 719.092 243.108 Q722.541 239.358 728.375 239.358 Q733.606 239.358 736.639 242.737 Q739.694 246.094 739.694 251.881 M735.435 250.631 Q735.389 247.136 733.467 245.052 Q731.569 242.969 728.421 242.969 Q724.856 242.969 722.703 244.983 Q720.574 246.997 720.25 250.654 L735.435 250.631 Z" fill="#000000" fill-rule="nonzero" fill-opacity="1" /><path clip-path="url(#clip300)" d="M761.708 243.964 Q760.99 243.548 760.134 243.362 Q759.301 243.154 758.282 243.154 Q754.671 243.154 752.726 245.515 Q750.805 247.853 750.805 252.251 L750.805 265.909 L746.523 265.909 L746.523 239.983 L750.805 239.983 L750.805 244.011 Q752.148 241.649 754.301 240.515 Q756.453 239.358 759.532 239.358 Q759.972 239.358 760.504 239.427 Q761.037 239.474 761.685 239.589 L761.708 243.964 Z" fill="#000000" fill-rule="nonzero" fill-opacity="1" /><polyline clip-path="url(#clip300)" style="stroke:#0570af; stroke-linecap:round; stroke-linejoin:round; stroke-width:4; stroke-opacity:1; fill:none" points="299.465,300.469 442.718,300.469 "/>
<circle clip-path="url(#clip300)" cx="371.092" cy="300.469" r="19.8962" fill="#0570af" fill-rule="evenodd" fill-opacity="1" stroke="#000000" stroke-opacity="1" stroke-width="4.55111"/>
<path clip-path="url(#clip300)" d="M471.27 287.031 L471.27 300.017 L477.149 300.017 Q480.413 300.017 482.196 298.327 Q483.978 296.638 483.978 293.513 Q483.978 290.411 482.196 288.721 Q480.413 287.031 477.149 287.031 L471.27 287.031 M466.594 283.189 L477.149 283.189 Q482.959 283.189 485.922 285.827 Q488.908 288.443 488.908 293.513 Q488.908 298.628 485.922 301.244 Q482.959 303.86 477.149 303.86 L471.27 303.86 L471.27 317.749 L466.594 317.749 L466.594 283.189 Z" fill="#000000" fill-rule="nonzero" fill-opacity="1" /><path clip-path="url(#clip300)" d="M504.649 304.716 Q499.487 304.716 497.496 305.897 Q495.506 307.077 495.506 309.925 Q495.506 312.193 496.987 313.536 Q498.492 314.855 501.061 314.855 Q504.603 314.855 506.732 312.355 Q508.885 309.832 508.885 305.665 L508.885 304.716 L504.649 304.716 M513.144 302.957 L513.144 317.749 L508.885 317.749 L508.885 313.813 Q507.427 316.175 505.251 317.309 Q503.075 318.42 499.927 318.42 Q495.945 318.42 493.584 316.198 Q491.246 313.952 491.246 310.202 Q491.246 305.827 494.163 303.605 Q497.103 301.383 502.913 301.383 L508.885 301.383 L508.885 300.966 Q508.885 298.027 506.941 296.429 Q505.019 294.809 501.524 294.809 Q499.302 294.809 497.195 295.341 Q495.089 295.874 493.145 296.939 L493.145 293.003 Q495.482 292.101 497.682 291.661 Q499.881 291.198 501.964 291.198 Q507.589 291.198 510.367 294.114 Q513.144 297.031 513.144 302.957 Z" fill="#000000" fill-rule="nonzero" fill-opacity="1" /><path clip-path="url(#clip300)" d="M536.941 295.804 Q536.223 295.388 535.367 295.202 Q534.533 294.994 533.515 294.994 Q529.904 294.994 527.959 297.355 Q526.038 299.693 526.038 304.091 L526.038 317.749 L521.755 317.749 L521.755 291.823 L526.038 291.823 L526.038 295.851 Q527.38 293.489 529.533 292.355 Q531.686 291.198 534.765 291.198 Q535.204 291.198 535.737 291.267 Q536.269 291.314 536.917 291.429 L536.941 295.804 Z" fill="#000000" fill-rule="nonzero" fill-opacity="1" /><path clip-path="url(#clip300)" d="M545.621 284.462 L545.621 291.823 L554.394 291.823 L554.394 295.133 L545.621 295.133 L545.621 309.207 Q545.621 312.378 546.478 313.281 Q547.357 314.184 550.019 314.184 L554.394 314.184 L554.394 317.749 L550.019 317.749 Q545.089 317.749 543.214 315.92 Q541.339 314.068 541.339 309.207 L541.339 295.133 L538.214 295.133 L538.214 291.823 L541.339 291.823 L541.339 284.462 L545.621 284.462 Z" fill="#000000" fill-rule="nonzero" fill-opacity="1" /><path clip-path="url(#clip300)" d="M559.996 291.823 L564.255 291.823 L564.255 317.749 L559.996 317.749 L559.996 291.823 M559.996 281.73 L564.255 281.73 L564.255 287.124 L559.996 287.124 L559.996 281.73 Z" fill="#000000" fill-rule="nonzero" fill-opacity="1" /><path clip-path="url(#clip300)" d="M591.825 292.818 L591.825 296.8 Q590.019 295.804 588.19 295.318 Q586.385 294.809 584.533 294.809 Q580.389 294.809 578.098 297.448 Q575.806 300.064 575.806 304.809 Q575.806 309.554 578.098 312.193 Q580.389 314.809 584.533 314.809 Q586.385 314.809 588.19 314.323 Q590.019 313.813 591.825 312.818 L591.825 316.753 Q590.042 317.587 588.121 318.003 Q586.223 318.42 584.07 318.42 Q578.214 318.42 574.764 314.739 Q571.315 311.059 571.315 304.809 Q571.315 298.466 574.788 294.832 Q578.283 291.198 584.348 291.198 Q586.315 291.198 588.19 291.615 Q590.065 292.008 591.825 292.818 Z" fill="#000000" fill-rule="nonzero" fill-opacity="1" /><path clip-path="url(#clip300)" d="M599.232 281.73 L603.491 281.73 L603.491 317.749 L599.232 317.749 L599.232 281.73 Z" fill="#000000" fill-rule="nonzero" fill-opacity="1" /><path clip-path="url(#clip300)" d="M634.579 303.721 L634.579 305.804 L614.996 305.804 Q615.274 310.202 617.635 312.517 Q620.019 314.809 624.255 314.809 Q626.709 314.809 629 314.207 Q631.315 313.605 633.584 312.401 L633.584 316.429 Q631.292 317.401 628.885 317.911 Q626.477 318.42 624 318.42 Q617.797 318.42 614.162 314.809 Q610.551 311.198 610.551 305.04 Q610.551 298.675 613.977 294.948 Q617.426 291.198 623.26 291.198 Q628.491 291.198 631.523 294.577 Q634.579 297.934 634.579 303.721 M630.32 302.471 Q630.273 298.976 628.352 296.892 Q626.454 294.809 623.306 294.809 Q619.741 294.809 617.588 296.823 Q615.459 298.837 615.135 302.494 L630.32 302.471 Z" fill="#000000" fill-rule="nonzero" fill-opacity="1" /><path clip-path="url(#clip300)" d="M675.296 292.818 L675.296 296.8 Q673.491 295.804 671.662 295.318 Q669.857 294.809 668.005 294.809 Q663.861 294.809 661.57 297.448 Q659.278 300.064 659.278 304.809 Q659.278 309.554 661.57 312.193 Q663.861 314.809 668.005 314.809 Q669.857 314.809 671.662 314.323 Q673.491 313.813 675.296 312.818 L675.296 316.753 Q673.514 317.587 671.593 318.003 Q669.695 318.42 667.542 318.42 Q661.685 318.42 658.236 314.739 Q654.787 311.059 654.787 304.809 Q654.787 298.466 658.259 294.832 Q661.755 291.198 667.82 291.198 Q669.787 291.198 671.662 291.615 Q673.537 292.008 675.296 292.818 Z" fill="#000000" fill-rule="nonzero" fill-opacity="1" /><path clip-path="url(#clip300)" d="M692.75 294.809 Q689.324 294.809 687.333 297.494 Q685.343 300.156 685.343 304.809 Q685.343 309.462 687.31 312.147 Q689.301 314.809 692.75 314.809 Q696.153 314.809 698.143 312.124 Q700.134 309.438 700.134 304.809 Q700.134 300.202 698.143 297.517 Q696.153 294.809 692.75 294.809 M692.75 291.198 Q698.305 291.198 701.477 294.809 Q704.648 298.42 704.648 304.809 Q704.648 311.175 701.477 314.809 Q698.305 318.42 692.75 318.42 Q687.171 318.42 684 314.809 Q680.852 311.175 680.852 304.809 Q680.852 298.42 684 294.809 Q687.171 291.198 692.75 291.198 Z" fill="#000000" fill-rule="nonzero" fill-opacity="1" /><path clip-path="url(#clip300)" d="M731.893 296.8 Q733.49 293.929 735.713 292.564 Q737.935 291.198 740.944 291.198 Q744.995 291.198 747.194 294.045 Q749.393 296.869 749.393 302.101 L749.393 317.749 L745.111 317.749 L745.111 302.239 Q745.111 298.513 743.791 296.707 Q742.472 294.902 739.764 294.902 Q736.453 294.902 734.532 297.101 Q732.611 299.3 732.611 303.096 L732.611 317.749 L728.328 317.749 L728.328 302.239 Q728.328 298.489 727.009 296.707 Q725.69 294.902 722.935 294.902 Q719.671 294.902 717.75 297.124 Q715.829 299.323 715.829 303.096 L715.829 317.749 L711.546 317.749 L711.546 291.823 L715.829 291.823 L715.829 295.851 Q717.287 293.466 719.324 292.332 Q721.361 291.198 724.162 291.198 Q726.986 291.198 728.953 292.633 Q730.944 294.068 731.893 296.8 Z" fill="#000000" fill-rule="nonzero" fill-opacity="1" /><path clip-path="url(#clip300)" d="M762.009 313.86 L762.009 327.61 L757.726 327.61 L757.726 291.823 L762.009 291.823 L762.009 295.758 Q763.351 293.443 765.388 292.332 Q767.449 291.198 770.296 291.198 Q775.018 291.198 777.958 294.948 Q780.921 298.698 780.921 304.809 Q780.921 310.92 777.958 314.67 Q775.018 318.42 770.296 318.42 Q767.449 318.42 765.388 317.309 Q763.351 316.175 762.009 313.86 M776.499 304.809 Q776.499 300.11 774.555 297.448 Q772.634 294.763 769.254 294.763 Q765.875 294.763 763.93 297.448 Q762.009 300.11 762.009 304.809 Q762.009 309.508 763.93 312.193 Q765.875 314.855 769.254 314.855 Q772.634 314.855 774.555 312.193 Q776.499 309.508 776.499 304.809 Z" fill="#000000" fill-rule="nonzero" fill-opacity="1" /><path clip-path="url(#clip300)" d="M787.541 307.517 L787.541 291.823 L791.8 291.823 L791.8 307.355 Q791.8 311.036 793.236 312.888 Q794.671 314.716 797.541 314.716 Q800.99 314.716 802.981 312.517 Q804.995 310.318 804.995 306.522 L804.995 291.823 L809.254 291.823 L809.254 317.749 L804.995 317.749 L804.995 313.767 Q803.444 316.128 801.384 317.286 Q799.347 318.42 796.638 318.42 Q792.171 318.42 789.856 315.642 Q787.541 312.864 787.541 307.517 M798.259 291.198 L798.259 291.198 Z" fill="#000000" fill-rule="nonzero" fill-opacity="1" /><path clip-path="url(#clip300)" d="M822.24 284.462 L822.24 291.823 L831.013 291.823 L831.013 295.133 L822.24 295.133 L822.24 309.207 Q822.24 312.378 823.096 313.281 Q823.976 314.184 826.638 314.184 L831.013 314.184 L831.013 317.749 L826.638 317.749 Q821.708 317.749 819.833 315.92 Q817.958 314.068 817.958 309.207 L817.958 295.133 L814.833 295.133 L814.833 291.823 L817.958 291.823 L817.958 284.462 L822.24 284.462 Z" fill="#000000" fill-rule="nonzero" fill-opacity="1" /><path clip-path="url(#clip300)" d="M848.397 304.716 Q843.235 304.716 841.245 305.897 Q839.254 307.077 839.254 309.925 Q839.254 312.193 840.735 313.536 Q842.24 314.855 844.809 314.855 Q848.351 314.855 850.481 312.355 Q852.633 309.832 852.633 305.665 L852.633 304.716 L848.397 304.716 M856.893 302.957 L856.893 317.749 L852.633 317.749 L852.633 313.813 Q851.175 316.175 848.999 317.309 Q846.823 318.42 843.675 318.42 Q839.694 318.42 837.333 316.198 Q834.995 313.952 834.995 310.202 Q834.995 305.827 837.911 303.605 Q840.851 301.383 846.661 301.383 L852.633 301.383 L852.633 300.966 Q852.633 298.027 850.689 296.429 Q848.768 294.809 845.272 294.809 Q843.05 294.809 840.944 295.341 Q838.837 295.874 836.893 296.939 L836.893 293.003 Q839.231 292.101 841.43 291.661 Q843.629 291.198 845.712 291.198 Q851.337 291.198 854.115 294.114 Q856.893 297.031 856.893 302.957 Z" fill="#000000" fill-rule="nonzero" fill-opacity="1" /><path clip-path="url(#clip300)" d="M869.879 284.462 L869.879 291.823 L878.652 291.823 L878.652 295.133 L869.879 295.133 L869.879 309.207 Q869.879 312.378 870.735 313.281 Q871.615 314.184 874.277 314.184 L878.652 314.184 L878.652 317.749 L874.277 317.749 Q869.346 317.749 867.471 315.92 Q865.596 314.068 865.596 309.207 L865.596 295.133 L862.471 295.133 L862.471 291.823 L865.596 291.823 L865.596 284.462 L869.879 284.462 Z" fill="#000000" fill-rule="nonzero" fill-opacity="1" /><path clip-path="url(#clip300)" d="M884.254 291.823 L888.513 291.823 L888.513 317.749 L884.254 317.749 L884.254 291.823 M884.254 281.73 L888.513 281.73 L888.513 287.124 L884.254 287.124 L884.254 281.73 Z" fill="#000000" fill-rule="nonzero" fill-opacity="1" /><path clip-path="url(#clip300)" d="M907.471 294.809 Q904.045 294.809 902.054 297.494 Q900.064 300.156 900.064 304.809 Q900.064 309.462 902.031 312.147 Q904.022 314.809 907.471 314.809 Q910.874 314.809 912.865 312.124 Q914.855 309.438 914.855 304.809 Q914.855 300.202 912.865 297.517 Q910.874 294.809 907.471 294.809 M907.471 291.198 Q913.027 291.198 916.198 294.809 Q919.369 298.42 919.369 304.809 Q919.369 311.175 916.198 314.809 Q913.027 318.42 907.471 318.42 Q901.892 318.42 898.721 314.809 Q895.573 311.175 895.573 304.809 Q895.573 298.42 898.721 294.809 Q901.892 291.198 907.471 291.198 Z" fill="#000000" fill-rule="nonzero" fill-opacity="1" /><path clip-path="url(#clip300)" d="M947.98 302.101 L947.98 317.749 L943.721 317.749 L943.721 302.239 Q943.721 298.559 942.286 296.73 Q940.85 294.902 937.98 294.902 Q934.531 294.902 932.54 297.101 Q930.55 299.3 930.55 303.096 L930.55 317.749 L926.267 317.749 L926.267 291.823 L930.55 291.823 L930.55 295.851 Q932.077 293.513 934.138 292.355 Q936.221 291.198 938.929 291.198 Q943.397 291.198 945.688 293.976 Q947.98 296.73 947.98 302.101 Z" fill="#000000" fill-rule="nonzero" fill-opacity="1" /><polyline clip-path="url(#clip300)" style="stroke:#000000; stroke-linecap:round; stroke-linejoin:round; stroke-width:4; stroke-opacity:1; fill:none" points="299.465,352.309 442.718,352.309 "/>
<circle clip-path="url(#clip300)" cx="371.092" cy="352.309" r="19.8962" fill="#000000" fill-rule="evenodd" fill-opacity="1" stroke="none"/>
<path clip-path="url(#clip300)" d="M466.594 335.029 L495.83 335.029 L495.83 338.964 L483.561 338.964 L483.561 369.589 L478.862 369.589 L478.862 338.964 L466.594 338.964 L466.594 335.029 Z" fill="#000000" fill-rule="nonzero" fill-opacity="1" /><path clip-path="url(#clip300)" d="M502.149 346.649 Q498.723 346.649 496.732 349.334 Q494.742 351.996 494.742 356.649 Q494.742 361.302 496.709 363.987 Q498.7 366.649 502.149 366.649 Q505.552 366.649 507.543 363.964 Q509.533 361.278 509.533 356.649 Q509.533 352.042 507.543 349.357 Q505.552 346.649 502.149 346.649 M502.149 343.038 Q507.705 343.038 510.876 346.649 Q514.047 350.26 514.047 356.649 Q514.047 363.015 510.876 366.649 Q507.705 370.26 502.149 370.26 Q496.57 370.26 493.399 366.649 Q490.251 363.015 490.251 356.649 Q490.251 350.26 493.399 346.649 Q496.57 343.038 502.149 343.038 Z" fill="#000000" fill-rule="nonzero" fill-opacity="1" /><path clip-path="url(#clip300)" d="M525.32 336.302 L525.32 343.663 L534.093 343.663 L534.093 346.973 L525.32 346.973 L525.32 361.047 Q525.32 364.218 526.177 365.121 Q527.056 366.024 529.718 366.024 L534.093 366.024 L534.093 369.589 L529.718 369.589 Q524.788 369.589 522.913 367.76 Q521.038 365.908 521.038 361.047 L521.038 346.973 L517.913 346.973 L517.913 343.663 L521.038 343.663 L521.038 336.302 L525.32 336.302 Z" fill="#000000" fill-rule="nonzero" fill-opacity="1" /><path clip-path="url(#clip300)" d="M551.478 356.556 Q546.316 356.556 544.325 357.737 Q542.334 358.917 542.334 361.765 Q542.334 364.033 543.816 365.376 Q545.32 366.695 547.89 366.695 Q551.431 366.695 553.561 364.195 Q555.714 361.672 555.714 357.505 L555.714 356.556 L551.478 356.556 M559.973 354.797 L559.973 369.589 L555.714 369.589 L555.714 365.653 Q554.255 368.015 552.079 369.149 Q549.903 370.26 546.755 370.26 Q542.774 370.26 540.413 368.038 Q538.075 365.792 538.075 362.042 Q538.075 357.667 540.991 355.445 Q543.931 353.223 549.741 353.223 L555.714 353.223 L555.714 352.806 Q555.714 349.867 553.769 348.269 Q551.848 346.649 548.353 346.649 Q546.13 346.649 544.024 347.181 Q541.917 347.714 539.973 348.779 L539.973 344.843 Q542.311 343.941 544.51 343.501 Q546.709 343.038 548.792 343.038 Q554.417 343.038 557.195 345.954 Q559.973 348.871 559.973 354.797 Z" fill="#000000" fill-rule="nonzero" fill-opacity="1" /><path clip-path="url(#clip300)" d="M568.746 333.57 L573.005 333.57 L573.005 369.589 L568.746 369.589 L568.746 333.57 Z" fill="#000000" fill-rule="nonzero" fill-opacity="1" /><path clip-path="url(#clip300)" d="M607.218 333.617 Q604.116 338.941 602.612 344.149 Q601.107 349.357 601.107 354.704 Q601.107 360.052 602.612 365.306 Q604.139 370.538 607.218 375.839 L603.514 375.839 Q600.042 370.399 598.306 365.144 Q596.593 359.89 596.593 354.704 Q596.593 349.542 598.306 344.311 Q600.019 339.08 603.514 333.617 L607.218 333.617 Z" fill="#000000" fill-rule="nonzero" fill-opacity="1" /><path clip-path="url(#clip300)" d="M613.005 343.663 L617.264 343.663 L622.588 363.894 L627.889 343.663 L632.912 343.663 L638.236 363.894 L643.537 343.663 L647.796 343.663 L641.014 369.589 L635.991 369.589 L630.412 348.339 L624.81 369.589 L619.787 369.589 L613.005 343.663 Z" fill="#000000" fill-rule="nonzero" fill-opacity="1" /><path clip-path="url(#clip300)" d="M661.824 335.029 L665.759 335.029 L653.722 373.987 L649.787 373.987 L661.824 335.029 Z" fill="#000000" fill-rule="nonzero" fill-opacity="1" /><path clip-path="url(#clip300)" d="M680.273 346.649 Q676.847 346.649 674.857 349.334 Q672.866 351.996 672.866 356.649 Q672.866 361.302 674.833 363.987 Q676.824 366.649 680.273 366.649 Q683.676 366.649 685.667 363.964 Q687.657 361.278 687.657 356.649 Q687.657 352.042 685.667 349.357 Q683.676 346.649 680.273 346.649 M680.273 343.038 Q685.829 343.038 689 346.649 Q692.171 350.26 692.171 356.649 Q692.171 363.015 689 366.649 Q685.829 370.26 680.273 370.26 Q674.694 370.26 671.523 366.649 Q668.375 363.015 668.375 356.649 Q668.375 350.26 671.523 346.649 Q674.694 343.038 680.273 343.038 Z" fill="#000000" fill-rule="nonzero" fill-opacity="1" /><path clip-path="url(#clip300)" d="M724.347 346.649 Q720.921 346.649 718.93 349.334 Q716.94 351.996 716.94 356.649 Q716.94 361.302 718.907 363.987 Q720.898 366.649 724.347 366.649 Q727.75 366.649 729.74 363.964 Q731.731 361.278 731.731 356.649 Q731.731 352.042 729.74 349.357 Q727.75 346.649 724.347 346.649 M724.347 343.038 Q729.903 343.038 733.074 346.649 Q736.245 350.26 736.245 356.649 Q736.245 363.015 733.074 366.649 Q729.903 370.26 724.347 370.26 Q718.768 370.26 715.597 366.649 Q712.449 363.015 712.449 356.649 Q712.449 350.26 715.597 346.649 Q718.768 343.038 724.347 343.038 Z" fill="#000000" fill-rule="nonzero" fill-opacity="1" /><path clip-path="url(#clip300)" d="M742.865 359.357 L742.865 343.663 L747.125 343.663 L747.125 359.195 Q747.125 362.876 748.56 364.728 Q749.995 366.556 752.865 366.556 Q756.314 366.556 758.305 364.357 Q760.319 362.158 760.319 358.362 L760.319 343.663 L764.578 343.663 L764.578 369.589 L760.319 369.589 L760.319 365.607 Q758.768 367.968 756.708 369.126 Q754.671 370.26 751.963 370.26 Q747.495 370.26 745.18 367.482 Q742.865 364.704 742.865 359.357 M753.583 343.038 L753.583 343.038 Z" fill="#000000" fill-rule="nonzero" fill-opacity="1" /><path clip-path="url(#clip300)" d="M777.564 336.302 L777.564 343.663 L786.337 343.663 L786.337 346.973 L777.564 346.973 L777.564 361.047 Q777.564 364.218 778.421 365.121 Q779.3 366.024 781.962 366.024 L786.337 366.024 L786.337 369.589 L781.962 369.589 Q777.032 369.589 775.157 367.76 Q773.282 365.908 773.282 361.047 L773.282 346.973 L770.157 346.973 L770.157 343.663 L773.282 343.663 L773.282 336.302 L777.564 336.302 Z" fill="#000000" fill-rule="nonzero" fill-opacity="1" /><path clip-path="url(#clip300)" d="M796.06 365.7 L796.06 379.45 L791.777 379.45 L791.777 343.663 L796.06 343.663 L796.06 347.598 Q797.402 345.283 799.439 344.172 Q801.499 343.038 804.347 343.038 Q809.069 343.038 812.009 346.788 Q814.972 350.538 814.972 356.649 Q814.972 362.76 812.009 366.51 Q809.069 370.26 804.347 370.26 Q801.499 370.26 799.439 369.149 Q797.402 368.015 796.06 365.7 M810.55 356.649 Q810.55 351.95 808.606 349.288 Q806.685 346.603 803.305 346.603 Q799.925 346.603 797.981 349.288 Q796.06 351.95 796.06 356.649 Q796.06 361.348 797.981 364.033 Q799.925 366.695 803.305 366.695 Q806.685 366.695 808.606 364.033 Q810.55 361.348 810.55 356.649 Z" fill="#000000" fill-rule="nonzero" fill-opacity="1" /><path clip-path="url(#clip300)" d="M821.592 359.357 L821.592 343.663 L825.851 343.663 L825.851 359.195 Q825.851 362.876 827.286 364.728 Q828.721 366.556 831.592 366.556 Q835.041 366.556 837.032 364.357 Q839.045 362.158 839.045 358.362 L839.045 343.663 L843.305 343.663 L843.305 369.589 L839.045 369.589 L839.045 365.607 Q837.495 367.968 835.434 369.126 Q833.397 370.26 830.689 370.26 Q826.221 370.26 823.907 367.482 Q821.592 364.704 821.592 359.357 M832.309 343.038 L832.309 343.038 Z" fill="#000000" fill-rule="nonzero" fill-opacity="1" /><path clip-path="url(#clip300)" d="M856.291 336.302 L856.291 343.663 L865.064 343.663 L865.064 346.973 L856.291 346.973 L856.291 361.047 Q856.291 364.218 857.147 365.121 Q858.027 366.024 860.689 366.024 L865.064 366.024 L865.064 369.589 L860.689 369.589 Q855.758 369.589 853.883 367.76 Q852.008 365.908 852.008 361.047 L852.008 346.973 L848.883 346.973 L848.883 343.663 L852.008 343.663 L852.008 336.302 L856.291 336.302 Z" fill="#000000" fill-rule="nonzero" fill-opacity="1" /><path clip-path="url(#clip300)" d="M869.994 333.617 L873.698 333.617 Q877.17 339.08 878.883 344.311 Q880.619 349.542 880.619 354.704 Q880.619 359.89 878.883 365.144 Q877.17 370.399 873.698 375.839 L869.994 375.839 Q873.073 370.538 874.578 365.306 Q876.105 360.052 876.105 354.704 Q876.105 349.357 874.578 344.149 Q873.073 338.941 869.994 333.617 Z" fill="#000000" fill-rule="nonzero" fill-opacity="1" /></svg>
