<?xml version="1.0" encoding="utf-8"?>
<svg xmlns="http://www.w3.org/2000/svg" xmlns:xlink="http://www.w3.org/1999/xlink" width="600" height="400" viewBox="0 0 2400 1600">
<defs>
  <clipPath id="clip640">
    <rect x="0" y="0" width="2400" height="1600"/>
  </clipPath>
</defs>
<path clip-path="url(#clip640)" d="M0 1600 L2400 1600 L2400 0 L0 0  Z" fill="#ffffff" fill-rule="evenodd" fill-opacity="1"/>
<defs>
  <clipPath id="clip641">
    <rect x="549" y="47" width="1440" height="1440"/>
  </clipPath>
</defs>
<path clip-path="url(#clip640)" d="M549.913 1486.45 L1989.12 1486.45 L1989.12 47.2441 L549.913 47.2441  Z" fill="#ffffff" fill-rule="evenodd" fill-opacity="1"/>
<polyline clip-path="url(#clip641)" style="stroke:#000000; stroke-linecap:round; stroke-linejoin:round; stroke-width:2; stroke-opacity:0.1; fill:none" points="669.847,1486.45 669.847,47.2441 "/>
<polyline clip-path="url(#clip641)" style="stroke:#000000; stroke-linecap:round; stroke-linejoin:round; stroke-width:2; stroke-opacity:0.1; fill:none" points="969.681,1486.45 969.681,47.2441 "/>
<polyline clip-path="url(#clip641)" style="stroke:#000000; stroke-linecap:round; stroke-linejoin:round; stroke-width:2; stroke-opacity:0.1; fill:none" points="1269.51,1486.45 1269.51,47.2441 "/>
<polyline clip-path="url(#clip641)" style="stroke:#000000; stroke-linecap:round; stroke-linejoin:round; stroke-width:2; stroke-opacity:0.1; fill:none" points="1569.35,1486.45 1569.35,47.2441 "/>
<polyline clip-path="url(#clip641)" style="stroke:#000000; stroke-linecap:round; stroke-linejoin:round; stroke-width:2; stroke-opacity:0.1; fill:none" points="1869.18,1486.45 1869.18,47.2441 "/>
<polyline clip-path="url(#clip641)" style="stroke:#000000; stroke-linecap:round; stroke-linejoin:round; stroke-width:2; stroke-opacity:0.1; fill:none" points="549.913,1366.51 1989.12,1366.51 "/>
<polyline clip-path="url(#clip641)" style="stroke:#000000; stroke-linecap:round; stroke-linejoin:round; stroke-width:2; stroke-opacity:0.1; fill:none" points="549.913,1066.68 1989.12,1066.68 "/>
<polyline clip-path="url(#clip641)" style="stroke:#000000; stroke-linecap:round; stroke-linejoin:round; stroke-width:2; stroke-opacity:0.1; fill:none" points="549.913,766.846 1989.12,766.846 "/>
<polyline clip-path="url(#clip641)" style="stroke:#000000; stroke-linecap:round; stroke-linejoin:round; stroke-width:2; stroke-opacity:0.1; fill:none" points="549.913,467.012 1989.12,467.012 "/>
<polyline clip-path="url(#clip641)" style="stroke:#000000; stroke-linecap:round; stroke-linejoin:round; stroke-width:2; stroke-opacity:0.1; fill:none" points="549.913,167.178 1989.12,167.178 "/>
<polyline clip-path="url(#clip640)" style="stroke:#000000; stroke-linecap:round; stroke-linejoin:round; stroke-width:4; stroke-opacity:1; fill:none" points="549.913,1486.45 1989.12,1486.45 "/>
<polyline clip-path="url(#clip640)" style="stroke:#000000; stroke-linecap:round; stroke-linejoin:round; stroke-width:4; stroke-opacity:1; fill:none" points="669.847,1486.45 669.847,1467.55 "/>
<polyline clip-path="url(#clip640)" style="stroke:#000000; stroke-linecap:round; stroke-linejoin:round; stroke-width:4; stroke-opacity:1; fill:none" points="969.681,1486.45 969.681,1467.55 "/>
<polyline clip-path="url(#clip640)" style="stroke:#000000; stroke-linecap:round; stroke-linejoin:round; stroke-width:4; stroke-opacity:1; fill:none" points="1269.51,1486.45 1269.51,1467.55 "/>
<polyline clip-path="url(#clip640)" style="stroke:#000000; stroke-linecap:round; stroke-linejoin:round; stroke-width:4; stroke-opacity:1; fill:none" points="1569.35,1486.45 1569.35,1467.55 "/>
<polyline clip-path="url(#clip640)" style="stroke:#000000; stroke-linecap:round; stroke-linejoin:round; stroke-width:4; stroke-opacity:1; fill:none" points="1869.18,1486.45 1869.18,1467.55 "/>
<path clip-path="url(#clip640)" d="M632.15 1517.37 Q628.539 1517.37 626.71 1520.93 Q624.905 1524.47 624.905 1531.6 Q624.905 1538.71 626.71 1542.27 Q628.539 1545.82 632.15 1545.82 Q635.784 1545.82 637.59 1542.27 Q639.419 1538.71 639.419 1531.6 Q639.419 1524.47 637.59 1520.93 Q635.784 1517.37 632.15 1517.37 M632.15 1513.66 Q637.96 1513.66 641.016 1518.27 Q644.095 1522.85 644.095 1531.6 Q644.095 1540.33 641.016 1544.94 Q637.96 1549.52 632.15 1549.52 Q626.34 1549.52 623.261 1544.94 Q620.206 1540.33 620.206 1531.6 Q620.206 1522.85 623.261 1518.27 Q626.34 1513.66 632.15 1513.66 Z" fill="#000000" fill-rule="nonzero" fill-opacity="1" /><path clip-path="url(#clip640)" d="M652.312 1542.97 L657.196 1542.97 L657.196 1548.85 L652.312 1548.85 L652.312 1542.97 Z" fill="#000000" fill-rule="nonzero" fill-opacity="1" /><path clip-path="url(#clip640)" d="M677.381 1517.37 Q673.77 1517.37 671.942 1520.93 Q670.136 1524.47 670.136 1531.6 Q670.136 1538.71 671.942 1542.27 Q673.77 1545.82 677.381 1545.82 Q681.016 1545.82 682.821 1542.27 Q684.65 1538.71 684.65 1531.6 Q684.65 1524.47 682.821 1520.93 Q681.016 1517.37 677.381 1517.37 M677.381 1513.66 Q683.192 1513.66 686.247 1518.27 Q689.326 1522.85 689.326 1531.6 Q689.326 1540.33 686.247 1544.94 Q683.192 1549.52 677.381 1549.52 Q671.571 1549.52 668.493 1544.94 Q665.437 1540.33 665.437 1531.6 Q665.437 1522.85 668.493 1518.27 Q671.571 1513.66 677.381 1513.66 Z" fill="#000000" fill-rule="nonzero" fill-opacity="1" /><path clip-path="url(#clip640)" d="M707.543 1517.37 Q703.932 1517.37 702.103 1520.93 Q700.298 1524.47 700.298 1531.6 Q700.298 1538.71 702.103 1542.27 Q703.932 1545.82 707.543 1545.82 Q711.178 1545.82 712.983 1542.27 Q714.812 1538.71 714.812 1531.6 Q714.812 1524.47 712.983 1520.93 Q711.178 1517.37 707.543 1517.37 M707.543 1513.66 Q713.353 1513.66 716.409 1518.27 Q719.488 1522.85 719.488 1531.6 Q719.488 1540.33 716.409 1544.94 Q713.353 1549.52 707.543 1549.52 Q701.733 1549.52 698.654 1544.94 Q695.599 1540.33 695.599 1531.6 Q695.599 1522.85 698.654 1518.27 Q701.733 1513.66 707.543 1513.66 Z" fill="#000000" fill-rule="nonzero" fill-opacity="1" /><path clip-path="url(#clip640)" d="M932.482 1517.37 Q928.871 1517.37 927.042 1520.93 Q925.237 1524.47 925.237 1531.6 Q925.237 1538.71 927.042 1542.27 Q928.871 1545.82 932.482 1545.82 Q936.116 1545.82 937.922 1542.27 Q939.75 1538.71 939.75 1531.6 Q939.75 1524.47 937.922 1520.93 Q936.116 1517.37 932.482 1517.37 M932.482 1513.66 Q938.292 1513.66 941.348 1518.27 Q944.426 1522.85 944.426 1531.6 Q944.426 1540.33 941.348 1544.94 Q938.292 1549.52 932.482 1549.52 Q926.672 1549.52 923.593 1544.94 Q920.538 1540.33 920.538 1531.6 Q920.538 1522.85 923.593 1518.27 Q926.672 1513.66 932.482 1513.66 Z" fill="#000000" fill-rule="nonzero" fill-opacity="1" /><path clip-path="url(#clip640)" d="M952.644 1542.97 L957.528 1542.97 L957.528 1548.85 L952.644 1548.85 L952.644 1542.97 Z" fill="#000000" fill-rule="nonzero" fill-opacity="1" /><path clip-path="url(#clip640)" d="M971.741 1544.91 L988.06 1544.91 L988.06 1548.85 L966.116 1548.85 L966.116 1544.91 Q968.778 1542.16 973.361 1537.53 Q977.968 1532.88 979.148 1531.53 Q981.394 1529.01 982.273 1527.27 Q983.176 1525.51 983.176 1523.82 Q983.176 1521.07 981.232 1519.33 Q979.31 1517.6 976.209 1517.6 Q974.01 1517.6 971.556 1518.36 Q969.125 1519.13 966.348 1520.68 L966.348 1515.95 Q969.172 1514.82 971.625 1514.24 Q974.079 1513.66 976.116 1513.66 Q981.486 1513.66 984.681 1516.35 Q987.875 1519.03 987.875 1523.52 Q987.875 1525.65 987.065 1527.57 Q986.278 1529.47 984.171 1532.07 Q983.593 1532.74 980.491 1535.95 Q977.389 1539.15 971.741 1544.91 Z" fill="#000000" fill-rule="nonzero" fill-opacity="1" /><path clip-path="url(#clip640)" d="M997.921 1514.29 L1016.28 1514.29 L1016.28 1518.22 L1002.2 1518.22 L1002.2 1526.7 Q1003.22 1526.35 1004.24 1526.19 Q1005.26 1526 1006.28 1526 Q1012.06 1526 1015.44 1529.17 Q1018.82 1532.34 1018.82 1537.76 Q1018.82 1543.34 1015.35 1546.44 Q1011.88 1549.52 1005.56 1549.52 Q1003.38 1549.52 1001.12 1549.15 Q998.87 1548.78 996.463 1548.04 L996.463 1543.34 Q998.546 1544.47 1000.77 1545.03 Q1002.99 1545.58 1005.47 1545.58 Q1009.47 1545.58 1011.81 1543.48 Q1014.15 1541.37 1014.15 1537.76 Q1014.15 1534.15 1011.81 1532.04 Q1009.47 1529.94 1005.47 1529.94 Q1003.59 1529.94 1001.72 1530.35 Q999.866 1530.77 997.921 1531.65 L997.921 1514.29 Z" fill="#000000" fill-rule="nonzero" fill-opacity="1" /><path clip-path="url(#clip640)" d="M1231.82 1517.37 Q1228.21 1517.37 1226.38 1520.93 Q1224.57 1524.47 1224.57 1531.6 Q1224.57 1538.71 1226.38 1542.27 Q1228.21 1545.82 1231.82 1545.82 Q1235.45 1545.82 1237.26 1542.27 Q1239.09 1538.71 1239.09 1531.6 Q1239.09 1524.47 1237.26 1520.93 Q1235.45 1517.37 1231.82 1517.37 M1231.82 1513.66 Q1237.63 1513.66 1240.68 1518.27 Q1243.76 1522.85 1243.76 1531.6 Q1243.76 1540.33 1240.68 1544.94 Q1237.63 1549.52 1231.82 1549.52 Q1226.01 1549.52 1222.93 1544.94 Q1219.87 1540.33 1219.87 1531.6 Q1219.87 1522.85 1222.93 1518.27 Q1226.01 1513.66 1231.82 1513.66 Z" fill="#000000" fill-rule="nonzero" fill-opacity="1" /><path clip-path="url(#clip640)" d="M1251.98 1542.97 L1256.86 1542.97 L1256.86 1548.85 L1251.98 1548.85 L1251.98 1542.97 Z" fill="#000000" fill-rule="nonzero" fill-opacity="1" /><path clip-path="url(#clip640)" d="M1267.1 1514.29 L1285.45 1514.29 L1285.45 1518.22 L1271.38 1518.22 L1271.38 1526.7 Q1272.4 1526.35 1273.42 1526.19 Q1274.43 1526 1275.45 1526 Q1281.24 1526 1284.62 1529.17 Q1288 1532.34 1288 1537.76 Q1288 1543.34 1284.53 1546.44 Q1281.05 1549.52 1274.73 1549.52 Q1272.56 1549.52 1270.29 1549.15 Q1268.05 1548.78 1265.64 1548.04 L1265.64 1543.34 Q1267.72 1544.47 1269.94 1545.03 Q1272.17 1545.58 1274.64 1545.58 Q1278.65 1545.58 1280.98 1543.48 Q1283.32 1541.37 1283.32 1537.76 Q1283.32 1534.15 1280.98 1532.04 Q1278.65 1529.94 1274.64 1529.94 Q1272.77 1529.94 1270.89 1530.35 Q1269.04 1530.77 1267.1 1531.65 L1267.1 1514.29 Z" fill="#000000" fill-rule="nonzero" fill-opacity="1" /><path clip-path="url(#clip640)" d="M1307.21 1517.37 Q1303.6 1517.37 1301.77 1520.93 Q1299.97 1524.47 1299.97 1531.6 Q1299.97 1538.71 1301.77 1542.27 Q1303.6 1545.82 1307.21 1545.82 Q1310.85 1545.82 1312.65 1542.27 Q1314.48 1538.71 1314.48 1531.6 Q1314.48 1524.47 1312.65 1520.93 Q1310.85 1517.37 1307.21 1517.37 M1307.21 1513.66 Q1313.02 1513.66 1316.08 1518.27 Q1319.16 1522.85 1319.16 1531.6 Q1319.16 1540.33 1316.08 1544.94 Q1313.02 1549.52 1307.21 1549.52 Q1301.4 1549.52 1298.32 1544.94 Q1295.27 1540.33 1295.27 1531.6 Q1295.27 1522.85 1298.32 1518.27 Q1301.4 1513.66 1307.21 1513.66 Z" fill="#000000" fill-rule="nonzero" fill-opacity="1" /><path clip-path="url(#clip640)" d="M1532.15 1517.37 Q1528.54 1517.37 1526.71 1520.93 Q1524.9 1524.47 1524.9 1531.6 Q1524.9 1538.71 1526.71 1542.27 Q1528.54 1545.82 1532.15 1545.82 Q1535.78 1545.82 1537.59 1542.27 Q1539.42 1538.71 1539.42 1531.6 Q1539.42 1524.47 1537.59 1520.93 Q1535.78 1517.37 1532.15 1517.37 M1532.15 1513.66 Q1537.96 1513.66 1541.02 1518.27 Q1544.09 1522.85 1544.09 1531.6 Q1544.09 1540.33 1541.02 1544.94 Q1537.96 1549.52 1532.15 1549.52 Q1526.34 1549.52 1523.26 1544.94 Q1520.21 1540.33 1520.21 1531.6 Q1520.21 1522.85 1523.26 1518.27 Q1526.34 1513.66 1532.15 1513.66 Z" fill="#000000" fill-rule="nonzero" fill-opacity="1" /><path clip-path="url(#clip640)" d="M1552.31 1542.97 L1557.2 1542.97 L1557.2 1548.85 L1552.31 1548.85 L1552.31 1542.97 Z" fill="#000000" fill-rule="nonzero" fill-opacity="1" /><path clip-path="url(#clip640)" d="M1566.2 1514.29 L1588.42 1514.29 L1588.42 1516.28 L1575.88 1548.85 L1570.99 1548.85 L1582.8 1518.22 L1566.2 1518.22 L1566.2 1514.29 Z" fill="#000000" fill-rule="nonzero" fill-opacity="1" /><path clip-path="url(#clip640)" d="M1597.59 1514.29 L1615.95 1514.29 L1615.95 1518.22 L1601.87 1518.22 L1601.87 1526.7 Q1602.89 1526.35 1603.91 1526.19 Q1604.93 1526 1605.95 1526 Q1611.73 1526 1615.11 1529.17 Q1618.49 1532.34 1618.49 1537.76 Q1618.49 1543.34 1615.02 1546.44 Q1611.55 1549.52 1605.23 1549.52 Q1603.05 1549.52 1600.78 1549.15 Q1598.54 1548.78 1596.13 1548.04 L1596.13 1543.34 Q1598.21 1544.47 1600.44 1545.03 Q1602.66 1545.58 1605.14 1545.58 Q1609.14 1545.58 1611.48 1543.48 Q1613.82 1541.37 1613.82 1537.76 Q1613.82 1534.15 1611.48 1532.04 Q1609.14 1529.94 1605.14 1529.94 Q1603.26 1529.94 1601.39 1530.35 Q1599.53 1530.77 1597.59 1531.65 L1597.59 1514.29 Z" fill="#000000" fill-rule="nonzero" fill-opacity="1" /><path clip-path="url(#clip640)" d="M1821.26 1544.91 L1828.89 1544.91 L1828.89 1518.55 L1820.58 1520.21 L1820.58 1515.95 L1828.85 1514.29 L1833.52 1514.29 L1833.52 1544.91 L1841.16 1544.91 L1841.16 1548.85 L1821.26 1548.85 L1821.26 1544.91 Z" fill="#000000" fill-rule="nonzero" fill-opacity="1" /><path clip-path="url(#clip640)" d="M1850.61 1542.97 L1855.49 1542.97 L1855.49 1548.85 L1850.61 1548.85 L1850.61 1542.97 Z" fill="#000000" fill-rule="nonzero" fill-opacity="1" /><path clip-path="url(#clip640)" d="M1875.68 1517.37 Q1872.07 1517.37 1870.24 1520.93 Q1868.43 1524.47 1868.43 1531.6 Q1868.43 1538.71 1870.24 1542.27 Q1872.07 1545.82 1875.68 1545.82 Q1879.31 1545.82 1881.12 1542.27 Q1882.94 1538.71 1882.94 1531.6 Q1882.94 1524.47 1881.12 1520.93 Q1879.31 1517.37 1875.68 1517.37 M1875.68 1513.66 Q1881.49 1513.66 1884.54 1518.27 Q1887.62 1522.85 1887.62 1531.6 Q1887.62 1540.33 1884.54 1544.94 Q1881.49 1549.52 1875.68 1549.52 Q1869.87 1549.52 1866.79 1544.94 Q1863.73 1540.33 1863.73 1531.6 Q1863.73 1522.85 1866.79 1518.27 Q1869.87 1513.66 1875.68 1513.66 Z" fill="#000000" fill-rule="nonzero" fill-opacity="1" /><path clip-path="url(#clip640)" d="M1905.84 1517.37 Q1902.23 1517.37 1900.4 1520.93 Q1898.59 1524.47 1898.59 1531.6 Q1898.59 1538.71 1900.4 1542.27 Q1902.23 1545.82 1905.84 1545.82 Q1909.47 1545.82 1911.28 1542.27 Q1913.11 1538.71 1913.11 1531.6 Q1913.11 1524.47 1911.28 1520.93 Q1909.47 1517.37 1905.84 1517.37 M1905.84 1513.66 Q1911.65 1513.66 1914.7 1518.27 Q1917.78 1522.85 1917.78 1531.6 Q1917.78 1540.33 1914.7 1544.94 Q1911.65 1549.52 1905.84 1549.52 Q1900.03 1549.52 1896.95 1544.94 Q1893.89 1540.33 1893.89 1531.6 Q1893.89 1522.85 1896.95 1518.27 Q1900.03 1513.66 1905.84 1513.66 Z" fill="#000000" fill-rule="nonzero" fill-opacity="1" /><polyline clip-path="url(#clip640)" style="stroke:#000000; stroke-linecap:round; stroke-linejoin:round; stroke-width:4; stroke-opacity:1; fill:none" points="549.913,1486.45 549.913,47.2441 "/>
<polyline clip-path="url(#clip640)" style="stroke:#000000; stroke-linecap:round; stroke-linejoin:round; stroke-width:4; stroke-opacity:1; fill:none" points="549.913,1366.51 562.467,1366.51 "/>
<polyline clip-path="url(#clip640)" style="stroke:#000000; stroke-linecap:round; stroke-linejoin:round; stroke-width:4; stroke-opacity:1; fill:none" points="549.913,1066.68 562.467,1066.68 "/>
<polyline clip-path="url(#clip640)" style="stroke:#000000; stroke-linecap:round; stroke-linejoin:round; stroke-width:4; stroke-opacity:1; fill:none" points="549.913,766.846 562.467,766.846 "/>
<polyline clip-path="url(#clip640)" style="stroke:#000000; stroke-linecap:round; stroke-linejoin:round; stroke-width:4; stroke-opacity:1; fill:none" points="549.913,467.012 562.467,467.012 "/>
<polyline clip-path="url(#clip640)" style="stroke:#000000; stroke-linecap:round; stroke-linejoin:round; stroke-width:4; stroke-opacity:1; fill:none" points="549.913,167.178 562.467,167.178 "/>
<path clip-path="url(#clip640)" d="M426.576 1352.31 Q422.964 1352.31 421.136 1355.88 Q419.33 1359.42 419.33 1366.55 Q419.33 1373.66 421.136 1377.22 Q422.964 1380.76 426.576 1380.76 Q430.21 1380.76 432.015 1377.22 Q433.844 1373.66 433.844 1366.55 Q433.844 1359.42 432.015 1355.88 Q430.21 1352.31 426.576 1352.31 M426.576 1348.61 Q432.386 1348.61 435.441 1353.22 Q438.52 1357.8 438.52 1366.55 Q438.52 1375.28 435.441 1379.88 Q432.386 1384.47 426.576 1384.47 Q420.765 1384.47 417.687 1379.88 Q414.631 1375.28 414.631 1366.55 Q414.631 1357.8 417.687 1353.22 Q420.765 1348.61 426.576 1348.61 Z" fill="#000000" fill-rule="nonzero" fill-opacity="1" /><path clip-path="url(#clip640)" d="M446.737 1377.91 L451.622 1377.91 L451.622 1383.79 L446.737 1383.79 L446.737 1377.91 Z" fill="#000000" fill-rule="nonzero" fill-opacity="1" /><path clip-path="url(#clip640)" d="M471.807 1352.31 Q468.196 1352.31 466.367 1355.88 Q464.561 1359.42 464.561 1366.55 Q464.561 1373.66 466.367 1377.22 Q468.196 1380.76 471.807 1380.76 Q475.441 1380.76 477.247 1377.22 Q479.075 1373.66 479.075 1366.55 Q479.075 1359.42 477.247 1355.88 Q475.441 1352.31 471.807 1352.31 M471.807 1348.61 Q477.617 1348.61 480.673 1353.22 Q483.751 1357.8 483.751 1366.55 Q483.751 1375.28 480.673 1379.88 Q477.617 1384.47 471.807 1384.47 Q465.997 1384.47 462.918 1379.88 Q459.862 1375.28 459.862 1366.55 Q459.862 1357.8 462.918 1353.22 Q465.997 1348.61 471.807 1348.61 Z" fill="#000000" fill-rule="nonzero" fill-opacity="1" /><path clip-path="url(#clip640)" d="M501.969 1352.31 Q498.358 1352.31 496.529 1355.88 Q494.723 1359.42 494.723 1366.55 Q494.723 1373.66 496.529 1377.22 Q498.358 1380.76 501.969 1380.76 Q505.603 1380.76 507.408 1377.22 Q509.237 1373.66 509.237 1366.55 Q509.237 1359.42 507.408 1355.88 Q505.603 1352.31 501.969 1352.31 M501.969 1348.61 Q507.779 1348.61 510.834 1353.22 Q513.913 1357.8 513.913 1366.55 Q513.913 1375.28 510.834 1379.88 Q507.779 1384.47 501.969 1384.47 Q496.159 1384.47 493.08 1379.88 Q490.024 1375.28 490.024 1366.55 Q490.024 1357.8 493.08 1353.22 Q496.159 1348.61 501.969 1348.61 Z" fill="#000000" fill-rule="nonzero" fill-opacity="1" /><path clip-path="url(#clip640)" d="M427.571 1052.48 Q423.96 1052.48 422.131 1056.04 Q420.326 1059.59 420.326 1066.71 Q420.326 1073.82 422.131 1077.39 Q423.96 1080.93 427.571 1080.93 Q431.205 1080.93 433.011 1077.39 Q434.839 1073.82 434.839 1066.71 Q434.839 1059.59 433.011 1056.04 Q431.205 1052.48 427.571 1052.48 M427.571 1048.78 Q433.381 1048.78 436.437 1053.38 Q439.515 1057.96 439.515 1066.71 Q439.515 1075.44 436.437 1080.05 Q433.381 1084.63 427.571 1084.63 Q421.761 1084.63 418.682 1080.05 Q415.627 1075.44 415.627 1066.71 Q415.627 1057.96 418.682 1053.38 Q421.761 1048.78 427.571 1048.78 Z" fill="#000000" fill-rule="nonzero" fill-opacity="1" /><path clip-path="url(#clip640)" d="M447.733 1078.08 L452.617 1078.08 L452.617 1083.96 L447.733 1083.96 L447.733 1078.08 Z" fill="#000000" fill-rule="nonzero" fill-opacity="1" /><path clip-path="url(#clip640)" d="M466.83 1080.02 L483.149 1080.02 L483.149 1083.96 L461.205 1083.96 L461.205 1080.02 Q463.867 1077.27 468.45 1072.64 Q473.057 1067.99 474.237 1066.65 Q476.483 1064.12 477.362 1062.39 Q478.265 1060.63 478.265 1058.94 Q478.265 1056.18 476.321 1054.45 Q474.399 1052.71 471.298 1052.71 Q469.098 1052.71 466.645 1053.47 Q464.214 1054.24 461.436 1055.79 L461.436 1051.07 Q464.261 1049.93 466.714 1049.35 Q469.168 1048.78 471.205 1048.78 Q476.575 1048.78 479.77 1051.46 Q482.964 1054.15 482.964 1058.64 Q482.964 1060.77 482.154 1062.69 Q481.367 1064.59 479.26 1067.18 Q478.682 1067.85 475.58 1071.07 Q472.478 1074.26 466.83 1080.02 Z" fill="#000000" fill-rule="nonzero" fill-opacity="1" /><path clip-path="url(#clip640)" d="M493.01 1049.4 L511.367 1049.4 L511.367 1053.34 L497.293 1053.34 L497.293 1061.81 Q498.311 1061.46 499.33 1061.3 Q500.348 1061.11 501.367 1061.11 Q507.154 1061.11 510.533 1064.28 Q513.913 1067.46 513.913 1072.87 Q513.913 1078.45 510.441 1081.55 Q506.969 1084.63 500.649 1084.63 Q498.473 1084.63 496.205 1084.26 Q493.959 1083.89 491.552 1083.15 L491.552 1078.45 Q493.635 1079.59 495.858 1080.14 Q498.08 1080.7 500.557 1080.7 Q504.561 1080.7 506.899 1078.59 Q509.237 1076.48 509.237 1072.87 Q509.237 1069.26 506.899 1067.15 Q504.561 1065.05 500.557 1065.05 Q498.682 1065.05 496.807 1065.46 Q494.955 1065.88 493.01 1066.76 L493.01 1049.4 Z" fill="#000000" fill-rule="nonzero" fill-opacity="1" /><path clip-path="url(#clip640)" d="M426.576 752.645 Q422.964 752.645 421.136 756.209 Q419.33 759.751 419.33 766.881 Q419.33 773.987 421.136 777.552 Q422.964 781.094 426.576 781.094 Q430.21 781.094 432.015 777.552 Q433.844 773.987 433.844 766.881 Q433.844 759.751 432.015 756.209 Q430.21 752.645 426.576 752.645 M426.576 748.941 Q432.386 748.941 435.441 753.547 Q438.52 758.131 438.52 766.881 Q438.52 775.608 435.441 780.214 Q432.386 784.797 426.576 784.797 Q420.765 784.797 417.687 780.214 Q414.631 775.608 414.631 766.881 Q414.631 758.131 417.687 753.547 Q420.765 748.941 426.576 748.941 Z" fill="#000000" fill-rule="nonzero" fill-opacity="1" /><path clip-path="url(#clip640)" d="M446.737 778.246 L451.622 778.246 L451.622 784.126 L446.737 784.126 L446.737 778.246 Z" fill="#000000" fill-rule="nonzero" fill-opacity="1" /><path clip-path="url(#clip640)" d="M461.853 749.566 L480.21 749.566 L480.21 753.501 L466.136 753.501 L466.136 761.973 Q467.154 761.626 468.173 761.464 Q469.191 761.279 470.21 761.279 Q475.997 761.279 479.376 764.45 Q482.756 767.621 482.756 773.038 Q482.756 778.617 479.284 781.719 Q475.811 784.797 469.492 784.797 Q467.316 784.797 465.048 784.427 Q462.802 784.057 460.395 783.316 L460.395 778.617 Q462.478 779.751 464.7 780.307 Q466.923 780.862 469.399 780.862 Q473.404 780.862 475.742 778.756 Q478.08 776.649 478.08 773.038 Q478.08 769.427 475.742 767.321 Q473.404 765.214 469.399 765.214 Q467.524 765.214 465.649 765.631 Q463.798 766.047 461.853 766.927 L461.853 749.566 Z" fill="#000000" fill-rule="nonzero" fill-opacity="1" /><path clip-path="url(#clip640)" d="M501.969 752.645 Q498.358 752.645 496.529 756.209 Q494.723 759.751 494.723 766.881 Q494.723 773.987 496.529 777.552 Q498.358 781.094 501.969 781.094 Q505.603 781.094 507.408 777.552 Q509.237 773.987 509.237 766.881 Q509.237 759.751 507.408 756.209 Q505.603 752.645 501.969 752.645 M501.969 748.941 Q507.779 748.941 510.834 753.547 Q513.913 758.131 513.913 766.881 Q513.913 775.608 510.834 780.214 Q507.779 784.797 501.969 784.797 Q496.159 784.797 493.08 780.214 Q490.024 775.608 490.024 766.881 Q490.024 758.131 493.08 753.547 Q496.159 748.941 501.969 748.941 Z" fill="#000000" fill-rule="nonzero" fill-opacity="1" /><path clip-path="url(#clip640)" d="M427.571 452.811 Q423.96 452.811 422.131 456.375 Q420.326 459.917 420.326 467.047 Q420.326 474.153 422.131 477.718 Q423.96 481.259 427.571 481.259 Q431.205 481.259 433.011 477.718 Q434.839 474.153 434.839 467.047 Q434.839 459.917 433.011 456.375 Q431.205 452.811 427.571 452.811 M427.571 449.107 Q433.381 449.107 436.437 453.713 Q439.515 458.297 439.515 467.047 Q439.515 475.773 436.437 480.38 Q433.381 484.963 427.571 484.963 Q421.761 484.963 418.682 480.38 Q415.627 475.773 415.627 467.047 Q415.627 458.297 418.682 453.713 Q421.761 449.107 427.571 449.107 Z" fill="#000000" fill-rule="nonzero" fill-opacity="1" /><path clip-path="url(#clip640)" d="M447.733 478.412 L452.617 478.412 L452.617 484.292 L447.733 484.292 L447.733 478.412 Z" fill="#000000" fill-rule="nonzero" fill-opacity="1" /><path clip-path="url(#clip640)" d="M461.622 449.732 L483.844 449.732 L483.844 451.723 L471.298 484.292 L466.413 484.292 L478.219 453.667 L461.622 453.667 L461.622 449.732 Z" fill="#000000" fill-rule="nonzero" fill-opacity="1" /><path clip-path="url(#clip640)" d="M493.01 449.732 L511.367 449.732 L511.367 453.667 L497.293 453.667 L497.293 462.139 Q498.311 461.792 499.33 461.63 Q500.348 461.445 501.367 461.445 Q507.154 461.445 510.533 464.616 Q513.913 467.787 513.913 473.204 Q513.913 478.783 510.441 481.884 Q506.969 484.963 500.649 484.963 Q498.473 484.963 496.205 484.593 Q493.959 484.222 491.552 483.482 L491.552 478.783 Q493.635 479.917 495.858 480.472 Q498.08 481.028 500.557 481.028 Q504.561 481.028 506.899 478.922 Q509.237 476.815 509.237 473.204 Q509.237 469.593 506.899 467.486 Q504.561 465.38 500.557 465.38 Q498.682 465.38 496.807 465.797 Q494.955 466.213 493.01 467.093 L493.01 449.732 Z" fill="#000000" fill-rule="nonzero" fill-opacity="1" /><path clip-path="url(#clip640)" d="M417.386 180.523 L425.025 180.523 L425.025 154.157 L416.715 155.824 L416.715 151.564 L424.978 149.898 L429.654 149.898 L429.654 180.523 L437.293 180.523 L437.293 184.458 L417.386 184.458 L417.386 180.523 Z" fill="#000000" fill-rule="nonzero" fill-opacity="1" /><path clip-path="url(#clip640)" d="M446.737 178.578 L451.622 178.578 L451.622 184.458 L446.737 184.458 L446.737 178.578 Z" fill="#000000" fill-rule="nonzero" fill-opacity="1" /><path clip-path="url(#clip640)" d="M471.807 152.976 Q468.196 152.976 466.367 156.541 Q464.561 160.083 464.561 167.212 Q464.561 174.319 466.367 177.884 Q468.196 181.425 471.807 181.425 Q475.441 181.425 477.247 177.884 Q479.075 174.319 479.075 167.212 Q479.075 160.083 477.247 156.541 Q475.441 152.976 471.807 152.976 M471.807 149.273 Q477.617 149.273 480.673 153.879 Q483.751 158.463 483.751 167.212 Q483.751 175.939 480.673 180.546 Q477.617 185.129 471.807 185.129 Q465.997 185.129 462.918 180.546 Q459.862 175.939 459.862 167.212 Q459.862 158.463 462.918 153.879 Q465.997 149.273 471.807 149.273 Z" fill="#000000" fill-rule="nonzero" fill-opacity="1" /><path clip-path="url(#clip640)" d="M501.969 152.976 Q498.358 152.976 496.529 156.541 Q494.723 160.083 494.723 167.212 Q494.723 174.319 496.529 177.884 Q498.358 181.425 501.969 181.425 Q505.603 181.425 507.408 177.884 Q509.237 174.319 509.237 167.212 Q509.237 160.083 507.408 156.541 Q505.603 152.976 501.969 152.976 M501.969 149.273 Q507.779 149.273 510.834 153.879 Q513.913 158.463 513.913 167.212 Q513.913 175.939 510.834 180.546 Q507.779 185.129 501.969 185.129 Q496.159 185.129 493.08 180.546 Q490.024 175.939 490.024 167.212 Q490.024 158.463 493.08 153.879 Q496.159 149.273 501.969 149.273 Z" fill="#000000" fill-rule="nonzero" fill-opacity="1" /><polyline clip-path="url(#clip641)" style="stroke:#d3d3d3; stroke-linecap:round; stroke-linejoin:round; stroke-width:2; stroke-opacity:1; fill:none" points="669.847,1366.51 669.847,1306.55 669.847,1246.58 669.847,1186.61 669.847,1126.65 669.847,1066.68 669.847,1006.71 669.847,946.746 669.847,886.78 669.847,826.813 669.847,766.846 669.847,706.879 669.847,646.912 669.847,586.946 669.847,526.979 669.847,467.012 669.847,407.045 669.847,347.078 669.847,287.111 669.847,227.145 669.847,167.178 "/>
<polyline clip-path="url(#clip641)" style="stroke:#d3d3d3; stroke-linecap:round; stroke-linejoin:round; stroke-width:2; stroke-opacity:1; fill:none" points="729.814,1366.51 729.814,1306.55 729.814,1246.58 729.814,1186.61 729.814,1126.65 729.814,1066.68 729.814,1006.71 729.814,946.746 729.814,886.78 729.814,826.813 729.814,766.846 729.814,706.879 729.814,646.912 729.814,586.946 729.814,526.979 729.814,467.012 729.814,407.045 729.814,347.078 729.814,287.111 729.814,227.145 729.814,167.178 "/>
<polyline clip-path="url(#clip641)" style="stroke:#d3d3d3; stroke-linecap:round; stroke-linejoin:round; stroke-width:2; stroke-opacity:1; fill:none" points="789.78,1366.51 789.78,1306.55 789.78,1246.58 789.78,1186.61 789.78,1126.65 789.78,1066.68 789.78,1006.71 789.78,946.746 789.78,886.78 789.78,826.813 789.78,766.846 789.78,706.879 789.78,646.912 789.78,586.946 789.78,526.979 789.78,467.012 789.78,407.045 789.78,347.078 789.78,287.111 789.78,227.145 789.78,167.178 "/>
<polyline clip-path="url(#clip641)" style="stroke:#d3d3d3; stroke-linecap:round; stroke-linejoin:round; stroke-width:2; stroke-opacity:1; fill:none" points="849.747,1366.51 849.747,1306.55 849.747,1246.58 849.747,1186.61 849.747,1126.65 849.747,1066.68 849.747,1006.71 849.747,946.746 849.747,886.78 849.747,826.813 849.747,766.846 849.747,706.879 849.747,646.912 849.747,586.946 849.747,526.979 849.747,467.012 849.747,407.045 849.747,347.078 849.747,287.111 849.747,227.145 849.747,167.178 "/>
<polyline clip-path="url(#clip641)" style="stroke:#d3d3d3; stroke-linecap:round; stroke-linejoin:round; stroke-width:2; stroke-opacity:1; fill:none" points="909.714,1366.51 909.714,1306.55 909.714,1246.58 909.714,1186.61 909.714,1126.65 909.714,1066.68 909.714,1006.71 909.714,946.746 909.714,886.78 909.714,826.813 909.714,766.846 909.714,706.879 909.714,646.912 909.714,586.946 909.714,526.979 909.714,467.012 909.714,407.045 909.714,347.078 909.714,287.111 909.714,227.145 909.714,167.178 "/>
<polyline clip-path="url(#clip641)" style="stroke:#d3d3d3; stroke-linecap:round; stroke-linejoin:round; stroke-width:2; stroke-opacity:1; fill:none" points="969.681,1366.51 969.681,1306.55 969.681,1246.58 969.681,1186.61 969.681,1126.65 969.681,1066.68 969.681,1006.71 969.681,946.746 969.681,886.78 969.681,826.813 969.681,766.846 969.681,706.879 969.681,646.912 969.681,586.946 969.681,526.979 969.681,467.012 969.681,407.045 969.681,347.078 969.681,287.111 969.681,227.145 969.681,167.178 "/>
<polyline clip-path="url(#clip641)" style="stroke:#d3d3d3; stroke-linecap:round; stroke-linejoin:round; stroke-width:2; stroke-opacity:1; fill:none" points="1029.65,1366.51 1029.65,1306.55 1029.65,1246.58 1029.65,1186.61 1029.65,1126.65 1029.65,1066.68 1029.65,1006.71 1029.65,946.746 1029.65,886.78 1029.65,826.813 1029.65,766.846 1029.65,706.879 1029.65,646.912 1029.65,586.946 1029.65,526.979 1029.65,467.012 1029.65,407.045 1029.65,347.078 1029.65,287.111 1029.65,227.145 1029.65,167.178 "/>
<polyline clip-path="url(#clip641)" style="stroke:#d3d3d3; stroke-linecap:round; stroke-linejoin:round; stroke-width:2; stroke-opacity:1; fill:none" points="1089.61,1366.51 1089.61,1306.55 1089.61,1246.58 1089.61,1186.61 1089.61,1126.65 1089.61,1066.68 1089.61,1006.71 1089.61,946.746 1089.61,886.78 1089.61,826.813 1089.61,766.846 1089.61,706.879 1089.61,646.912 1089.61,586.946 1089.61,526.979 1089.61,467.012 1089.61,407.045 1089.61,347.078 1089.61,287.111 1089.61,227.145 1089.61,167.178 "/>
<polyline clip-path="url(#clip641)" style="stroke:#d3d3d3; stroke-linecap:round; stroke-linejoin:round; stroke-width:2; stroke-opacity:1; fill:none" points="1149.58,1366.51 1149.58,1306.55 1149.58,1246.58 1149.58,1186.61 1149.58,1126.65 1149.58,1066.68 1149.58,1006.71 1149.58,946.746 1149.58,886.78 1149.58,826.813 1149.58,766.846 1149.58,706.879 1149.58,646.912 1149.58,586.946 1149.58,526.979 1149.58,467.012 1149.58,407.045 1149.58,347.078 1149.58,287.111 1149.58,227.145 1149.58,167.178 "/>
<polyline clip-path="url(#clip641)" style="stroke:#d3d3d3; stroke-linecap:round; stroke-linejoin:round; stroke-width:2; stroke-opacity:1; fill:none" points="1209.55,1366.51 1209.55,1306.55 1209.55,1246.58 1209.55,1186.61 1209.55,1126.65 1209.55,1066.68 1209.55,1006.71 1209.55,946.746 1209.55,886.78 1209.55,826.813 1209.55,766.846 1209.55,706.879 1209.55,646.912 1209.55,586.946 1209.55,526.979 1209.55,467.012 1209.55,407.045 1209.55,347.078 1209.55,287.111 1209.55,227.145 1209.55,167.178 "/>
<polyline clip-path="url(#clip641)" style="stroke:#d3d3d3; stroke-linecap:round; stroke-linejoin:round; stroke-width:2; stroke-opacity:1; fill:none" points="1269.51,1366.51 1269.51,1306.55 1269.51,1246.58 1269.51,1186.61 1269.51,1126.65 1269.51,1066.68 1269.51,1006.71 1269.51,946.746 1269.51,886.78 1269.51,826.813 1269.51,766.846 1269.51,706.879 1269.51,646.912 1269.51,586.946 1269.51,526.979 1269.51,467.012 1269.51,407.045 1269.51,347.078 1269.51,287.111 1269.51,227.145 1269.51,167.178 "/>
<polyline clip-path="url(#clip641)" style="stroke:#d3d3d3; stroke-linecap:round; stroke-linejoin:round; stroke-width:2; stroke-opacity:1; fill:none" points="1329.48,1366.51 1329.48,1306.55 1329.48,1246.58 1329.48,1186.61 1329.48,1126.65 1329.48,1066.68 1329.48,1006.71 1329.48,946.746 1329.48,886.78 1329.48,826.813 1329.48,766.846 1329.48,706.879 1329.48,646.912 1329.48,586.946 1329.48,526.979 1329.48,467.012 1329.48,407.045 1329.48,347.078 1329.48,287.111 1329.48,227.145 1329.48,167.178 "/>
<polyline clip-path="url(#clip641)" style="stroke:#d3d3d3; stroke-linecap:round; stroke-linejoin:round; stroke-width:2; stroke-opacity:1; fill:none" points="1389.45,1366.51 1389.45,1306.55 1389.45,1246.58 1389.45,1186.61 1389.45,1126.65 1389.45,1066.68 1389.45,1006.71 1389.45,946.746 1389.45,886.78 1389.45,826.813 1389.45,766.846 1389.45,706.879 1389.45,646.912 1389.45,586.946 1389.45,526.979 1389.45,467.012 1389.45,407.045 1389.45,347.078 1389.45,287.111 1389.45,227.145 1389.45,167.178 "/>
<polyline clip-path="url(#clip641)" style="stroke:#d3d3d3; stroke-linecap:round; stroke-linejoin:round; stroke-width:2; stroke-opacity:1; fill:none" points="1449.42,1366.51 1449.42,1306.55 1449.42,1246.58 1449.42,1186.61 1449.42,1126.65 1449.42,1066.68 1449.42,1006.71 1449.42,946.746 1449.42,886.78 1449.42,826.813 1449.42,766.846 1449.42,706.879 1449.42,646.912 1449.42,586.946 1449.42,526.979 1449.42,467.012 1449.42,407.045 1449.42,347.078 1449.42,287.111 1449.42,227.145 1449.42,167.178 "/>
<polyline clip-path="url(#clip641)" style="stroke:#d3d3d3; stroke-linecap:round; stroke-linejoin:round; stroke-width:2; stroke-opacity:1; fill:none" points="1509.38,1366.51 1509.38,1306.55 1509.38,1246.58 1509.38,1186.61 1509.38,1126.65 1509.38,1066.68 1509.38,1006.71 1509.38,946.746 1509.38,886.78 1509.38,826.813 1509.38,766.846 1509.38,706.879 1509.38,646.912 1509.38,586.946 1509.38,526.979 1509.38,467.012 1509.38,407.045 1509.38,347.078 1509.38,287.111 1509.38,227.145 1509.38,167.178 "/>
<polyline clip-path="url(#clip641)" style="stroke:#d3d3d3; stroke-linecap:round; stroke-linejoin:round; stroke-width:2; stroke-opacity:1; fill:none" points="1569.35,1366.51 1569.35,1306.55 1569.35,1246.58 1569.35,1186.61 1569.35,1126.65 1569.35,1066.68 1569.35,1006.71 1569.35,946.746 1569.35,886.78 1569.35,826.813 1569.35,766.846 1569.35,706.879 1569.35,646.912 1569.35,586.946 1569.35,526.979 1569.35,467.012 1569.35,407.045 1569.35,347.078 1569.35,287.111 1569.35,227.145 1569.35,167.178 "/>
<polyline clip-path="url(#clip641)" style="stroke:#d3d3d3; stroke-linecap:round; stroke-linejoin:round; stroke-width:2; stroke-opacity:1; fill:none" points="1629.32,1366.51 1629.32,1306.55 1629.32,1246.58 1629.32,1186.61 1629.32,1126.65 1629.32,1066.68 1629.32,1006.71 1629.32,946.746 1629.32,886.78 1629.32,826.813 1629.32,766.846 1629.32,706.879 1629.32,646.912 1629.32,586.946 1629.32,526.979 1629.32,467.012 1629.32,407.045 1629.32,347.078 1629.32,287.111 1629.32,227.145 1629.32,167.178 "/>
<polyline clip-path="url(#clip641)" style="stroke:#d3d3d3; stroke-linecap:round; stroke-linejoin:round; stroke-width:2; stroke-opacity:1; fill:none" points="1689.28,1366.51 1689.28,1306.55 1689.28,1246.58 1689.28,1186.61 1689.28,1126.65 1689.28,1066.68 1689.28,1006.71 1689.28,946.746 1689.28,886.78 1689.28,826.813 1689.28,766.846 1689.28,706.879 1689.28,646.912 1689.28,586.946 1689.28,526.979 1689.28,467.012 1689.28,407.045 1689.28,347.078 1689.28,287.111 1689.28,227.145 1689.28,167.178 "/>
<polyline clip-path="url(#clip641)" style="stroke:#d3d3d3; stroke-linecap:round; stroke-linejoin:round; stroke-width:2; stroke-opacity:1; fill:none" points="1749.25,1366.51 1749.25,1306.55 1749.25,1246.58 1749.25,1186.61 1749.25,1126.65 1749.25,1066.68 1749.25,1006.71 1749.25,946.746 1749.25,886.78 1749.25,826.813 1749.25,766.846 1749.25,706.879 1749.25,646.912 1749.25,586.946 1749.25,526.979 1749.25,467.012 1749.25,407.045 1749.25,347.078 1749.25,287.111 1749.25,227.145 1749.25,167.178 "/>
<polyline clip-path="url(#clip641)" style="stroke:#d3d3d3; stroke-linecap:round; stroke-linejoin:round; stroke-width:2; stroke-opacity:1; fill:none" points="1809.22,1366.51 1809.22,1306.55 1809.22,1246.58 1809.22,1186.61 1809.22,1126.65 1809.22,1066.68 1809.22,1006.71 1809.22,946.746 1809.22,886.78 1809.22,826.813 1809.22,766.846 1809.22,706.879 1809.22,646.912 1809.22,586.946 1809.22,526.979 1809.22,467.012 1809.22,407.045 1809.22,347.078 1809.22,287.111 1809.22,227.145 1809.22,167.178 "/>
<polyline clip-path="url(#clip641)" style="stroke:#d3d3d3; stroke-linecap:round; stroke-linejoin:round; stroke-width:2; stroke-opacity:1; fill:none" points="1869.18,1366.51 1869.18,1306.55 1869.18,1246.58 1869.18,1186.61 1869.18,1126.65 1869.18,1066.68 1869.18,1006.71 1869.18,946.746 1869.18,886.78 1869.18,826.813 1869.18,766.846 1869.18,706.879 1869.18,646.912 1869.18,586.946 1869.18,526.979 1869.18,467.012 1869.18,407.045 1869.18,347.078 1869.18,287.111 1869.18,227.145 1869.18,167.178 "/>
<polyline clip-path="url(#clip641)" style="stroke:#d3d3d3; stroke-linecap:round; stroke-linejoin:round; stroke-width:2; stroke-opacity:1; fill:none" points="669.847,1366.51 729.814,1366.51 789.78,1366.51 849.747,1366.51 909.714,1366.51 969.681,1366.51 1029.65,1366.51 1089.61,1366.51 1149.58,1366.51 1209.55,1366.51 1269.51,1366.51 1329.48,1366.51 1389.45,1366.51 1449.42,1366.51 1509.38,1366.51 1569.35,1366.51 1629.32,1366.51 1689.28,1366.51 1749.25,1366.51 1809.22,1366.51 1869.18,1366.51 "/>
<polyline clip-path="url(#clip641)" style="stroke:#d3d3d3; stroke-linecap:round; stroke-linejoin:round; stroke-width:2; stroke-opacity:1; fill:none" points="669.847,1306.55 729.814,1306.55 789.78,1306.55 849.747,1306.55 909.714,1306.55 969.681,1306.55 1029.65,1306.55 1089.61,1306.55 1149.58,1306.55 1209.55,1306.55 1269.51,1306.55 1329.48,1306.55 1389.45,1306.55 1449.42,1306.55 1509.38,1306.55 1569.35,1306.55 1629.32,1306.55 1689.28,1306.55 1749.25,1306.55 1809.22,1306.55 1869.18,1306.55 "/>
<polyline clip-path="url(#clip641)" style="stroke:#d3d3d3; stroke-linecap:round; stroke-linejoin:round; stroke-width:2; stroke-opacity:1; fill:none" points="669.847,1246.58 729.814,1246.58 789.78,1246.58 849.747,1246.58 909.714,1246.58 969.681,1246.58 1029.65,1246.58 1089.61,1246.58 1149.58,1246.58 1209.55,1246.58 1269.51,1246.58 1329.48,1246.58 1389.45,1246.58 1449.42,1246.58 1509.38,1246.58 1569.35,1246.58 1629.32,1246.58 1689.28,1246.58 1749.25,1246.58 1809.22,1246.58 1869.18,1246.58 "/>
<polyline clip-path="url(#clip641)" style="stroke:#d3d3d3; stroke-linecap:round; stroke-linejoin:round; stroke-width:2; stroke-opacity:1; fill:none" points="669.847,1186.61 729.814,1186.61 789.78,1186.61 849.747,1186.61 909.714,1186.61 969.681,1186.61 1029.65,1186.61 1089.61,1186.61 1149.58,1186.61 1209.55,1186.61 1269.51,1186.61 1329.48,1186.61 1389.45,1186.61 1449.42,1186.61 1509.38,1186.61 1569.35,1186.61 1629.32,1186.61 1689.28,1186.61 1749.25,1186.61 1809.22,1186.61 1869.18,1186.61 "/>
<polyline clip-path="url(#clip641)" style="stroke:#d3d3d3; stroke-linecap:round; stroke-linejoin:round; stroke-width:2; stroke-opacity:1; fill:none" points="669.847,1126.65 729.814,1126.65 789.78,1126.65 849.747,1126.65 909.714,1126.65 969.681,1126.65 1029.65,1126.65 1089.61,1126.65 1149.58,1126.65 1209.55,1126.65 1269.51,1126.65 1329.48,1126.65 1389.45,1126.65 1449.42,1126.65 1509.38,1126.65 1569.35,1126.65 1629.32,1126.65 1689.28,1126.65 1749.25,1126.65 1809.22,1126.65 1869.18,1126.65 "/>
<polyline clip-path="url(#clip641)" style="stroke:#d3d3d3; stroke-linecap:round; stroke-linejoin:round; stroke-width:2; stroke-opacity:1; fill:none" points="669.847,1066.68 729.814,1066.68 789.78,1066.68 849.747,1066.68 909.714,1066.68 969.681,1066.68 1029.65,1066.68 1089.61,1066.68 1149.58,1066.68 1209.55,1066.68 1269.51,1066.68 1329.48,1066.68 1389.45,1066.68 1449.42,1066.68 1509.38,1066.68 1569.35,1066.68 1629.32,1066.68 1689.28,1066.68 1749.25,1066.68 1809.22,1066.68 1869.18,1066.68 "/>
<polyline clip-path="url(#clip641)" style="stroke:#d3d3d3; stroke-linecap:round; stroke-linejoin:round; stroke-width:2; stroke-opacity:1; fill:none" points="669.847,1006.71 729.814,1006.71 789.78,1006.71 849.747,1006.71 909.714,1006.71 969.681,1006.71 1029.65,1006.71 1089.61,1006.71 1149.58,1006.71 1209.55,1006.71 1269.51,1006.71 1329.48,1006.71 1389.45,1006.71 1449.42,1006.71 1509.38,1006.71 1569.35,1006.71 1629.32,1006.71 1689.28,1006.71 1749.25,1006.71 1809.22,1006.71 1869.18,1006.71 "/>
<polyline clip-path="url(#clip641)" style="stroke:#d3d3d3; stroke-linecap:round; stroke-linejoin:round; stroke-width:2; stroke-opacity:1; fill:none" points="669.847,946.746 729.814,946.746 789.78,946.746 849.747,946.746 909.714,946.746 969.681,946.746 1029.65,946.746 1089.61,946.746 1149.58,946.746 1209.55,946.746 1269.51,946.746 1329.48,946.746 1389.45,946.746 1449.42,946.746 1509.38,946.746 1569.35,946.746 1629.32,946.746 1689.28,946.746 1749.25,946.746 1809.22,946.746 1869.18,946.746 "/>
<polyline clip-path="url(#clip641)" style="stroke:#d3d3d3; stroke-linecap:round; stroke-linejoin:round; stroke-width:2; stroke-opacity:1; fill:none" points="669.847,886.78 729.814,886.78 789.78,886.78 849.747,886.78 909.714,886.78 969.681,886.78 1029.65,886.78 1089.61,886.78 1149.58,886.78 1209.55,886.78 1269.51,886.78 1329.48,886.78 1389.45,886.78 1449.42,886.78 1509.38,886.78 1569.35,886.78 1629.32,886.78 1689.28,886.78 1749.25,886.78 1809.22,886.78 1869.18,886.78 "/>
<polyline clip-path="url(#clip641)" style="stroke:#d3d3d3; stroke-linecap:round; stroke-linejoin:round; stroke-width:2; stroke-opacity:1; fill:none" points="669.847,826.813 729.814,826.813 789.78,826.813 849.747,826.813 909.714,826.813 969.681,826.813 1029.65,826.813 1089.61,826.813 1149.58,826.813 1209.55,826.813 1269.51,826.813 1329.48,826.813 1389.45,826.813 1449.42,826.813 1509.38,826.813 1569.35,826.813 1629.32,826.813 1689.28,826.813 1749.25,826.813 1809.22,826.813 1869.18,826.813 "/>
<polyline clip-path="url(#clip641)" style="stroke:#d3d3d3; stroke-linecap:round; stroke-linejoin:round; stroke-width:2; stroke-opacity:1; fill:none" points="669.847,766.846 729.814,766.846 789.78,766.846 849.747,766.846 909.714,766.846 969.681,766.846 1029.65,766.846 1089.61,766.846 1149.58,766.846 1209.55,766.846 1269.51,766.846 1329.48,766.846 1389.45,766.846 1449.42,766.846 1509.38,766.846 1569.35,766.846 1629.32,766.846 1689.28,766.846 1749.25,766.846 1809.22,766.846 1869.18,766.846 "/>
<polyline clip-path="url(#clip641)" style="stroke:#d3d3d3; stroke-linecap:round; stroke-linejoin:round; stroke-width:2; stroke-opacity:1; fill:none" points="669.847,706.879 729.814,706.879 789.78,706.879 849.747,706.879 909.714,706.879 969.681,706.879 1029.65,706.879 1089.61,706.879 1149.58,706.879 1209.55,706.879 1269.51,706.879 1329.48,706.879 1389.45,706.879 1449.42,706.879 1509.38,706.879 1569.35,706.879 1629.32,706.879 1689.28,706.879 1749.25,706.879 1809.22,706.879 1869.18,706.879 "/>
<polyline clip-path="url(#clip641)" style="stroke:#d3d3d3; stroke-linecap:round; stroke-linejoin:round; stroke-width:2; stroke-opacity:1; fill:none" points="669.847,646.912 729.814,646.912 789.78,646.912 849.747,646.912 909.714,646.912 969.681,646.912 1029.65,646.912 1089.61,646.912 1149.58,646.912 1209.55,646.912 1269.51,646.912 1329.48,646.912 1389.45,646.912 1449.42,646.912 1509.38,646.912 1569.35,646.912 1629.32,646.912 1689.28,646.912 1749.25,646.912 1809.22,646.912 1869.18,646.912 "/>
<polyline clip-path="url(#clip641)" style="stroke:#d3d3d3; stroke-linecap:round; stroke-linejoin:round; stroke-width:2; stroke-opacity:1; fill:none" points="669.847,586.946 729.814,586.946 789.78,586.946 849.747,586.946 909.714,586.946 969.681,586.946 1029.65,586.946 1089.61,586.946 1149.58,586.946 1209.55,586.946 1269.51,586.946 1329.48,586.946 1389.45,586.946 1449.42,586.946 1509.38,586.946 1569.35,586.946 1629.32,586.946 1689.28,586.946 1749.25,586.946 1809.22,586.946 1869.18,586.946 "/>
<polyline clip-path="url(#clip641)" style="stroke:#d3d3d3; stroke-linecap:round; stroke-linejoin:round; stroke-width:2; stroke-opacity:1; fill:none" points="669.847,526.979 729.814,526.979 789.78,526.979 849.747,526.979 909.714,526.979 969.681,526.979 1029.65,526.979 1089.61,526.979 1149.58,526.979 1209.55,526.979 1269.51,526.979 1329.48,526.979 1389.45,526.979 1449.42,526.979 1509.38,526.979 1569.35,526.979 1629.32,526.979 1689.28,526.979 1749.25,526.979 1809.22,526.979 1869.18,526.979 "/>
<polyline clip-path="url(#clip641)" style="stroke:#d3d3d3; stroke-linecap:round; stroke-linejoin:round; stroke-width:2; stroke-opacity:1; fill:none" points="669.847,467.012 729.814,467.012 789.78,467.012 849.747,467.012 909.714,467.012 969.681,467.012 1029.65,467.012 1089.61,467.012 1149.58,467.012 1209.55,467.012 1269.51,467.012 1329.48,467.012 1389.45,467.012 1449.42,467.012 1509.38,467.012 1569.35,467.012 1629.32,467.012 1689.28,467.012 1749.25,467.012 1809.22,467.012 1869.18,467.012 "/>
<polyline clip-path="url(#clip641)" style="stroke:#d3d3d3; stroke-linecap:round; stroke-linejoin:round; stroke-width:2; stroke-opacity:1; fill:none" points="669.847,407.045 729.814,407.045 789.78,407.045 849.747,407.045 909.714,407.045 969.681,407.045 1029.65,407.045 1089.61,407.045 1149.58,407.045 1209.55,407.045 1269.51,407.045 1329.48,407.045 1389.45,407.045 1449.42,407.045 1509.38,407.045 1569.35,407.045 1629.32,407.045 1689.28,407.045 1749.25,407.045 1809.22,407.045 1869.18,407.045 "/>
<polyline clip-path="url(#clip641)" style="stroke:#d3d3d3; stroke-linecap:round; stroke-linejoin:round; stroke-width:2; stroke-opacity:1; fill:none" points="669.847,347.078 729.814,347.078 789.78,347.078 849.747,347.078 909.714,347.078 969.681,347.078 1029.65,347.078 1089.61,347.078 1149.58,347.078 1209.55,347.078 1269.51,347.078 1329.48,347.078 1389.45,347.078 1449.42,347.078 1509.38,347.078 1569.35,347.078 1629.32,347.078 1689.28,347.078 1749.25,347.078 1809.22,347.078 1869.18,347.078 "/>
<polyline clip-path="url(#clip641)" style="stroke:#d3d3d3; stroke-linecap:round; stroke-linejoin:round; stroke-width:2; stroke-opacity:1; fill:none" points="669.847,287.111 729.814,287.111 789.78,287.111 849.747,287.111 909.714,287.111 969.681,287.111 1029.65,287.111 1089.61,287.111 1149.58,287.111 1209.55,287.111 1269.51,287.111 1329.48,287.111 1389.45,287.111 1449.42,287.111 1509.38,287.111 1569.35,287.111 1629.32,287.111 1689.28,287.111 1749.25,287.111 1809.22,287.111 1869.18,287.111 "/>
<polyline clip-path="url(#clip641)" style="stroke:#d3d3d3; stroke-linecap:round; stroke-linejoin:round; stroke-width:2; stroke-opacity:1; fill:none" points="669.847,227.145 729.814,227.145 789.78,227.145 849.747,227.145 909.714,227.145 969.681,227.145 1029.65,227.145 1089.61,227.145 1149.58,227.145 1209.55,227.145 1269.51,227.145 1329.48,227.145 1389.45,227.145 1449.42,227.145 1509.38,227.145 1569.35,227.145 1629.32,227.145 1689.28,227.145 1749.25,227.145 1809.22,227.145 1869.18,227.145 "/>
<polyline clip-path="url(#clip641)" style="stroke:#d3d3d3; stroke-linecap:round; stroke-linejoin:round; stroke-width:2; stroke-opacity:1; fill:none" points="669.847,167.178 729.814,167.178 789.78,167.178 849.747,167.178 909.714,167.178 969.681,167.178 1029.65,167.178 1089.61,167.178 1149.58,167.178 1209.55,167.178 1269.51,167.178 1329.48,167.178 1389.45,167.178 1449.42,167.178 1509.38,167.178 1569.35,167.178 1629.32,167.178 1689.28,167.178 1749.25,167.178 1809.22,167.178 1869.18,167.178 "/>
<circle clip-path="url(#clip641)" cx="729.814" cy="1366.51" r="10.8" fill="#00a8cb" fill-rule="evenodd" fill-opacity="1" stroke="#000000" stroke-opacity="1" stroke-width="3.2"/>
<circle clip-path="url(#clip641)" cx="789.78" cy="1366.51" r="10.8" fill="#00a8cb" fill-rule="evenodd" fill-opacity="1" stroke="#000000" stroke-opacity="1" stroke-width="3.2"/>
<circle clip-path="url(#clip641)" cx="849.747" cy="1366.51" r="10.8" fill="#00a8cb" fill-rule="evenodd" fill-opacity="1" stroke="#000000" stroke-opacity="1" stroke-width="3.2"/>
<circle clip-path="url(#clip641)" cx="909.714" cy="1366.51" r="10.8" fill="#00a8cb" fill-rule="evenodd" fill-opacity="1" stroke="#000000" stroke-opacity="1" stroke-width="3.2"/>
<circle clip-path="url(#clip641)" cx="969.681" cy="1366.51" r="10.8" fill="#00a8cb" fill-rule="evenodd" fill-opacity="1" stroke="#000000" stroke-opacity="1" stroke-width="3.2"/>
<circle clip-path="url(#clip641)" cx="1029.65" cy="1366.51" r="10.8" fill="#00a8cb" fill-rule="evenodd" fill-opacity="1" stroke="#000000" stroke-opacity="1" stroke-width="3.2"/>
<circle clip-path="url(#clip641)" cx="1089.61" cy="1366.51" r="10.8" fill="#00a8cb" fill-rule="evenodd" fill-opacity="1" stroke="#000000" stroke-opacity="1" stroke-width="3.2"/>
<circle clip-path="url(#clip641)" cx="669.847" cy="1306.55" r="10.8" fill="#00a8cb" fill-rule="evenodd" fill-opacity="1" stroke="#000000" stroke-opacity="1" stroke-width="3.2"/>
<circle clip-path="url(#clip641)" cx="729.814" cy="1306.55" r="10.8" fill="#00a8cb" fill-rule="evenodd" fill-opacity="1" stroke="#000000" stroke-opacity="1" stroke-width="3.2"/>
<circle clip-path="url(#clip641)" cx="789.78" cy="1306.55" r="10.8" fill="#00a8cb" fill-rule="evenodd" fill-opacity="1" stroke="#000000" stroke-opacity="1" stroke-width="3.2"/>
<circle clip-path="url(#clip641)" cx="849.747" cy="1306.55" r="10.8" fill="#00a8cb" fill-rule="evenodd" fill-opacity="1" stroke="#000000" stroke-opacity="1" stroke-width="3.2"/>
<circle clip-path="url(#clip641)" cx="909.714" cy="1306.55" r="10.8" fill="#00a8cb" fill-rule="evenodd" fill-opacity="1" stroke="#000000" stroke-opacity="1" stroke-width="3.2"/>
<circle clip-path="url(#clip641)" cx="969.681" cy="1306.55" r="10.8" fill="#00a8cb" fill-rule="evenodd" fill-opacity="1" stroke="#000000" stroke-opacity="1" stroke-width="3.2"/>
<circle clip-path="url(#clip641)" cx="1029.65" cy="1306.55" r="10.8" fill="#00a8cb" fill-rule="evenodd" fill-opacity="1" stroke="#000000" stroke-opacity="1" stroke-width="3.2"/>
<circle clip-path="url(#clip641)" cx="1089.61" cy="1306.55" r="10.8" fill="#00a8cb" fill-rule="evenodd" fill-opacity="1" stroke="#000000" stroke-opacity="1" stroke-width="3.2"/>
<circle clip-path="url(#clip641)" cx="1149.58" cy="1306.55" r="10.8" fill="#00a8cb" fill-rule="evenodd" fill-opacity="1" stroke="#000000" stroke-opacity="1" stroke-width="3.2"/>
<circle clip-path="url(#clip641)" cx="669.847" cy="1246.58" r="10.8" fill="#00a8cb" fill-rule="evenodd" fill-opacity="1" stroke="#000000" stroke-opacity="1" stroke-width="3.2"/>
<circle clip-path="url(#clip641)" cx="729.814" cy="1246.58" r="10.8" fill="#00a8cb" fill-rule="evenodd" fill-opacity="1" stroke="#000000" stroke-opacity="1" stroke-width="3.2"/>
<circle clip-path="url(#clip641)" cx="789.78" cy="1246.58" r="10.8" fill="#00a8cb" fill-rule="evenodd" fill-opacity="1" stroke="#000000" stroke-opacity="1" stroke-width="3.2"/>
<circle clip-path="url(#clip641)" cx="849.747" cy="1246.58" r="10.8" fill="#00a8cb" fill-rule="evenodd" fill-opacity="1" stroke="#000000" stroke-opacity="1" stroke-width="3.2"/>
<circle clip-path="url(#clip641)" cx="909.714" cy="1246.58" r="10.8" fill="#00a8cb" fill-rule="evenodd" fill-opacity="1" stroke="#000000" stroke-opacity="1" stroke-width="3.2"/>
<circle clip-path="url(#clip641)" cx="969.681" cy="1246.58" r="10.8" fill="#00a8cb" fill-rule="evenodd" fill-opacity="1" stroke="#000000" stroke-opacity="1" stroke-width="3.2"/>
<circle clip-path="url(#clip641)" cx="1029.65" cy="1246.58" r="10.8" fill="#00a8cb" fill-rule="evenodd" fill-opacity="1" stroke="#000000" stroke-opacity="1" stroke-width="3.2"/>
<circle clip-path="url(#clip641)" cx="1089.61" cy="1246.58" r="10.8" fill="#00a8cb" fill-rule="evenodd" fill-opacity="1" stroke="#000000" stroke-opacity="1" stroke-width="3.2"/>
<circle clip-path="url(#clip641)" cx="1149.58" cy="1246.58" r="10.8" fill="#00a8cb" fill-rule="evenodd" fill-opacity="1" stroke="#000000" stroke-opacity="1" stroke-width="3.2"/>
<circle clip-path="url(#clip641)" cx="669.847" cy="1186.61" r="10.8" fill="#00a8cb" fill-rule="evenodd" fill-opacity="1" stroke="#000000" stroke-opacity="1" stroke-width="3.2"/>
<circle clip-path="url(#clip641)" cx="729.814" cy="1186.61" r="10.8" fill="#00a8cb" fill-rule="evenodd" fill-opacity="1" stroke="#000000" stroke-opacity="1" stroke-width="3.2"/>
<circle clip-path="url(#clip641)" cx="789.78" cy="1186.61" r="10.8" fill="#00a8cb" fill-rule="evenodd" fill-opacity="1" stroke="#000000" stroke-opacity="1" stroke-width="3.2"/>
<circle clip-path="url(#clip641)" cx="849.747" cy="1186.61" r="10.8" fill="#00a8cb" fill-rule="evenodd" fill-opacity="1" stroke="#000000" stroke-opacity="1" stroke-width="3.2"/>
<circle clip-path="url(#clip641)" cx="909.714" cy="1186.61" r="10.8" fill="#00a8cb" fill-rule="evenodd" fill-opacity="1" stroke="#000000" stroke-opacity="1" stroke-width="3.2"/>
<circle clip-path="url(#clip641)" cx="969.681" cy="1186.61" r="10.8" fill="#00a8cb" fill-rule="evenodd" fill-opacity="1" stroke="#000000" stroke-opacity="1" stroke-width="3.2"/>
<circle clip-path="url(#clip641)" cx="1029.65" cy="1186.61" r="10.8" fill="#00a8cb" fill-rule="evenodd" fill-opacity="1" stroke="#000000" stroke-opacity="1" stroke-width="3.2"/>
<circle clip-path="url(#clip641)" cx="1089.61" cy="1186.61" r="10.8" fill="#00a8cb" fill-rule="evenodd" fill-opacity="1" stroke="#000000" stroke-opacity="1" stroke-width="3.2"/>
<circle clip-path="url(#clip641)" cx="1149.58" cy="1186.61" r="10.8" fill="#00a8cb" fill-rule="evenodd" fill-opacity="1" stroke="#000000" stroke-opacity="1" stroke-width="3.2"/>
<circle clip-path="url(#clip641)" cx="669.847" cy="1126.65" r="10.8" fill="#00a8cb" fill-rule="evenodd" fill-opacity="1" stroke="#000000" stroke-opacity="1" stroke-width="3.2"/>
<circle clip-path="url(#clip641)" cx="729.814" cy="1126.65" r="10.8" fill="#00a8cb" fill-rule="evenodd" fill-opacity="1" stroke="#000000" stroke-opacity="1" stroke-width="3.2"/>
<circle clip-path="url(#clip641)" cx="789.78" cy="1126.65" r="10.8" fill="#00a8cb" fill-rule="evenodd" fill-opacity="1" stroke="#000000" stroke-opacity="1" stroke-width="3.2"/>
<circle clip-path="url(#clip641)" cx="849.747" cy="1126.65" r="10.8" fill="#00a8cb" fill-rule="evenodd" fill-opacity="1" stroke="#000000" stroke-opacity="1" stroke-width="3.2"/>
<circle clip-path="url(#clip641)" cx="909.714" cy="1126.65" r="10.8" fill="#00a8cb" fill-rule="evenodd" fill-opacity="1" stroke="#000000" stroke-opacity="1" stroke-width="3.2"/>
<circle clip-path="url(#clip641)" cx="969.681" cy="1126.65" r="10.8" fill="#00a8cb" fill-rule="evenodd" fill-opacity="1" stroke="#000000" stroke-opacity="1" stroke-width="3.2"/>
<circle clip-path="url(#clip641)" cx="1029.65" cy="1126.65" r="10.8" fill="#00a8cb" fill-rule="evenodd" fill-opacity="1" stroke="#000000" stroke-opacity="1" stroke-width="3.2"/>
<circle clip-path="url(#clip641)" cx="1089.61" cy="1126.65" r="10.8" fill="#00a8cb" fill-rule="evenodd" fill-opacity="1" stroke="#000000" stroke-opacity="1" stroke-width="3.2"/>
<circle clip-path="url(#clip641)" cx="1149.58" cy="1126.65" r="10.8" fill="#00a8cb" fill-rule="evenodd" fill-opacity="1" stroke="#000000" stroke-opacity="1" stroke-width="3.2"/>
<circle clip-path="url(#clip641)" cx="669.847" cy="1066.68" r="10.8" fill="#00a8cb" fill-rule="evenodd" fill-opacity="1" stroke="#000000" stroke-opacity="1" stroke-width="3.2"/>
<circle clip-path="url(#clip641)" cx="729.814" cy="1066.68" r="10.8" fill="#00a8cb" fill-rule="evenodd" fill-opacity="1" stroke="#000000" stroke-opacity="1" stroke-width="3.2"/>
<circle clip-path="url(#clip641)" cx="789.78" cy="1066.68" r="10.8" fill="#00a8cb" fill-rule="evenodd" fill-opacity="1" stroke="#000000" stroke-opacity="1" stroke-width="3.2"/>
<circle clip-path="url(#clip641)" cx="849.747" cy="1066.68" r="10.8" fill="#00a8cb" fill-rule="evenodd" fill-opacity="1" stroke="#000000" stroke-opacity="1" stroke-width="3.2"/>
<circle clip-path="url(#clip641)" cx="909.714" cy="1066.68" r="10.8" fill="#00a8cb" fill-rule="evenodd" fill-opacity="1" stroke="#000000" stroke-opacity="1" stroke-width="3.2"/>
<circle clip-path="url(#clip641)" cx="969.681" cy="1066.68" r="10.8" fill="#00a8cb" fill-rule="evenodd" fill-opacity="1" stroke="#000000" stroke-opacity="1" stroke-width="3.2"/>
<circle clip-path="url(#clip641)" cx="1029.65" cy="1066.68" r="10.8" fill="#00a8cb" fill-rule="evenodd" fill-opacity="1" stroke="#000000" stroke-opacity="1" stroke-width="3.2"/>
<circle clip-path="url(#clip641)" cx="1089.61" cy="1066.68" r="10.8" fill="#00a8cb" fill-rule="evenodd" fill-opacity="1" stroke="#000000" stroke-opacity="1" stroke-width="3.2"/>
<circle clip-path="url(#clip641)" cx="1149.58" cy="1066.68" r="10.8" fill="#00a8cb" fill-rule="evenodd" fill-opacity="1" stroke="#000000" stroke-opacity="1" stroke-width="3.2"/>
<circle clip-path="url(#clip641)" cx="669.847" cy="1006.71" r="10.8" fill="#00a8cb" fill-rule="evenodd" fill-opacity="1" stroke="#000000" stroke-opacity="1" stroke-width="3.2"/>
<circle clip-path="url(#clip641)" cx="729.814" cy="1006.71" r="10.8" fill="#00a8cb" fill-rule="evenodd" fill-opacity="1" stroke="#000000" stroke-opacity="1" stroke-width="3.2"/>
<circle clip-path="url(#clip641)" cx="789.78" cy="1006.71" r="10.8" fill="#00a8cb" fill-rule="evenodd" fill-opacity="1" stroke="#000000" stroke-opacity="1" stroke-width="3.2"/>
<circle clip-path="url(#clip641)" cx="849.747" cy="1006.71" r="10.8" fill="#00a8cb" fill-rule="evenodd" fill-opacity="1" stroke="#000000" stroke-opacity="1" stroke-width="3.2"/>
<circle clip-path="url(#clip641)" cx="909.714" cy="1006.71" r="10.8" fill="#00a8cb" fill-rule="evenodd" fill-opacity="1" stroke="#000000" stroke-opacity="1" stroke-width="3.2"/>
<circle clip-path="url(#clip641)" cx="969.681" cy="1006.71" r="10.8" fill="#00a8cb" fill-rule="evenodd" fill-opacity="1" stroke="#000000" stroke-opacity="1" stroke-width="3.2"/>
<circle clip-path="url(#clip641)" cx="1029.65" cy="1006.71" r="10.8" fill="#00a8cb" fill-rule="evenodd" fill-opacity="1" stroke="#000000" stroke-opacity="1" stroke-width="3.2"/>
<circle clip-path="url(#clip641)" cx="1089.61" cy="1006.71" r="10.8" fill="#00a8cb" fill-rule="evenodd" fill-opacity="1" stroke="#000000" stroke-opacity="1" stroke-width="3.2"/>
<circle clip-path="url(#clip641)" cx="1149.58" cy="1006.71" r="10.8" fill="#00a8cb" fill-rule="evenodd" fill-opacity="1" stroke="#000000" stroke-opacity="1" stroke-width="3.2"/>
<circle clip-path="url(#clip641)" cx="669.847" cy="946.746" r="10.8" fill="#00a8cb" fill-rule="evenodd" fill-opacity="1" stroke="#000000" stroke-opacity="1" stroke-width="3.2"/>
<circle clip-path="url(#clip641)" cx="729.814" cy="946.746" r="10.8" fill="#00a8cb" fill-rule="evenodd" fill-opacity="1" stroke="#000000" stroke-opacity="1" stroke-width="3.2"/>
<circle clip-path="url(#clip641)" cx="789.78" cy="946.746" r="10.8" fill="#00a8cb" fill-rule="evenodd" fill-opacity="1" stroke="#000000" stroke-opacity="1" stroke-width="3.2"/>
<circle clip-path="url(#clip641)" cx="849.747" cy="946.746" r="10.8" fill="#00a8cb" fill-rule="evenodd" fill-opacity="1" stroke="#000000" stroke-opacity="1" stroke-width="3.2"/>
<circle clip-path="url(#clip641)" cx="909.714" cy="946.746" r="10.8" fill="#00a8cb" fill-rule="evenodd" fill-opacity="1" stroke="#000000" stroke-opacity="1" stroke-width="3.2"/>
<circle clip-path="url(#clip641)" cx="969.681" cy="946.746" r="10.8" fill="#00a8cb" fill-rule="evenodd" fill-opacity="1" stroke="#000000" stroke-opacity="1" stroke-width="3.2"/>
<circle clip-path="url(#clip641)" cx="1029.65" cy="946.746" r="10.8" fill="#00a8cb" fill-rule="evenodd" fill-opacity="1" stroke="#000000" stroke-opacity="1" stroke-width="3.2"/>
<circle clip-path="url(#clip641)" cx="1089.61" cy="946.746" r="10.8" fill="#00a8cb" fill-rule="evenodd" fill-opacity="1" stroke="#000000" stroke-opacity="1" stroke-width="3.2"/>
<circle clip-path="url(#clip641)" cx="1149.58" cy="946.746" r="10.8" fill="#00a8cb" fill-rule="evenodd" fill-opacity="1" stroke="#000000" stroke-opacity="1" stroke-width="3.2"/>
<circle clip-path="url(#clip641)" cx="729.814" cy="886.78" r="10.8" fill="#00a8cb" fill-rule="evenodd" fill-opacity="1" stroke="#000000" stroke-opacity="1" stroke-width="3.2"/>
<circle clip-path="url(#clip641)" cx="789.78" cy="886.78" r="10.8" fill="#00a8cb" fill-rule="evenodd" fill-opacity="1" stroke="#000000" stroke-opacity="1" stroke-width="3.2"/>
<circle clip-path="url(#clip641)" cx="849.747" cy="886.78" r="10.8" fill="#00a8cb" fill-rule="evenodd" fill-opacity="1" stroke="#000000" stroke-opacity="1" stroke-width="3.2"/>
<circle clip-path="url(#clip641)" cx="909.714" cy="886.78" r="10.8" fill="#00a8cb" fill-rule="evenodd" fill-opacity="1" stroke="#000000" stroke-opacity="1" stroke-width="3.2"/>
<circle clip-path="url(#clip641)" cx="969.681" cy="886.78" r="10.8" fill="#00a8cb" fill-rule="evenodd" fill-opacity="1" stroke="#000000" stroke-opacity="1" stroke-width="3.2"/>
<circle clip-path="url(#clip641)" cx="1029.65" cy="886.78" r="10.8" fill="#00a8cb" fill-rule="evenodd" fill-opacity="1" stroke="#000000" stroke-opacity="1" stroke-width="3.2"/>
<circle clip-path="url(#clip641)" cx="1089.61" cy="886.78" r="10.8" fill="#00a8cb" fill-rule="evenodd" fill-opacity="1" stroke="#000000" stroke-opacity="1" stroke-width="3.2"/>
<circle clip-path="url(#clip641)" cx="1449.42" cy="646.912" r="10.8" fill="#00a8cb" fill-rule="evenodd" fill-opacity="1" stroke="#000000" stroke-opacity="1" stroke-width="3.2"/>
<circle clip-path="url(#clip641)" cx="1509.38" cy="646.912" r="10.8" fill="#00a8cb" fill-rule="evenodd" fill-opacity="1" stroke="#000000" stroke-opacity="1" stroke-width="3.2"/>
<circle clip-path="url(#clip641)" cx="1569.35" cy="646.912" r="10.8" fill="#00a8cb" fill-rule="evenodd" fill-opacity="1" stroke="#000000" stroke-opacity="1" stroke-width="3.2"/>
<circle clip-path="url(#clip641)" cx="1629.32" cy="646.912" r="10.8" fill="#00a8cb" fill-rule="evenodd" fill-opacity="1" stroke="#000000" stroke-opacity="1" stroke-width="3.2"/>
<circle clip-path="url(#clip641)" cx="1689.28" cy="646.912" r="10.8" fill="#00a8cb" fill-rule="evenodd" fill-opacity="1" stroke="#000000" stroke-opacity="1" stroke-width="3.2"/>
<circle clip-path="url(#clip641)" cx="1749.25" cy="646.912" r="10.8" fill="#00a8cb" fill-rule="evenodd" fill-opacity="1" stroke="#000000" stroke-opacity="1" stroke-width="3.2"/>
<circle clip-path="url(#clip641)" cx="1809.22" cy="646.912" r="10.8" fill="#00a8cb" fill-rule="evenodd" fill-opacity="1" stroke="#000000" stroke-opacity="1" stroke-width="3.2"/>
<circle clip-path="url(#clip641)" cx="1389.45" cy="586.946" r="10.8" fill="#00a8cb" fill-rule="evenodd" fill-opacity="1" stroke="#000000" stroke-opacity="1" stroke-width="3.2"/>
<circle clip-path="url(#clip641)" cx="1449.42" cy="586.946" r="10.8" fill="#00a8cb" fill-rule="evenodd" fill-opacity="1" stroke="#000000" stroke-opacity="1" stroke-width="3.2"/>
<circle clip-path="url(#clip641)" cx="1509.38" cy="586.946" r="10.8" fill="#00a8cb" fill-rule="evenodd" fill-opacity="1" stroke="#000000" stroke-opacity="1" stroke-width="3.2"/>
<circle clip-path="url(#clip641)" cx="1569.35" cy="586.946" r="10.8" fill="#00a8cb" fill-rule="evenodd" fill-opacity="1" stroke="#000000" stroke-opacity="1" stroke-width="3.2"/>
<circle clip-path="url(#clip641)" cx="1629.32" cy="586.946" r="10.8" fill="#00a8cb" fill-rule="evenodd" fill-opacity="1" stroke="#000000" stroke-opacity="1" stroke-width="3.2"/>
<circle clip-path="url(#clip641)" cx="1689.28" cy="586.946" r="10.8" fill="#00a8cb" fill-rule="evenodd" fill-opacity="1" stroke="#000000" stroke-opacity="1" stroke-width="3.2"/>
<circle clip-path="url(#clip641)" cx="1749.25" cy="586.946" r="10.8" fill="#00a8cb" fill-rule="evenodd" fill-opacity="1" stroke="#000000" stroke-opacity="1" stroke-width="3.2"/>
<circle clip-path="url(#clip641)" cx="1809.22" cy="586.946" r="10.8" fill="#00a8cb" fill-rule="evenodd" fill-opacity="1" stroke="#000000" stroke-opacity="1" stroke-width="3.2"/>
<circle clip-path="url(#clip641)" cx="1869.18" cy="586.946" r="10.8" fill="#00a8cb" fill-rule="evenodd" fill-opacity="1" stroke="#000000" stroke-opacity="1" stroke-width="3.2"/>
<circle clip-path="url(#clip641)" cx="1389.45" cy="526.979" r="10.8" fill="#00a8cb" fill-rule="evenodd" fill-opacity="1" stroke="#000000" stroke-opacity="1" stroke-width="3.2"/>
<circle clip-path="url(#clip641)" cx="1449.42" cy="526.979" r="10.8" fill="#00a8cb" fill-rule="evenodd" fill-opacity="1" stroke="#000000" stroke-opacity="1" stroke-width="3.2"/>
<circle clip-path="url(#clip641)" cx="1509.38" cy="526.979" r="10.8" fill="#00a8cb" fill-rule="evenodd" fill-opacity="1" stroke="#000000" stroke-opacity="1" stroke-width="3.2"/>
<circle clip-path="url(#clip641)" cx="1569.35" cy="526.979" r="10.8" fill="#00a8cb" fill-rule="evenodd" fill-opacity="1" stroke="#000000" stroke-opacity="1" stroke-width="3.2"/>
<circle clip-path="url(#clip641)" cx="1629.32" cy="526.979" r="10.8" fill="#00a8cb" fill-rule="evenodd" fill-opacity="1" stroke="#000000" stroke-opacity="1" stroke-width="3.2"/>
<circle clip-path="url(#clip641)" cx="1689.28" cy="526.979" r="10.8" fill="#00a8cb" fill-rule="evenodd" fill-opacity="1" stroke="#000000" stroke-opacity="1" stroke-width="3.2"/>
<circle clip-path="url(#clip641)" cx="1749.25" cy="526.979" r="10.8" fill="#00a8cb" fill-rule="evenodd" fill-opacity="1" stroke="#000000" stroke-opacity="1" stroke-width="3.2"/>
<circle clip-path="url(#clip641)" cx="1809.22" cy="526.979" r="10.8" fill="#00a8cb" fill-rule="evenodd" fill-opacity="1" stroke="#000000" stroke-opacity="1" stroke-width="3.2"/>
<circle clip-path="url(#clip641)" cx="1869.18" cy="526.979" r="10.8" fill="#00a8cb" fill-rule="evenodd" fill-opacity="1" stroke="#000000" stroke-opacity="1" stroke-width="3.2"/>
<circle clip-path="url(#clip641)" cx="1389.45" cy="467.012" r="10.8" fill="#00a8cb" fill-rule="evenodd" fill-opacity="1" stroke="#000000" stroke-opacity="1" stroke-width="3.2"/>
<circle clip-path="url(#clip641)" cx="1449.42" cy="467.012" r="10.8" fill="#00a8cb" fill-rule="evenodd" fill-opacity="1" stroke="#000000" stroke-opacity="1" stroke-width="3.2"/>
<circle clip-path="url(#clip641)" cx="1509.38" cy="467.012" r="10.8" fill="#00a8cb" fill-rule="evenodd" fill-opacity="1" stroke="#000000" stroke-opacity="1" stroke-width="3.2"/>
<circle clip-path="url(#clip641)" cx="1569.35" cy="467.012" r="10.8" fill="#00a8cb" fill-rule="evenodd" fill-opacity="1" stroke="#000000" stroke-opacity="1" stroke-width="3.2"/>
<circle clip-path="url(#clip641)" cx="1629.32" cy="467.012" r="10.8" fill="#00a8cb" fill-rule="evenodd" fill-opacity="1" stroke="#000000" stroke-opacity="1" stroke-width="3.2"/>
<circle clip-path="url(#clip641)" cx="1689.28" cy="467.012" r="10.8" fill="#00a8cb" fill-rule="evenodd" fill-opacity="1" stroke="#000000" stroke-opacity="1" stroke-width="3.2"/>
<circle clip-path="url(#clip641)" cx="1749.25" cy="467.012" r="10.8" fill="#00a8cb" fill-rule="evenodd" fill-opacity="1" stroke="#000000" stroke-opacity="1" stroke-width="3.2"/>
<circle clip-path="url(#clip641)" cx="1809.22" cy="467.012" r="10.8" fill="#00a8cb" fill-rule="evenodd" fill-opacity="1" stroke="#000000" stroke-opacity="1" stroke-width="3.2"/>
<circle clip-path="url(#clip641)" cx="1869.18" cy="467.012" r="10.8" fill="#00a8cb" fill-rule="evenodd" fill-opacity="1" stroke="#000000" stroke-opacity="1" stroke-width="3.2"/>
<circle clip-path="url(#clip641)" cx="1389.45" cy="407.045" r="10.8" fill="#00a8cb" fill-rule="evenodd" fill-opacity="1" stroke="#000000" stroke-opacity="1" stroke-width="3.2"/>
<circle clip-path="url(#clip641)" cx="1449.42" cy="407.045" r="10.8" fill="#00a8cb" fill-rule="evenodd" fill-opacity="1" stroke="#000000" stroke-opacity="1" stroke-width="3.2"/>
<circle clip-path="url(#clip641)" cx="1509.38" cy="407.045" r="10.8" fill="#00a8cb" fill-rule="evenodd" fill-opacity="1" stroke="#000000" stroke-opacity="1" stroke-width="3.2"/>
<circle clip-path="url(#clip641)" cx="1569.35" cy="407.045" r="10.8" fill="#00a8cb" fill-rule="evenodd" fill-opacity="1" stroke="#000000" stroke-opacity="1" stroke-width="3.2"/>
<circle clip-path="url(#clip641)" cx="1629.32" cy="407.045" r="10.8" fill="#00a8cb" fill-rule="evenodd" fill-opacity="1" stroke="#000000" stroke-opacity="1" stroke-width="3.2"/>
<circle clip-path="url(#clip641)" cx="1689.28" cy="407.045" r="10.8" fill="#00a8cb" fill-rule="evenodd" fill-opacity="1" stroke="#000000" stroke-opacity="1" stroke-width="3.2"/>
<circle clip-path="url(#clip641)" cx="1749.25" cy="407.045" r="10.8" fill="#00a8cb" fill-rule="evenodd" fill-opacity="1" stroke="#000000" stroke-opacity="1" stroke-width="3.2"/>
<circle clip-path="url(#clip641)" cx="1809.22" cy="407.045" r="10.8" fill="#00a8cb" fill-rule="evenodd" fill-opacity="1" stroke="#000000" stroke-opacity="1" stroke-width="3.2"/>
<circle clip-path="url(#clip641)" cx="1869.18" cy="407.045" r="10.8" fill="#00a8cb" fill-rule="evenodd" fill-opacity="1" stroke="#000000" stroke-opacity="1" stroke-width="3.2"/>
<circle clip-path="url(#clip641)" cx="1389.45" cy="347.078" r="10.8" fill="#00a8cb" fill-rule="evenodd" fill-opacity="1" stroke="#000000" stroke-opacity="1" stroke-width="3.2"/>
<circle clip-path="url(#clip641)" cx="1449.42" cy="347.078" r="10.8" fill="#00a8cb" fill-rule="evenodd" fill-opacity="1" stroke="#000000" stroke-opacity="1" stroke-width="3.2"/>
<circle clip-path="url(#clip641)" cx="1509.38" cy="347.078" r="10.8" fill="#00a8cb" fill-rule="evenodd" fill-opacity="1" stroke="#000000" stroke-opacity="1" stroke-width="3.2"/>
<circle clip-path="url(#clip641)" cx="1569.35" cy="347.078" r="10.8" fill="#00a8cb" fill-rule="evenodd" fill-opacity="1" stroke="#000000" stroke-opacity="1" stroke-width="3.2"/>
<circle clip-path="url(#clip641)" cx="1629.32" cy="347.078" r="10.8" fill="#00a8cb" fill-rule="evenodd" fill-opacity="1" stroke="#000000" stroke-opacity="1" stroke-width="3.2"/>
<circle clip-path="url(#clip641)" cx="1689.28" cy="347.078" r="10.8" fill="#00a8cb" fill-rule="evenodd" fill-opacity="1" stroke="#000000" stroke-opacity="1" stroke-width="3.2"/>
<circle clip-path="url(#clip641)" cx="1749.25" cy="347.078" r="10.8" fill="#00a8cb" fill-rule="evenodd" fill-opacity="1" stroke="#000000" stroke-opacity="1" stroke-width="3.2"/>
<circle clip-path="url(#clip641)" cx="1809.22" cy="347.078" r="10.8" fill="#00a8cb" fill-rule="evenodd" fill-opacity="1" stroke="#000000" stroke-opacity="1" stroke-width="3.2"/>
<circle clip-path="url(#clip641)" cx="1869.18" cy="347.078" r="10.8" fill="#00a8cb" fill-rule="evenodd" fill-opacity="1" stroke="#000000" stroke-opacity="1" stroke-width="3.2"/>
<circle clip-path="url(#clip641)" cx="1389.45" cy="287.111" r="10.8" fill="#00a8cb" fill-rule="evenodd" fill-opacity="1" stroke="#000000" stroke-opacity="1" stroke-width="3.2"/>
<circle clip-path="url(#clip641)" cx="1449.42" cy="287.111" r="10.8" fill="#00a8cb" fill-rule="evenodd" fill-opacity="1" stroke="#000000" stroke-opacity="1" stroke-width="3.2"/>
<circle clip-path="url(#clip641)" cx="1509.38" cy="287.111" r="10.8" fill="#00a8cb" fill-rule="evenodd" fill-opacity="1" stroke="#000000" stroke-opacity="1" stroke-width="3.2"/>
<circle clip-path="url(#clip641)" cx="1569.35" cy="287.111" r="10.8" fill="#00a8cb" fill-rule="evenodd" fill-opacity="1" stroke="#000000" stroke-opacity="1" stroke-width="3.2"/>
<circle clip-path="url(#clip641)" cx="1629.32" cy="287.111" r="10.8" fill="#00a8cb" fill-rule="evenodd" fill-opacity="1" stroke="#000000" stroke-opacity="1" stroke-width="3.2"/>
<circle clip-path="url(#clip641)" cx="1689.28" cy="287.111" r="10.8" fill="#00a8cb" fill-rule="evenodd" fill-opacity="1" stroke="#000000" stroke-opacity="1" stroke-width="3.2"/>
<circle clip-path="url(#clip641)" cx="1749.25" cy="287.111" r="10.8" fill="#00a8cb" fill-rule="evenodd" fill-opacity="1" stroke="#000000" stroke-opacity="1" stroke-width="3.2"/>
<circle clip-path="url(#clip641)" cx="1809.22" cy="287.111" r="10.8" fill="#00a8cb" fill-rule="evenodd" fill-opacity="1" stroke="#000000" stroke-opacity="1" stroke-width="3.2"/>
<circle clip-path="url(#clip641)" cx="1869.18" cy="287.111" r="10.8" fill="#00a8cb" fill-rule="evenodd" fill-opacity="1" stroke="#000000" stroke-opacity="1" stroke-width="3.2"/>
<circle clip-path="url(#clip641)" cx="1389.45" cy="227.145" r="10.8" fill="#00a8cb" fill-rule="evenodd" fill-opacity="1" stroke="#000000" stroke-opacity="1" stroke-width="3.2"/>
<circle clip-path="url(#clip641)" cx="1449.42" cy="227.145" r="10.8" fill="#00a8cb" fill-rule="evenodd" fill-opacity="1" stroke="#000000" stroke-opacity="1" stroke-width="3.2"/>
<circle clip-path="url(#clip641)" cx="1509.38" cy="227.145" r="10.8" fill="#00a8cb" fill-rule="evenodd" fill-opacity="1" stroke="#000000" stroke-opacity="1" stroke-width="3.2"/>
<circle clip-path="url(#clip641)" cx="1569.35" cy="227.145" r="10.8" fill="#00a8cb" fill-rule="evenodd" fill-opacity="1" stroke="#000000" stroke-opacity="1" stroke-width="3.2"/>
<circle clip-path="url(#clip641)" cx="1629.32" cy="227.145" r="10.8" fill="#00a8cb" fill-rule="evenodd" fill-opacity="1" stroke="#000000" stroke-opacity="1" stroke-width="3.2"/>
<circle clip-path="url(#clip641)" cx="1689.28" cy="227.145" r="10.8" fill="#00a8cb" fill-rule="evenodd" fill-opacity="1" stroke="#000000" stroke-opacity="1" stroke-width="3.2"/>
<circle clip-path="url(#clip641)" cx="1749.25" cy="227.145" r="10.8" fill="#00a8cb" fill-rule="evenodd" fill-opacity="1" stroke="#000000" stroke-opacity="1" stroke-width="3.2"/>
<circle clip-path="url(#clip641)" cx="1809.22" cy="227.145" r="10.8" fill="#00a8cb" fill-rule="evenodd" fill-opacity="1" stroke="#000000" stroke-opacity="1" stroke-width="3.2"/>
<circle clip-path="url(#clip641)" cx="1869.18" cy="227.145" r="10.8" fill="#00a8cb" fill-rule="evenodd" fill-opacity="1" stroke="#000000" stroke-opacity="1" stroke-width="3.2"/>
<circle clip-path="url(#clip641)" cx="1449.42" cy="167.178" r="10.8" fill="#00a8cb" fill-rule="evenodd" fill-opacity="1" stroke="#000000" stroke-opacity="1" stroke-width="3.2"/>
<circle clip-path="url(#clip641)" cx="1509.38" cy="167.178" r="10.8" fill="#00a8cb" fill-rule="evenodd" fill-opacity="1" stroke="#000000" stroke-opacity="1" stroke-width="3.2"/>
<circle clip-path="url(#clip641)" cx="1569.35" cy="167.178" r="10.8" fill="#00a8cb" fill-rule="evenodd" fill-opacity="1" stroke="#000000" stroke-opacity="1" stroke-width="3.2"/>
<circle clip-path="url(#clip641)" cx="1629.32" cy="167.178" r="10.8" fill="#00a8cb" fill-rule="evenodd" fill-opacity="1" stroke="#000000" stroke-opacity="1" stroke-width="3.2"/>
<circle clip-path="url(#clip641)" cx="1689.28" cy="167.178" r="10.8" fill="#00a8cb" fill-rule="evenodd" fill-opacity="1" stroke="#000000" stroke-opacity="1" stroke-width="3.2"/>
<circle clip-path="url(#clip641)" cx="1749.25" cy="167.178" r="10.8" fill="#00a8cb" fill-rule="evenodd" fill-opacity="1" stroke="#000000" stroke-opacity="1" stroke-width="3.2"/>
<circle clip-path="url(#clip641)" cx="1809.22" cy="167.178" r="10.8" fill="#00a8cb" fill-rule="evenodd" fill-opacity="1" stroke="#000000" stroke-opacity="1" stroke-width="3.2"/>
</svg>
